<?xml version="1.0" encoding="UTF-8" standalone="no"?><!-- Generator: Gravit.io --><svg xmlns="http://www.w3.org/2000/svg" xmlns:xlink="http://www.w3.org/1999/xlink" style="isolation:isolate" viewBox="385.593 488.313 253.814 253.814" width="253.814pt" height="253.814pt"><g><path d="M 390.59 488.31 L 634.41 488.31 C 637.17 488.31 639.41 490.55 639.41 493.31 L 639.41 737.13 C 639.41 739.89 637.17 742.13 634.41 742.13 L 390.59 742.13 C 387.83 742.13 385.59 739.89 385.59 737.13 L 385.59 493.31 C 385.59 490.55 387.83 488.31 390.59 488.31 Z" style="stroke:none;fill:#EBEBEB;stroke-miterlimit:10;"/><clipPath id="_clipPath_eldMFcaKGrI4rOyWQYuGJnu8mewE8l2g"><path d="M 390.59 488.31 L 634.41 488.31 C 637.17 488.31 639.41 490.55 639.41 493.31 L 639.41 737.13 C 639.41 739.89 637.17 742.13 634.41 742.13 L 390.59 742.13 C 387.83 742.13 385.59 739.89 385.59 737.13 L 385.59 493.31 C 385.59 490.55 387.83 488.31 390.59 488.31 Z" style="stroke:none;fill:#FFFFFF;stroke-miterlimit:10;"/></clipPath><g clip-path="url(#_clipPath_eldMFcaKGrI4rOyWQYuGJnu8mewE8l2g)"><g><g><line x1="443.709" y1="742.127" x2="443.709" y2="488.313" vector-effect="non-scaling-stroke" stroke-width="1" stroke="rgb(0,0,0)" stroke-opacity="0.1" stroke-linejoin="miter" stroke-linecap="square" stroke-miterlimit="3"/><line x1="512.291" y1="742.127" x2="512.291" y2="488.313" vector-effect="non-scaling-stroke" stroke-width="1" stroke="rgb(0,0,0)" stroke-opacity="0.1" stroke-linejoin="miter" stroke-linecap="square" stroke-miterlimit="3"/><line x1="581.291" y1="742.127" x2="581.291" y2="488.313" vector-effect="non-scaling-stroke" stroke-width="1" stroke="rgb(0,0,0)" stroke-opacity="0.1" stroke-linejoin="miter" stroke-linecap="square" stroke-miterlimit="3"/></g><g><g opacity="0.5"><line x1="385.593" y1="572.918" x2="639.407" y2="572.918" vector-effect="non-scaling-stroke" stroke-width="1" stroke="rgb(0,0,0)" stroke-opacity="0.1" stroke-linejoin="miter" stroke-linecap="square" stroke-miterlimit="3"/></g><g opacity="0.5"><line x1="385.593" y1="657.522" x2="639.407" y2="657.522" vector-effect="non-scaling-stroke" stroke-width="1" stroke="rgb(0,0,0)" stroke-opacity="0.1" stroke-linejoin="miter" stroke-linecap="square" stroke-miterlimit="3"/></g></g><path d=" M 385.593 607.644 L 444 535.957 L 513 616.448 L 582 502 L 639.407 513.319" fill="none" vector-effect="non-scaling-stroke" stroke-width="5" stroke="rgb(145,17,27)" stroke-linejoin="miter" stroke-linecap="square" stroke-miterlimit="3"/><path d=" M 385.593 708.196 L 444 676.816 L 513 709 L 582 642.859 L 639.407 629.025" fill="none" vector-effect="non-scaling-stroke" stroke-width="5" stroke="rgb(22,116,185)" stroke-linejoin="miter" stroke-linecap="square" stroke-miterlimit="3"/><path d=" M 385.593 695.681 L 444 636.571 L 513 687.908 L 582 527.153 L 639.407 538.472" fill="none" vector-effect="non-scaling-stroke" stroke-width="5" stroke="rgb(97,44,71)" stroke-linejoin="miter" stroke-linecap="square" stroke-miterlimit="3"/><circle vector-effect="non-scaling-stroke" cx="442.9999999999999" cy="538.1533742331287" r="11" fill="rgb(145,17,27)"/><circle vector-effect="non-scaling-stroke" cx="512.9999999999999" cy="618.1533742331287" r="11" fill="rgb(145,17,27)"/><circle vector-effect="non-scaling-stroke" cx="582.9999999999999" cy="505.1533742331286" r="11" fill="rgb(145,17,27)"/><circle vector-effect="non-scaling-stroke" cx="442.99999999999983" cy="640.1533742331287" r="11" fill="rgb(97,44,71)"/><circle vector-effect="non-scaling-stroke" cx="512.9999999999999" cy="685.1533742331287" r="11" fill="rgb(97,44,71)"/><circle vector-effect="non-scaling-stroke" cx="582.9999999999999" cy="530.1533742331286" r="11" fill="rgb(97,44,71)"/><circle vector-effect="non-scaling-stroke" cx="442.99999999999983" cy="678.1533742331287" r="11" fill="rgb(22,116,185)"/><circle vector-effect="non-scaling-stroke" cx="512.9999999999999" cy="709.1533742331285" r="11" fill="rgb(22,116,185)"/><circle vector-effect="non-scaling-stroke" cx="582.9999999999999" cy="645.1533742331286" r="11" fill="rgb(22,116,185)"/></g></g></g></svg>