<?xml version="1.0" encoding="UTF-8" standalone="no"?><!-- Generator: Gravit.io --><svg xmlns="http://www.w3.org/2000/svg" xmlns:xlink="http://www.w3.org/1999/xlink" style="isolation:isolate" viewBox="703.686 488.313 253.814 253.814" width="253.814pt" height="253.814pt"><g><path d="M 708.69 488.31 L 952.5 488.31 C 955.26 488.31 957.5 490.55 957.5 493.31 L 957.5 737.13 C 957.5 739.89 955.26 742.13 952.5 742.13 L 708.69 742.13 C 705.93 742.13 703.69 739.89 703.69 737.13 L 703.69 493.31 C 703.69 490.55 705.93 488.31 708.69 488.31 Z" style="stroke:none;fill:#EBEBEB;stroke-miterlimit:10;"/><clipPath id="_clipPath_y69yOoUpKCfcrWM7h5JAHjYr1wcqf7Ej"><path d="M 708.69 488.31 L 952.5 488.31 C 955.26 488.31 957.5 490.55 957.5 493.31 L 957.5 737.13 C 957.5 739.89 955.26 742.13 952.5 742.13 L 708.69 742.13 C 705.93 742.13 703.69 739.89 703.69 737.13 L 703.69 493.31 C 703.69 490.55 705.93 488.31 708.69 488.31 Z" style="stroke:none;fill:#FFFFFF;stroke-miterlimit:10;"/></clipPath><g clip-path="url(#_clipPath_y69yOoUpKCfcrWM7h5JAHjYr1wcqf7Ej)"><g><g><line x1="761.802" y1="742.127" x2="761.802" y2="488.313" vector-effect="non-scaling-stroke" stroke-width="1" stroke="rgb(0,0,0)" stroke-opacity="0.1" stroke-linejoin="miter" stroke-linecap="square" stroke-miterlimit="3"/><line x1="830.384" y1="742.127" x2="830.384" y2="488.313" vector-effect="non-scaling-stroke" stroke-width="1" stroke="rgb(0,0,0)" stroke-opacity="0.1" stroke-linejoin="miter" stroke-linecap="square" stroke-miterlimit="3"/><line x1="899.384" y1="742.127" x2="899.384" y2="488.313" vector-effect="non-scaling-stroke" stroke-width="1" stroke="rgb(0,0,0)" stroke-opacity="0.1" stroke-linejoin="miter" stroke-linecap="square" stroke-miterlimit="3"/></g><g><g opacity="0.5"><line x1="703.686" y1="572.918" x2="957.5" y2="572.918" vector-effect="non-scaling-stroke" stroke-width="1" stroke="rgb(0,0,0)" stroke-opacity="0.1" stroke-linejoin="miter" stroke-linecap="square" stroke-miterlimit="3"/></g><g opacity="0.5"><line x1="703.686" y1="657.522" x2="957.5" y2="657.522" vector-effect="non-scaling-stroke" stroke-width="1" stroke="rgb(0,0,0)" stroke-opacity="0.1" stroke-linejoin="miter" stroke-linecap="square" stroke-miterlimit="3"/></g></g><path d=" M 693.686 617.644 L 762.093 535.957 L 831.093 616.448 L 900.093 502 L 967.5 513.319 L 957.5 746 L 693.686 746 L 693.686 617.644 Z " fill="rgb(145,17,27)" fill-opacity="0.5" vector-effect="non-scaling-stroke" stroke-width="5" stroke="rgb(145,17,27)" stroke-linejoin="miter" stroke-linecap="square" stroke-miterlimit="3"/><path d=" M 693.686 695.681 L 762.093 636.571 L 831.093 687.908 L 900.093 527.153 L 967.5 538.472 L 957.5 746 L 693.686 746 L 693.686 695.681 Z " fill="rgb(97,44,71)" fill-opacity="0.5" vector-effect="non-scaling-stroke" stroke-width="5" stroke="rgb(97,44,71)" stroke-linejoin="miter" stroke-linecap="square" stroke-miterlimit="3"/><path d=" M 693.686 708.196 L 762.093 676.816 L 831.093 709 L 900.093 642.859 L 967.5 629.025 L 967.5 746 L 693.686 746 L 693.686 708.196 Z " fill="rgb(22,116,185)" fill-opacity="0.5" vector-effect="non-scaling-stroke" stroke-width="5" stroke="rgb(22,116,185)" stroke-linejoin="miter" stroke-linecap="square" stroke-miterlimit="3"/><circle vector-effect="non-scaling-stroke" cx="761.0932203389815" cy="538.1533742331287" r="11" fill="rgb(145,17,27)"/><circle vector-effect="non-scaling-stroke" cx="831.0932203389815" cy="618.1533742331287" r="11" fill="rgb(145,17,27)"/><circle vector-effect="non-scaling-stroke" cx="901.0932203389815" cy="505.1533742331286" r="11" fill="rgb(145,17,27)"/><circle vector-effect="non-scaling-stroke" cx="761.0932203389814" cy="640.1533742331287" r="11" fill="rgb(97,44,71)"/><circle vector-effect="non-scaling-stroke" cx="831.0932203389815" cy="685.1533742331287" r="11" fill="rgb(97,44,71)"/><circle vector-effect="non-scaling-stroke" cx="901.0932203389815" cy="530.1533742331286" r="11" fill="rgb(97,44,71)"/><circle vector-effect="non-scaling-stroke" cx="761.0932203389814" cy="678.1533742331287" r="11" fill="rgb(22,116,185)"/><circle vector-effect="non-scaling-stroke" cx="831.0932203389815" cy="709.1533742331285" r="11" fill="rgb(22,116,185)"/><circle vector-effect="non-scaling-stroke" cx="901.0932203389815" cy="645.1533742331286" r="11" fill="rgb(22,116,185)"/></g></g></g></svg>