<?xml version="1.0" encoding="UTF-8" standalone="no"?><!-- Generator: Gravit.io --><svg xmlns="http://www.w3.org/2000/svg" xmlns:xlink="http://www.w3.org/1999/xlink" style="isolation:isolate" viewBox="704.581 1345.061 253.814 253.814" width="253.814pt" height="253.814pt"><g><path d="M 709.58 1345.06 L 953.39 1345.06 C 956.15 1345.06 958.39 1347.3 958.39 1350.06 L 958.39 1593.87 C 958.39 1596.63 956.15 1598.87 953.39 1598.87 L 709.58 1598.87 C 706.82 1598.87 704.58 1596.63 704.58 1593.87 L 704.58 1350.06 C 704.58 1347.3 706.82 1345.06 709.58 1345.06 Z" style="stroke:none;fill:#EBEBEB;stroke-miterlimit:10;"/><clipPath id="_clipPath_VYotFFFVjBxPtK8tFHUbfwLXbfsSeGPo"><path d="M 709.58 1345.06 L 953.39 1345.06 C 956.15 1345.06 958.39 1347.3 958.39 1350.06 L 958.39 1593.87 C 958.39 1596.63 956.15 1598.87 953.39 1598.87 L 709.58 1598.87 C 706.82 1598.87 704.58 1596.63 704.58 1593.87 L 704.58 1350.06 C 704.58 1347.3 706.82 1345.06 709.58 1345.06 Z" style="stroke:none;fill:#FFFFFF;stroke-miterlimit:10;"/></clipPath><g clip-path="url(#_clipPath_VYotFFFVjBxPtK8tFHUbfwLXbfsSeGPo)"><g><path d=" M 827.747 1310.439 C 827.956 1310.565 828.179 1310.599 828.361 1310.613 C 829.338 1310.677 830.931 1310.292 831.967 1309.978 C 831.905 1309.912 831.846 1309.873 831.805 1309.852 C 831.735 1309.849 831.663 1309.849 831.592 1309.845 C 828.918 1309.78 828.028 1310.213 827.747 1310.439 Z " fill="rgb(22,116,185)"/><path d=" M 828.177 1311.662 C 828.027 1311.658 827.879 1311.652 827.73 1311.643 C 826.924 1311.585 825.83 1311.383 825.191 1310.752 C 825.145 1310.709 825.1 1310.664 825.055 1310.621 C 825.076 1310.569 825.097 1310.521 825.119 1310.47 C 825.382 1309.858 827.11 1308.715 831.764 1308.808 C 832.173 1308.788 832.69 1308.813 833.178 1308.934 C 833.95 1309.125 834.449 1309.499 834.66 1310.042 C 834.698 1310.138 834.736 1310.235 834.773 1310.332 C 834.586 1310.399 834.399 1310.464 834.211 1310.531 C 833.856 1310.658 830.837 1311.715 828.177 1311.662 Z " fill="rgb(22,116,185)"/><path d=" M 788.816 1304.352 C 788.787 1304.394 788.79 1304.412 788.79 1304.412 C 788.822 1304.412 788.955 1304.418 789.096 1304.421 C 790.661 1303.984 792.228 1303.551 793.8 1303.123 C 796.218 1303.083 798.639 1303.054 801.06 1303.038 C 801.645 1303.311 802.229 1303.587 802.813 1303.862 C 805.085 1303.857 807.359 1303.863 809.634 1303.879 C 809.855 1303.799 810.077 1303.719 810.299 1303.639 C 811.175 1301.908 807.804 1301.455 807.405 1301.41 C 798.72 1300.784 790.325 1303.764 788.816 1304.352 Z " fill="rgb(22,116,185)"/><path d=" M 810.637 1305.782 C 806.76 1305.768 802.443 1306.586 802.395 1306.6 C 794.799 1307.417 787.937 1312.804 787.882 1312.864 C 787.775 1312.923 787.669 1312.982 787.563 1313.041 C 787.636 1313.139 788.798 1313.372 789.968 1313.498 C 790.694 1313.367 792.514 1312.425 793.834 1311.491 C 794.222 1311.089 794.61 1310.688 794.998 1310.289 C 796.129 1309.617 797.263 1308.946 798.4 1308.28 C 799.605 1307.857 800.812 1307.438 802.021 1307.024 C 803.463 1306.873 804.908 1306.724 806.353 1306.581 C 808.547 1306.576 810.744 1306.579 812.941 1306.589 C 812.734 1307.239 812.528 1307.892 812.323 1308.543 C 811.754 1308.75 811.185 1308.961 810.618 1309.169 C 810.992 1309.348 811.366 1309.531 811.741 1309.711 C 812.188 1309.713 812.636 1309.713 813.083 1309.715 C 814.191 1309.114 815.303 1308.514 816.418 1307.919 C 817.94 1307.792 819.462 1307.672 820.987 1307.553 C 821.405 1307.406 821.825 1307.256 822.245 1307.109 C 821.455 1306.723 820.664 1306.339 819.872 1305.954 C 819.334 1305.947 818.796 1305.939 818.258 1305.935 C 816.162 1305.891 814.068 1305.851 811.975 1305.822 C 811.54 1305.798 811.092 1305.785 810.637 1305.782 Z " fill="rgb(22,116,185)"/><path d=" M 789.547 1314.597 C 789.441 1314.592 789.334 1314.59 789.229 1314.585 C 788.041 1314.472 785.252 1314.139 784.998 1313.35 C 784.94 1313.165 784.977 1312.808 785.82 1312.416 C 786.809 1311.632 793.738 1306.492 801.869 1305.624 C 801.873 1305.615 804.264 1305.155 807.227 1304.904 C 805.294 1304.899 803.362 1304.898 801.43 1304.907 C 800.849 1304.633 800.268 1304.358 799.686 1304.087 C 797.866 1304.103 796.046 1304.127 794.228 1304.154 C 792.662 1304.581 791.099 1305.016 789.539 1305.452 C 789.425 1305.457 789.311 1305.462 789.197 1305.467 C 788.882 1305.481 787.297 1305.534 786.581 1305.077 C 786.275 1304.88 786.037 1304.53 786.651 1303.967 C 786.764 1303.901 786.878 1303.832 786.991 1303.766 C 787.392 1303.588 797.34 1299.606 808.262 1300.409 C 810.474 1300.654 814.084 1301.705 812.652 1303.95 C 812.614 1304.011 812.577 1304.069 812.54 1304.127 C 811.966 1304.332 811.394 1304.538 810.821 1304.743 C 811.352 1304.734 811.952 1304.759 812.502 1304.791 C 815.413 1304.827 818.327 1304.874 821.243 1304.938 C 822.769 1305.678 824.291 1306.424 825.81 1307.172 C 824.523 1307.617 823.239 1308.066 821.958 1308.517 C 820.537 1308.626 819.117 1308.739 817.699 1308.857 C 816.508 1309.493 815.322 1310.132 814.139 1310.772 C 812.882 1310.767 811.626 1310.765 810.37 1310.764 C 809.269 1310.231 808.166 1309.701 807.062 1309.171 C 808.021 1308.814 808.981 1308.458 809.944 1308.103 C 809.995 1307.944 810.045 1307.784 810.096 1307.625 C 808.788 1307.621 807.481 1307.625 806.175 1307.629 C 805.093 1307.742 804.012 1307.855 802.932 1307.972 C 801.951 1308.309 800.972 1308.647 799.994 1308.988 C 799.025 1309.569 798.06 1310.148 797.097 1310.73 C 796.749 1311.095 796.402 1311.461 796.055 1311.826 C 794.839 1312.694 792.011 1314.529 789.547 1314.597 Z " fill="rgb(22,116,185)"/><path d=" M 807.87 1313.618 C 808.075 1313.735 808.298 1313.796 808.537 1313.804 C 809.229 1313.834 810.253 1313.482 810.646 1313.314 C 810.783 1313.271 810.92 1313.229 811.058 1313.187 C 812.13 1312.959 813.202 1312.738 814.276 1312.518 C 814.255 1312.506 814.234 1312.497 814.213 1312.484 C 810.347 1312.529 808.549 1313.249 807.87 1313.618 Z " fill="rgb(22,116,185)"/><path d=" M 808.285 1314.875 C 808.192 1314.875 808.099 1314.876 808.007 1314.87 C 807.164 1314.843 805.999 1314.663 805.227 1313.944 C 805.153 1313.876 805.079 1313.808 805.005 1313.736 C 805.088 1313.66 805.17 1313.585 805.254 1313.506 C 805.347 1313.425 807.606 1311.392 815.054 1311.427 C 815.228 1311.427 815.402 1311.427 815.575 1311.431 C 816.513 1311.887 817.45 1312.347 818.386 1312.806 C 816.307 1313.222 814.234 1313.647 812.165 1314.081 C 811.595 1314.308 810.015 1314.87 808.285 1314.875 Z " fill="rgb(22,116,185)"/><path d=" M 844.142 1269.99 C 844.614 1270.217 845.085 1270.442 845.557 1270.666 C 846.445 1270.514 847.335 1270.363 848.225 1270.212 C 846.864 1270.136 845.503 1270.062 844.142 1269.99 Z " fill="rgb(22,116,185)"/><path d=" M 878.114 1278.892 C 878.637 1278.937 879.16 1278.982 879.684 1279.027 C 879.88 1278.493 880.077 1277.957 880.275 1277.424 C 876.93 1275.859 872.078 1275.721 872.035 1275.723 C 871.229 1275.705 870.424 1275.688 869.619 1275.67 C 869.643 1275.754 869.655 1275.83 869.653 1275.899 C 869.651 1275.976 869.65 1276.049 869.648 1276.122 C 868.886 1276.311 868.125 1276.5 867.364 1276.693 C 867.24 1277.025 867.116 1277.362 866.993 1277.695 C 867.629 1277.704 868.264 1277.717 868.901 1277.726 C 869.589 1277.623 870.278 1277.521 870.966 1277.418 C 872.552 1277.543 874.139 1277.672 875.725 1277.808 C 876.522 1278.167 877.318 1278.53 878.114 1278.892 Z " fill="rgb(22,116,185)"/><path d=" M 852.346 1578.101 C 854.344 1577.945 856.345 1577.801 858.349 1577.665 C 858.717 1577.312 859.085 1576.959 859.455 1576.606 C 861.186 1576.495 862.919 1576.391 864.654 1576.294 C 862.573 1575.402 860.486 1574.516 858.392 1573.638 C 856.234 1573.058 854.073 1572.486 851.906 1571.925 C 849.668 1570.892 847.421 1569.868 845.167 1568.851 C 845.137 1568.026 845.11 1567.199 845.083 1566.373 C 844.155 1565.676 843.225 1564.981 842.294 1564.286 C 842.254 1563.001 842.216 1561.713 842.182 1560.431 C 843.444 1558.503 844.726 1556.586 846.028 1554.675 C 845.612 1552.837 845.2 1550.998 844.79 1549.159 C 843.154 1547.956 841.513 1546.757 839.865 1545.559 C 841.164 1543.69 842.481 1541.829 843.817 1539.976 C 844.145 1539.29 844.474 1538.609 844.806 1537.925 C 844.809 1537.053 844.812 1536.183 844.818 1535.313 C 844.299 1534.25 843.779 1533.187 843.259 1532.123 C 841.809 1531.059 840.112 1529.551 840.939 1528.149 C 841.72 1526.828 844.026 1526.763 844.48 1526.769 C 844.631 1526.769 844.781 1526.77 844.931 1526.77 C 845.036 1526.845 845.141 1526.92 845.246 1526.994 C 845.909 1527.468 846.585 1527.692 847.258 1527.657 C 847.269 1527.655 847.281 1527.653 847.293 1527.651 C 848.02 1527.602 848.652 1527.274 849.016 1527.04 C 849.034 1526.035 849.054 1525.03 849.076 1524.027 C 848.481 1523.478 848.191 1522.818 848.235 1522.092 C 848.349 1520.144 850.823 1518.373 851.107 1518.179 C 851.227 1518.096 851.347 1518.016 851.467 1517.933 C 855.245 1517.777 859.03 1517.658 862.822 1517.572 C 863.334 1517.196 863.846 1516.824 864.359 1516.452 C 864.425 1514.739 864.498 1513.026 864.575 1511.314 C 863.256 1509.924 861.932 1508.535 860.603 1507.147 C 860.607 1507.055 860.612 1506.96 860.616 1506.868 C 860.675 1505.645 861.182 1504.75 862.123 1504.211 C 863.202 1503.591 864.381 1503.724 864.509 1503.738 C 864.632 1503.754 864.754 1503.772 864.876 1503.787 C 865.738 1504.402 866.597 1505.02 867.455 1505.637 C 870.851 1505.355 874.255 1505.101 877.67 1504.871 C 881.156 1501.381 884.724 1497.936 888.374 1494.542 C 888.476 1492.539 888.584 1490.539 888.699 1488.538 C 890.555 1487.437 892.424 1486.344 894.306 1485.26 C 894.551 1482.543 894.808 1479.831 895.08 1477.119 C 897.017 1476.059 898.966 1475.014 900.929 1473.978 C 902.803 1473.417 904.684 1472.87 906.572 1472.328 C 908.443 1472.068 910.318 1471.817 912.198 1471.571 C 915.883 1471.342 919.58 1471.142 923.288 1470.974 C 924.908 1469.671 926.542 1468.381 928.188 1467.099 C 928.037 1465.764 927.887 1464.428 927.738 1463.093 C 928.627 1462.687 929.519 1462.282 930.412 1461.881 C 930.335 1460.516 930.259 1459.148 930.184 1457.784 C 931.033 1457.408 931.885 1457.033 932.74 1456.659 C 933.225 1453.41 933.729 1450.163 934.249 1446.923 C 935.153 1446.039 936.06 1445.161 936.972 1444.288 C 939.065 1443.438 941.169 1442.6 943.285 1441.773 C 943.803 1441.152 944.322 1440.534 944.844 1439.915 C 946.153 1439.412 947.467 1438.911 948.784 1438.419 C 950.008 1437.867 951.236 1437.316 952.468 1436.774 C 952.767 1434.99 953.071 1433.21 953.381 1431.43 C 952.759 1430.172 952.135 1428.917 951.509 1427.657 C 948.84 1426.906 946.169 1426.165 943.493 1425.438 C 941.395 1423.95 939.287 1422.472 937.171 1420.997 C 934.616 1420.339 932.059 1419.693 929.5 1419.056 C 923.672 1418.425 917.851 1417.855 912.037 1417.348 C 911.552 1416.243 911.066 1415.14 910.58 1414.034 C 909.185 1413.359 907.786 1412.69 906.386 1412.02 C 903.135 1411.98 899.889 1411.96 896.649 1411.962 C 895.78 1410.911 894.909 1409.859 894.036 1408.81 C 891.971 1408.671 889.907 1408.541 887.845 1408.42 C 888.839 1407.113 889.841 1405.809 890.851 1404.511 C 889.586 1403.67 888.317 1402.831 887.045 1401.995 C 886.194 1400.233 885.341 1398.474 884.484 1396.714 C 882.385 1395.978 880.282 1395.246 878.175 1394.523 C 873.907 1394.302 869.644 1394.114 865.386 1393.961 C 859.345 1390.312 853.244 1386.71 847.084 1383.154 C 847.167 1382.744 847.251 1382.333 847.336 1381.923 C 846.462 1381.906 845.588 1381.893 844.715 1381.88 C 844.084 1382.158 843.454 1382.437 842.825 1382.719 C 841.119 1382.64 839.413 1382.568 837.707 1382.502 C 831.573 1382.127 825.444 1381.822 819.321 1381.585 C 818.115 1380.921 816.907 1380.259 815.698 1379.6 C 813.722 1379.644 811.749 1379.693 809.778 1379.749 C 808.958 1380.154 808.139 1380.561 807.323 1380.968 C 807.326 1381.955 807.33 1382.94 807.335 1383.928 C 806.181 1384.51 805.03 1385.094 803.882 1385.682 C 802.598 1384.987 801.311 1384.295 800.022 1383.605 C 800.305 1382.451 800.591 1381.294 800.88 1380.142 C 801.817 1379.666 802.756 1379.194 803.698 1378.723 C 803.788 1378.278 803.878 1377.833 803.969 1377.389 C 803.005 1377.425 802.041 1377.46 801.077 1377.499 C 798.899 1378.591 796.733 1379.695 794.579 1380.814 C 794.405 1380.82 794.231 1380.83 794.056 1380.839 C 791.496 1380.967 788.766 1381.653 787.694 1381.948 C 786.656 1383.21 785.625 1384.475 784.602 1385.743 C 782.889 1386.315 781.181 1386.896 779.477 1387.486 C 778.036 1387.248 776.594 1387.013 775.152 1386.781 C 770.83 1387.11 766.516 1387.481 762.211 1387.885 C 760.026 1387.753 757.84 1387.624 755.654 1387.508 C 754.483 1386.274 753.31 1385.04 752.133 1383.808 C 752.596 1381.331 753.071 1378.86 753.561 1376.391 C 754.027 1375.386 754.497 1374.378 754.97 1373.375 C 754.312 1373.055 753.653 1372.737 752.994 1372.42 C 750.633 1372.544 748.273 1372.68 745.916 1372.823 C 744.847 1373.445 743.78 1374.071 742.718 1374.695 C 740.831 1374.697 738.944 1374.705 737.057 1374.717 C 737.203 1373.987 737.35 1373.255 737.499 1372.523 C 737.21 1371.796 736.921 1371.069 736.632 1370.342 C 738.298 1369.361 739.971 1368.39 741.653 1367.422 C 742.961 1366.093 744.278 1364.773 745.605 1363.456 C 746.245 1362.561 746.887 1361.67 747.532 1360.781 C 746.959 1360.513 746.384 1360.245 745.81 1359.98 C 742.694 1360.3 739.583 1360.639 736.477 1360.997 C 735.62 1361.887 734.767 1362.778 733.919 1363.672 C 730.8 1365.46 727.706 1367.276 724.639 1369.116 C 719.243 1371.025 714.185 1370.675 713.966 1370.659 C 713.847 1370.632 713.728 1370.608 713.609 1370.581 C 711.446 1369.687 709.278 1368.797 707.104 1367.915 C 706.809 1366.88 706.515 1365.842 706.222 1364.805 C 706.636 1362.868 707.059 1360.931 707.491 1358.998 C 708.693 1357.9 709.901 1356.808 711.116 1355.718 C 711.971 1354.144 712.835 1352.572 713.707 1351.005 C 715.121 1349.674 716.544 1348.352 717.976 1347.036 C 720.802 1346.056 723.639 1345.097 726.487 1344.156 C 730.018 1342.882 733.569 1341.637 737.138 1340.419 C 739.719 1340.888 742.297 1341.369 744.872 1341.861 C 746.668 1341.694 748.466 1341.53 750.265 1341.374 C 752.484 1340.246 754.716 1339.126 756.958 1338.022 C 758.815 1337.88 760.674 1337.745 762.534 1337.615 C 764.043 1337.886 765.552 1338.159 767.059 1338.435 C 769.696 1338.361 772.334 1338.303 774.974 1338.257 C 776.582 1339.019 778.186 1339.786 779.787 1340.555 C 779.257 1342.604 778.736 1344.656 778.225 1346.71 C 778.773 1348.161 779.728 1348.363 780.118 1348.385 C 780.797 1348.416 781.658 1348.074 782.099 1347.863 C 782.47 1347.397 782.842 1346.928 783.215 1346.463 C 783.616 1344.856 784.023 1343.251 784.435 1341.649 C 783.935 1340.423 783.436 1339.194 782.936 1337.968 C 784.63 1336.579 786.336 1335.199 788.053 1333.827 C 789.377 1333.247 790.705 1332.668 792.036 1332.095 C 793.988 1331.802 795.943 1331.521 797.901 1331.244 C 800.099 1330.319 802.308 1329.404 804.526 1328.501 C 806.107 1328.479 807.688 1328.465 809.27 1328.451 C 811.78 1327.447 814.303 1326.455 816.839 1325.478 C 817.283 1323.93 817.732 1322.387 818.186 1320.843 C 819.228 1320.451 820.271 1320.063 821.316 1319.679 C 821.869 1319.955 822.421 1320.234 822.974 1320.51 C 822.986 1320.468 822.999 1320.426 823.011 1320.385 C 824.577 1319.414 826.151 1318.448 827.732 1317.487 C 829.839 1317.526 831.946 1317.571 834.055 1317.624 C 837.409 1316.62 840.78 1315.637 844.17 1314.679 C 847.452 1314.342 850.743 1314.026 854.042 1313.73 C 854.207 1313.197 854.373 1312.663 854.539 1312.13 C 854.689 1311.849 854.859 1310.576 879.48 1308.908 C 879.747 1308.891 880.014 1308.873 880.28 1308.859 C 881.342 1309.429 882.403 1310.002 883.462 1310.577 C 881.11 1310.977 878.764 1311.387 876.424 1311.807 C 876.392 1311.91 876.359 1312.014 876.327 1312.117 C 877.422 1312.201 878.519 1312.286 879.616 1312.371 C 881.295 1311.492 886.524 1311.025 888.963 1310.873 C 889.127 1310.873 889.291 1310.875 889.455 1310.878 C 895.711 1311.446 899.025 1311.032 900.079 1310.84 C 900.146 1310.627 900.213 1310.418 900.28 1310.208 C 896.997 1309.873 893.717 1309.553 890.439 1309.254 C 886.939 1308.938 886.023 1307.726 886.26 1306.985 C 886.282 1306.917 886.304 1306.849 886.326 1306.781 C 888.198 1306.287 890.075 1305.798 891.958 1305.315 C 892.381 1304.976 892.805 1304.633 893.23 1304.294 C 890.749 1304.056 888.269 1303.828 885.791 1303.611 C 885.858 1303.408 885.924 1303.205 885.991 1302.999 C 885.501 1302.938 884.904 1302.798 884.354 1302.503 C 883.968 1302.298 883.873 1302.06 884.094 1301.849 C 884.275 1301.684 884.812 1301.141 891.327 1301.011 C 891.452 1301.017 891.577 1301.02 891.702 1301.026 C 895.647 1301.402 899.595 1301.802 903.546 1302.226 C 905.461 1302.391 907.377 1302.566 909.294 1302.742 C 910.147 1302.84 911 1302.938 911.854 1303.037 C 913.529 1302.999 915.206 1302.962 916.885 1302.932 C 917.285 1302.982 917.686 1303.031 918.086 1303.081 C 919.491 1302.981 920.897 1302.883 922.304 1302.791 C 924.365 1303.055 926.426 1303.322 928.487 1303.599 C 930.539 1303.175 932.596 1302.759 934.659 1302.35 C 934.457 1301.737 934.255 1301.124 934.052 1300.511 C 931.643 1299.948 929.232 1299.394 926.82 1298.847 C 925.848 1297.591 924.873 1296.337 923.895 1295.082 C 924.082 1294.534 924.27 1293.987 924.458 1293.44 C 923.971 1292.706 923.483 1291.974 922.995 1291.24 C 923.178 1290.711 923.362 1290.185 923.546 1289.656 C 922.588 1289.53 921.631 1289.404 920.673 1289.282 C 916.455 1289.739 912.254 1290.232 908.073 1290.752 C 906.732 1290.027 905.389 1289.304 904.044 1288.58 C 904.386 1287.608 904.73 1286.635 905.076 1285.665 C 904.178 1283.977 896.983 1282.889 896.91 1282.888 C 893.557 1282.537 890.206 1282.204 886.857 1281.888 C 885.611 1282.175 884.366 1282.471 883.125 1282.764 C 878.34 1284.594 875.239 1285.367 874.002 1285.628 C 873.701 1286.476 873.401 1287.324 873.101 1288.173 C 872.587 1289.615 866.734 1290.487 866.07 1290.593 C 865.946 1290.604 865.823 1290.612 865.699 1290.623 C 854.941 1290.899 854.431 1292.195 854.422 1292.191 C 854.423 1292.225 854.424 1292.262 854.425 1292.296 C 854.389 1292.318 854.353 1292.339 854.318 1292.361 C 853.321 1293.225 852.327 1294.093 851.339 1294.961 C 849.46 1295.515 847.586 1296.076 845.718 1296.643 C 844.567 1296.588 843.415 1296.541 842.265 1296.49 C 840.685 1295.707 839.102 1294.922 837.516 1294.142 C 837.852 1294.041 838.188 1293.936 838.525 1293.831 C 840.265 1293.294 842.194 1291.334 843.271 1289.934 C 840.874 1289.826 838.479 1289.729 836.086 1289.639 C 835.979 1289.587 835.873 1289.535 835.767 1289.483 C 834.565 1288.894 827.632 1287.481 823.546 1286.774 C 818.271 1285.614 817.284 1283.064 817.126 1282.463 C 816.854 1282.273 816.802 1282.047 816.984 1281.812 C 818.025 1280.424 828.925 1278.598 832.259 1278.139 C 832.356 1278.123 832.452 1278.111 832.55 1278.095 C 833.23 1278.12 833.91 1278.148 834.591 1278.173 C 834.715 1277.837 834.84 1277.498 834.966 1277.159 C 837.593 1277.04 840.223 1276.932 842.858 1276.836 C 844.42 1276.398 845.987 1275.965 847.557 1275.537 C 849.707 1275.634 851.859 1275.738 854.012 1275.85 C 854.364 1275.759 854.718 1275.664 855.072 1275.57 C 856.824 1275.515 858.577 1275.466 860.333 1275.419 C 860.567 1274.794 860.801 1274.169 861.037 1273.545 C 862.502 1273.649 863.969 1273.754 865.436 1273.862 C 867.892 1274.042 869.016 1274.729 869.439 1275.318 C 871.585 1274.79 873.736 1274.273 875.895 1273.764 C 880.192 1274.128 884.492 1274.523 888.796 1274.944 C 891.226 1274.406 893.665 1273.878 896.111 1273.363 C 896.196 1273.137 896.281 1272.912 896.366 1272.687 C 893.138 1272.207 889.91 1271.742 886.683 1271.29 C 884.038 1271.871 881.402 1272.466 878.776 1273.075 C 877.285 1272.943 875.794 1272.815 874.304 1272.69 C 874.531 1272.089 874.76 1271.486 874.99 1270.886 C 869.876 1270.281 869.327 1268.984 869.304 1268.924 C 869.304 1268.884 869.304 1268.844 869.305 1268.803 C 869.556 1268.152 869.809 1267.498 870.061 1266.848 C 869.01 1266.763 867.959 1266.681 866.908 1266.599 C 864.696 1266.901 862.488 1267.212 860.285 1267.532 C 860.528 1267.652 860.77 1267.769 861.013 1267.889 C 860.81 1268.413 860.607 1268.937 860.406 1269.462 C 858.568 1269.921 856.736 1270.385 854.91 1270.855 C 853.715 1270.276 852.52 1269.696 851.322 1269.119 C 851.906 1268.969 852.491 1268.815 853.075 1268.665 C 850.557 1267.881 847.041 1268.252 845.67 1268.45 C 845.581 1268.68 845.491 1268.91 845.402 1269.144 C 847.29 1269.244 849.179 1269.35 851.068 1269.464 C 850.883 1269.945 850.699 1270.424 850.515 1270.906 C 848.59 1271.193 846.669 1271.488 844.751 1271.789 C 843.582 1271.227 842.412 1270.668 841.241 1270.112 C 838.154 1270.244 835.073 1270.394 831.998 1270.557 C 829.313 1270.082 826.627 1269.615 823.939 1269.158 C 820.022 1269.04 816.109 1268.946 812.2 1268.879 C 810.332 1269.452 808.468 1270.034 806.611 1270.621 C 805.767 1270.245 804.923 1269.865 804.077 1269.488 C 800.079 1269.456 796.086 1269.45 792.098 1269.469 C 791.066 1269.019 790.032 1268.572 788.997 1268.125 C 786.31 1267.581 783.621 1267.046 780.929 1266.524 C 777.611 1266.507 774.296 1266.507 770.984 1266.529 C 768.293 1266.349 765.601 1266.185 762.91 1266.029 C 761.139 1266.311 759.37 1266.598 757.605 1266.889 C 755.514 1266.982 753.425 1267.079 751.338 1267.183 C 746.534 1267.911 741.747 1268.684 736.979 1269.498 C 733.362 1269.628 729.748 1269.78 726.138 1269.956 C 723.193 1269.886 720.249 1269.83 717.306 1269.791 C 714.057 1269.823 710.81 1269.873 707.565 1269.94 C 704.689 1270.238 701.816 1270.551 698.948 1270.879 C 695.702 1270.792 692.457 1270.722 689.211 1270.671 C 685.791 1271.248 682.379 1271.844 678.975 1272.464 C 676.558 1273.031 674.146 1273.608 671.739 1274.197 C 668.744 1274.679 665.754 1275.177 662.769 1275.69 C 657.985 1277.148 653.224 1278.656 648.489 1280.209 C 645.336 1281.033 642.191 1281.878 639.054 1282.746 C 639.009 1282.868 638.965 1282.99 638.921 1283.112 C 639.831 1283.399 640.74 1283.686 641.649 1283.975 C 638.801 1285.178 635.964 1286.402 633.14 1287.641 C 632.959 1287.584 632.778 1287.527 632.597 1287.47 C 631.672 1287.177 624.211 1289.018 617.522 1291.144 C 617.356 1291.496 617.189 1291.851 617.024 1292.204 C 620.804 1291.529 625.783 1291.388 626.015 1291.383 C 626.529 1291.37 627.042 1291.358 627.556 1291.345 C 625.592 1292.501 623.636 1293.671 621.689 1294.848 C 615.352 1296.708 609.05 1298.65 602.785 1300.682 C 602.336 1302.037 601.891 1303.391 601.451 1304.75 C 599.848 1305.446 598.249 1306.15 596.653 1306.86 C 596.741 1307.162 596.828 1307.464 596.916 1307.767 C 598.873 1307.349 601.867 1306.93 602.254 1306.88 C 602.537 1306.84 602.82 1306.802 603.103 1306.762 C 602.948 1307.246 602.794 1307.727 602.641 1308.212 C 602.537 1308.752 602.081 1309.419 581.257 1318.22 C 581.239 1318.279 581.222 1318.336 581.204 1318.395 C 583.335 1317.659 585.471 1316.932 587.61 1316.216 C 593.703 1313.329 599.851 1310.536 606.053 1307.83 C 607.001 1307.59 607.949 1307.353 608.897 1307.116 C 608.733 1307.633 608.569 1308.15 608.406 1308.665 C 609.906 1308.29 611.408 1307.917 612.911 1307.551 C 613.424 1307.222 613.938 1306.891 614.453 1306.564 C 615.44 1306.256 616.428 1305.949 617.417 1305.642 C 617.509 1305.356 617.601 1305.07 617.694 1304.781 C 616.868 1304.526 616.04 1304.274 615.212 1304.022 C 619.831 1302.031 624.481 1300.089 629.161 1298.198 C 632.354 1297.504 635.552 1296.837 638.757 1296.186 C 640.497 1295.464 642.241 1294.751 643.989 1294.043 C 646.07 1293.42 648.157 1292.805 650.247 1292.199 C 652.808 1292.123 655.37 1292.056 657.932 1292.003 C 660.552 1291.543 663.176 1291.097 665.804 1290.663 C 667.402 1291.216 668.998 1291.768 670.591 1292.326 C 672.676 1292.181 674.762 1292.039 676.848 1291.908 C 678.298 1292.421 679.746 1292.937 681.192 1293.459 C 680.158 1293.995 679.126 1294.535 678.097 1295.077 C 678.831 1295.879 679.565 1296.681 680.297 1297.486 C 678.531 1298.418 676.772 1299.356 675.019 1300.304 C 674.218 1302.747 673.433 1305.194 672.664 1307.644 C 671.172 1307.894 669.681 1308.148 668.192 1308.403 C 667.957 1308.806 667.723 1309.21 667.49 1309.61 C 668.496 1309.968 669.501 1310.329 670.505 1310.69 C 671.519 1310.518 672.533 1310.345 673.548 1310.174 C 674.307 1309.484 675.07 1308.796 675.834 1308.112 C 677.708 1307.806 679.584 1307.508 681.463 1307.214 C 681.369 1307.966 681.277 1308.716 681.187 1309.465 C 679.973 1310.042 678.761 1310.623 677.553 1311.209 C 676.294 1311.91 675.039 1312.617 673.788 1313.326 C 671.763 1313.668 669.742 1314.018 667.722 1314.375 C 666.733 1315.283 665.748 1316.195 664.767 1317.109 C 662.988 1318.555 661.22 1320.013 659.465 1321.476 C 656.803 1323.087 654.159 1324.712 651.532 1326.357 C 650.807 1327.333 650.085 1328.311 649.367 1329.29 C 647.426 1330.523 645.495 1331.767 643.573 1333.018 C 643.043 1334.054 642.516 1335.094 641.993 1336.132 C 641.82 1336.803 641.647 1337.478 641.476 1338.15 C 641.904 1341.408 642.345 1344.666 642.8 1347.922 C 649.625 1348.635 649.908 1350.557 649.921 1350.771 C 649.536 1352.415 649.157 1354.062 648.784 1355.711 C 649.898 1356.678 651.009 1357.645 652.119 1358.614 C 651.53 1359.027 650.942 1359.438 650.355 1359.852 C 650.067 1361.152 649.784 1362.45 649.505 1363.75 C 650.786 1364.229 652.066 1364.71 653.344 1365.194 C 653.155 1366.087 652.967 1366.979 652.782 1367.873 C 654.052 1368.357 655.32 1368.84 656.587 1369.326 C 657.256 1369.172 657.925 1369.02 658.595 1368.866 C 658.198 1368.238 657.802 1367.606 657.405 1366.974 C 656.552 1366.647 655.697 1366.32 654.842 1365.993 C 655.223 1364.186 655.613 1362.377 656.011 1360.57 C 656.217 1359.635 654.343 1356.75 653.118 1355.161 C 653.101 1355.077 653.085 1354.993 653.068 1354.909 C 653.219 1354.252 653.371 1353.595 653.524 1352.942 C 653.734 1352.039 654.506 1351.401 655.117 1351.028 C 656.394 1350.247 657.827 1350.048 657.988 1350.026 C 658.112 1350.012 658.236 1349.994 658.359 1349.98 C 659.483 1350.401 660.607 1350.823 661.729 1351.247 C 661.779 1353.392 661.837 1355.537 661.902 1357.681 C 663.499 1358.814 665.092 1359.949 666.682 1361.086 C 666.557 1361.66 666.432 1362.231 666.309 1362.802 C 670.72 1363.366 675.46 1367.86 676.011 1368.4 C 676.044 1368.481 676.077 1368.562 676.109 1368.646 C 676.054 1369.666 676 1370.687 675.949 1371.705 C 675.018 1372.348 674.09 1372.996 673.165 1373.646 C 673.065 1374.15 672.965 1374.657 672.866 1375.165 C 672.598 1376.571 686.543 1378.444 699.856 1379.807 C 701.782 1379.466 703.711 1379.13 705.642 1378.805 C 706.666 1378.131 707.694 1377.458 708.725 1376.787 C 710.625 1376.479 712.528 1376.176 714.433 1375.88 C 717.214 1377.121 719.985 1378.372 722.746 1379.635 C 724.67 1379.804 726.593 1379.979 728.514 1380.163 C 731.246 1379.787 733.982 1379.425 736.722 1379.079 C 737.903 1379.636 739.082 1380.192 740.259 1380.75 C 740.122 1381.47 739.987 1382.187 739.852 1382.908 C 741.072 1383.488 742.29 1384.074 743.506 1384.659 C 743.35 1385.508 743.195 1386.358 743.042 1387.205 C 745.305 1388.297 747.562 1389.395 749.813 1390.498 C 752.025 1390.451 754.238 1390.41 756.451 1390.383 C 758.082 1390.531 759.712 1390.685 761.342 1390.843 C 762.249 1390.753 763.156 1390.666 764.064 1390.579 C 764.156 1390.055 764.25 1389.532 764.345 1389.008 C 764.479 1388.931 764.613 1388.851 764.747 1388.774 C 768.667 1386.488 773.136 1387.164 774.936 1387.84 C 775.085 1387.893 775.233 1387.949 775.382 1388.003 C 775.134 1389.356 774.89 1390.708 774.65 1392.062 C 775.055 1392.271 775.46 1392.481 775.864 1392.693 C 775.391 1395.377 774.934 1398.063 774.492 1400.757 C 774.359 1400.834 774.225 1400.915 774.091 1400.996 C 763.726 1407.189 758.914 1412.859 758.119 1413.795 C 757.974 1414.817 757.831 1415.839 757.691 1416.863 C 758.945 1417.515 760.196 1418.165 761.446 1418.818 C 761.026 1419.095 760.606 1419.376 760.187 1419.654 C 760.725 1420.222 759.532 1421.059 757.474 1422.453 C 756.033 1423.43 755.327 1424.236 755.424 1424.777 C 755.534 1425.401 756.705 1425.615 756.717 1425.616 C 756.951 1425.652 757.185 1425.688 757.419 1425.724 C 757.314 1426.569 757.211 1427.41 757.11 1428.256 C 765.756 1429.641 767.564 1437.69 767.651 1438.033 C 767.222 1442.362 773.983 1444.346 774.045 1444.375 C 774.184 1444.414 774.323 1444.457 774.461 1444.496 C 774.492 1444.596 774.521 1444.699 774.551 1444.799 C 775.821 1449.124 778.144 1451.126 778.743 1451.589 C 794.503 1454.316 798.521 1458.865 799.188 1459.692 C 800.16 1460.301 801.131 1460.909 802.1 1461.52 C 802.827 1462.705 803.553 1463.89 804.278 1465.078 C 804.493 1467.333 804.715 1469.591 804.943 1471.848 C 803.96 1472.557 802.982 1473.268 802.007 1473.983 C 801.931 1475.125 801.857 1476.271 801.786 1477.415 C 802.307 1477.734 802.828 1478.053 803.349 1478.372 C 803.023 1483.668 802.755 1488.972 802.543 1494.286 C 803.164 1495.473 803.785 1496.66 804.406 1497.847 C 804.346 1499.515 804.291 1501.186 804.243 1502.856 C 805.091 1503.398 805.937 1503.943 806.782 1504.488 C 806.701 1507.402 806.636 1510.317 806.589 1513.235 C 805.769 1513.936 804.953 1514.635 804.14 1515.342 C 804.113 1517.508 804.095 1519.677 804.086 1521.847 C 804.895 1522.38 805.702 1522.915 806.509 1523.446 C 806.504 1525.128 806.504 1526.812 806.511 1528.492 C 807.165 1528.929 807.818 1529.361 808.471 1529.797 C 808.474 1530.368 808.477 1530.943 808.481 1531.515 C 810.571 1532.922 812.652 1534.332 814.724 1535.751 C 814.736 1536.99 814.751 1538.228 814.769 1539.467 C 815.353 1539.87 815.937 1540.269 816.52 1540.672 C 816.55 1542.664 816.588 1544.659 816.633 1546.655 C 815.809 1547.448 814.989 1548.243 814.174 1549.043 C 816.308 1550.522 818.432 1552.007 820.546 1553.501 C 820.575 1554.462 820.605 1555.428 820.637 1556.391 C 821.815 1557.225 822.991 1558.061 824.163 1558.899 C 824.219 1560.526 824.281 1562.153 824.347 1563.781 C 825.581 1564.672 826.811 1565.565 828.038 1566.46 C 829.1 1566.339 830.163 1566.225 831.227 1566.111 C 831.768 1567.24 832.309 1568.37 832.85 1569.499 C 833.303 1569.836 833.756 1570.17 834.208 1570.507 C 836.334 1570.285 838.462 1570.074 840.593 1569.875 C 840.606 1570.206 840.619 1570.537 840.633 1570.865 C 842.531 1570.687 844.431 1570.52 846.334 1570.361 C 846.403 1572.266 846.479 1574.17 846.561 1576.077 C 848.454 1575.91 850.348 1575.757 852.244 1575.612 C 852.277 1576.441 852.311 1577.271 852.346 1578.101 Z " fill="rgb(22,116,185)"/><linearGradient id="_lgradient_0" x1="0.12017226691466433" y1="0.6250000000000022" x2="1.148778455010776" y2="0.6250000000000022" gradientTransform="matrix(369.641,157.424,-52.373,307.265,607.854,1148.127)" gradientUnits="userSpaceOnUse"><stop offset="2.083333333333333%" stop-opacity="1" style="stop-color:rgb(190,23,36)"/><stop offset="100%" stop-opacity="1" style="stop-color:rgb(85,81,129)"/></linearGradient><path d=" M 859.407 1579.696 C 856.286 1579.903 853.171 1580.136 850.062 1580.399 C 850.023 1579.564 849.986 1578.726 849.95 1577.892 C 848.058 1578.049 846.168 1578.214 844.282 1578.387 C 844.19 1576.472 844.106 1574.555 844.028 1572.639 C 842.13 1572.807 840.234 1572.986 838.341 1573.176 C 838.326 1572.844 838.311 1572.513 838.297 1572.181 C 836.635 1572.346 834.975 1572.514 833.317 1572.694 C 832.462 1572.014 831.604 1571.334 830.745 1570.656 C 830.378 1569.889 830.009 1569.125 829.642 1568.358 C 828.809 1568.449 827.976 1568.544 827.145 1568.639 C 825.438 1567.396 823.724 1566.156 822.004 1564.92 C 821.933 1563.283 821.867 1561.651 821.806 1560.019 C 820.633 1559.184 819.457 1558.351 818.278 1557.52 C 818.243 1556.552 818.21 1555.582 818.179 1554.616 C 815.728 1552.895 813.265 1551.178 810.788 1549.476 C 811.921 1548.351 813.063 1547.231 814.212 1546.12 C 814.179 1544.667 814.149 1543.215 814.124 1541.762 C 813.54 1541.362 812.955 1540.962 812.371 1540.562 C 812.35 1539.319 812.332 1538.073 812.317 1536.832 C 810.244 1535.416 808.162 1534.01 806.071 1532.609 C 806.065 1532.036 806.061 1531.461 806.056 1530.889 C 805.404 1530.453 804.75 1530.02 804.096 1529.587 C 804.085 1527.899 804.08 1526.209 804.08 1524.522 C 803.274 1523.987 802.467 1523.456 801.658 1522.927 C 801.662 1520.235 801.681 1517.545 801.713 1514.859 C 802.525 1514.151 803.341 1513.445 804.16 1512.744 C 804.198 1510.328 804.248 1507.911 804.311 1505.495 C 803.465 1504.954 802.619 1504.409 801.771 1503.867 C 801.821 1502.003 801.878 1500.138 801.941 1498.277 C 801.32 1497.089 800.698 1495.902 800.076 1494.715 C 800.273 1489.572 800.524 1484.439 800.828 1479.311 C 800.308 1478.993 799.787 1478.677 799.266 1478.357 C 799.362 1476.745 799.464 1475.131 799.572 1473.516 C 800.504 1472.83 801.44 1472.145 802.379 1471.461 C 802.181 1469.505 801.988 1467.551 801.8 1465.596 C 801.152 1464.565 800.501 1463.536 799.851 1462.508 C 798.887 1461.903 797.922 1461.297 796.955 1460.694 C 796.918 1460.692 793.725 1455.903 777.37 1453.135 C 777.231 1453.086 777.093 1453.037 776.955 1452.988 C 776.828 1452.901 773.807 1450.933 772.191 1445.739 C 770.545 1445.179 764.716 1442.942 765.178 1438.482 L 765.178 1438.482 C 765.145 1438.498 763.309 1430.558 755.289 1429.701 C 755.029 1429.675 754.769 1429.648 754.509 1429.621 C 754.613 1428.736 754.719 1427.849 754.826 1426.965 C 754.122 1426.745 753.114 1426.279 752.951 1425.368 C 752.837 1424.729 753.155 1424.006 753.901 1423.213 L 753.901 1423.213 C 755.234 1421.882 756.576 1420.555 757.929 1419.236 C 756.995 1418.751 756.06 1418.265 755.124 1417.783 C 755.341 1416.403 755.564 1415.021 755.79 1413.641 C 756.005 1413.408 760.642 1407.328 772.083 1400.395 C 772.462 1398.084 772.854 1395.776 773.256 1393.471 C 772.852 1393.262 772.448 1393.053 772.043 1392.844 C 772.274 1391.526 772.508 1390.214 772.747 1388.9 C 771.731 1388.625 769.175 1388.144 766.74 1389.364 C 766.598 1390.149 766.458 1390.935 766.32 1391.721 C 764.37 1391.891 762.423 1392.068 760.478 1392.252 C 758.851 1392.093 757.224 1391.937 755.596 1391.787 C 753.193 1391.824 750.791 1391.874 748.39 1391.939 C 745.755 1390.645 743.111 1389.362 740.458 1388.087 C 740.61 1387.236 740.764 1386.383 740.92 1385.53 C 739.704 1384.948 738.487 1384.366 737.267 1383.787 C 737.401 1383.065 737.536 1382.344 737.672 1381.621 C 736.928 1381.27 736.182 1380.919 735.437 1380.568 C 732.803 1380.892 730.173 1381.228 727.547 1381.579 C 725.358 1381.355 723.167 1381.136 720.976 1380.928 C 718.375 1379.743 715.767 1378.568 713.15 1377.4 C 711.925 1377.593 710.702 1377.79 709.479 1377.987 C 708.449 1378.659 707.421 1379.335 706.398 1380.01 C 703.862 1380.416 701.329 1380.833 698.801 1381.266 C 691.996 1380.491 669.891 1378.635 670.449 1375.683 C 670.585 1374.982 670.722 1374.286 670.861 1373.587 C 671.753 1372.957 672.648 1372.332 673.545 1371.707 C 673.584 1370.939 673.624 1370.171 673.665 1369.4 C 672.075 1367.881 667.625 1364.285 664.398 1364.185 C 664.17 1364.179 663.943 1364.17 663.716 1364.163 C 663.869 1363.447 664.024 1362.731 664.179 1362.016 C 662.618 1360.898 661.054 1359.786 659.485 1358.675 C 659.42 1356.564 659.362 1354.452 659.312 1352.341 C 658.534 1352.047 657.755 1351.755 656.976 1351.464 C 656.804 1351.511 656.593 1351.586 656.426 1351.689 C 656.105 1351.888 655.976 1352.192 655.925 1352.412 C 655.783 1353.016 655.642 1353.62 655.503 1354.225 C 656.208 1355.149 658.733 1358.596 658.414 1360.034 C 658.058 1361.65 657.707 1363.268 657.363 1364.886 C 658.132 1365.207 658.902 1365.528 659.67 1365.852 C 660.419 1367.04 661.167 1368.231 661.915 1369.421 C 659.711 1369.912 657.51 1370.417 655.313 1370.931 C 653.634 1370.286 651.953 1369.644 650.267 1369.01 C 650.453 1368.112 650.639 1367.216 650.828 1366.32 C 649.551 1365.836 648.272 1365.359 646.991 1364.884 C 647.348 1363.208 647.712 1361.531 648.083 1359.857 C 648.437 1359.609 648.791 1359.357 649.145 1359.109 C 648.201 1358.284 647.254 1357.461 646.307 1356.638 C 646.703 1354.895 647.106 1353.154 647.517 1351.414 C 647.517 1351.414 647.516 1351.417 647.515 1351.417 C 647.486 1351.428 647.041 1349.849 640.897 1349.289 C 640.754 1349.279 640.612 1349.265 640.47 1349.251 C 639.991 1345.774 639.529 1342.296 639.082 1338.818 C 639.267 1338.075 639.454 1337.329 639.642 1336.584 C 640.251 1335.364 640.864 1334.149 641.481 1332.932 C 643.447 1331.646 645.423 1330.367 647.408 1329.103 C 648.126 1328.12 648.848 1327.143 649.574 1326.164 C 652.325 1324.434 655.096 1322.725 657.886 1321.035 C 659.515 1319.666 661.155 1318.305 662.804 1316.95 C 664.046 1315.789 665.296 1314.63 666.551 1313.478 C 668.746 1313.087 670.943 1312.708 673.143 1312.336 C 674.164 1311.758 675.187 1311.184 676.213 1310.611 C 677.08 1310.192 677.949 1309.77 678.819 1309.353 C 678.845 1309.136 678.871 1308.919 678.898 1308.702 C 678.272 1308.801 677.647 1308.901 677.022 1309.003 C 676.257 1309.691 675.496 1310.38 674.736 1311.069 C 672.874 1311.38 671.013 1311.695 669.155 1312.017 C 667.709 1311.498 666.261 1310.982 664.81 1310.468 C 665.359 1309.518 665.911 1308.569 666.467 1307.618 C 667.848 1307.378 669.23 1307.141 670.614 1306.908 C 671.317 1304.678 672.033 1302.45 672.761 1300.228 C 674.313 1299.386 675.872 1298.547 677.435 1297.716 C 676.704 1296.915 675.973 1296.111 675.239 1295.312 C 676.086 1294.861 676.934 1294.414 677.784 1293.967 C 676.963 1293.674 676.141 1293.381 675.319 1293.091 C 673.232 1293.229 671.147 1293.374 669.062 1293.527 C 667.521 1292.988 665.978 1292.451 664.433 1291.921 C 661.947 1292.328 659.464 1292.746 656.984 1293.177 C 654.573 1293.23 652.161 1293.296 649.75 1293.37 C 647.944 1293.896 646.142 1294.426 644.342 1294.968 C 642.547 1295.703 640.756 1296.443 638.97 1297.192 C 635.654 1297.867 632.344 1298.561 629.042 1299.277 C 625.728 1300.634 622.429 1302.017 619.146 1303.423 C 619.498 1303.533 619.851 1303.639 620.204 1303.749 C 619.951 1304.527 619.701 1305.306 619.451 1306.086 C 618.041 1306.515 616.632 1306.952 615.225 1307.392 C 614.653 1307.756 614.081 1308.123 613.511 1308.49 C 610.9 1309.126 608.292 1309.78 605.691 1310.444 C 605.853 1309.926 606.017 1309.405 606.181 1308.884 C 606.093 1308.907 606.005 1308.93 605.918 1308.954 C 599.78 1311.647 593.696 1314.426 587.665 1317.299 C 584.595 1318.33 581.534 1319.381 578.481 1320.456 C 578.726 1319.631 578.973 1318.807 579.221 1317.984 C 579.511 1317.859 579.801 1317.734 580.092 1317.61 C 588.641 1313.904 598.648 1309.699 600.353 1308.667 C 600.393 1308.543 600.432 1308.419 600.471 1308.295 C 599.008 1308.51 596.666 1308.891 595.655 1309.162 C 595.363 1309.242 595.071 1309.319 594.778 1309.399 C 594.539 1308.573 594.301 1307.743 594.063 1306.917 C 595.828 1306.126 597.598 1305.343 599.373 1304.569 C 599.836 1303.14 600.305 1301.712 600.779 1300.287 C 607.452 1298.111 614.167 1296.029 620.922 1294.045 C 621.679 1293.589 622.437 1293.133 623.196 1292.678 C 621.184 1292.784 617.695 1293.046 615.4 1293.579 C 614.984 1293.673 614.566 1293.77 614.149 1293.868 C 614.635 1292.823 615.123 1291.78 615.615 1290.738 C 615.911 1290.643 616.208 1290.548 616.504 1290.453 C 619.854 1289.343 630.395 1286.194 633.815 1286.268 C 635.177 1285.674 636.541 1285.084 637.91 1284.496 C 637.405 1284.338 636.9 1284.18 636.395 1284.022 C 636.6 1283.455 636.805 1282.889 637.012 1282.319 C 640.735 1281.288 644.47 1280.282 648.217 1279.305 C 653.081 1277.72 657.972 1276.183 662.889 1274.698 C 665.896 1274.18 668.909 1273.682 671.926 1273.199 C 674.258 1272.629 676.593 1272.071 678.934 1271.521 C 682.569 1270.858 686.213 1270.223 689.865 1269.611 C 693.151 1269.669 696.438 1269.74 699.725 1269.831 C 702.54 1269.518 705.359 1269.219 708.182 1268.931 C 711.526 1268.862 714.871 1268.811 718.218 1268.78 C 721.115 1268.827 724.013 1268.884 726.912 1268.958 C 730.313 1268.796 733.716 1268.655 737.124 1268.533 C 741.913 1267.725 746.721 1266.957 751.545 1266.234 C 753.618 1266.131 755.691 1266.038 757.767 1265.949 C 759.563 1265.643 761.361 1265.346 763.162 1265.053 C 766.01 1265.219 768.857 1265.398 771.705 1265.591 C 775.19 1265.586 778.678 1265.602 782.169 1265.636 C 785.077 1266.214 787.982 1266.804 790.883 1267.405 C 791.75 1267.778 792.615 1268.156 793.48 1268.531 C 797.469 1268.519 801.462 1268.533 805.461 1268.575 C 806.013 1268.82 806.564 1269.068 807.116 1269.313 C 808.583 1268.851 810.055 1268.394 811.529 1267.942 C 815.986 1268.029 820.448 1268.144 824.915 1268.296 C 827.438 1268.726 829.958 1269.165 832.478 1269.614 C 835.772 1269.441 839.073 1269.287 842.38 1269.152 C 842.513 1269.215 842.646 1269.278 842.779 1269.342 C 842.972 1268.84 843.165 1268.342 843.358 1267.841 C 843.551 1267.805 843.744 1267.77 843.936 1267.735 C 846.574 1267.248 852.496 1266.808 855.957 1268.49 C 856.211 1268.615 856.465 1268.736 856.719 1268.861 C 856.097 1269.019 855.476 1269.177 854.855 1269.339 C 855.034 1269.425 855.212 1269.511 855.391 1269.597 C 856.275 1269.37 857.159 1269.146 858.045 1268.923 C 858.153 1268.643 858.262 1268.361 858.371 1268.079 C 857.712 1267.758 857.052 1267.437 856.392 1267.118 C 859.751 1266.617 863.122 1266.134 866.505 1265.672 C 868.635 1265.838 870.768 1266.008 872.9 1266.188 C 872.544 1267.1 872.191 1268.013 871.838 1268.93 C 871.987 1269.114 872.799 1269.815 876.569 1270.14 C 876.987 1270.176 877.405 1270.21 877.823 1270.248 C 877.597 1270.839 877.372 1271.431 877.147 1272.023 C 877.454 1272.05 877.762 1272.076 878.069 1272.103 C 880.74 1271.486 883.422 1270.884 886.113 1270.292 C 890.464 1270.898 894.817 1271.53 899.17 1272.193 C 898.943 1272.791 898.717 1273.392 898.492 1273.991 C 895.486 1274.619 892.492 1275.263 889.51 1275.926 C 885.204 1275.501 880.901 1275.104 876.602 1274.736 C 876.127 1274.849 875.652 1274.962 875.177 1275.075 C 877.387 1275.359 880.326 1275.943 882.609 1277.113 C 882.716 1277.165 882.823 1277.221 882.93 1277.276 C 882.575 1278.233 882.223 1279.19 881.873 1280.151 C 880.191 1279.998 878.509 1279.852 876.828 1279.71 C 876.032 1279.347 875.235 1278.988 874.438 1278.625 C 873.423 1278.542 872.409 1278.462 871.395 1278.379 C 870.681 1278.471 869.969 1278.56 869.256 1278.652 C 867.531 1278.625 865.808 1278.599 864.086 1278.58 C 864.386 1277.766 864.688 1276.948 864.992 1276.132 C 865.684 1275.957 866.375 1275.785 867.069 1275.61 C 866.944 1275.329 866.523 1274.858 865.1 1274.755 C 864.469 1274.708 863.838 1274.664 863.207 1274.62 C 862.998 1275.175 862.791 1275.731 862.583 1276.29 C 860.406 1276.339 858.232 1276.399 856.06 1276.468 C 855.62 1276.582 855.179 1276.7 854.739 1276.817 C 852.586 1276.702 850.433 1276.597 848.282 1276.499 C 846.789 1276.907 845.3 1277.32 843.815 1277.737 C 841.606 1277.816 839.4 1277.903 837.196 1277.998 C 837.048 1278.401 836.899 1278.804 836.751 1279.207 C 835.44 1279.152 834.129 1279.1 832.818 1279.052 C 825.882 1280.076 819.665 1281.508 819.398 1282.011 C 819.474 1282.047 819.55 1282.083 819.627 1282.116 C 819.624 1282.145 819.621 1282.173 819.618 1282.202 C 819.621 1282.231 820.129 1284.869 824.831 1285.909 C 825.811 1286.068 834.82 1287.717 837.409 1288.713 C 840.427 1288.831 843.448 1288.963 846.471 1289.11 C 846.352 1289.284 846.233 1289.461 846.113 1289.639 C 845.867 1289.997 843.824 1292.927 840.989 1294.239 C 841.873 1294.676 842.758 1295.113 843.641 1295.553 C 844.095 1295.576 844.55 1295.595 845.005 1295.614 C 846.423 1295.185 847.845 1294.757 849.27 1294.338 C 850.144 1293.566 851.021 1292.799 851.901 1292.036 C 852.08 1291.529 853.586 1289.983 865.205 1289.668 C 867.225 1289.354 870.336 1288.66 870.577 1287.98 C 870.931 1286.977 871.287 1285.971 871.645 1284.97 C 871.841 1284.936 872.036 1284.905 872.232 1284.874 C 872.261 1284.873 875.427 1284.303 881.279 1282.048 C 881.342 1282.028 881.406 1282.008 881.469 1281.988 C 883.023 1281.617 884.579 1281.253 886.139 1280.891 C 889.875 1281.241 893.614 1281.615 897.355 1282.011 C 897.848 1282.067 906.592 1283.375 907.624 1285.75 C 907.626 1285.795 907.628 1285.839 907.63 1285.884 C 907.321 1286.752 907.014 1287.621 906.708 1288.49 C 907.397 1288.864 908.086 1289.235 908.774 1289.605 C 912.565 1289.139 916.369 1288.7 920.189 1288.287 C 922.257 1288.551 924.325 1288.824 926.394 1289.101 C 926.116 1289.895 925.839 1290.69 925.563 1291.485 C 926.052 1292.22 926.541 1292.955 927.029 1293.686 C 926.842 1294.23 926.656 1294.775 926.47 1295.32 C 927.275 1296.313 928.078 1297.306 928.879 1298.301 C 931.388 1298.873 933.895 1299.455 936.402 1300.046 C 936.732 1301.042 937.061 1302.038 937.39 1303.033 C 934.662 1303.565 931.945 1304.112 929.237 1304.677 C 927.037 1304.38 924.838 1304.091 922.639 1303.809 C 921.231 1303.904 919.824 1304.002 918.419 1304.102 C 917.886 1304.036 917.353 1303.97 916.82 1303.907 C 915.141 1303.937 913.465 1303.971 911.79 1304.013 C 910.876 1303.908 909.963 1303.802 909.05 1303.698 C 907.132 1303.522 905.216 1303.35 903.3 1303.185 C 899.389 1302.767 895.482 1302.371 891.576 1302.003 C 890.652 1302.022 889.722 1302.062 888.907 1302.11 C 888.822 1302.363 888.736 1302.618 888.651 1302.87 C 891.435 1303.123 894.22 1303.39 897.006 1303.671 C 896.012 1304.459 895.02 1305.251 894.033 1306.048 C 892.282 1306.493 890.536 1306.944 888.795 1307.4 C 888.839 1307.684 889.169 1308.126 890.753 1308.271 C 894.879 1308.652 899.009 1309.059 903.141 1309.494 C 902.927 1310.168 902.713 1310.842 902.501 1311.513 C 902.376 1311.55 902.25 1311.584 902.125 1311.621 C 901.966 1311.671 898.195 1312.665 889.397 1311.893 C 885.562 1312.156 881.905 1312.721 881.641 1313.055 C 881.588 1313.224 881.536 1313.39 881.484 1313.559 C 878.81 1313.342 876.137 1313.133 873.466 1312.942 C 873.658 1312.323 873.852 1311.704 874.046 1311.086 C 875.874 1310.753 877.704 1310.429 879.54 1310.111 C 879.449 1310.058 879.357 1310.01 879.266 1309.961 C 869.445 1310.568 858.587 1311.785 857.048 1312.357 C 856.816 1313.1 856.586 1313.844 856.357 1314.589 C 852.543 1314.924 848.74 1315.283 844.95 1315.672 C 841.508 1316.658 838.085 1317.673 834.681 1318.712 C 832.756 1318.661 830.831 1318.619 828.907 1318.582 C 827.754 1319.281 826.604 1319.986 825.458 1320.696 C 825.216 1321.515 824.975 1322.338 824.736 1323.159 C 823.446 1322.505 822.154 1321.854 820.859 1321.206 C 820.767 1321.24 820.674 1321.275 820.581 1321.309 C 820.127 1322.853 819.679 1324.397 819.237 1325.943 C 816.139 1327.129 813.061 1328.335 810.002 1329.561 C 808.419 1329.575 806.837 1329.592 805.256 1329.61 C 803.137 1330.475 801.028 1331.352 798.927 1332.235 C 796.969 1332.508 795.013 1332.792 793.061 1333.081 C 791.968 1333.552 790.877 1334.026 789.789 1334.502 C 788.384 1335.642 786.987 1336.788 785.598 1337.937 C 786.057 1339.109 786.515 1340.284 786.973 1341.455 C 786.517 1343.163 786.068 1344.874 785.626 1346.588 C 785.094 1347.206 784.563 1347.826 784.035 1348.446 C 783.797 1348.576 781.658 1349.718 779.32 1349.598 C 777.454 1349.511 776.271 1348.695 775.7 1347.1 C 775.698 1347.046 775.696 1346.991 775.694 1346.937 C 776.171 1345.013 776.656 1343.093 777.151 1341.173 C 775.956 1340.601 774.758 1340.03 773.559 1339.462 C 770.995 1339.498 768.432 1339.547 765.872 1339.607 C 764.46 1339.351 763.049 1339.096 761.635 1338.846 C 760.317 1338.939 758.998 1339.035 757.68 1339.137 C 755.438 1340.243 753.208 1341.362 750.989 1342.494 C 748.629 1342.7 746.273 1342.914 743.919 1343.14 C 741.535 1342.684 739.148 1342.242 736.758 1341.807 C 733.594 1342.892 730.444 1344 727.31 1345.131 C 724.718 1345.989 722.135 1346.861 719.562 1347.748 C 718.325 1348.886 717.096 1350.026 715.873 1351.173 C 714.989 1352.752 714.113 1354.334 713.246 1355.924 C 712.115 1356.932 710.99 1357.946 709.871 1358.962 C 709.471 1360.751 709.078 1362.543 708.694 1364.335 C 708.945 1365.18 709.197 1366.025 709.449 1366.867 C 711.418 1367.672 713.384 1368.479 715.346 1369.291 C 716.223 1369.329 719.92 1369.391 723.685 1368.113 C 726.492 1366.413 729.321 1364.736 732.172 1363.079 C 733.144 1362.017 734.122 1360.957 735.106 1359.903 C 739.104 1359.436 743.11 1359.002 747.124 1358.601 C 748.221 1359.108 749.315 1359.618 750.409 1360.127 C 749.546 1361.303 748.689 1362.478 747.838 1363.658 C 746.343 1365.115 744.86 1366.58 743.389 1368.051 C 742.043 1368.823 740.702 1369.6 739.366 1370.379 C 739.577 1370.963 739.788 1371.546 740 1372.129 C 739.918 1372.533 739.836 1372.935 739.754 1373.339 C 740.572 1373.335 741.39 1373.335 742.207 1373.334 C 743.223 1372.736 744.241 1372.144 745.262 1371.552 C 748.298 1371.366 751.338 1371.194 754.379 1371.044 C 755.494 1371.579 756.607 1372.116 757.717 1372.656 C 757.148 1373.85 756.583 1375.045 756.023 1376.242 C 755.567 1378.554 755.124 1380.868 754.693 1383.183 C 755.642 1384.178 756.589 1385.175 757.535 1386.172 C 759.348 1386.273 761.162 1386.381 762.975 1386.496 C 767.355 1386.1 771.746 1385.743 776.145 1385.426 C 777.307 1385.612 778.47 1385.802 779.631 1385.995 C 780.66 1385.641 781.691 1385.292 782.724 1384.943 C 783.758 1383.663 784.799 1382.385 785.848 1381.114 C 786.009 1381.062 786.169 1381.013 786.33 1380.964 C 786.487 1380.913 790.087 1379.817 793.781 1379.555 C 795.94 1378.438 798.112 1377.333 800.296 1376.241 C 802.451 1376.156 804.608 1376.078 806.767 1376.011 C 806.549 1377.066 806.334 1378.118 806.121 1379.174 C 805.169 1379.648 804.219 1380.122 803.271 1380.601 C 803.074 1381.389 802.877 1382.177 802.682 1382.966 C 803.204 1383.246 803.725 1383.528 804.247 1383.807 C 804.427 1383.716 804.607 1383.625 804.787 1383.534 C 804.782 1382.546 804.778 1381.561 804.776 1380.574 C 806.175 1379.872 807.58 1379.175 808.99 1378.481 C 811.662 1378.401 814.336 1378.335 817.013 1378.284 C 818.255 1378.965 819.496 1379.644 820.735 1380.326 C 826.549 1380.561 832.369 1380.859 838.193 1381.223 C 839.497 1381.275 840.801 1381.331 842.106 1381.39 C 842.709 1381.12 843.312 1380.853 843.917 1380.588 C 845.995 1380.617 848.076 1380.655 850.158 1380.699 C 850.022 1381.356 849.886 1382.013 849.751 1382.67 C 855.452 1385.973 861.103 1389.316 866.702 1392.697 C 870.824 1392.855 874.95 1393.046 879.082 1393.266 C 881.646 1394.147 884.205 1395.039 886.759 1395.942 C 887.672 1397.813 888.581 1399.687 889.488 1401.562 C 890.937 1402.478 892.382 1403.399 893.824 1404.321 C 893.05 1405.31 892.28 1406.304 891.515 1407.296 C 892.942 1407.387 894.369 1407.485 895.797 1407.584 C 896.637 1408.592 897.474 1409.6 898.31 1410.609 C 901.302 1410.616 904.298 1410.644 907.3 1410.685 C 909.177 1411.581 911.049 1412.482 912.916 1413.388 C 913.324 1414.317 913.732 1415.242 914.14 1416.167 C 919.496 1416.657 924.86 1417.2 930.228 1417.796 C 933.063 1418.503 935.894 1419.222 938.723 1419.954 C 940.843 1421.434 942.953 1422.916 945.055 1424.406 C 947.932 1425.194 950.804 1425.995 953.673 1426.811 C 954.452 1428.427 955.228 1430.043 956 1431.66 C 955.653 1433.649 955.312 1435.641 954.978 1437.632 C 953.49 1438.283 952.007 1438.943 950.53 1439.609 C 949.346 1440.051 948.164 1440.5 946.987 1440.952 C 946.465 1441.571 945.945 1442.192 945.428 1442.81 C 943.219 1443.668 941.024 1444.541 938.841 1445.423 C 938.114 1446.153 937.39 1446.881 936.67 1447.615 C 936.174 1450.919 935.695 1454.227 935.234 1457.54 C 934.423 1457.893 933.615 1458.246 932.808 1458.6 C 932.882 1459.967 932.958 1461.335 933.035 1462.703 C 932.155 1463.096 931.277 1463.49 930.401 1463.889 C 930.541 1465.153 930.682 1466.417 930.824 1467.682 C 928.774 1469.271 926.746 1470.873 924.738 1472.487 C 920.712 1472.664 916.7 1472.878 912.702 1473.128 C 910.913 1473.365 909.127 1473.608 907.345 1473.859 C 905.632 1474.357 903.926 1474.861 902.226 1475.372 C 900.662 1476.209 899.107 1477.049 897.56 1477.9 C 897.288 1480.612 897.03 1483.327 896.783 1486.047 C 894.907 1487.119 893.043 1488.201 891.193 1489.295 C 891.081 1491.227 890.975 1493.164 890.876 1495.098 C 886.825 1498.851 882.874 1502.663 879.024 1506.535 C 874.815 1506.809 870.619 1507.129 866.437 1507.488 C 865.524 1506.831 864.609 1506.173 863.692 1505.517 C 863.667 1505.527 863.641 1505.539 863.616 1505.555 C 863.52 1505.615 863.229 1505.853 863.135 1506.555 C 864.46 1507.937 865.779 1509.325 867.093 1510.713 C 866.992 1512.86 866.899 1515.008 866.815 1517.156 C 865.799 1517.888 864.788 1518.624 863.782 1519.367 C 859.978 1519.451 856.18 1519.571 852.389 1519.724 C 851.744 1520.238 850.746 1521.212 850.698 1522.034 C 850.678 1522.38 850.838 1522.663 851.203 1522.926 C 851.321 1523.01 851.44 1523.094 851.558 1523.181 C 851.522 1524.685 851.489 1526.188 851.461 1527.696 C 851.354 1527.791 851.246 1527.883 851.139 1527.978 C 850.976 1528.12 849.498 1529.365 847.341 1529.524 C 846.116 1529.582 844.934 1529.328 843.868 1528.672 C 843.549 1528.707 843.237 1528.776 843.122 1528.844 C 843.177 1528.858 843.294 1529.454 845.192 1530.816 C 845.285 1530.923 845.377 1531.029 845.47 1531.136 C 846.069 1532.421 846.666 1533.708 847.264 1534.993 C 847.227 1536.101 847.191 1537.209 847.158 1538.319 C 846.767 1539.109 846.379 1539.896 845.994 1540.688 C 844.956 1542.132 843.931 1543.577 842.916 1545.03 C 844.296 1546.034 845.671 1547.042 847.042 1548.052 C 847.546 1550.333 848.054 1552.616 848.566 1554.897 C 847.224 1556.855 845.901 1558.824 844.6 1560.8 C 844.621 1561.613 844.643 1562.428 844.666 1563.24 C 845.597 1563.938 846.526 1564.636 847.453 1565.336 C 847.475 1566.063 847.497 1566.794 847.521 1567.522 C 849.326 1568.348 851.126 1569.178 852.92 1570.016 C 855.072 1570.57 857.218 1571.135 859.36 1571.712 C 861.781 1572.76 864.193 1573.817 866.595 1574.887 C 867.56 1575.969 868.522 1577.049 869.482 1578.129 C 866.486 1578.272 863.495 1578.441 860.51 1578.632 C 860.142 1578.985 859.774 1579.339 859.407 1579.696 Z " fill="url(#_lgradient_0)"/><g><defs><filter id="TSi379CZsAsqiCfNBZDKGABT3t1aPRj5" x="-200%" y="-200%" width="400%" height="400%" filterUnits="objectBoundingBox" color-interpolation-filters="sRGB"><feGaussianBlur xmlns="http://www.w3.org/2000/svg" in="SourceGraphic" stdDeviation="0.42936090628390283"/><feOffset xmlns="http://www.w3.org/2000/svg" dx="1" dy="1" result="pf_100_offsetBlur"/><feFlood xmlns="http://www.w3.org/2000/svg" flood-color="#1674B9" flood-opacity="0.32"/><feComposite xmlns="http://www.w3.org/2000/svg" in2="pf_100_offsetBlur" operator="in" result="pf_100_dropShadow"/><feBlend xmlns="http://www.w3.org/2000/svg" in="SourceGraphic" in2="pf_100_dropShadow" mode="normal"/></filter></defs><g filter="url(#TSi379CZsAsqiCfNBZDKGABT3t1aPRj5)"><path d=" M 795.482 1402.134 C 795.482 1402.134 821.591 1309.593 846.4 1405.966" fill="none" vector-effect="non-scaling-stroke" stroke-width="1.592" stroke="rgb(250,198,105)" stroke-linejoin="miter" stroke-linecap="butt" stroke-miterlimit="10"/></g><defs><filter id="a1BZZlMyQc8TIeEDGMWKsDJC4S9NF5sT" x="-200%" y="-200%" width="400%" height="400%" filterUnits="objectBoundingBox" color-interpolation-filters="sRGB"><feGaussianBlur xmlns="http://www.w3.org/2000/svg" in="SourceGraphic" stdDeviation="0.42936090628390283"/><feOffset xmlns="http://www.w3.org/2000/svg" dx="1" dy="1" result="pf_100_offsetBlur"/><feFlood xmlns="http://www.w3.org/2000/svg" flood-color="#1674B9" flood-opacity="0.32"/><feComposite xmlns="http://www.w3.org/2000/svg" in2="pf_100_offsetBlur" operator="in" result="pf_100_dropShadow"/><feBlend xmlns="http://www.w3.org/2000/svg" in="SourceGraphic" in2="pf_100_dropShadow" mode="normal"/></filter></defs><g filter="url(#a1BZZlMyQc8TIeEDGMWKsDJC4S9NF5sT)"><path d=" M 768.841 1416.445 C 768.841 1416.445 782.644 1347.947 815.91 1415.805" fill="none" vector-effect="non-scaling-stroke" stroke-width="1.592" stroke="rgb(250,198,105)" stroke-linejoin="miter" stroke-linecap="butt" stroke-miterlimit="10"/></g><defs><filter id="bWPM9Fpp58f1KIXeIpswwvego2I3vEKp" x="-200%" y="-200%" width="400%" height="400%" filterUnits="objectBoundingBox" color-interpolation-filters="sRGB"><feGaussianBlur xmlns="http://www.w3.org/2000/svg" in="SourceGraphic" stdDeviation="0.42936090628390283"/><feOffset xmlns="http://www.w3.org/2000/svg" dx="1" dy="1" result="pf_100_offsetBlur"/><feFlood xmlns="http://www.w3.org/2000/svg" flood-color="#1674B9" flood-opacity="0.32"/><feComposite xmlns="http://www.w3.org/2000/svg" in2="pf_100_offsetBlur" operator="in" result="pf_100_dropShadow"/><feBlend xmlns="http://www.w3.org/2000/svg" in="SourceGraphic" in2="pf_100_dropShadow" mode="normal"/></filter></defs><g filter="url(#bWPM9Fpp58f1KIXeIpswwvego2I3vEKp)"><path d=" M 803.262 1397.968 C 803.262 1397.968 783.487 1372.13 780.367 1419.116" fill="none" vector-effect="non-scaling-stroke" stroke-width="1.592" stroke="rgb(250,198,105)" stroke-linejoin="miter" stroke-linecap="butt" stroke-miterlimit="10"/></g><defs><filter id="vFKwlYa3oNZ36SomThtVosfw7aFtx1Fs" x="-200%" y="-200%" width="400%" height="400%" filterUnits="objectBoundingBox" color-interpolation-filters="sRGB"><feGaussianBlur xmlns="http://www.w3.org/2000/svg" in="SourceGraphic" stdDeviation="0.42936090628390283"/><feOffset xmlns="http://www.w3.org/2000/svg" dx="1" dy="1" result="pf_100_offsetBlur"/><feFlood xmlns="http://www.w3.org/2000/svg" flood-color="#1674B9" flood-opacity="0.32"/><feComposite xmlns="http://www.w3.org/2000/svg" in2="pf_100_offsetBlur" operator="in" result="pf_100_dropShadow"/><feBlend xmlns="http://www.w3.org/2000/svg" in="SourceGraphic" in2="pf_100_dropShadow" mode="normal"/></filter></defs><g filter="url(#vFKwlYa3oNZ36SomThtVosfw7aFtx1Fs)"><path d=" M 813.056 1397.982 C 813.056 1397.982 834.724 1352.067 849.64 1403.101" fill="none" vector-effect="non-scaling-stroke" stroke-width="1.592" stroke="rgb(250,198,105)" stroke-linejoin="miter" stroke-linecap="butt" stroke-miterlimit="10"/></g><defs><filter id="kX0u9uLiheKvY7iEzxzZ40jRUajvObBQ" x="-200%" y="-200%" width="400%" height="400%" filterUnits="objectBoundingBox" color-interpolation-filters="sRGB"><feGaussianBlur xmlns="http://www.w3.org/2000/svg" in="SourceGraphic" stdDeviation="0.42936090628390283"/><feOffset xmlns="http://www.w3.org/2000/svg" dx="1" dy="1" result="pf_100_offsetBlur"/><feFlood xmlns="http://www.w3.org/2000/svg" flood-color="#1674B9" flood-opacity="0.32"/><feComposite xmlns="http://www.w3.org/2000/svg" in2="pf_100_offsetBlur" operator="in" result="pf_100_dropShadow"/><feBlend xmlns="http://www.w3.org/2000/svg" in="SourceGraphic" in2="pf_100_dropShadow" mode="normal"/></filter></defs><g filter="url(#kX0u9uLiheKvY7iEzxzZ40jRUajvObBQ)"><path d=" M 856.622 1401.88 C 856.622 1401.88 880.311 1364.548 891.09 1429.762" fill="none" vector-effect="non-scaling-stroke" stroke-width="1.592" stroke="rgb(250,198,105)" stroke-linejoin="miter" stroke-linecap="butt" stroke-miterlimit="10"/></g><defs><filter id="qLCvPSIAE89AiMSSrNuaPY8KNvySud6J" x="-200%" y="-200%" width="400%" height="400%" filterUnits="objectBoundingBox" color-interpolation-filters="sRGB"><feGaussianBlur xmlns="http://www.w3.org/2000/svg" in="SourceGraphic" stdDeviation="0.42936090628390283"/><feOffset xmlns="http://www.w3.org/2000/svg" dx="1" dy="1" result="pf_100_offsetBlur"/><feFlood xmlns="http://www.w3.org/2000/svg" flood-color="#1674B9" flood-opacity="0.32"/><feComposite xmlns="http://www.w3.org/2000/svg" in2="pf_100_offsetBlur" operator="in" result="pf_100_dropShadow"/><feBlend xmlns="http://www.w3.org/2000/svg" in="SourceGraphic" in2="pf_100_dropShadow" mode="normal"/></filter></defs><g filter="url(#qLCvPSIAE89AiMSSrNuaPY8KNvySud6J)"><path d=" M 868.759 1415.022 C 889.098 1377.164 893.84 1419.267 893.84 1419.267" fill="none" vector-effect="non-scaling-stroke" stroke-width="1.592" stroke="rgb(250,198,105)" stroke-linejoin="miter" stroke-linecap="butt" stroke-miterlimit="10"/></g><defs><filter id="A00nKBNXuK8my9K6wqRzT4lL3ivfrS1g" x="-200%" y="-200%" width="400%" height="400%" filterUnits="objectBoundingBox" color-interpolation-filters="sRGB"><feGaussianBlur xmlns="http://www.w3.org/2000/svg" in="SourceGraphic" stdDeviation="0.42936090628390283"/><feOffset xmlns="http://www.w3.org/2000/svg" dx="1" dy="1" result="pf_100_offsetBlur"/><feFlood xmlns="http://www.w3.org/2000/svg" flood-color="#1674B9" flood-opacity="0.32"/><feComposite xmlns="http://www.w3.org/2000/svg" in2="pf_100_offsetBlur" operator="in" result="pf_100_dropShadow"/><feBlend xmlns="http://www.w3.org/2000/svg" in="SourceGraphic" in2="pf_100_dropShadow" mode="normal"/></filter></defs><g filter="url(#A00nKBNXuK8my9K6wqRzT4lL3ivfrS1g)"><path d=" M 822.567 1409.011 C 822.567 1409.011 852.025 1357.383 877.628 1412.976" fill="none" vector-effect="non-scaling-stroke" stroke-width="1.592" stroke="rgb(250,198,105)" stroke-linejoin="miter" stroke-linecap="butt" stroke-miterlimit="10"/></g><defs><filter id="yP980YI2LMpiIDxuSVQudsh3216kvQL6" x="-200%" y="-200%" width="400%" height="400%" filterUnits="objectBoundingBox" color-interpolation-filters="sRGB"><feGaussianBlur xmlns="http://www.w3.org/2000/svg" in="SourceGraphic" stdDeviation="0.42936090628390283"/><feOffset xmlns="http://www.w3.org/2000/svg" dx="1" dy="1" result="pf_100_offsetBlur"/><feFlood xmlns="http://www.w3.org/2000/svg" flood-color="#1674B9" flood-opacity="0.32"/><feComposite xmlns="http://www.w3.org/2000/svg" in2="pf_100_offsetBlur" operator="in" result="pf_100_dropShadow"/><feBlend xmlns="http://www.w3.org/2000/svg" in="SourceGraphic" in2="pf_100_dropShadow" mode="normal"/></filter></defs><g filter="url(#yP980YI2LMpiIDxuSVQudsh3216kvQL6)"><path d=" M 789.981 1448.532 C 789.981 1448.532 809.906 1375.702 838.572 1433.813" fill="none" vector-effect="non-scaling-stroke" stroke-width="1.592" stroke="rgb(250,198,105)" stroke-linejoin="miter" stroke-linecap="butt" stroke-miterlimit="10"/></g><defs><filter id="NEG5qtkuTPDWvdZ4PBHy4pr1RAJV6gnc" x="-200%" y="-200%" width="400%" height="400%" filterUnits="objectBoundingBox" color-interpolation-filters="sRGB"><feGaussianBlur xmlns="http://www.w3.org/2000/svg" in="SourceGraphic" stdDeviation="0.42936090628390283"/><feOffset xmlns="http://www.w3.org/2000/svg" dx="1" dy="1" result="pf_100_offsetBlur"/><feFlood xmlns="http://www.w3.org/2000/svg" flood-color="#1674B9" flood-opacity="0.32"/><feComposite xmlns="http://www.w3.org/2000/svg" in2="pf_100_offsetBlur" operator="in" result="pf_100_dropShadow"/><feBlend xmlns="http://www.w3.org/2000/svg" in="SourceGraphic" in2="pf_100_dropShadow" mode="normal"/></filter></defs><g filter="url(#NEG5qtkuTPDWvdZ4PBHy4pr1RAJV6gnc)"><path d=" M 851.667 1421.593 C 817.979 1362.122 793.263 1450.391 793.263 1450.391" fill="none" vector-effect="non-scaling-stroke" stroke-width="1.592" stroke="rgb(250,198,105)" stroke-linejoin="miter" stroke-linecap="butt" stroke-miterlimit="10"/></g><defs><filter id="RqOSw0WrzbZvLkO4Spf4TRvH2YgdC3xr" x="-200%" y="-200%" width="400%" height="400%" filterUnits="objectBoundingBox" color-interpolation-filters="sRGB"><feGaussianBlur xmlns="http://www.w3.org/2000/svg" in="SourceGraphic" stdDeviation="0.42936090628390283"/><feOffset xmlns="http://www.w3.org/2000/svg" dx="1" dy="1" result="pf_100_offsetBlur"/><feFlood xmlns="http://www.w3.org/2000/svg" flood-color="#1674B9" flood-opacity="0.32"/><feComposite xmlns="http://www.w3.org/2000/svg" in2="pf_100_offsetBlur" operator="in" result="pf_100_dropShadow"/><feBlend xmlns="http://www.w3.org/2000/svg" in="SourceGraphic" in2="pf_100_dropShadow" mode="normal"/></filter></defs><g filter="url(#RqOSw0WrzbZvLkO4Spf4TRvH2YgdC3xr)"><path d=" M 898.877 1467.099 C 898.877 1467.099 889.208 1377.92 847.871 1427.44" fill="none" vector-effect="non-scaling-stroke" stroke-width="1.592" stroke="rgb(250,198,105)" stroke-linejoin="miter" stroke-linecap="butt" stroke-miterlimit="10"/></g><defs><filter id="PJYZ0eZtYolV0iAT7qDsP5XWTMS7EsKf" x="-200%" y="-200%" width="400%" height="400%" filterUnits="objectBoundingBox" color-interpolation-filters="sRGB"><feGaussianBlur xmlns="http://www.w3.org/2000/svg" in="SourceGraphic" stdDeviation="0.42936090628390283"/><feOffset xmlns="http://www.w3.org/2000/svg" dx="1" dy="1" result="pf_100_offsetBlur"/><feFlood xmlns="http://www.w3.org/2000/svg" flood-color="#1674B9" flood-opacity="0.32"/><feComposite xmlns="http://www.w3.org/2000/svg" in2="pf_100_offsetBlur" operator="in" result="pf_100_dropShadow"/><feBlend xmlns="http://www.w3.org/2000/svg" in="SourceGraphic" in2="pf_100_dropShadow" mode="normal"/></filter></defs><g filter="url(#PJYZ0eZtYolV0iAT7qDsP5XWTMS7EsKf)"><path d=" M 832.77 1428.814 C 832.77 1428.814 848.341 1371.101 863.439 1418.52" fill="none" vector-effect="non-scaling-stroke" stroke-width="1.592" stroke="rgb(250,198,105)" stroke-linejoin="miter" stroke-linecap="butt" stroke-miterlimit="10"/></g><defs><filter id="tLR7NNOjBUMu9t6a0KVb4p6WlPWJT4uR" x="-200%" y="-200%" width="400%" height="400%" filterUnits="objectBoundingBox" color-interpolation-filters="sRGB"><feGaussianBlur xmlns="http://www.w3.org/2000/svg" in="SourceGraphic" stdDeviation="0.42936090628390283"/><feOffset xmlns="http://www.w3.org/2000/svg" dx="1" dy="1" result="pf_100_offsetBlur"/><feFlood xmlns="http://www.w3.org/2000/svg" flood-color="#1674B9" flood-opacity="0.32"/><feComposite xmlns="http://www.w3.org/2000/svg" in2="pf_100_offsetBlur" operator="in" result="pf_100_dropShadow"/><feBlend xmlns="http://www.w3.org/2000/svg" in="SourceGraphic" in2="pf_100_dropShadow" mode="normal"/></filter></defs><g filter="url(#tLR7NNOjBUMu9t6a0KVb4p6WlPWJT4uR)"><path d=" M 784.247 1411.77 C 784.247 1411.77 814.02 1346.31 845.993 1413.052" fill="none" vector-effect="non-scaling-stroke" stroke-width="1.592" stroke="rgb(250,198,105)" stroke-linejoin="miter" stroke-linecap="butt" stroke-miterlimit="10"/></g><defs><filter id="ULNzXhdKvWwMwaUYeAPrnTft3oY9CjoY" x="-200%" y="-200%" width="400%" height="400%" filterUnits="objectBoundingBox" color-interpolation-filters="sRGB"><feGaussianBlur xmlns="http://www.w3.org/2000/svg" in="SourceGraphic" stdDeviation="0.42936090628390283"/><feOffset xmlns="http://www.w3.org/2000/svg" dx="1" dy="1" result="pf_100_offsetBlur"/><feFlood xmlns="http://www.w3.org/2000/svg" flood-color="#1674B9" flood-opacity="0.32"/><feComposite xmlns="http://www.w3.org/2000/svg" in2="pf_100_offsetBlur" operator="in" result="pf_100_dropShadow"/><feBlend xmlns="http://www.w3.org/2000/svg" in="SourceGraphic" in2="pf_100_dropShadow" mode="normal"/></filter></defs><g filter="url(#ULNzXhdKvWwMwaUYeAPrnTft3oY9CjoY)"><path d=" M 829.95 1415.783 C 829.95 1415.783 861.57 1320.798 884.116 1422.663" fill="none" vector-effect="non-scaling-stroke" stroke-width="1.592" stroke="rgb(250,198,105)" stroke-linejoin="miter" stroke-linecap="butt" stroke-miterlimit="10"/></g><defs><filter id="PVhMDIascRlN3zEK0NEC42wTSyQ7OS1j" x="-200%" y="-200%" width="400%" height="400%" filterUnits="objectBoundingBox" color-interpolation-filters="sRGB"><feGaussianBlur xmlns="http://www.w3.org/2000/svg" in="SourceGraphic" stdDeviation="0.42936090628390283"/><feOffset xmlns="http://www.w3.org/2000/svg" dx="1" dy="1" result="pf_100_offsetBlur"/><feFlood xmlns="http://www.w3.org/2000/svg" flood-color="#1674B9" flood-opacity="0.32"/><feComposite xmlns="http://www.w3.org/2000/svg" in2="pf_100_offsetBlur" operator="in" result="pf_100_dropShadow"/><feBlend xmlns="http://www.w3.org/2000/svg" in="SourceGraphic" in2="pf_100_dropShadow" mode="normal"/></filter></defs><g filter="url(#PVhMDIascRlN3zEK0NEC42wTSyQ7OS1j)"><path d=" M 882.53 1399.506 C 882.525 1399.763 882.355 1399.956 882.149 1399.937 C 881.944 1399.917 881.781 1399.693 881.786 1399.436 C 881.791 1399.179 881.962 1398.986 882.167 1399.005 C 882.373 1399.025 882.535 1399.249 882.53 1399.506 Z " fill="rgb(133,134,137)"/></g><defs><filter id="Ec8PakTzjtAF3ka99ouhWvrkDChmcp5r" x="-200%" y="-200%" width="400%" height="400%" filterUnits="objectBoundingBox" color-interpolation-filters="sRGB"><feGaussianBlur xmlns="http://www.w3.org/2000/svg" in="SourceGraphic" stdDeviation="0.42936090628390283"/><feOffset xmlns="http://www.w3.org/2000/svg" dx="1" dy="1" result="pf_100_offsetBlur"/><feFlood xmlns="http://www.w3.org/2000/svg" flood-color="#1674B9" flood-opacity="0.32"/><feComposite xmlns="http://www.w3.org/2000/svg" in2="pf_100_offsetBlur" operator="in" result="pf_100_dropShadow"/><feBlend xmlns="http://www.w3.org/2000/svg" in="SourceGraphic" in2="pf_100_dropShadow" mode="normal"/></filter></defs><g filter="url(#Ec8PakTzjtAF3ka99ouhWvrkDChmcp5r)"><path d=" M 900.706 1424.465 C 900.706 1424.465 883.555 1382.07 855.61 1411.721" fill="none" vector-effect="non-scaling-stroke" stroke-width="1.592" stroke="rgb(250,198,105)" stroke-linejoin="miter" stroke-linecap="butt" stroke-miterlimit="10"/></g></g></g></g></g></svg>