<?xml version="1.0" encoding="UTF-8" standalone="no"?><!-- Generator: Gravit.io --><svg xmlns="http://www.w3.org/2000/svg" xmlns:xlink="http://www.w3.org/1999/xlink" style="isolation:isolate" viewBox="536.22 4046.22 112.227 84.561" width="112.227pt" height="84.561pt"><g><g><path d=" M 554.317 4051.844 L 630.538 4051.844 L 630.538 4077.129 L 623.763 4077.129 L 623.763 4072.913 C 624.795 4071.925 625.431 4070.555 625.431 4069.045 C 625.431 4061.876 614.132 4061.876 614.132 4069.045 C 614.132 4070.417 614.658 4071.673 615.526 4072.63 L 615.526 4077.129 L 610.189 4077.129 L 610.189 4072.913 C 611.221 4071.925 611.858 4070.555 611.858 4069.045 C 611.858 4061.876 600.559 4061.876 600.559 4069.045 C 600.559 4070.417 601.084 4071.673 601.953 4072.63 L 601.953 4077.101 L 601.729 4077.101 L 596.616 4071.349 L 596.616 4066.212 C 597.85 4065.03 599.117 4064.178 599.117 4061.472 C 599.117 4053.136 585.602 4053.192 585.602 4061.472 C 585.602 4064.095 586.905 4064.953 587.943 4066.098 L 587.943 4071.806 L 583.358 4077.101 L 582.988 4077.099 L 582.988 4072.913 C 584.017 4071.925 584.656 4070.555 584.656 4069.045 C 584.656 4061.876 573.357 4061.876 573.357 4069.045 C 573.357 4070.417 573.882 4071.673 574.751 4072.63 L 574.751 4077.129 L 569.414 4077.129 L 569.414 4072.913 C 570.443 4071.925 571.083 4070.555 571.083 4069.045 C 571.083 4061.876 559.784 4061.876 559.784 4069.045 C 559.784 4070.417 560.309 4071.673 561.178 4072.63 L 561.178 4077.129 L 554.317 4077.129 L 554.317 4051.844 Z  M 552.208 4049.737 L 632.647 4049.737 L 632.647 4079.237 L 621.655 4079.237 L 621.655 4072.913 C 621.655 4072.337 621.89 4071.785 622.307 4071.387 C 622.624 4071.086 622.878 4070.725 623.055 4070.325 C 623.232 4069.92 623.323 4069.483 623.323 4069.042 C 623.324 4068.763 623.296 4068.486 623.24 4068.214 C 623.194 4067.994 623.123 4067.777 623.029 4067.572 C 622.861 4067.207 622.613 4066.884 622.306 4066.624 C 622.146 4066.489 621.974 4066.371 621.792 4066.271 C 621.597 4066.163 621.394 4066.074 621.184 4066.003 C 620.732 4065.852 620.258 4065.775 619.782 4065.777 C 619.305 4065.775 618.831 4065.852 618.379 4066.003 C 618.168 4066.074 617.965 4066.163 617.772 4066.271 C 617.589 4066.371 617.416 4066.489 617.257 4066.624 C 616.949 4066.884 616.703 4067.207 616.533 4067.572 C 616.44 4067.777 616.369 4067.994 616.322 4068.214 C 616.266 4068.486 616.239 4068.764 616.24 4069.042 C 616.239 4069.443 616.315 4069.842 616.463 4070.216 C 616.609 4070.582 616.819 4070.919 617.085 4071.212 C 617.439 4071.6 617.634 4072.106 617.634 4072.63 L 617.634 4079.237 L 608.082 4079.237 L 608.082 4072.913 C 608.082 4072.337 608.317 4071.785 608.734 4071.387 C 609.05 4071.086 609.304 4070.725 609.481 4070.325 C 609.659 4069.92 609.75 4069.483 609.749 4069.042 C 609.75 4068.763 609.723 4068.486 609.667 4068.214 C 609.621 4067.994 609.55 4067.777 609.456 4067.572 C 609.288 4067.207 609.04 4066.884 608.733 4066.624 C 608.573 4066.489 608.402 4066.371 608.219 4066.271 C 608.024 4066.163 607.821 4066.074 607.611 4066.003 C 607.159 4065.852 606.685 4065.775 606.208 4065.777 C 605.731 4065.775 605.258 4065.852 604.805 4066.003 C 604.595 4066.074 604.392 4066.163 604.198 4066.271 C 604.015 4066.371 603.843 4066.489 603.683 4066.624 C 603.376 4066.884 603.129 4067.207 602.96 4067.572 C 602.866 4067.777 602.796 4067.994 602.749 4068.214 C 602.693 4068.486 602.665 4068.764 602.667 4069.042 C 602.666 4069.443 602.742 4069.842 602.89 4070.216 C 603.036 4070.582 603.247 4070.919 603.512 4071.212 C 603.866 4071.6 604.061 4072.106 604.061 4072.63 L 604.061 4079.209 L 600.782 4079.209 L 594.508 4072.151 L 594.508 4066.211 C 594.508 4065.635 594.744 4065.083 595.163 4064.685 C 595.301 4064.554 595.44 4064.423 595.581 4064.293 C 595.707 4064.176 595.833 4064.059 595.958 4063.94 C 596.061 4063.84 596.161 4063.739 596.26 4063.634 C 596.34 4063.549 596.416 4063.458 596.488 4063.365 C 596.549 4063.286 596.604 4063.204 596.656 4063.117 C 596.763 4062.931 596.844 4062.731 596.896 4062.523 C 596.933 4062.377 596.96 4062.228 596.976 4062.078 C 596.999 4061.877 597.01 4061.675 597.009 4061.471 C 597.011 4061.129 596.976 4060.786 596.905 4060.451 C 596.844 4060.172 596.752 4059.901 596.631 4059.643 C 596.52 4059.407 596.383 4059.186 596.221 4058.981 C 596.06 4058.777 595.877 4058.592 595.676 4058.428 C 595.465 4058.255 595.237 4058.103 594.997 4057.974 C 594.742 4057.838 594.475 4057.724 594.2 4057.635 C 593.612 4057.443 592.996 4057.347 592.377 4057.349 C 591.754 4057.347 591.135 4057.443 590.543 4057.636 C 590.265 4057.727 589.996 4057.841 589.739 4057.98 C 589.495 4058.109 589.266 4058.262 589.052 4058.436 C 588.85 4058.601 588.665 4058.787 588.502 4058.991 C 588.34 4059.196 588.202 4059.418 588.089 4059.654 C 587.967 4059.911 587.875 4060.181 587.815 4060.459 C 587.743 4060.792 587.709 4061.131 587.71 4061.471 C 587.71 4061.653 587.72 4061.834 587.739 4062.015 C 587.754 4062.153 587.779 4062.289 587.812 4062.425 C 587.859 4062.621 587.933 4062.813 588.029 4062.991 C 588.129 4063.168 588.247 4063.336 588.38 4063.49 C 588.464 4063.59 588.551 4063.686 588.64 4063.78 C 588.743 4063.889 588.848 4063.997 588.953 4064.104 C 589.138 4064.29 589.319 4064.48 589.496 4064.672 C 589.853 4065.062 590.051 4065.571 590.051 4066.098 L 590.051 4072.592 L 584.315 4079.217 L 580.88 4079.191 L 580.88 4072.913 C 580.88 4072.337 581.114 4071.787 581.53 4071.389 C 581.847 4071.087 582.101 4070.725 582.279 4070.324 C 582.457 4069.919 582.548 4069.483 582.547 4069.041 C 582.549 4068.763 582.521 4068.486 582.465 4068.214 C 582.419 4067.994 582.348 4067.777 582.254 4067.572 C 582.086 4067.207 581.838 4066.884 581.531 4066.624 C 581.371 4066.489 581.2 4066.371 581.017 4066.271 C 580.822 4066.163 580.619 4066.074 580.409 4066.003 C 579.957 4065.852 579.483 4065.775 579.006 4065.777 C 578.529 4065.775 578.056 4065.852 577.604 4066.003 C 577.393 4066.074 577.19 4066.163 576.996 4066.271 C 576.813 4066.371 576.641 4066.489 576.481 4066.624 C 576.174 4066.884 575.927 4067.207 575.758 4067.572 C 575.664 4067.777 575.594 4067.994 575.547 4068.214 C 575.491 4068.486 575.463 4068.764 575.465 4069.042 C 575.464 4069.443 575.54 4069.842 575.688 4070.216 C 575.834 4070.582 576.045 4070.919 576.31 4071.212 C 576.664 4071.6 576.859 4072.106 576.859 4072.63 L 576.859 4079.237 L 567.306 4079.237 L 567.306 4072.913 C 567.306 4072.337 567.541 4071.787 567.957 4071.389 C 568.274 4071.087 568.528 4070.725 568.705 4070.324 C 568.884 4069.919 568.974 4069.483 568.974 4069.041 C 568.976 4068.763 568.949 4068.486 568.891 4068.214 C 568.846 4067.994 568.775 4067.777 568.682 4067.572 C 568.512 4067.207 568.265 4066.884 567.957 4066.624 C 567.799 4066.489 567.626 4066.371 567.443 4066.271 C 567.25 4066.163 567.045 4066.074 566.836 4066.003 C 566.384 4065.852 565.91 4065.775 565.433 4065.777 C 564.956 4065.775 564.483 4065.852 564.03 4066.003 C 563.82 4066.074 563.617 4066.163 563.423 4066.271 C 563.24 4066.371 563.068 4066.489 562.908 4066.624 C 562.6 4066.884 562.354 4067.207 562.185 4067.572 C 562.091 4067.777 562.021 4067.994 561.975 4068.214 C 561.918 4068.486 561.89 4068.764 561.891 4069.042 C 561.891 4069.443 561.967 4069.842 562.114 4070.216 C 562.261 4070.582 562.472 4070.919 562.738 4071.212 C 563.09 4071.6 563.287 4072.106 563.287 4072.63 L 563.287 4079.237 L 552.208 4079.237 L 552.208 4049.737 Z " fill-rule="evenodd" fill="rgb(141,63,63)"/><path d=" M 554.364 4084.928 L 560.965 4084.928 L 560.965 4099.323 L 554.364 4099.323 L 554.364 4084.928 Z  M 552.256 4082.82 L 563.073 4082.82 L 563.073 4101.431 L 552.256 4101.431 L 552.256 4082.82 Z " fill-rule="evenodd" fill="rgb(139,65,66)"/><path d=" M 623.743 4084.928 L 630.347 4084.928 L 630.347 4099.323 L 623.743 4099.323 L 623.743 4084.928 Z  M 621.635 4082.82 L 632.455 4082.82 L 632.455 4101.431 L 621.635 4101.431 L 621.635 4082.82 Z " fill-rule="evenodd" fill="rgb(139,65,66)"/><path d=" M 610.225 4084.928 L 615.54 4084.928 L 615.54 4099.323 L 610.225 4099.323 L 610.225 4084.928 Z  M 608.117 4082.82 L 617.648 4082.82 L 617.648 4101.431 L 608.117 4101.431 L 608.117 4082.82 Z " fill-rule="evenodd" fill="rgb(139,65,66)"/><path d=" M 569.281 4084.928 L 574.596 4084.928 L 574.596 4099.323 L 569.281 4099.323 L 569.281 4084.928 Z  M 567.173 4082.82 L 576.705 4082.82 L 576.705 4101.431 L 567.173 4101.431 L 567.173 4082.82 Z " fill-rule="evenodd" fill="rgb(139,65,66)"/><path d=" M 554.303 4104.663 L 569.218 4104.663 L 569.218 4111.638 L 554.303 4111.638 L 554.303 4104.663 Z  M 552.195 4102.554 L 571.326 4102.554 L 571.326 4113.746 L 552.195 4113.746 L 552.195 4102.554 Z " fill-rule="evenodd" fill="rgb(139,65,66)"/><path d=" M 615.496 4104.66 L 630.411 4104.66 L 630.411 4111.635 L 615.496 4111.635 L 615.496 4104.66 Z  M 613.388 4102.552 L 632.519 4102.552 L 632.519 4113.743 L 613.388 4113.743 L 613.388 4102.552 Z " fill-rule="evenodd" fill="rgb(139,65,66)"/><path d=" M 596.707 4104.66 L 596.713 4104.66 L 596.713 4080.04 L 596.995 4079.909 L 602.351 4085.816 L 602.351 4104.66 L 610.668 4104.66 L 610.668 4111.635 L 596.707 4111.635 L 596.707 4104.66 Z  M 594.605 4102.552 L 594.605 4078.69 L 597.518 4077.347 L 604.459 4085.003 L 604.459 4102.552 L 612.776 4102.552 L 612.776 4113.743 L 594.6 4113.743 L 594.6 4102.552 L 594.605 4102.552 Z " fill-rule="evenodd" fill="rgb(139,65,66)"/><path d=" M 588.349 4111.635 L 574.768 4111.635 L 574.768 4104.66 L 582.858 4104.66 L 582.858 4085.761 L 588.067 4079.909 L 588.341 4080.04 L 588.341 4104.66 L 588.349 4104.66 L 588.349 4111.635 Z  M 590.45 4102.552 L 590.457 4102.552 L 590.457 4113.743 L 572.66 4113.743 L 572.66 4102.552 L 580.749 4102.552 L 580.749 4084.959 L 587.544 4077.327 L 590.45 4078.707 L 590.45 4102.552 Z " fill-rule="evenodd" fill="rgb(139,65,66)"/><path d=" M 553.6 4125.131 L 553.6 4115.09 L 556.641 4115.09 L 562.406 4120.552 L 562.406 4115.09 L 565.674 4115.09 L 565.674 4125.131 L 562.846 4125.131 L 556.809 4119.243 L 556.809 4125.131 L 553.6 4125.131 Z  M 552.663 4126.068 L 552.663 4114.154 L 557.014 4114.154 L 561.47 4118.374 L 561.47 4114.154 L 566.611 4114.154 L 566.611 4126.068 L 562.465 4126.068 L 557.747 4121.466 L 557.747 4126.068 L 552.663 4126.068 Z " fill-rule="evenodd" fill="rgb(121,74,82)"/><path d=" M 575.529 4125.156 L 575.529 4115.074 L 587.669 4115.074 L 587.669 4117.636 L 578.763 4117.636 L 578.763 4119.038 L 587.47 4119.038 L 587.47 4120.986 L 578.763 4120.986 L 578.763 4122.776 L 587.627 4122.776 L 587.627 4125.156 L 575.529 4125.156 Z  M 588.406 4118.573 L 588.406 4121.84 L 588.564 4121.84 L 588.564 4126.092 L 574.592 4126.092 L 574.592 4114.136 L 588.606 4114.136 L 588.606 4118.573 L 588.406 4118.573 Z " fill-rule="evenodd" fill="rgb(121,74,82)"/><path d=" M 597.285 4125.625 L 597.285 4114.597 L 609.76 4114.597 L 609.737 4121.665 L 601.638 4121.665 L 601.638 4125.625 L 597.285 4125.625 Z  M 598.222 4124.688 L 598.222 4115.534 L 608.82 4115.534 L 608.804 4120.728 L 600.701 4120.728 L 600.701 4124.688 L 598.222 4124.688 Z  M 606.951 4116.467 L 606.966 4120.348 L 600.701 4120.348 L 600.701 4116.467 L 606.951 4116.467 Z  M 606.019 4117.404 L 606.026 4119.411 L 601.638 4119.411 L 601.638 4117.404 L 606.019 4117.404 Z " fill-rule="evenodd" fill="rgb(121,74,82)"/><path d=" M 619.429 4114.611 L 631.535 4114.611 L 631.535 4125.602 L 619.429 4125.602 L 619.429 4114.611 Z  M 620.366 4115.548 L 630.599 4115.548 L 630.599 4124.665 L 620.366 4124.665 L 620.366 4115.548 Z  M 621.875 4116.879 L 629.087 4116.879 L 629.087 4123.33 L 621.875 4123.33 L 621.875 4116.879 Z  M 622.812 4117.816 L 628.15 4117.816 L 628.15 4122.393 L 622.812 4122.393 L 622.812 4117.816 Z " fill-rule="evenodd" fill="rgb(121,74,82)"/><mask id="_mask_0YhYmn3eXbZ34uFshz1L4c9p0IzeqqNj" x="-200%" y="-200%" width="400%" height="400%"><rect x="-200%" y="-200%" width="400%" height="400%" style="fill:white;"/><path d=" M 537 4047 L 647.667 4047 L 647.667 4130 L 537 4130 L 537 4047 Z " fill-rule="evenodd" fill="black" stroke="none"/></mask><path d=" M 537 4047 L 647.667 4047 L 647.667 4130 L 537 4130 L 537 4047 Z " fill-rule="evenodd" fill="none"/><path d=" M 537 4047 L 647.667 4047 L 647.667 4130 L 537 4130 L 537 4047 Z " fill-rule="evenodd" fill="none" mask="url(#_mask_0YhYmn3eXbZ34uFshz1L4c9p0IzeqqNj)" vector-effect="non-scaling-stroke" stroke-width="0.39" stroke="rgb(210,211,213)" stroke-linejoin="miter" stroke-linecap="butt" stroke-miterlimit="4"/></g></g></svg>