<?xml version="1.0" encoding="UTF-8" standalone="no"?><!-- Generator: Gravit.io --><svg xmlns="http://www.w3.org/2000/svg" xmlns:xlink="http://www.w3.org/1999/xlink" style="isolation:isolate" viewBox="682.947 3916.145 57.83 77.302" width="57.83pt" height="77.302pt"><g><path d=" M 691.148 3916.307 C 690.935 3916.617 690.471 3919.905 690.452 3921.143 C 690.432 3921.994 690.394 3922.071 689.794 3922.265 C 687.957 3922.883 686.583 3924.76 686.583 3926.674 C 686.583 3927.274 686.719 3928.164 686.893 3928.647 C 687.338 3929.924 687.299 3930.388 686.757 3930.388 L 686.313 3930.388 L 686.39 3936.19 L 686.467 3941.992 L 684.901 3941.992 L 683.334 3941.992 L 683.334 3942.921 C 683.334 3943.733 683.411 3943.907 683.914 3944.294 L 684.495 3944.72 L 684.456 3949.69 L 684.398 3954.661 L 683.876 3954.719 C 683.373 3954.777 683.334 3954.854 683.334 3955.628 C 683.334 3956.363 683.431 3956.556 683.914 3956.924 L 684.495 3957.349 L 684.495 3960.792 L 684.495 3964.235 L 683.914 3964.235 C 683.353 3964.235 683.334 3964.273 683.334 3965.105 C 683.334 3965.84 683.411 3966.033 683.914 3966.401 L 684.495 3966.826 L 684.495 3969.998 L 684.495 3973.151 L 683.914 3973.654 L 683.334 3974.137 L 683.334 3976.342 L 683.334 3978.547 L 711.766 3978.547 L 740.197 3978.547 L 740.197 3976.342 L 740.197 3974.137 L 739.617 3973.654 L 739.036 3973.151 L 739.036 3969.96 L 739.036 3966.768 L 739.617 3966.324 C 740.12 3965.956 740.197 3965.782 740.197 3964.97 C 740.197 3964.061 740.178 3964.041 739.617 3964.041 L 739.036 3964.041 L 739.036 3960.676 L 739.036 3957.311 L 739.617 3956.827 C 740.1 3956.402 740.197 3956.189 740.197 3955.454 C 740.197 3954.603 740.178 3954.564 739.617 3954.564 L 739.036 3954.564 L 739.036 3949.652 L 739.036 3944.739 L 739.617 3944.255 C 740.1 3943.83 740.197 3943.617 740.197 3942.882 L 740.197 3941.992 L 738.843 3941.992 L 737.489 3941.992 L 737.489 3936.19 L 737.489 3930.388 L 736.909 3930.388 C 736.213 3930.388 736.174 3930.117 736.716 3928.686 C 737.721 3926.075 736.522 3923.386 733.892 3922.245 C 733.079 3921.916 733.06 3921.878 733.273 3921.394 C 733.447 3920.988 733.428 3920.775 733.176 3920.214 C 733.002 3919.847 732.847 3919.267 732.847 3918.919 C 732.847 3918.57 732.789 3917.835 732.731 3917.275 C 732.635 3916.501 732.518 3916.269 732.267 3916.269 C 731.919 3916.269 731.687 3917.255 731.687 3918.764 C 731.687 3919.151 731.551 3919.712 731.377 3920.04 C 731.184 3920.408 731.126 3920.853 731.203 3921.317 C 731.319 3922.013 731.319 3922.013 730.198 3922.574 C 728.824 3923.251 727.935 3924.373 727.625 3925.804 C 727.432 3926.655 727.432 3927.003 727.722 3927.97 C 727.896 3928.608 728.089 3929.421 728.147 3929.75 C 728.244 3930.33 728.205 3930.388 727.741 3930.388 L 727.238 3930.388 L 727.238 3936.19 L 727.238 3941.992 L 725.788 3941.992 L 724.337 3941.992 L 724.337 3937.969 L 724.337 3933.927 L 724.821 3933.482 C 725.517 3932.825 725.498 3931.626 724.801 3931.316 C 724.531 3931.181 724.182 3930.833 724.028 3930.543 C 723.622 3929.769 722.674 3929.788 721.862 3930.581 L 721.243 3931.161 L 718.651 3931.103 C 716.253 3931.065 716.001 3931.026 715.576 3930.62 C 714.957 3930.04 714.009 3930.059 713.255 3930.697 C 712.733 3931.142 712.52 3931.2 711.63 3931.123 C 710.895 3931.065 710.489 3930.91 710.199 3930.62 C 709.657 3930.02 708.613 3930.059 707.878 3930.678 C 707.336 3931.123 707.182 3931.142 704.899 3931.123 C 702.52 3931.103 702.501 3931.103 701.979 3930.562 C 701.167 3929.711 700.528 3929.808 699.387 3930.949 C 698.575 3931.761 698.459 3931.974 698.517 3932.515 C 698.575 3932.863 698.788 3933.27 699 3933.424 C 699.368 3933.676 699.387 3933.889 699.387 3937.853 L 699.387 3941.992 L 697.821 3941.992 L 696.254 3941.992 L 696.331 3936.19 L 696.389 3930.388 L 695.867 3930.388 C 695.21 3930.388 695.171 3930.098 695.712 3928.686 C 696.177 3927.467 696.215 3926.055 695.809 3925.088 C 695.364 3924.044 694.068 3922.709 693.121 3922.361 C 692.308 3922.052 692.289 3922.013 692.27 3921.143 C 692.27 3920.64 692.154 3919.383 691.999 3918.358 C 691.747 3916.462 691.457 3915.805 691.148 3916.307 Z  M 692.753 3924.334 C 693.682 3924.779 694.165 3925.611 694.165 3926.829 C 694.165 3927.525 694.049 3927.97 693.778 3928.318 C 693.449 3928.724 693.391 3929.092 693.391 3930.562 L 693.391 3932.322 L 693.972 3932.322 L 694.571 3932.322 L 694.513 3938.066 L 694.475 3943.83 L 697.917 3943.888 L 701.341 3943.927 L 701.283 3938.414 L 701.225 3932.902 L 711.862 3932.902 L 722.5 3932.902 L 722.442 3938.414 L 722.384 3943.927 L 725.768 3943.927 L 729.172 3943.927 L 729.172 3938.124 L 729.172 3932.322 L 729.656 3932.322 C 730.14 3932.322 730.14 3932.303 730.14 3930.601 C 730.14 3929.285 730.043 3928.686 729.733 3927.97 C 728.844 3925.978 730.101 3924.005 732.248 3924.005 C 734.53 3924.005 735.923 3926.346 734.781 3928.222 C 734.433 3928.763 734.395 3929.15 734.433 3930.543 C 734.491 3932.225 734.491 3932.225 735.033 3932.283 L 735.555 3932.341 L 735.555 3938.144 L 735.555 3943.927 L 736.329 3943.927 L 737.102 3943.927 L 737.102 3958.568 L 737.102 3973.228 L 737.683 3974.195 C 738.069 3974.853 738.263 3975.433 738.263 3975.994 L 738.263 3976.806 L 711.824 3976.768 L 685.365 3976.71 L 685.307 3975.975 C 685.268 3975.433 685.384 3975.008 685.829 3974.292 L 686.429 3973.325 L 686.467 3958.664 L 686.525 3944.023 L 687.357 3943.965 L 688.169 3943.907 L 688.169 3938.124 L 688.169 3932.341 L 688.711 3932.283 L 689.233 3932.225 L 689.175 3930.484 C 689.136 3929.208 689.02 3928.531 688.73 3927.931 C 687.531 3925.475 690.181 3923.116 692.753 3924.334 Z " fill="rgb(0,0,0)"/><path d=" M 697.24 3983.653 C 696.119 3984.059 695.384 3984.678 694.9 3985.665 C 694.533 3986.438 694.455 3986.864 694.455 3988.508 C 694.455 3990.287 694.494 3990.519 694.997 3991.37 C 695.732 3992.627 696.737 3993.246 698.207 3993.382 C 700.316 3993.575 702.172 3992.395 702.675 3990.539 C 702.965 3989.475 702.946 3987.289 702.656 3986.303 C 701.998 3984.079 699.484 3982.841 697.24 3983.653 Z  M 700.103 3984.93 C 700.954 3985.433 701.302 3986.032 701.553 3987.405 C 701.863 3989.127 701.515 3990.577 700.548 3991.544 C 699.89 3992.221 699.735 3992.279 698.768 3992.279 C 697.337 3992.279 696.525 3991.738 696.041 3990.442 C 695.538 3989.127 695.654 3986.825 696.254 3985.858 C 697.028 3984.601 698.846 3984.156 700.103 3984.93 Z " fill="rgb(0,0,0)"/><path d=" M 707.878 3983.634 C 705.77 3984.427 704.841 3986.187 705.035 3989.069 C 705.228 3991.854 706.756 3993.44 709.251 3993.44 C 711.089 3993.44 712.926 3992.241 712.926 3991.041 C 712.926 3990.558 711.63 3990.616 711.475 3991.119 C 710.992 3992.627 708.226 3992.705 707.124 3991.235 C 706.389 3990.229 706.118 3988.024 706.563 3986.651 C 707.046 3985.239 708.381 3984.407 709.87 3984.601 C 710.644 3984.698 711.572 3985.374 711.572 3985.819 C 711.572 3986.09 712.075 3986.245 712.597 3986.129 C 713.351 3985.935 712.675 3984.523 711.533 3983.943 C 710.528 3983.44 708.806 3983.286 707.878 3983.634 Z " fill="rgb(0,0,0)"/><path d=" M 683.083 3983.711 C 683.005 3983.769 682.947 3985.955 682.947 3988.546 L 682.947 3993.246 L 683.624 3993.246 L 684.301 3993.246 L 684.301 3991.022 L 684.301 3988.798 L 686.525 3988.798 L 688.75 3988.798 L 688.75 3988.314 C 688.75 3987.85 688.75 3987.85 686.583 3987.792 L 684.398 3987.734 L 684.34 3986.226 L 684.282 3984.736 L 686.622 3984.736 L 688.943 3984.736 L 688.943 3984.156 L 688.943 3983.576 L 686.081 3983.576 C 684.495 3983.576 683.141 3983.634 683.083 3983.711 Z " fill="rgb(0,0,0)"/><path d=" M 690.877 3988.392 L 690.877 3993.246 L 691.554 3993.246 L 692.231 3993.246 L 692.192 3988.45 L 692.134 3983.672 L 691.515 3983.614 L 690.877 3983.556 L 690.877 3988.392 Z " fill="rgb(0,0,0)"/><path d=" M 715.053 3988.392 L 715.053 3993.246 L 715.73 3993.246 L 716.407 3993.246 L 716.407 3991.119 L 716.407 3988.991 L 717.955 3988.991 C 719.927 3988.991 720.121 3989.165 720.45 3991.216 C 720.778 3993.227 720.798 3993.246 721.571 3993.246 C 722.113 3993.246 722.21 3993.188 722.132 3992.898 C 722.094 3992.724 721.939 3991.912 721.823 3991.119 C 721.552 3989.494 721.185 3988.604 720.759 3988.604 C 720.334 3988.604 720.411 3988.256 720.875 3988.121 C 721.842 3987.811 722.306 3986.051 721.726 3984.93 C 721.204 3983.924 720.469 3983.692 717.626 3983.614 L 715.053 3983.537 L 715.053 3988.392 Z  M 720.295 3985.297 C 720.798 3985.897 720.778 3986.902 720.256 3987.367 C 719.927 3987.657 719.483 3987.753 718.129 3987.792 L 716.407 3987.869 L 716.407 3986.284 L 716.407 3984.698 L 718.167 3984.775 C 719.734 3984.833 719.966 3984.891 720.295 3985.297 Z " fill="rgb(0,0,0)"/><path d=" M 724.144 3987.135 C 724.144 3989.204 724.241 3990.945 724.357 3991.254 C 725.014 3993.034 727.567 3993.962 729.501 3993.15 C 731.397 3992.357 731.687 3991.583 731.687 3987.096 L 731.687 3983.556 L 731.068 3983.614 L 730.43 3983.672 L 730.333 3987.251 C 730.236 3991.022 730.14 3991.39 729.289 3991.97 C 728.67 3992.376 727.084 3992.376 726.503 3991.97 C 725.575 3991.332 725.42 3990.674 725.343 3986.999 L 725.266 3983.576 L 724.705 3983.576 L 724.144 3983.576 L 724.144 3987.135 Z " fill="rgb(0,0,0)"/><path d=" M 733.814 3984.156 L 733.814 3984.717 L 736.445 3984.775 L 739.075 3984.833 L 736.348 3988.411 C 734.143 3991.293 733.621 3992.105 733.621 3992.608 L 733.621 3993.246 L 737.199 3993.246 L 740.777 3993.246 L 740.777 3992.647 L 740.777 3992.067 L 738.069 3992.105 C 736.58 3992.125 735.323 3992.105 735.284 3992.067 C 735.246 3992.028 736.425 3990.423 737.895 3988.508 C 740.236 3985.471 740.584 3984.93 740.584 3984.291 L 740.584 3983.576 L 737.199 3983.576 L 733.814 3983.576 L 733.814 3984.156 Z " fill="rgb(0,0,0)"/></g></svg>