<?xml version="1.0" encoding="UTF-8" standalone="no"?><!-- Generator: Gravit.io --><svg xmlns="http://www.w3.org/2000/svg" xmlns:xlink="http://www.w3.org/1999/xlink" style="isolation:isolate" viewBox="454.789 3932 183.641 50.245" width="183.641pt" height="50.245pt"><g><path d=" M 497.346 3955.206 L 497.346 3944.944 L 499.529 3944.944 L 499.529 3955.206 L 497.346 3955.206 Z  M 511.25 3955.206 L 508.467 3955.206 L 503.996 3947.441 L 503.93 3947.441 Q 504.065 3949.484 504.065 3950.375 L 504.065 3955.202 L 502.116 3955.202 L 502.116 3944.944 L 504.866 3944.944 L 509.333 3952.631 L 509.382 3952.631 Q 509.284 3950.633 509.284 3949.795 L 509.284 3944.944 L 511.246 3944.944 L 511.25 3955.206 Z  M 519.934 3952.357 C 519.97 3953.205 519.598 3954.02 518.933 3954.548 C 518.124 3955.13 517.141 3955.418 516.146 3955.365 C 515.14 3955.385 514.143 3955.172 513.232 3954.744 L 513.232 3952.725 C 513.802 3952.987 514.391 3953.205 514.993 3953.379 C 515.424 3953.496 515.867 3953.559 516.313 3953.567 C 516.699 3953.592 517.084 3953.497 517.413 3953.293 C 517.673 3953.105 517.818 3952.796 517.797 3952.476 C 517.799 3952.283 517.741 3952.094 517.629 3951.936 C 517.492 3951.758 517.323 3951.605 517.131 3951.487 C 516.702 3951.227 516.257 3950.994 515.799 3950.792 C 515.294 3950.569 514.818 3950.283 514.384 3949.942 C 514.077 3949.675 513.822 3949.353 513.632 3948.994 C 513.438 3948.602 513.343 3948.168 513.355 3947.731 C 513.315 3946.913 513.656 3946.122 514.278 3945.589 C 515.009 3945.032 515.915 3944.755 516.833 3944.809 C 517.348 3944.807 517.862 3944.871 518.361 3945.001 C 518.882 3945.137 519.392 3945.315 519.885 3945.532 L 519.182 3947.224 C 518.74 3947.036 518.286 3946.879 517.822 3946.754 C 517.476 3946.666 517.12 3946.62 516.763 3946.619 C 516.422 3946.597 516.085 3946.7 515.815 3946.909 C 515.597 3947.095 515.475 3947.371 515.484 3947.657 C 515.48 3947.834 515.526 3948.009 515.619 3948.16 C 515.726 3948.323 515.865 3948.462 516.027 3948.569 C 516.474 3948.835 516.935 3949.075 517.409 3949.288 C 518.161 3949.595 518.835 3950.065 519.383 3950.665 C 519.753 3951.151 519.947 3951.747 519.934 3952.357 L 519.934 3952.357 Z  M 525.795 3955.206 L 523.617 3955.206 L 523.617 3946.754 L 520.825 3946.754 L 520.825 3944.944 L 528.59 3944.944 L 528.59 3946.754 L 525.795 3946.754 L 525.795 3955.206 Z  M 530.168 3955.206 L 530.168 3944.944 L 532.346 3944.944 L 532.346 3955.206 L 530.168 3955.206 Z  M 538.902 3955.206 L 536.723 3955.206 L 536.723 3946.754 L 533.932 3946.754 L 533.932 3944.944 L 541.697 3944.944 L 541.697 3946.754 L 538.906 3946.754 L 538.902 3955.206 Z  M 551.681 3944.944 L 551.681 3951.585 C 551.698 3952.284 551.522 3952.974 551.171 3953.579 C 550.826 3954.157 550.312 3954.614 549.699 3954.891 C 548.984 3955.21 548.206 3955.366 547.423 3955.349 Q 545.437 3955.349 544.341 3954.331 C 543.59 3953.609 543.191 3952.596 543.246 3951.556 L 543.246 3944.944 L 545.416 3944.944 L 545.416 3951.225 C 545.364 3951.844 545.534 3952.461 545.894 3952.966 C 546.313 3953.376 546.893 3953.58 547.476 3953.522 C 548.05 3953.576 548.619 3953.372 549.029 3952.966 C 549.391 3952.457 549.562 3951.836 549.511 3951.213 L 549.511 3944.944 L 551.681 3944.944 Z  M 558.196 3955.206 L 556.018 3955.206 L 556.018 3946.754 L 553.226 3946.754 L 553.226 3944.944 L 560.991 3944.944 L 560.991 3946.754 L 558.2 3946.754 L 558.196 3955.206 Z  M 571.916 3950.06 Q 571.916 3952.611 570.649 3953.98 Q 569.382 3955.349 567.02 3955.349 Q 564.661 3955.349 563.39 3953.98 Q 562.119 3952.611 562.128 3950.048 Q 562.128 3947.486 563.394 3946.133 Q 564.661 3944.78 567.036 3944.784 Q 569.402 3944.784 570.657 3946.145 Q 571.912 3947.506 571.916 3950.06 L 571.916 3950.06 Z  M 564.412 3950.06 Q 564.412 3951.785 565.066 3952.651 C 565.533 3953.247 566.264 3953.573 567.02 3953.522 Q 569.631 3953.522 569.627 3950.06 Q 569.623 3946.599 567.036 3946.595 C 566.276 3946.544 565.541 3946.871 565.07 3947.469 C 564.633 3948.05 564.412 3948.916 564.412 3950.06 L 564.412 3950.06 Z  M 579.987 3955.206 L 577.842 3955.206 L 577.842 3944.944 L 583.735 3944.944 L 583.735 3946.725 L 579.987 3946.725 L 579.987 3949.386 L 583.473 3949.386 L 583.473 3951.164 L 579.987 3951.164 L 579.987 3955.206 Z  M 591.704 3955.206 L 585.782 3955.206 L 585.782 3944.944 L 591.704 3944.944 L 591.704 3946.725 L 587.961 3946.725 L 587.961 3948.977 L 591.431 3948.977 L 591.431 3950.759 L 587.949 3950.759 L 587.949 3953.408 L 591.692 3953.408 L 591.704 3955.206 Z  M 602.375 3949.979 Q 602.375 3952.508 600.933 3953.861 Q 599.49 3955.214 596.744 3955.206 L 593.83 3955.206 L 593.83 3944.944 L 597.058 3944.944 C 598.738 3944.944 600.038 3945.385 600.969 3946.272 C 601.901 3947.159 602.375 3948.393 602.375 3949.979 Z  M 600.111 3950.032 Q 600.111 3946.73 597.189 3946.725 L 596.028 3946.725 L 596.028 3953.412 L 596.964 3953.412 Q 600.111 3953.412 600.111 3950.032 L 600.111 3950.032 Z  M 610.426 3955.206 L 604.509 3955.206 L 604.509 3944.944 L 610.426 3944.944 L 610.426 3946.725 L 606.687 3946.725 L 606.687 3948.977 L 610.169 3948.977 L 610.169 3950.759 L 606.687 3950.759 L 606.687 3953.408 L 610.426 3953.408 L 610.426 3955.206 Z  M 614.75 3951.27 L 614.75 3955.206 L 612.572 3955.206 L 612.572 3944.944 L 615.568 3944.944 Q 617.664 3944.944 618.67 3945.708 C 619.786 3946.71 620.001 3948.378 619.176 3949.631 C 618.816 3950.122 618.326 3950.504 617.762 3950.735 Q 620.08 3954.196 620.787 3955.206 L 618.367 3955.206 L 615.915 3951.27 L 614.75 3951.27 Z  M 614.75 3949.5 L 615.453 3949.5 C 615.986 3949.539 616.517 3949.42 616.982 3949.157 C 617.321 3948.905 617.506 3948.496 617.472 3948.074 C 617.509 3947.662 617.316 3947.263 616.97 3947.036 C 616.487 3946.798 615.95 3946.691 615.412 3946.725 L 614.75 3946.725 L 614.75 3949.5 Z  M 628.421 3955.206 L 627.677 3952.754 L 623.93 3952.754 L 623.182 3955.206 L 620.856 3955.206 L 624.465 3944.89 L 627.13 3944.89 L 630.771 3955.194 L 628.421 3955.206 Z  M 627.158 3950.939 Q 626.124 3947.616 625.993 3947.183 C 625.904 3946.893 625.842 3946.664 625.805 3946.497 Q 625.572 3947.392 624.477 3950.939 L 627.158 3950.939 Z  M 632.062 3955.206 L 632.062 3944.944 L 634.245 3944.944 L 634.245 3953.412 L 638.43 3953.412 L 638.43 3955.206 L 632.062 3955.206 Z " fill="rgb(0,0,0)"/><path d=" M 542.127 3977.788 L 543.107 3977.788 L 543.107 3977.788 Q 542.97 3978.961 542.241 3979.598 L 542.241 3979.598 L 542.241 3979.598 Q 541.513 3980.235 540.304 3980.235 L 540.304 3980.235 L 540.304 3980.235 Q 538.995 3980.235 538.205 3979.296 L 538.205 3979.296 L 538.205 3979.296 Q 537.416 3978.357 537.416 3976.783 L 537.416 3976.783 L 537.416 3976.072 L 537.416 3976.072 Q 537.416 3975.041 537.784 3974.26 L 537.784 3974.26 L 537.784 3974.26 Q 538.152 3973.478 538.827 3973.059 L 538.827 3973.059 L 538.827 3973.059 Q 539.502 3972.64 540.391 3972.64 L 540.391 3972.64 L 540.391 3972.64 Q 541.569 3972.64 542.279 3973.298 L 542.279 3973.298 L 542.279 3973.298 Q 542.99 3973.955 543.107 3975.118 L 543.107 3975.118 L 542.127 3975.118 L 542.127 3975.118 Q 542 3974.234 541.576 3973.838 L 541.576 3973.838 L 541.576 3973.838 Q 541.152 3973.442 540.391 3973.442 L 540.391 3973.442 L 540.391 3973.442 Q 539.457 3973.442 538.926 3974.133 L 538.926 3974.133 L 538.926 3974.133 Q 538.396 3974.823 538.396 3976.097 L 538.396 3976.097 L 538.396 3976.813 L 538.396 3976.813 Q 538.396 3978.016 538.898 3978.727 L 538.898 3978.727 L 538.898 3978.727 Q 539.401 3979.438 540.304 3979.438 L 540.304 3979.438 L 540.304 3979.438 Q 541.117 3979.438 541.551 3979.07 L 541.551 3979.07 L 541.551 3979.07 Q 541.985 3978.702 542.127 3977.788 L 542.127 3977.788 Z  M 548.666 3980.133 L 547.681 3980.133 L 547.681 3980.133 Q 547.6 3979.971 547.549 3979.555 L 547.549 3979.555 L 547.549 3979.555 Q 546.894 3980.235 545.985 3980.235 L 545.985 3980.235 L 545.985 3980.235 Q 545.173 3980.235 544.653 3979.776 L 544.653 3979.776 L 544.653 3979.776 Q 544.132 3979.316 544.132 3978.61 L 544.132 3978.61 L 544.132 3978.61 Q 544.132 3977.752 544.785 3977.278 L 544.785 3977.278 L 544.785 3977.278 Q 545.437 3976.803 546.62 3976.803 L 546.62 3976.803 L 547.534 3976.803 L 547.534 3976.372 L 547.534 3976.372 Q 547.534 3975.879 547.239 3975.587 L 547.239 3975.587 L 547.239 3975.587 Q 546.945 3975.295 546.371 3975.295 L 546.371 3975.295 L 546.371 3975.295 Q 545.869 3975.295 545.528 3975.549 L 545.528 3975.549 L 545.528 3975.549 Q 545.188 3975.803 545.188 3976.163 L 545.188 3976.163 L 544.244 3976.163 L 544.244 3976.163 Q 544.244 3975.752 544.536 3975.369 L 544.536 3975.369 L 544.536 3975.369 Q 544.828 3974.986 545.328 3974.762 L 545.328 3974.762 L 545.328 3974.762 Q 545.828 3974.539 546.427 3974.539 L 546.427 3974.539 L 546.427 3974.539 Q 547.376 3974.539 547.914 3975.014 L 547.914 3975.014 L 547.914 3975.014 Q 548.453 3975.488 548.473 3976.321 L 548.473 3976.321 L 548.473 3978.849 L 548.473 3978.849 Q 548.473 3979.605 548.666 3980.052 L 548.666 3980.052 L 548.666 3980.133 Z  M 546.122 3979.418 L 546.122 3979.418 L 546.122 3979.418 Q 546.564 3979.418 546.96 3979.189 L 546.96 3979.189 L 546.96 3979.189 Q 547.356 3978.961 547.534 3978.595 L 547.534 3978.595 L 547.534 3977.468 L 546.798 3977.468 L 546.798 3977.468 Q 545.071 3977.468 545.071 3978.478 L 545.071 3978.478 L 545.071 3978.478 Q 545.071 3978.92 545.366 3979.169 L 545.366 3979.169 L 545.366 3979.169 Q 545.66 3979.418 546.122 3979.418 Z  M 549.94 3974.64 L 550.829 3974.64 L 550.854 3975.25 L 550.854 3975.25 Q 551.458 3974.539 552.484 3974.539 L 552.484 3974.539 L 552.484 3974.539 Q 553.636 3974.539 554.052 3975.422 L 554.052 3975.422 L 554.052 3975.422 Q 554.326 3975.026 554.766 3974.783 L 554.766 3974.783 L 554.766 3974.783 Q 555.205 3974.539 555.804 3974.539 L 555.804 3974.539 L 555.804 3974.539 Q 557.611 3974.539 557.642 3976.453 L 557.642 3976.453 L 557.642 3980.133 L 556.702 3980.133 L 556.702 3976.509 L 556.702 3976.509 Q 556.702 3975.92 556.433 3975.628 L 556.433 3975.628 L 556.433 3975.628 Q 556.164 3975.336 555.53 3975.336 L 555.53 3975.336 L 555.53 3975.336 Q 555.007 3975.336 554.661 3975.648 L 554.661 3975.648 L 554.661 3975.648 Q 554.316 3975.96 554.26 3976.488 L 554.26 3976.488 L 554.26 3980.133 L 553.316 3980.133 L 553.316 3976.534 L 553.316 3976.534 Q 553.316 3975.336 552.143 3975.336 L 552.143 3975.336 L 552.143 3975.336 Q 551.219 3975.336 550.879 3976.123 L 550.879 3976.123 L 550.879 3980.133 L 549.94 3980.133 L 549.94 3974.64 Z  M 563.698 3977.362 L 563.698 3977.448 L 563.698 3977.448 Q 563.698 3978.702 563.124 3979.468 L 563.124 3979.468 L 563.124 3979.468 Q 562.551 3980.235 561.571 3980.235 L 561.571 3980.235 L 561.571 3980.235 Q 560.571 3980.235 559.997 3979.6 L 559.997 3979.6 L 559.997 3982.245 L 559.058 3982.245 L 559.058 3974.64 L 559.916 3974.64 L 559.962 3975.25 L 559.962 3975.25 Q 560.535 3974.539 561.556 3974.539 L 561.556 3974.539 L 561.556 3974.539 Q 562.546 3974.539 563.122 3975.285 L 563.122 3975.285 L 563.122 3975.285 Q 563.698 3976.031 563.698 3977.362 L 563.698 3977.362 Z  M 562.759 3977.341 L 562.759 3977.341 L 562.759 3977.341 Q 562.759 3976.412 562.363 3975.874 L 562.363 3975.874 L 562.363 3975.874 Q 561.967 3975.336 561.276 3975.336 L 561.276 3975.336 L 561.276 3975.336 Q 560.424 3975.336 559.997 3976.092 L 559.997 3976.092 L 559.997 3978.717 L 559.997 3978.717 Q 560.419 3979.468 561.287 3979.468 L 561.287 3979.468 L 561.287 3979.468 Q 561.962 3979.468 562.36 3978.933 L 562.36 3978.933 L 562.36 3978.933 Q 562.759 3978.397 562.759 3977.341 Z  M 565.912 3974.64 L 565.912 3980.133 L 564.972 3980.133 L 564.972 3974.64 L 565.912 3974.64 Z  M 564.896 3973.183 L 564.896 3973.183 L 564.896 3973.183 Q 564.896 3972.955 565.036 3972.798 L 565.036 3972.798 L 565.036 3972.798 Q 565.175 3972.64 565.45 3972.64 L 565.45 3972.64 L 565.45 3972.64 Q 565.724 3972.64 565.866 3972.798 L 565.866 3972.798 L 565.866 3972.798 Q 566.008 3972.955 566.008 3973.183 L 566.008 3973.183 L 566.008 3973.183 Q 566.008 3973.412 565.866 3973.564 L 565.866 3973.564 L 565.866 3973.564 Q 565.724 3973.716 565.45 3973.716 L 565.45 3973.716 L 565.45 3973.716 Q 565.175 3973.716 565.036 3973.564 L 565.036 3973.564 L 565.036 3973.564 Q 564.896 3973.412 564.896 3973.183 Z  M 567.414 3974.64 L 568.303 3974.64 L 568.333 3975.331 L 568.333 3975.331 Q 568.963 3974.539 569.978 3974.539 L 569.978 3974.539 L 569.978 3974.539 Q 571.719 3974.539 571.735 3976.504 L 571.735 3976.504 L 571.735 3980.133 L 570.795 3980.133 L 570.795 3976.498 L 570.795 3976.498 Q 570.79 3975.905 570.524 3975.62 L 570.524 3975.62 L 570.524 3975.62 Q 570.257 3975.336 569.694 3975.336 L 569.694 3975.336 L 569.694 3975.336 Q 569.237 3975.336 568.892 3975.58 L 568.892 3975.58 L 568.892 3975.58 Q 568.546 3975.823 568.353 3976.219 L 568.353 3976.219 L 568.353 3980.133 L 567.414 3980.133 L 567.414 3974.64 Z  M 577.527 3980.133 L 576.542 3980.133 L 576.542 3980.133 Q 576.461 3979.971 576.41 3979.555 L 576.41 3979.555 L 576.41 3979.555 Q 575.755 3980.235 574.847 3980.235 L 574.847 3980.235 L 574.847 3980.235 Q 574.034 3980.235 573.514 3979.776 L 573.514 3979.776 L 573.514 3979.776 Q 572.994 3979.316 572.994 3978.61 L 572.994 3978.61 L 572.994 3978.61 Q 572.994 3977.752 573.646 3977.278 L 573.646 3977.278 L 573.646 3977.278 Q 574.298 3976.803 575.481 3976.803 L 575.481 3976.803 L 576.395 3976.803 L 576.395 3976.372 L 576.395 3976.372 Q 576.395 3975.879 576.101 3975.587 L 576.101 3975.587 L 576.101 3975.587 Q 575.806 3975.295 575.232 3975.295 L 575.232 3975.295 L 575.232 3975.295 Q 574.73 3975.295 574.39 3975.549 L 574.39 3975.549 L 574.39 3975.549 Q 574.05 3975.803 574.05 3976.163 L 574.05 3976.163 L 573.105 3976.163 L 573.105 3976.163 Q 573.105 3975.752 573.397 3975.369 L 573.397 3975.369 L 573.397 3975.369 Q 573.689 3974.986 574.189 3974.762 L 574.189 3974.762 L 574.189 3974.762 Q 574.689 3974.539 575.288 3974.539 L 575.288 3974.539 L 575.288 3974.539 Q 576.238 3974.539 576.776 3975.014 L 576.776 3975.014 L 576.776 3975.014 Q 577.314 3975.488 577.334 3976.321 L 577.334 3976.321 L 577.334 3978.849 L 577.334 3978.849 Q 577.334 3979.605 577.527 3980.052 L 577.527 3980.052 L 577.527 3980.133 Z  M 574.984 3979.418 L 574.984 3979.418 L 574.984 3979.418 Q 575.425 3979.418 575.821 3979.189 L 575.821 3979.189 L 575.821 3979.189 Q 576.217 3978.961 576.395 3978.595 L 576.395 3978.595 L 576.395 3977.468 L 575.659 3977.468 L 575.659 3977.468 Q 573.933 3977.468 573.933 3978.478 L 573.933 3978.478 L 573.933 3978.478 Q 573.933 3978.92 574.227 3979.169 L 574.227 3979.169 L 574.227 3979.169 Q 574.522 3979.418 574.984 3979.418 Z  M 582.005 3978.676 L 582.005 3978.676 L 582.005 3978.676 Q 582.005 3978.296 581.718 3978.085 L 581.718 3978.085 L 581.718 3978.085 Q 581.431 3977.874 580.718 3977.722 L 580.718 3977.722 L 580.718 3977.722 Q 580.005 3977.57 579.586 3977.356 L 579.586 3977.356 L 579.586 3977.356 Q 579.167 3977.143 578.966 3976.849 L 578.966 3976.849 L 578.966 3976.849 Q 578.766 3976.554 578.766 3976.148 L 578.766 3976.148 L 578.766 3976.148 Q 578.766 3975.473 579.337 3975.006 L 579.337 3975.006 L 579.337 3975.006 Q 579.908 3974.539 580.797 3974.539 L 580.797 3974.539 L 580.797 3974.539 Q 581.731 3974.539 582.312 3975.021 L 582.312 3975.021 L 582.312 3975.021 Q 582.893 3975.503 582.893 3976.255 L 582.893 3976.255 L 581.949 3976.255 L 581.949 3976.255 Q 581.949 3975.869 581.622 3975.59 L 581.622 3975.59 L 581.622 3975.59 Q 581.294 3975.311 580.797 3975.311 L 580.797 3975.311 L 580.797 3975.311 Q 580.284 3975.311 579.994 3975.534 L 579.994 3975.534 L 579.994 3975.534 Q 579.705 3975.757 579.705 3976.118 L 579.705 3976.118 L 579.705 3976.118 Q 579.705 3976.458 579.974 3976.63 L 579.974 3976.63 L 579.974 3976.63 Q 580.243 3976.803 580.946 3976.96 L 580.946 3976.96 L 580.946 3976.96 Q 581.649 3977.118 582.086 3977.336 L 582.086 3977.336 L 582.086 3977.336 Q 582.523 3977.554 582.733 3977.862 L 582.733 3977.862 L 582.733 3977.862 Q 582.944 3978.169 582.944 3978.61 L 582.944 3978.61 L 582.944 3978.61 Q 582.944 3979.347 582.355 3979.791 L 582.355 3979.791 L 582.355 3979.791 Q 581.766 3980.235 580.827 3980.235 L 580.827 3980.235 L 580.827 3980.235 Q 580.167 3980.235 579.659 3980.001 L 579.659 3980.001 L 579.659 3980.001 Q 579.152 3979.768 578.865 3979.349 L 578.865 3979.349 L 578.865 3979.349 Q 578.578 3978.93 578.578 3978.443 L 578.578 3978.443 L 579.517 3978.443 L 579.517 3978.443 Q 579.543 3978.915 579.895 3979.192 L 579.895 3979.192 L 579.895 3979.192 Q 580.248 3979.468 580.827 3979.468 L 580.827 3979.468 L 580.827 3979.468 Q 581.36 3979.468 581.682 3979.253 L 581.682 3979.253 L 581.682 3979.253 Q 582.005 3979.037 582.005 3978.676 Z  M 501.092 3977.788 L 502.071 3977.788 L 502.071 3977.788 Q 501.934 3978.961 501.206 3979.598 L 501.206 3979.598 L 501.206 3979.598 Q 500.477 3980.235 499.269 3980.235 L 499.269 3980.235 L 499.269 3980.235 Q 497.959 3980.235 497.17 3979.296 L 497.17 3979.296 L 497.17 3979.296 Q 496.38 3978.357 496.38 3976.783 L 496.38 3976.783 L 496.38 3976.072 L 496.38 3976.072 Q 496.38 3975.041 496.748 3974.26 L 496.748 3974.26 L 496.748 3974.26 Q 497.116 3973.478 497.792 3973.059 L 497.792 3973.059 L 497.792 3973.059 Q 498.467 3972.64 499.355 3972.64 L 499.355 3972.64 L 499.355 3972.64 Q 500.533 3972.64 501.244 3973.298 L 501.244 3973.298 L 501.244 3973.298 Q 501.955 3973.955 502.071 3975.118 L 502.071 3975.118 L 501.092 3975.118 L 501.092 3975.118 Q 500.965 3974.234 500.541 3973.838 L 500.541 3973.838 L 500.541 3973.838 Q 500.117 3973.442 499.355 3973.442 L 499.355 3973.442 L 499.355 3973.442 Q 498.421 3973.442 497.891 3974.133 L 497.891 3974.133 L 497.891 3974.133 Q 497.36 3974.823 497.36 3976.097 L 497.36 3976.097 L 497.36 3976.813 L 497.36 3976.813 Q 497.36 3978.016 497.863 3978.727 L 497.863 3978.727 L 497.863 3978.727 Q 498.365 3979.438 499.269 3979.438 L 499.269 3979.438 L 499.269 3979.438 Q 500.081 3979.438 500.515 3979.07 L 500.515 3979.07 L 500.515 3979.07 Q 500.949 3978.702 501.092 3977.788 L 501.092 3977.788 Z  M 507.63 3980.133 L 506.646 3980.133 L 506.646 3980.133 Q 506.564 3979.971 506.514 3979.555 L 506.514 3979.555 L 506.514 3979.555 Q 505.859 3980.235 504.95 3980.235 L 504.95 3980.235 L 504.95 3980.235 Q 504.138 3980.235 503.617 3979.776 L 503.617 3979.776 L 503.617 3979.776 Q 503.097 3979.316 503.097 3978.61 L 503.097 3978.61 L 503.097 3978.61 Q 503.097 3977.752 503.749 3977.278 L 503.749 3977.278 L 503.749 3977.278 Q 504.402 3976.803 505.585 3976.803 L 505.585 3976.803 L 506.498 3976.803 L 506.498 3976.372 L 506.498 3976.372 Q 506.498 3975.879 506.204 3975.587 L 506.204 3975.587 L 506.204 3975.587 Q 505.909 3975.295 505.336 3975.295 L 505.336 3975.295 L 505.336 3975.295 Q 504.833 3975.295 504.493 3975.549 L 504.493 3975.549 L 504.493 3975.549 Q 504.153 3975.803 504.153 3976.163 L 504.153 3976.163 L 503.209 3976.163 L 503.209 3976.163 Q 503.209 3975.752 503.501 3975.369 L 503.501 3975.369 L 503.501 3975.369 Q 503.792 3974.986 504.292 3974.762 L 504.292 3974.762 L 504.292 3974.762 Q 504.793 3974.539 505.392 3974.539 L 505.392 3974.539 L 505.392 3974.539 Q 506.341 3974.539 506.879 3975.014 L 506.879 3975.014 L 506.879 3975.014 Q 507.417 3975.488 507.438 3976.321 L 507.438 3976.321 L 507.438 3978.849 L 507.438 3978.849 Q 507.438 3979.605 507.63 3980.052 L 507.63 3980.052 L 507.63 3980.133 Z  M 505.087 3979.418 L 505.087 3979.418 L 505.087 3979.418 Q 505.529 3979.418 505.925 3979.189 L 505.925 3979.189 L 505.925 3979.189 Q 506.321 3978.961 506.498 3978.595 L 506.498 3978.595 L 506.498 3977.468 L 505.762 3977.468 L 505.762 3977.468 Q 504.036 3977.468 504.036 3978.478 L 504.036 3978.478 L 504.036 3978.478 Q 504.036 3978.92 504.331 3979.169 L 504.331 3979.169 L 504.331 3979.169 Q 504.625 3979.418 505.087 3979.418 Z  M 508.905 3974.64 L 509.793 3974.64 L 509.819 3975.25 L 509.819 3975.25 Q 510.423 3974.539 511.448 3974.539 L 511.448 3974.539 L 511.448 3974.539 Q 512.601 3974.539 513.017 3975.422 L 513.017 3975.422 L 513.017 3975.422 Q 513.291 3975.026 513.73 3974.783 L 513.73 3974.783 L 513.73 3974.783 Q 514.169 3974.539 514.768 3974.539 L 514.768 3974.539 L 514.768 3974.539 Q 516.576 3974.539 516.606 3976.453 L 516.606 3976.453 L 516.606 3980.133 L 515.667 3980.133 L 515.667 3976.509 L 515.667 3976.509 Q 515.667 3975.92 515.398 3975.628 L 515.398 3975.628 L 515.398 3975.628 Q 515.129 3975.336 514.494 3975.336 L 514.494 3975.336 L 514.494 3975.336 Q 513.971 3975.336 513.626 3975.648 L 513.626 3975.648 L 513.626 3975.648 Q 513.281 3975.96 513.225 3976.488 L 513.225 3976.488 L 513.225 3980.133 L 512.281 3980.133 L 512.281 3976.534 L 512.281 3976.534 Q 512.281 3975.336 511.108 3975.336 L 511.108 3975.336 L 511.108 3975.336 Q 510.184 3975.336 509.844 3976.123 L 509.844 3976.123 L 509.844 3980.133 L 508.905 3980.133 L 508.905 3974.64 Z  M 522.663 3977.362 L 522.663 3977.448 L 522.663 3977.448 Q 522.663 3978.702 522.089 3979.468 L 522.089 3979.468 L 522.089 3979.468 Q 521.515 3980.235 520.536 3980.235 L 520.536 3980.235 L 520.536 3980.235 Q 519.535 3980.235 518.962 3979.6 L 518.962 3979.6 L 518.962 3982.245 L 518.023 3982.245 L 518.023 3974.64 L 518.881 3974.64 L 518.926 3975.25 L 518.926 3975.25 Q 519.5 3974.539 520.52 3974.539 L 520.52 3974.539 L 520.52 3974.539 Q 521.51 3974.539 522.087 3975.285 L 522.087 3975.285 L 522.087 3975.285 Q 522.663 3976.031 522.663 3977.362 L 522.663 3977.362 Z  M 521.724 3977.341 L 521.724 3977.341 L 521.724 3977.341 Q 521.724 3976.412 521.328 3975.874 L 521.328 3975.874 L 521.328 3975.874 Q 520.932 3975.336 520.241 3975.336 L 520.241 3975.336 L 520.241 3975.336 Q 519.388 3975.336 518.962 3976.092 L 518.962 3976.092 L 518.962 3978.717 L 518.962 3978.717 Q 519.383 3979.468 520.251 3979.468 L 520.251 3979.468 L 520.251 3979.468 Q 520.926 3979.468 521.325 3978.933 L 521.325 3978.933 L 521.325 3978.933 Q 521.724 3978.397 521.724 3977.341 Z  M 527.267 3980.133 L 527.247 3979.59 L 527.247 3979.59 Q 526.699 3980.235 525.638 3980.235 L 525.638 3980.235 L 525.638 3980.235 Q 524.759 3980.235 524.3 3979.725 L 524.3 3979.725 L 524.3 3979.725 Q 523.841 3979.215 523.835 3978.214 L 523.835 3978.214 L 523.835 3974.64 L 524.775 3974.64 L 524.775 3978.189 L 524.775 3978.189 Q 524.775 3979.438 525.79 3979.438 L 525.79 3979.438 L 525.79 3979.438 Q 526.866 3979.438 527.222 3978.636 L 527.222 3978.636 L 527.222 3974.64 L 528.161 3974.64 L 528.161 3980.133 L 527.267 3980.133 Z  M 532.786 3978.676 L 532.786 3978.676 L 532.786 3978.676 Q 532.786 3978.296 532.499 3978.085 L 532.499 3978.085 L 532.499 3978.085 Q 532.212 3977.874 531.499 3977.722 L 531.499 3977.722 L 531.499 3977.722 Q 530.786 3977.57 530.367 3977.356 L 530.367 3977.356 L 530.367 3977.356 Q 529.948 3977.143 529.747 3976.849 L 529.747 3976.849 L 529.747 3976.849 Q 529.547 3976.554 529.547 3976.148 L 529.547 3976.148 L 529.547 3976.148 Q 529.547 3975.473 530.118 3975.006 L 530.118 3975.006 L 530.118 3975.006 Q 530.689 3974.539 531.577 3974.539 L 531.577 3974.539 L 531.577 3974.539 Q 532.512 3974.539 533.093 3975.021 L 533.093 3975.021 L 533.093 3975.021 Q 533.674 3975.503 533.674 3976.255 L 533.674 3976.255 L 532.73 3976.255 L 532.73 3976.255 Q 532.73 3975.869 532.402 3975.59 L 532.402 3975.59 L 532.402 3975.59 Q 532.075 3975.311 531.577 3975.311 L 531.577 3975.311 L 531.577 3975.311 Q 531.065 3975.311 530.775 3975.534 L 530.775 3975.534 L 530.775 3975.534 Q 530.486 3975.757 530.486 3976.118 L 530.486 3976.118 L 530.486 3976.118 Q 530.486 3976.458 530.755 3976.63 L 530.755 3976.63 L 530.755 3976.63 Q 531.024 3976.803 531.727 3976.96 L 531.727 3976.96 L 531.727 3976.96 Q 532.43 3977.118 532.867 3977.336 L 532.867 3977.336 L 532.867 3977.336 Q 533.304 3977.554 533.514 3977.862 L 533.514 3977.862 L 533.514 3977.862 Q 533.725 3978.169 533.725 3978.61 L 533.725 3978.61 L 533.725 3978.61 Q 533.725 3979.347 533.136 3979.791 L 533.136 3979.791 L 533.136 3979.791 Q 532.547 3980.235 531.608 3980.235 L 531.608 3980.235 L 531.608 3980.235 Q 530.948 3980.235 530.44 3980.001 L 530.44 3980.001 L 530.44 3980.001 Q 529.933 3979.768 529.646 3979.349 L 529.646 3979.349 L 529.646 3979.349 Q 529.359 3978.93 529.359 3978.443 L 529.359 3978.443 L 530.298 3978.443 L 530.298 3978.443 Q 530.324 3978.915 530.676 3979.192 L 530.676 3979.192 L 530.676 3979.192 Q 531.029 3979.468 531.608 3979.468 L 531.608 3979.468 L 531.608 3979.468 Q 532.141 3979.468 532.463 3979.253 L 532.463 3979.253 L 532.463 3979.253 Q 532.786 3979.037 532.786 3978.676 Z  M 519.678 3965.055 L 517.936 3965.055 L 517.936 3967.949 L 516.962 3967.949 L 516.962 3960.557 L 519.688 3960.557 L 519.688 3960.557 Q 520.901 3960.557 521.589 3961.177 L 521.589 3961.177 L 521.589 3961.177 Q 522.277 3961.796 522.277 3962.817 L 522.277 3962.817 L 522.277 3962.817 Q 522.277 3963.893 521.604 3964.474 L 521.604 3964.474 L 521.604 3964.474 Q 520.932 3965.055 519.678 3965.055 L 519.678 3965.055 Z  M 517.936 3961.36 L 517.936 3964.258 L 519.688 3964.258 L 519.688 3964.258 Q 520.47 3964.258 520.886 3963.89 L 520.886 3963.89 L 520.886 3963.89 Q 521.302 3963.522 521.302 3962.827 L 521.302 3962.827 L 521.302 3962.827 Q 521.302 3962.167 520.886 3961.771 L 520.886 3961.771 L 520.886 3961.771 Q 520.47 3961.375 519.744 3961.36 L 519.744 3961.36 L 517.936 3961.36 Z  M 527.694 3967.949 L 526.709 3967.949 L 526.709 3967.949 Q 526.628 3967.787 526.577 3967.37 L 526.577 3967.37 L 526.577 3967.37 Q 525.922 3968.051 525.013 3968.051 L 525.013 3968.051 L 525.013 3968.051 Q 524.201 3968.051 523.681 3967.591 L 523.681 3967.591 L 523.681 3967.591 Q 523.16 3967.132 523.16 3966.426 L 523.16 3966.426 L 523.16 3966.426 Q 523.16 3965.568 523.813 3965.094 L 523.813 3965.094 L 523.813 3965.094 Q 524.465 3964.619 525.648 3964.619 L 525.648 3964.619 L 526.562 3964.619 L 526.562 3964.187 L 526.562 3964.187 Q 526.562 3963.695 526.267 3963.403 L 526.267 3963.403 L 526.267 3963.403 Q 525.973 3963.111 525.399 3963.111 L 525.399 3963.111 L 525.399 3963.111 Q 524.896 3963.111 524.556 3963.365 L 524.556 3963.365 L 524.556 3963.365 Q 524.216 3963.619 524.216 3963.979 L 524.216 3963.979 L 523.272 3963.979 L 523.272 3963.979 Q 523.272 3963.568 523.564 3963.185 L 523.564 3963.185 L 523.564 3963.185 Q 523.856 3962.801 524.356 3962.578 L 524.356 3962.578 L 524.356 3962.578 Q 524.856 3962.355 525.455 3962.355 L 525.455 3962.355 L 525.455 3962.355 Q 526.404 3962.355 526.942 3962.829 L 526.942 3962.829 L 526.942 3962.829 Q 527.481 3963.304 527.501 3964.137 L 527.501 3964.137 L 527.501 3966.665 L 527.501 3966.665 Q 527.501 3967.421 527.694 3967.868 L 527.694 3967.868 L 527.694 3967.949 Z  M 525.15 3967.233 L 525.15 3967.233 L 525.15 3967.233 Q 525.592 3967.233 525.988 3967.005 L 525.988 3967.005 L 525.988 3967.005 Q 526.384 3966.777 526.562 3966.411 L 526.562 3966.411 L 526.562 3965.284 L 525.826 3965.284 L 525.826 3965.284 Q 524.099 3965.284 524.099 3966.294 L 524.099 3966.294 L 524.099 3966.294 Q 524.099 3966.736 524.394 3966.985 L 524.394 3966.985 L 524.394 3966.985 Q 524.688 3967.233 525.15 3967.233 Z  M 532.385 3967.949 L 532.364 3967.406 L 532.364 3967.406 Q 531.816 3968.051 530.755 3968.051 L 530.755 3968.051 L 530.755 3968.051 Q 529.877 3968.051 529.417 3967.541 L 529.417 3967.541 L 529.417 3967.541 Q 528.958 3967.03 528.953 3966.03 L 528.953 3966.03 L 528.953 3962.456 L 529.892 3962.456 L 529.892 3966.005 L 529.892 3966.005 Q 529.892 3967.254 530.907 3967.254 L 530.907 3967.254 L 530.907 3967.254 Q 531.984 3967.254 532.339 3966.452 L 532.339 3966.452 L 532.339 3962.456 L 533.278 3962.456 L 533.278 3967.949 L 532.385 3967.949 Z  M 535.725 3960.151 L 535.725 3967.949 L 534.786 3967.949 L 534.786 3960.151 L 535.725 3960.151 Z  M 536.979 3965.218 L 536.979 3965.152 L 536.979 3965.152 Q 536.979 3964.345 537.296 3963.7 L 537.296 3963.7 L 537.296 3963.7 Q 537.614 3963.055 538.18 3962.705 L 538.18 3962.705 L 538.18 3962.705 Q 538.746 3962.355 539.472 3962.355 L 539.472 3962.355 L 539.472 3962.355 Q 540.594 3962.355 541.287 3963.131 L 541.287 3963.131 L 541.287 3963.131 Q 541.98 3963.908 541.98 3965.198 L 541.98 3965.198 L 541.98 3965.264 L 541.98 3965.264 Q 541.98 3966.066 541.673 3966.703 L 541.673 3966.703 L 541.673 3966.703 Q 541.365 3967.34 540.794 3967.695 L 540.794 3967.695 L 540.794 3967.695 Q 540.223 3968.051 539.482 3968.051 L 539.482 3968.051 L 539.482 3968.051 Q 538.365 3968.051 537.672 3967.274 L 537.672 3967.274 L 537.672 3967.274 Q 536.979 3966.497 536.979 3965.218 L 536.979 3965.218 Z  M 537.923 3965.264 L 537.923 3965.264 L 537.923 3965.264 Q 537.923 3966.177 538.347 3966.731 L 538.347 3966.731 L 538.347 3966.731 Q 538.771 3967.284 539.482 3967.284 L 539.482 3967.284 L 539.482 3967.284 Q 540.198 3967.284 540.619 3966.723 L 540.619 3966.723 L 540.619 3966.723 Q 541.041 3966.162 541.041 3965.152 L 541.041 3965.152 L 541.041 3965.152 Q 541.041 3964.248 540.612 3963.687 L 540.612 3963.687 L 540.612 3963.687 Q 540.183 3963.126 539.472 3963.126 L 539.472 3963.126 L 539.472 3963.126 Q 538.776 3963.126 538.35 3963.68 L 538.35 3963.68 L 538.35 3963.68 Q 537.923 3964.233 537.923 3965.264 Z  M 498.812 3964.654 L 498.812 3964.654 L 498.812 3964.654 Q 497.558 3964.294 496.987 3963.769 L 496.987 3963.769 L 496.987 3963.769 Q 496.416 3963.243 496.416 3962.471 L 496.416 3962.471 L 496.416 3962.471 Q 496.416 3961.598 497.114 3961.027 L 497.114 3961.027 L 497.114 3961.027 Q 497.812 3960.456 498.929 3960.456 L 498.929 3960.456 L 498.929 3960.456 Q 499.69 3960.456 500.287 3960.75 L 500.287 3960.75 L 500.287 3960.75 Q 500.883 3961.045 501.211 3961.563 L 501.211 3961.563 L 501.211 3961.563 Q 501.538 3962.081 501.538 3962.695 L 501.538 3962.695 L 500.559 3962.695 L 500.559 3962.695 Q 500.559 3962.025 500.132 3961.641 L 500.132 3961.641 L 500.132 3961.641 Q 499.706 3961.258 498.929 3961.258 L 498.929 3961.258 L 498.929 3961.258 Q 498.208 3961.258 497.804 3961.575 L 497.804 3961.575 L 497.804 3961.575 Q 497.401 3961.893 497.401 3962.456 L 497.401 3962.456 L 497.401 3962.456 Q 497.401 3962.908 497.784 3963.22 L 497.784 3963.22 L 497.784 3963.22 Q 498.167 3963.532 499.089 3963.791 L 499.089 3963.791 L 499.089 3963.791 Q 500.01 3964.05 500.531 3964.363 L 500.531 3964.363 L 500.531 3964.363 Q 501.051 3964.675 501.302 3965.091 L 501.302 3965.091 L 501.302 3965.091 Q 501.554 3965.507 501.554 3966.071 L 501.554 3966.071 L 501.554 3966.071 Q 501.554 3966.969 500.853 3967.51 L 500.853 3967.51 L 500.853 3967.51 Q 500.152 3968.051 498.98 3968.051 L 498.98 3968.051 L 498.98 3968.051 Q 498.218 3968.051 497.558 3967.759 L 497.558 3967.759 L 497.558 3967.759 Q 496.898 3967.467 496.54 3966.959 L 496.54 3966.959 L 496.54 3966.959 Q 496.182 3966.452 496.182 3965.807 L 496.182 3965.807 L 497.162 3965.807 L 497.162 3965.807 Q 497.162 3966.477 497.657 3966.865 L 497.657 3966.865 L 497.657 3966.865 Q 498.152 3967.254 498.98 3967.254 L 498.98 3967.254 L 498.98 3967.254 Q 499.751 3967.254 500.163 3966.939 L 500.163 3966.939 L 500.163 3966.939 Q 500.574 3966.624 500.574 3966.081 L 500.574 3966.081 L 500.574 3966.081 Q 500.574 3965.538 500.193 3965.241 L 500.193 3965.241 L 500.193 3965.241 Q 499.812 3964.944 498.812 3964.654 Z  M 507.031 3967.949 L 506.047 3967.949 L 506.047 3967.949 Q 505.965 3967.787 505.915 3967.37 L 505.915 3967.37 L 505.915 3967.37 Q 505.26 3968.051 504.351 3968.051 L 504.351 3968.051 L 504.351 3968.051 Q 503.539 3968.051 503.018 3967.591 L 503.018 3967.591 L 503.018 3967.591 Q 502.498 3967.132 502.498 3966.426 L 502.498 3966.426 L 502.498 3966.426 Q 502.498 3965.568 503.15 3965.094 L 503.15 3965.094 L 503.15 3965.094 Q 503.803 3964.619 504.985 3964.619 L 504.985 3964.619 L 505.899 3964.619 L 505.899 3964.187 L 505.899 3964.187 Q 505.899 3963.695 505.605 3963.403 L 505.605 3963.403 L 505.605 3963.403 Q 505.31 3963.111 504.737 3963.111 L 504.737 3963.111 L 504.737 3963.111 Q 504.234 3963.111 503.894 3963.365 L 503.894 3963.365 L 503.894 3963.365 Q 503.554 3963.619 503.554 3963.979 L 503.554 3963.979 L 502.61 3963.979 L 502.61 3963.979 Q 502.61 3963.568 502.901 3963.185 L 502.901 3963.185 L 502.901 3963.185 Q 503.193 3962.801 503.693 3962.578 L 503.693 3962.578 L 503.693 3962.578 Q 504.193 3962.355 504.793 3962.355 L 504.793 3962.355 L 504.793 3962.355 Q 505.742 3962.355 506.28 3962.829 L 506.28 3962.829 L 506.28 3962.829 Q 506.818 3963.304 506.838 3964.137 L 506.838 3964.137 L 506.838 3966.665 L 506.838 3966.665 Q 506.838 3967.421 507.031 3967.868 L 507.031 3967.868 L 507.031 3967.949 Z  M 504.488 3967.233 L 504.488 3967.233 L 504.488 3967.233 Q 504.93 3967.233 505.326 3967.005 L 505.326 3967.005 L 505.326 3967.005 Q 505.722 3966.777 505.899 3966.411 L 505.899 3966.411 L 505.899 3965.284 L 505.163 3965.284 L 505.163 3965.284 Q 503.437 3965.284 503.437 3966.294 L 503.437 3966.294 L 503.437 3966.294 Q 503.437 3966.736 503.732 3966.985 L 503.732 3966.985 L 503.732 3966.985 Q 504.026 3967.233 504.488 3967.233 Z  M 506.067 3960.253 L 506.696 3960.314 L 506.696 3960.314 Q 506.696 3960.862 506.384 3961.202 L 506.384 3961.202 L 506.384 3961.202 Q 506.072 3961.542 505.605 3961.542 L 505.605 3961.542 L 505.605 3961.542 Q 505.397 3961.542 505.244 3961.492 L 505.244 3961.492 L 505.244 3961.492 Q 505.092 3961.441 504.846 3961.283 L 504.846 3961.283 L 504.846 3961.283 Q 504.6 3961.126 504.49 3961.093 L 504.49 3961.093 L 504.49 3961.093 Q 504.381 3961.06 504.239 3961.06 L 504.239 3961.06 L 504.239 3961.06 Q 504.031 3961.06 503.884 3961.22 L 503.884 3961.22 L 503.884 3961.22 Q 503.737 3961.38 503.737 3961.629 L 503.737 3961.629 L 503.107 3961.593 L 503.107 3961.593 Q 503.107 3961.05 503.414 3960.695 L 503.414 3960.695 L 503.414 3960.695 Q 503.721 3960.339 504.193 3960.339 L 504.193 3960.339 L 504.193 3960.339 Q 504.371 3960.339 504.513 3960.39 L 504.513 3960.39 L 504.513 3960.39 Q 504.655 3960.441 504.899 3960.588 L 504.899 3960.588 L 504.899 3960.588 Q 505.143 3960.735 505.272 3960.781 L 505.272 3960.781 L 505.272 3960.781 Q 505.402 3960.827 505.559 3960.827 L 505.559 3960.827 L 505.559 3960.827 Q 505.777 3960.827 505.922 3960.654 L 505.922 3960.654 L 505.922 3960.654 Q 506.067 3960.481 506.067 3960.253 L 506.067 3960.253 Z  M 508.062 3965.218 L 508.062 3965.152 L 508.062 3965.152 Q 508.062 3964.345 508.379 3963.7 L 508.379 3963.7 L 508.379 3963.7 Q 508.697 3963.055 509.263 3962.705 L 509.263 3962.705 L 509.263 3962.705 Q 509.829 3962.355 510.555 3962.355 L 510.555 3962.355 L 510.555 3962.355 Q 511.677 3962.355 512.37 3963.131 L 512.37 3963.131 L 512.37 3963.131 Q 513.063 3963.908 513.063 3965.198 L 513.063 3965.198 L 513.063 3965.264 L 513.063 3965.264 Q 513.063 3966.066 512.755 3966.703 L 512.755 3966.703 L 512.755 3966.703 Q 512.448 3967.34 511.877 3967.695 L 511.877 3967.695 L 511.877 3967.695 Q 511.306 3968.051 510.565 3968.051 L 510.565 3968.051 L 510.565 3968.051 Q 509.448 3968.051 508.755 3967.274 L 508.755 3967.274 L 508.755 3967.274 Q 508.062 3966.497 508.062 3965.218 L 508.062 3965.218 Z  M 509.006 3965.264 L 509.006 3965.264 L 509.006 3965.264 Q 509.006 3966.177 509.43 3966.731 L 509.43 3966.731 L 509.43 3966.731 Q 509.854 3967.284 510.565 3967.284 L 510.565 3967.284 L 510.565 3967.284 Q 511.281 3967.284 511.702 3966.723 L 511.702 3966.723 L 511.702 3966.723 Q 512.123 3966.162 512.123 3965.152 L 512.123 3965.152 L 512.123 3965.152 Q 512.123 3964.248 511.694 3963.687 L 511.694 3963.687 L 511.694 3963.687 Q 511.265 3963.126 510.555 3963.126 L 510.555 3963.126 L 510.555 3963.126 Q 509.859 3963.126 509.433 3963.68 L 509.433 3963.68 L 509.433 3963.68 Q 509.006 3964.233 509.006 3965.264 Z " fill="rgb(0,0,0)"/><g><path d="M 468.686 3932.51 L 476.994 3932.51 C 477.549 3932.51 478 3932.961 478 3933.516 L 478 3941.824 C 478 3942.379 477.549 3942.83 476.994 3942.83 L 468.686 3942.83 C 468.131 3942.83 467.68 3942.379 467.68 3941.824 L 467.68 3933.516 C 467.68 3932.961 468.131 3932.51 468.686 3932.51 Z" style="stroke:none;fill:#2F9E40;stroke-miterlimit:10;"/><path d="M 481.066 3932.51 L 489.374 3932.51 C 489.929 3932.51 490.38 3932.961 490.38 3933.516 L 490.38 3941.824 C 490.38 3942.379 489.929 3942.83 489.374 3942.83 L 481.066 3942.83 C 480.511 3942.83 480.06 3942.379 480.06 3941.824 L 480.06 3933.516 C 480.06 3932.961 480.511 3932.51 481.066 3932.51 Z" style="stroke:none;fill:#2F9E40;stroke-miterlimit:10;"/><path d="M 481.066 3957.27 L 489.374 3957.27 C 489.929 3957.27 490.38 3957.721 490.38 3958.276 L 490.38 3966.584 C 490.38 3967.139 489.929 3967.59 489.374 3967.59 L 481.066 3967.59 C 480.511 3967.59 480.06 3967.139 480.06 3966.584 L 480.06 3958.276 C 480.06 3957.721 480.511 3957.27 481.066 3957.27 Z" style="stroke:none;fill:#2F9E40;stroke-miterlimit:10;"/><path d="M 456.306 3944.89 L 464.614 3944.89 C 465.169 3944.89 465.62 3945.34 465.62 3945.895 L 465.62 3954.195 C 465.62 3954.75 465.169 3955.2 464.614 3955.2 L 456.306 3955.2 C 455.751 3955.2 455.3 3954.75 455.3 3954.195 L 455.3 3945.895 C 455.3 3945.34 455.751 3944.89 456.306 3944.89 Z" style="stroke:none;fill:#2F9E40;stroke-miterlimit:10;"/><path d="M 468.686 3944.89 L 476.994 3944.89 C 477.549 3944.89 478 3945.34 478 3945.895 L 478 3954.195 C 478 3954.75 477.549 3955.2 476.994 3955.2 L 468.686 3955.2 C 468.131 3955.2 467.68 3954.75 467.68 3954.195 L 467.68 3945.895 C 467.68 3945.34 468.131 3944.89 468.686 3944.89 Z" style="stroke:none;fill:#2F9E40;stroke-miterlimit:10;"/><path d="M 456.306 3957.27 L 464.614 3957.27 C 465.169 3957.27 465.62 3957.721 465.62 3958.276 L 465.62 3966.584 C 465.62 3967.139 465.169 3967.59 464.614 3967.59 L 456.306 3967.59 C 455.751 3967.59 455.3 3967.139 455.3 3966.584 L 455.3 3958.276 C 455.3 3957.721 455.751 3957.27 456.306 3957.27 Z" style="stroke:none;fill:#2F9E40;stroke-miterlimit:10;"/><path d="M 468.686 3957.27 L 476.994 3957.27 C 477.549 3957.27 478 3957.721 478 3958.276 L 478 3966.584 C 478 3967.139 477.549 3967.59 476.994 3967.59 L 468.686 3967.59 C 468.131 3967.59 467.68 3967.139 467.68 3966.584 L 467.68 3958.276 C 467.68 3957.721 468.131 3957.27 468.686 3957.27 Z" style="stroke:none;fill:#2F9E40;stroke-miterlimit:10;"/><path d="M 456.306 3969.66 L 464.614 3969.66 C 465.169 3969.66 465.62 3970.111 465.62 3970.666 L 465.62 3978.974 C 465.62 3979.529 465.169 3979.98 464.614 3979.98 L 456.306 3979.98 C 455.751 3979.98 455.3 3979.529 455.3 3978.974 L 455.3 3970.666 C 455.3 3970.111 455.751 3969.66 456.306 3969.66 Z" style="stroke:none;fill:#2F9E40;stroke-miterlimit:10;"/><path d="M 468.686 3969.66 L 476.994 3969.66 C 477.549 3969.66 478 3970.111 478 3970.666 L 478 3978.974 C 478 3979.529 477.549 3979.98 476.994 3979.98 L 468.686 3979.98 C 468.131 3979.98 467.68 3979.529 467.68 3978.974 L 467.68 3970.666 C 467.68 3970.111 468.131 3969.66 468.686 3969.66 Z" style="stroke:none;fill:#2F9E40;stroke-miterlimit:10;"/></g><path d=" M 466.134 3937.673 C 466.134 3939.967 464.752 3942.035 462.633 3942.913 C 460.513 3943.791 458.073 3943.306 456.451 3941.684 C 454.828 3940.061 454.343 3937.622 455.221 3935.502 C 456.099 3933.382 458.167 3932 460.462 3932 C 461.967 3931.999 463.41 3932.596 464.474 3933.66 C 465.538 3934.724 466.136 3936.168 466.134 3937.673 Z " fill="rgb(206,26,32)"/></g></svg>