<?xml version="1.0" encoding="UTF-8" standalone="no"?><!-- Generator: Gravit.io --><svg xmlns="http://www.w3.org/2000/svg" xmlns:xlink="http://www.w3.org/1999/xlink" style="isolation:isolate" viewBox="297.496 3916.145 78.504 88.084" width="78.504pt" height="88.084pt"><g><path d=" M 333.488 3945.137 L 333.488 3916.91 C 336.761 3916.982 340.014 3917.455 343.173 3918.317 C 342.847 3920.251 343.675 3922.186 345.284 3923.304 L 335.938 3945.652 C 335.142 3945.394 334.32 3945.221 333.488 3945.137 L 333.488 3945.137 Z  M 331.024 3945.137 L 331.024 3916.948 C 326.58 3917.175 322.223 3918.267 318.197 3920.163 L 328.649 3945.627 C 329.42 3945.375 330.216 3945.211 331.024 3945.137 L 331.024 3945.137 Z  M 326.761 3946.336 L 316.36 3921.01 C 312.36 3923.062 308.763 3925.819 305.745 3929.151 L 324.462 3947.868 C 325.169 3947.273 325.94 3946.759 326.761 3946.336 L 326.761 3946.336 Z  M 304.449 3930.684 C 301.699 3933.949 299.616 3937.722 298.319 3941.789 L 321.583 3951.524 C 321.989 3950.728 322.486 3949.981 323.066 3949.301 L 304.449 3930.684 Z  M 320.767 3953.395 L 297.829 3943.798 C 297.3 3947.889 297.402 3952.037 298.13 3956.097 L 320.227 3956.097 C 320.306 3955.179 320.487 3954.273 320.767 3953.395 L 320.767 3953.395 Z  M 320.234 3958.125 L 298.702 3958.125 C 300.01 3961.509 301.7 3964.734 303.74 3967.735 L 320.749 3960.75 C 320.483 3959.896 320.311 3959.016 320.234 3958.125 Z  M 323.098 3964.785 C 322.494 3964.085 321.98 3963.313 321.565 3962.486 L 305.147 3969.219 C 307.434 3971.493 309.958 3973.49 312.672 3975.212 L 323.098 3964.785 Z  M 336.152 3979.838 C 335.91 3977.895 336.81 3975.987 338.464 3974.938 L 335.863 3968.507 C 331.931 3969.728 327.649 3968.856 324.507 3966.196 L 314.458 3976.245 C 321.103 3979.778 328.722 3981.04 336.152 3979.838 L 336.152 3979.838 Z  M 337.618 3967.782 L 340.231 3974.264 C 342.246 3973.926 344.266 3974.839 345.343 3976.575 C 346.461 3976.048 347.567 3975.495 348.66 3974.917 L 339.98 3966.224 C 339.259 3966.838 338.465 3967.361 337.618 3967.782 L 337.618 3967.782 Z  M 368.855 3960.656 C 368.121 3959.937 367.622 3959.013 367.423 3958.005 L 344.195 3958.005 C 343.994 3960.505 343.002 3962.879 341.394 3964.788 L 350.502 3973.896 C 357.122 3970.224 363.283 3965.78 368.855 3960.656 L 368.855 3960.656 Z  M 355.733 3925.622 C 356.824 3926.714 357.848 3927.872 358.799 3929.089 L 339.955 3947.932 C 339.27 3947.359 338.525 3946.862 337.733 3946.449 L 347.078 3924.101 C 348.812 3924.453 350.609 3923.85 351.802 3922.531 C 353.185 3923.465 354.499 3924.498 355.733 3925.622 L 355.733 3925.622 Z " fill-rule="evenodd" fill="rgb(0,0,0)"/><path d=" M 341.045 3976.222 C 339.377 3976.222 338.018 3977.587 338.018 3979.262 C 338.018 3980.936 339.377 3982.302 341.045 3982.302 C 342.713 3982.302 344.072 3980.936 344.072 3979.262 C 344.072 3977.587 342.712 3976.222 341.045 3976.222 L 341.045 3976.222 Z  M 372.96 3953.576 C 371.283 3953.58 369.924 3954.939 369.921 3956.616 C 369.921 3958.291 371.286 3959.656 372.96 3959.656 C 374.635 3959.656 376 3958.291 376 3956.616 C 375.998 3954.939 374.638 3953.579 372.96 3953.576 L 372.96 3953.576 Z  M 348.051 3916.145 C 346.373 3916.148 345.014 3917.507 345.011 3919.185 C 345.011 3920.859 346.376 3922.225 348.051 3922.225 C 349.725 3922.225 351.09 3920.859 351.09 3919.185 C 351.087 3917.507 349.728 3916.148 348.051 3916.145 L 348.051 3916.145 Z " fill-rule="evenodd" fill="rgb(204,34,41)"/><path d=" M 310.176 4004.215 L 310.176 3996.238 L 313.594 3996.238 L 318.241 4001.74 L 318.241 3996.288 L 320.628 3996.288 L 320.628 4004.215 L 316.985 4004.215 L 312.513 3998.989 L 312.513 4004.215 L 310.176 4004.215 L 310.176 4004.215 Z  M 322.632 4004.215 L 322.632 3996.175 L 324.867 3996.175 L 324.867 4004.215 L 322.632 4004.215 Z  M 333.821 4001.284 L 336.044 4001.284 L 336.044 4002.352 C 336.044 4003.457 335.09 4004.324 333.984 4004.211 L 329.362 4004.211 C 328.212 4004.212 327.246 4003.345 327.125 4002.201 L 327.125 3998.182 C 327.125 3996.988 328.168 3996.046 329.362 3996.172 L 333.984 3996.172 C 335.049 3996.171 335.942 3996.973 336.057 3998.031 L 336.057 3999.111 L 333.821 3999.111 C 333.815 3998.853 333.705 3998.609 333.515 3998.433 C 333.326 3998.258 333.074 3998.167 332.816 3998.182 L 330.479 3998.182 C 329.889 3998.156 329.387 3998.609 329.362 3999.187 L 329.362 4001.197 C 329.387 4001.786 329.889 4002.227 330.479 4002.202 L 332.816 4002.202 C 333.071 4002.214 333.321 4002.125 333.51 4001.952 C 333.698 4001.78 333.81 4001.539 333.821 4001.284 L 333.821 4001.284 Z  M 340.548 4002.949 L 340 4004.229 L 337.623 4004.229 L 340.913 3996.275 L 344.57 3996.275 L 347.954 4004.229 L 345.394 4004.229 L 345.028 4002.949 L 340.548 4002.949 Z  M 344.114 4001.029 L 341.371 4001.029 L 342.742 3997.646 L 344.114 4001.029 Z  M 352.07 3999.619 L 352.07 4004.179 L 349.835 4004.179 L 349.835 3996.139 L 352.41 3996.139 L 356.442 4002.407 L 360.198 3996.139 L 362.736 3996.139 L 362.736 4004.179 L 360.5 4004.179 L 360.5 3999.87 L 357.911 4004.179 L 354.997 4004.179 L 352.07 3999.619 L 352.07 3999.619 Z  M 364.792 4004.215 L 364.792 3996.078 L 371.831 3996.078 C 372.928 3996.078 373.752 3996.992 373.935 3998.089 L 373.935 4000.284 C 373.935 4001.38 372.929 4002.387 371.831 4002.387 L 367.169 4002.387 L 367.169 4004.215 L 364.792 4004.215 L 364.792 4004.215 L 364.792 4004.215 Z  M 367.169 4000.192 L 367.169 3998.18 L 370.735 3998.18 C 372.106 3998.18 372.106 4000.192 370.735 4000.192 L 367.169 4000.192 Z  M 300.386 4001.151 L 300.386 3996.126 L 298.15 3996.126 L 298.15 4002.244 C 298.15 4002.753 298.352 4003.242 298.713 4003.603 C 299.073 4003.963 299.562 4004.165 300.072 4004.165 L 306.341 4004.165 C 306.851 4004.168 307.341 4003.966 307.702 4003.605 C 308.063 4003.244 308.265 4002.754 308.262 4002.244 L 308.262 3996.189 L 306.027 3996.189 L 306.027 4001.151 C 306.025 4001.705 305.576 4002.154 305.022 4002.156 L 301.391 4002.156 C 300.837 4002.154 300.388 4001.705 300.386 4001.151 Z  M 365.858 3942.206 C 364.726 3939.529 363.482 3936.901 362.127 3934.329 C 361.437 3933.113 360.708 3931.919 359.941 3930.75 L 341.362 3949.329 C 341.951 3950.037 342.461 3950.808 342.881 3951.628 L 365.858 3942.206 L 365.858 3942.206 Z  M 366.657 3944.071 C 367.775 3946.973 368.792 3949.925 369.673 3952.915 C 368.536 3953.64 367.736 3954.788 367.449 3956.106 L 344.209 3956.106 C 344.138 3955.214 343.966 3954.333 343.694 3953.48 L 366.657 3944.071 L 366.657 3944.071 Z " fill-rule="evenodd" fill="rgb(0,0,0)"/></g></svg>