<?xml version="1.0" encoding="UTF-8" standalone="no"?><!-- Generator: Gravit.io --><svg xmlns="http://www.w3.org/2000/svg" xmlns:xlink="http://www.w3.org/1999/xlink" style="isolation:isolate" viewBox="307.132 4229.84 204.368 41.09" width="204.368pt" height="41.09pt"><g><path d=" M 354.904 4241.431 C 358.537 4241.421 362.193 4241.415 365.835 4241.408 C 365.569 4242.441 365.302 4243.474 365.032 4244.504 C 362.866 4244.511 360.71 4244.514 358.54 4244.521 C 358.327 4245.36 358.11 4246.2 357.893 4247.037 C 359.74 4247.03 361.589 4247.027 363.436 4247.024 C 363.186 4247.99 362.936 4248.96 362.686 4249.926 C 360.839 4249.93 358.993 4249.933 357.143 4249.94 C 356.894 4250.92 356.64 4251.899 356.387 4252.876 C 356.137 4253.856 355.884 4254.832 355.634 4255.809 C 354.151 4255.812 352.678 4255.815 351.208 4255.819 C 351.821 4253.426 352.438 4251.033 353.051 4248.637 C 353.667 4246.24 354.284 4243.834 354.904 4241.431 Z  M 377.53 4241.381 C 378.993 4241.378 380.469 4241.375 381.942 4241.371 C 381.569 4242.804 381.193 4244.241 380.816 4245.67 C 380.443 4247.1 380.066 4248.53 379.693 4249.956 C 379.47 4250.806 379.126 4251.606 378.666 4252.363 C 378.206 4253.119 377.627 4253.782 376.917 4254.346 C 376.2 4254.915 375.514 4255.309 374.837 4255.539 C 373.897 4255.859 372.824 4256.019 371.628 4256.022 C 370.938 4256.022 370.181 4255.979 369.381 4255.882 C 368.585 4255.785 367.955 4255.595 367.482 4255.305 C 367.008 4255.015 366.608 4254.602 366.289 4254.069 C 365.965 4253.536 365.795 4252.986 365.772 4252.416 C 365.739 4251.506 365.812 4250.696 365.995 4249.99 C 366.369 4248.56 366.738 4247.13 367.112 4245.7 C 367.482 4244.271 367.855 4242.838 368.225 4241.401 C 369.691 4241.398 371.164 4241.395 372.641 4241.391 C 372.258 4242.861 371.874 4244.327 371.494 4245.794 C 371.114 4247.257 370.731 4248.72 370.351 4250.183 C 370.148 4250.97 370.195 4251.583 370.511 4252.019 C 370.831 4252.459 371.381 4252.679 372.151 4252.676 C 372.907 4252.676 373.561 4252.456 374.111 4252.019 C 374.654 4251.589 375.024 4250.97 375.23 4250.173 C 375.614 4248.71 375.997 4247.247 376.38 4245.78 C 376.763 4244.317 377.147 4242.851 377.53 4241.381 Z  M 384.895 4241.365 C 386.272 4241.361 387.648 4241.358 389.025 4241.355 C 389.565 4242.684 390.118 4244.011 390.658 4245.337 C 391.198 4246.66 391.747 4247.983 392.301 4249.31 C 392.651 4247.983 393.001 4246.657 393.354 4245.33 C 393.704 4244.004 394.057 4242.674 394.407 4241.345 C 395.807 4241.341 397.193 4241.338 398.58 4241.335 C 397.943 4243.737 397.303 4246.14 396.667 4248.537 C 396.033 4250.933 395.397 4253.326 394.76 4255.715 C 393.377 4255.719 391.994 4255.722 390.601 4255.725 C 390.058 4254.416 389.515 4253.106 388.971 4251.796 C 388.431 4250.483 387.888 4249.17 387.345 4247.853 C 386.995 4249.17 386.648 4250.486 386.302 4251.799 C 385.955 4253.116 385.609 4254.426 385.265 4255.739 C 383.882 4255.742 382.496 4255.745 381.113 4255.749 C 381.743 4253.359 382.372 4250.963 383.002 4248.567 C 383.632 4246.17 384.262 4243.767 384.895 4241.365 Z  M 408.751 4249.82 C 409.931 4250.21 411.114 4250.6 412.304 4250.99 C 411.757 4252.079 411.097 4252.992 410.351 4253.722 C 409.594 4254.459 408.751 4255.005 407.818 4255.382 C 406.895 4255.755 405.792 4255.942 404.519 4255.945 C 402.972 4255.949 401.759 4255.729 400.903 4255.279 C 400.046 4254.829 399.403 4254.029 398.993 4252.889 C 398.786 4252.316 398.693 4251.666 398.71 4250.936 C 398.73 4250.206 398.856 4249.396 399.096 4248.5 C 399.413 4247.31 399.846 4246.257 400.396 4245.34 C 400.949 4244.424 401.639 4243.644 402.439 4243.004 C 404.045 4241.718 405.992 4241.071 408.291 4241.065 C 410.098 4241.061 411.407 4241.428 412.247 4242.161 C 413.084 4242.891 413.54 4244.021 413.637 4245.534 C 412.251 4245.83 410.874 4246.127 409.498 4246.42 C 409.484 4245.98 409.421 4245.66 409.328 4245.454 C 409.171 4245.121 408.941 4244.854 408.635 4244.674 C 408.325 4244.487 407.951 4244.401 407.508 4244.401 C 406.508 4244.401 405.635 4244.814 404.885 4245.62 C 404.322 4246.23 403.865 4247.174 403.522 4248.46 C 403.095 4250.056 403.052 4251.146 403.372 4251.739 C 403.692 4252.326 404.289 4252.619 405.155 4252.619 C 406.002 4252.616 406.702 4252.379 407.258 4251.899 C 407.815 4251.423 408.321 4250.73 408.751 4249.82 Z  M 422.585 4253.282 C 420.906 4253.286 419.236 4253.292 417.576 4253.296 C 417.133 4254.086 416.69 4254.875 416.247 4255.665 C 414.743 4255.669 413.237 4255.672 411.747 4255.675 C 413.277 4253.286 414.813 4250.89 416.347 4248.493 C 417.886 4246.094 419.436 4243.691 420.986 4241.285 C 422.572 4241.281 424.178 4241.278 425.788 4241.275 C 426.028 4243.674 426.278 4246.074 426.518 4248.47 C 426.758 4250.86 427.008 4253.252 427.258 4255.639 C 425.722 4255.642 424.182 4255.645 422.645 4255.649 C 422.619 4254.862 422.602 4254.072 422.585 4253.282 Z  M 422.505 4250.18 C 422.475 4249.32 422.445 4248.46 422.412 4247.6 C 422.382 4246.737 422.352 4245.877 422.322 4245.014 C 421.822 4245.877 421.316 4246.74 420.829 4247.603 C 420.342 4248.467 419.859 4249.326 419.373 4250.186 C 420.406 4250.186 421.449 4250.183 422.505 4250.18 Z  M 432.537 4241.258 C 434.473 4241.255 436.413 4241.251 438.349 4241.248 C 438.313 4242.708 438.299 4244.167 438.263 4245.627 C 438.226 4247.084 438.209 4248.54 438.186 4249.996 C 438.946 4248.54 439.732 4247.08 440.496 4245.62 C 441.259 4244.161 442.045 4242.698 442.819 4241.238 C 444.735 4241.231 446.661 4241.228 448.601 4241.225 C 447.938 4243.624 447.278 4246.027 446.618 4248.423 C 445.958 4250.816 445.295 4253.209 444.638 4255.599 C 443.442 4255.599 442.245 4255.602 441.049 4255.605 C 441.549 4253.786 442.049 4251.963 442.552 4250.136 C 443.052 4248.313 443.555 4246.484 444.058 4244.654 C 443.082 4246.484 442.109 4248.313 441.146 4250.14 C 440.182 4251.966 439.219 4253.792 438.259 4255.612 C 437.173 4255.615 436.086 4255.619 435.01 4255.622 C 435.037 4253.802 435.063 4251.979 435.1 4250.153 C 435.137 4248.33 435.177 4246.504 435.213 4244.671 C 434.713 4246.504 434.213 4248.333 433.717 4250.156 C 433.217 4251.983 432.72 4253.806 432.22 4255.629 C 431.014 4255.629 429.818 4255.632 428.618 4255.635 C 429.271 4253.246 429.924 4250.853 430.574 4248.46 C 431.227 4246.064 431.88 4243.661 432.537 4241.258 Z  M 451.407 4241.218 C 453.853 4241.211 456.296 4241.205 458.742 4241.201 C 460.336 4241.198 461.429 4241.578 462.012 4242.344 C 462.588 4243.111 462.702 4244.197 462.309 4245.61 C 461.905 4247.064 461.139 4248.2 460.042 4249.017 C 458.946 4249.833 457.513 4250.246 455.733 4250.25 C 454.93 4250.253 454.14 4250.256 453.337 4250.256 C 453.09 4251.146 452.844 4252.036 452.6 4252.923 C 452.354 4253.809 452.107 4254.696 451.86 4255.582 C 450.381 4255.585 448.908 4255.589 447.438 4255.592 C 448.098 4253.202 448.758 4250.81 449.421 4248.417 C 450.081 4246.02 450.744 4243.617 451.407 4241.218 Z  M 454.143 4247.343 C 454.497 4247.343 454.86 4247.343 455.21 4247.343 C 456.056 4247.34 456.703 4247.19 457.126 4246.894 C 457.553 4246.594 457.833 4246.214 457.963 4245.75 C 458.086 4245.3 458.039 4244.914 457.829 4244.601 C 457.619 4244.287 457.103 4244.131 456.276 4244.134 C 455.86 4244.134 455.453 4244.134 455.033 4244.134 C 454.737 4245.207 454.44 4246.277 454.143 4247.343 Z " fill="rgb(35,31,32)"/><path d=" M 354.904 4241.431 C 358.537 4241.421 362.193 4241.415 365.835 4241.408 C 365.569 4242.441 365.302 4243.474 365.032 4244.504 C 362.866 4244.511 360.71 4244.514 358.54 4244.521 C 358.327 4245.36 358.11 4246.2 357.893 4247.037 C 359.74 4247.03 361.589 4247.027 363.436 4247.024 C 363.186 4247.99 362.936 4248.96 362.686 4249.926 C 360.839 4249.93 358.993 4249.933 357.143 4249.94 C 356.894 4250.92 356.64 4251.899 356.387 4252.876 C 356.137 4253.856 355.884 4254.832 355.634 4255.809 C 354.151 4255.812 352.678 4255.815 351.208 4255.819 C 351.821 4253.426 352.438 4251.033 353.051 4248.637 C 353.667 4246.24 354.284 4243.834 354.904 4241.431 Z  M 377.53 4241.381 C 378.993 4241.378 380.469 4241.375 381.942 4241.371 C 381.569 4242.804 381.193 4244.241 380.816 4245.67 C 380.443 4247.1 380.066 4248.53 379.693 4249.956 C 379.47 4250.806 379.126 4251.606 378.666 4252.363 C 378.206 4253.119 377.627 4253.782 376.917 4254.346 C 376.2 4254.915 375.514 4255.309 374.837 4255.539 C 373.897 4255.859 372.824 4256.019 371.628 4256.022 C 370.938 4256.022 370.181 4255.979 369.381 4255.882 C 368.585 4255.785 367.955 4255.595 367.482 4255.305 C 367.008 4255.015 366.608 4254.602 366.289 4254.069 C 365.965 4253.536 365.795 4252.986 365.772 4252.416 C 365.739 4251.506 365.812 4250.696 365.995 4249.99 C 366.369 4248.56 366.738 4247.13 367.112 4245.7 C 367.482 4244.271 367.855 4242.838 368.225 4241.401 C 369.691 4241.398 371.164 4241.395 372.641 4241.391 C 372.258 4242.861 371.874 4244.327 371.494 4245.794 C 371.114 4247.257 370.731 4248.72 370.351 4250.183 C 370.148 4250.97 370.195 4251.583 370.511 4252.019 C 370.831 4252.459 371.381 4252.679 372.151 4252.676 C 372.907 4252.676 373.561 4252.456 374.111 4252.019 C 374.654 4251.589 375.024 4250.97 375.23 4250.173 C 375.614 4248.71 375.997 4247.247 376.38 4245.78 C 376.763 4244.317 377.147 4242.851 377.53 4241.381 Z  M 384.895 4241.365 C 386.272 4241.361 387.648 4241.358 389.025 4241.355 C 389.565 4242.684 390.118 4244.011 390.658 4245.337 C 391.198 4246.66 391.747 4247.983 392.301 4249.31 C 392.651 4247.983 393.001 4246.657 393.354 4245.33 C 393.704 4244.004 394.057 4242.674 394.407 4241.345 C 395.807 4241.341 397.193 4241.338 398.58 4241.335 C 397.943 4243.737 397.303 4246.14 396.667 4248.537 C 396.033 4250.933 395.397 4253.326 394.76 4255.715 C 393.377 4255.719 391.994 4255.722 390.601 4255.725 C 390.058 4254.416 389.515 4253.106 388.971 4251.796 C 388.431 4250.483 387.888 4249.17 387.345 4247.853 C 386.995 4249.17 386.648 4250.486 386.302 4251.799 C 385.955 4253.116 385.609 4254.426 385.265 4255.739 C 383.882 4255.742 382.496 4255.745 381.113 4255.749 C 381.743 4253.359 382.372 4250.963 383.002 4248.567 C 383.632 4246.17 384.262 4243.767 384.895 4241.365 Z  M 408.751 4249.82 C 409.931 4250.21 411.114 4250.6 412.304 4250.99 C 411.757 4252.079 411.097 4252.992 410.351 4253.722 C 409.594 4254.459 408.751 4255.005 407.818 4255.382 C 406.895 4255.755 405.792 4255.942 404.519 4255.945 C 402.972 4255.949 401.759 4255.729 400.903 4255.279 C 400.046 4254.829 399.403 4254.029 398.993 4252.889 C 398.786 4252.316 398.693 4251.666 398.71 4250.936 C 398.73 4250.206 398.856 4249.396 399.096 4248.5 C 399.413 4247.31 399.846 4246.257 400.396 4245.34 C 400.949 4244.424 401.639 4243.644 402.439 4243.004 C 404.045 4241.718 405.992 4241.071 408.291 4241.065 C 410.098 4241.061 411.407 4241.428 412.247 4242.161 C 413.084 4242.891 413.54 4244.021 413.637 4245.534 C 412.251 4245.83 410.874 4246.127 409.498 4246.42 C 409.484 4245.98 409.421 4245.66 409.328 4245.454 C 409.171 4245.121 408.941 4244.854 408.635 4244.674 C 408.325 4244.487 407.951 4244.401 407.508 4244.401 C 406.508 4244.401 405.635 4244.814 404.885 4245.62 C 404.322 4246.23 403.865 4247.174 403.522 4248.46 C 403.095 4250.056 403.052 4251.146 403.372 4251.739 C 403.692 4252.326 404.289 4252.619 405.155 4252.619 C 406.002 4252.616 406.702 4252.379 407.258 4251.899 C 407.815 4251.423 408.321 4250.73 408.751 4249.82 Z  M 422.585 4253.282 C 420.906 4253.286 419.236 4253.292 417.576 4253.296 C 417.133 4254.086 416.69 4254.875 416.247 4255.665 C 414.743 4255.669 413.237 4255.672 411.747 4255.675 C 413.277 4253.286 414.813 4250.89 416.347 4248.493 C 417.886 4246.094 419.436 4243.691 420.986 4241.285 C 422.572 4241.281 424.178 4241.278 425.788 4241.275 C 426.028 4243.674 426.278 4246.074 426.518 4248.47 C 426.758 4250.86 427.008 4253.252 427.258 4255.639 C 425.722 4255.642 424.182 4255.645 422.645 4255.649 C 422.619 4254.862 422.602 4254.072 422.585 4253.282 Z  M 422.505 4250.18 C 422.475 4249.32 422.445 4248.46 422.412 4247.6 C 422.382 4246.737 422.352 4245.877 422.322 4245.014 C 421.822 4245.877 421.316 4246.74 420.829 4247.603 C 420.342 4248.467 419.859 4249.326 419.373 4250.186 C 420.406 4250.186 421.449 4250.183 422.505 4250.18 Z  M 432.537 4241.258 C 434.473 4241.255 436.413 4241.251 438.349 4241.248 C 438.313 4242.708 438.299 4244.167 438.263 4245.627 C 438.226 4247.084 438.209 4248.54 438.186 4249.996 C 438.946 4248.54 439.732 4247.08 440.496 4245.62 C 441.259 4244.161 442.045 4242.698 442.819 4241.238 C 444.735 4241.231 446.661 4241.228 448.601 4241.225 C 447.938 4243.624 447.278 4246.027 446.618 4248.423 C 445.958 4250.816 445.295 4253.209 444.638 4255.599 C 443.442 4255.599 442.245 4255.602 441.049 4255.605 C 441.549 4253.786 442.049 4251.963 442.552 4250.136 C 443.052 4248.313 443.555 4246.484 444.058 4244.654 C 443.082 4246.484 442.109 4248.313 441.146 4250.14 C 440.182 4251.966 439.219 4253.792 438.259 4255.612 C 437.173 4255.615 436.086 4255.619 435.01 4255.622 C 435.037 4253.802 435.063 4251.979 435.1 4250.153 C 435.137 4248.33 435.177 4246.504 435.213 4244.671 C 434.713 4246.504 434.213 4248.333 433.717 4250.156 C 433.217 4251.983 432.72 4253.806 432.22 4255.629 C 431.014 4255.629 429.818 4255.632 428.618 4255.635 C 429.271 4253.246 429.924 4250.853 430.574 4248.46 C 431.227 4246.064 431.88 4243.661 432.537 4241.258 Z  M 451.407 4241.218 C 453.853 4241.211 456.296 4241.205 458.742 4241.201 C 460.336 4241.198 461.429 4241.578 462.012 4242.344 C 462.588 4243.111 462.702 4244.197 462.309 4245.61 C 461.905 4247.064 461.139 4248.2 460.042 4249.017 C 458.946 4249.833 457.513 4250.246 455.733 4250.25 C 454.93 4250.253 454.14 4250.256 453.337 4250.256 C 453.09 4251.146 452.844 4252.036 452.6 4252.923 C 452.354 4253.809 452.107 4254.696 451.86 4255.582 C 450.381 4255.585 448.908 4255.589 447.438 4255.592 C 448.098 4253.202 448.758 4250.81 449.421 4248.417 C 450.081 4246.02 450.744 4243.617 451.407 4241.218 Z  M 454.143 4247.343 C 454.497 4247.343 454.86 4247.343 455.21 4247.343 C 456.056 4247.34 456.703 4247.19 457.126 4246.894 C 457.553 4246.594 457.833 4246.214 457.963 4245.75 C 458.086 4245.3 458.039 4244.914 457.829 4244.601 C 457.619 4244.287 457.103 4244.131 456.276 4244.134 C 455.86 4244.134 455.453 4244.134 455.033 4244.134 C 454.737 4245.207 454.44 4246.277 454.143 4247.343 Z " fill="none" vector-effect="non-scaling-stroke" stroke-width="0.216" stroke="rgb(35,31,32)" stroke-opacity="100" stroke-linejoin="miter" stroke-linecap="butt" stroke-miterlimit="22.9256"/><path d=" M 494.306 4241.175 L 494.306 4230.14 C 495.583 4230.17 496.856 4230.35 498.096 4230.69 C 497.966 4231.446 498.289 4232.203 498.919 4232.639 L 495.266 4241.375 C 494.95 4241.271 494.63 4241.208 494.306 4241.175 Z " fill-rule="evenodd" fill="rgb(35,31,32)"/><path d=" M 493.343 4241.175 L 493.343 4230.156 C 491.607 4230.243 489.907 4230.67 488.331 4231.413 L 492.417 4241.365 C 492.717 4241.268 493.023 4241.205 493.343 4241.175 Z " fill-rule="evenodd" fill="rgb(35,31,32)"/><path d=" M 491.677 4241.644 L 487.611 4231.743 C 486.051 4232.543 484.641 4233.623 483.462 4234.926 L 490.78 4242.241 C 491.054 4242.011 491.353 4241.811 491.677 4241.644 Z " fill-rule="evenodd" fill="rgb(35,31,32)"/><path d=" M 482.955 4235.526 C 481.878 4236.802 481.065 4238.278 480.559 4239.865 L 489.654 4243.671 C 489.81 4243.361 490.007 4243.068 490.234 4242.801 L 482.955 4235.526 Z " fill-rule="evenodd" fill="rgb(35,31,32)"/><path d=" M 489.334 4244.404 L 480.369 4240.651 C 480.162 4242.251 480.199 4243.874 480.485 4245.46 L 489.124 4245.46 C 489.151 4245.101 489.227 4244.747 489.334 4244.404 Z " fill-rule="evenodd" fill="rgb(35,31,32)"/><path d=" M 489.127 4246.25 L 480.709 4246.25 C 481.219 4247.577 481.882 4248.833 482.678 4250.01 L 489.327 4247.277 C 489.224 4246.944 489.154 4246.6 489.127 4246.25 Z " fill-rule="evenodd" fill="rgb(35,31,32)"/><path d=" M 490.247 4248.857 C 490.01 4248.58 489.81 4248.28 489.647 4247.957 L 483.228 4250.59 C 484.121 4251.476 485.108 4252.259 486.171 4252.933 L 490.247 4248.857 Z " fill-rule="evenodd" fill="rgb(35,31,32)"/><path d=" M 495.349 4254.739 C 495.256 4253.979 495.606 4253.236 496.253 4252.826 L 495.236 4250.31 C 493.7 4250.786 492.023 4250.446 490.797 4249.406 L 486.868 4253.336 C 489.467 4254.716 492.447 4255.212 495.349 4254.739 Z " fill-rule="evenodd" fill="rgb(35,31,32)"/><path d=" M 495.923 4250.026 L 496.943 4252.559 C 497.732 4252.429 498.519 4252.786 498.942 4253.466 C 499.379 4253.259 499.812 4253.042 500.239 4252.816 L 496.843 4249.416 C 496.559 4249.66 496.249 4249.866 495.923 4250.026 Z " fill-rule="evenodd" fill="rgb(35,31,32)"/><path d=" M 508.134 4247.24 C 507.847 4246.96 507.651 4246.604 507.574 4246.204 L 498.492 4246.204 C 498.416 4247.183 498.026 4248.11 497.399 4248.857 L 500.958 4252.416 C 503.545 4250.983 505.951 4249.243 508.134 4247.24 Z " fill-rule="evenodd" fill="rgb(35,31,32)"/><path d=" M 503.005 4233.546 C 503.431 4233.972 503.828 4234.426 504.201 4234.902 L 496.836 4242.268 C 496.566 4242.041 496.276 4241.851 495.966 4241.688 L 499.622 4232.953 C 500.299 4233.089 500.998 4232.853 501.465 4232.339 C 502.005 4232.703 502.522 4233.109 503.005 4233.546 Z " fill-rule="evenodd" fill="rgb(35,31,32)"/><path d=" M 497.262 4253.326 C 496.609 4253.326 496.079 4253.859 496.079 4254.516 C 496.079 4255.169 496.609 4255.702 497.262 4255.702 C 497.912 4255.702 498.446 4255.169 498.446 4254.516 C 498.446 4253.859 497.912 4253.326 497.262 4253.326 Z " fill-rule="evenodd" fill="rgb(237,28,36)"/><path d=" M 509.737 4244.474 C 509.084 4244.474 508.551 4245.007 508.551 4245.664 C 508.551 4246.317 509.084 4246.85 509.737 4246.85 C 510.394 4246.85 510.927 4246.317 510.927 4245.664 C 510.927 4245.007 510.394 4244.474 509.737 4244.474 Z " fill-rule="evenodd" fill="rgb(237,28,36)"/><path d=" M 499.999 4229.84 C 499.345 4229.84 498.812 4230.376 498.812 4231.03 C 498.812 4231.683 499.345 4232.219 499.999 4232.219 C 500.655 4232.219 501.188 4231.683 501.188 4231.03 C 501.188 4230.376 500.655 4229.84 499.999 4229.84 Z " fill-rule="evenodd" fill="rgb(237,28,36)"/><path d=" M 506.961 4240.028 C 506.521 4238.982 506.034 4237.955 505.501 4236.949 C 505.231 4236.472 504.948 4236.009 504.648 4235.549 L 497.386 4242.814 C 497.616 4243.094 497.819 4243.394 497.979 4243.711 L 506.961 4240.028 Z " fill-rule="evenodd" fill="rgb(35,31,32)"/><path d=" M 507.274 4240.758 C 507.711 4241.891 508.107 4243.048 508.451 4244.214 C 508.011 4244.494 507.697 4244.947 507.584 4245.46 L 498.499 4245.46 C 498.469 4245.114 498.406 4244.771 498.296 4244.437 L 507.274 4240.758 Z " fill-rule="evenodd" fill="rgb(35,31,32)"/><path d=" M 307.132 4263.891 L 311.288 4263.891 L 311.288 4265.06 L 308.822 4265.06 L 308.822 4266.01 L 310.928 4266.01 L 310.928 4267.107 L 308.822 4267.107 L 308.822 4269.33 L 307.132 4269.33 L 307.132 4263.891 Z  M 315.731 4263.891 L 317.41 4263.891 L 317.41 4267.133 C 317.41 4267.457 317.36 4267.76 317.26 4268.043 C 317.16 4268.33 317.004 4268.58 316.787 4268.793 C 316.574 4269.01 316.351 4269.156 316.114 4269.246 C 315.787 4269.366 315.397 4269.426 314.937 4269.426 C 314.674 4269.426 314.384 4269.41 314.071 4269.37 C 313.758 4269.333 313.498 4269.26 313.288 4269.15 C 313.078 4269.04 312.884 4268.883 312.711 4268.68 C 312.535 4268.476 312.418 4268.27 312.351 4268.053 C 312.248 4267.707 312.198 4267.4 312.198 4267.133 L 312.198 4263.891 L 313.874 4263.891 L 313.874 4267.21 C 313.874 4267.51 313.958 4267.74 314.121 4267.907 C 314.284 4268.073 314.514 4268.157 314.804 4268.157 C 315.094 4268.157 315.321 4268.077 315.487 4267.91 C 315.651 4267.747 315.731 4267.513 315.731 4267.21 L 315.731 4263.891 Z  M 318.534 4263.891 L 320.103 4263.891 L 322.15 4266.9 L 322.15 4263.891 L 323.736 4263.891 L 323.736 4269.33 L 322.15 4269.33 L 320.113 4266.344 L 320.113 4269.33 L 318.534 4269.33 L 318.534 4263.891 Z  M 324.872 4263.891 L 327.372 4263.891 C 327.862 4263.891 328.258 4263.957 328.565 4264.091 C 328.865 4264.224 329.118 4264.417 329.315 4264.667 C 329.512 4264.917 329.655 4265.207 329.745 4265.537 C 329.835 4265.87 329.878 4266.22 329.878 4266.593 C 329.878 4267.173 329.812 4267.623 329.678 4267.943 C 329.548 4268.267 329.365 4268.533 329.128 4268.75 C 328.895 4268.966 328.642 4269.11 328.372 4269.18 C 328.005 4269.28 327.669 4269.33 327.372 4269.33 L 324.872 4269.33 L 324.872 4263.891 Z  M 326.552 4265.124 L 326.552 4268.093 L 326.965 4268.093 C 327.319 4268.093 327.565 4268.057 327.715 4267.977 C 327.862 4267.9 327.979 4267.763 328.065 4267.57 C 328.149 4267.377 328.188 4267.06 328.188 4266.623 C 328.188 4266.05 328.095 4265.654 327.909 4265.44 C 327.719 4265.23 327.409 4265.124 326.972 4265.124 L 326.552 4265.124 Z  M 333.781 4268.433 L 331.865 4268.433 L 331.601 4269.33 L 329.885 4269.33 L 331.928 4263.891 L 333.761 4263.891 L 335.807 4269.33 L 334.047 4269.33 L 333.781 4268.433 Z  M 333.428 4267.257 L 332.828 4265.3 L 332.228 4267.257 L 333.428 4267.257 Z  M 339.966 4267.107 L 341.436 4267.553 C 341.34 4267.967 341.183 4268.31 340.97 4268.586 C 340.76 4268.866 340.493 4269.073 340.176 4269.213 C 339.863 4269.356 339.46 4269.426 338.973 4269.426 C 338.383 4269.426 337.9 4269.34 337.527 4269.17 C 337.15 4268.996 336.827 4268.693 336.554 4268.26 C 336.284 4267.827 336.147 4267.273 336.147 4266.6 C 336.147 4265.7 336.387 4265.007 336.867 4264.524 C 337.344 4264.041 338.02 4263.797 338.897 4263.797 C 339.583 4263.797 340.12 4263.937 340.513 4264.214 C 340.906 4264.49 341.196 4264.917 341.386 4265.49 L 339.903 4265.82 C 339.85 4265.654 339.796 4265.534 339.74 4265.457 C 339.647 4265.327 339.53 4265.23 339.393 4265.16 C 339.257 4265.09 339.107 4265.057 338.937 4265.057 C 338.557 4265.057 338.263 4265.21 338.063 4265.517 C 337.907 4265.744 337.83 4266.1 337.83 4266.587 C 337.83 4267.193 337.923 4267.607 338.107 4267.83 C 338.29 4268.053 338.547 4268.163 338.877 4268.163 C 339.2 4268.163 339.443 4268.077 339.607 4267.893 C 339.77 4267.713 339.89 4267.45 339.966 4267.107 Z  M 337.91 4269.943 L 338.02 4269.503 C 338.253 4269.446 338.47 4269.42 338.673 4269.42 C 339.097 4269.42 339.39 4269.49 339.55 4269.633 C 339.71 4269.78 339.79 4269.946 339.79 4270.143 C 339.79 4270.259 339.753 4270.383 339.68 4270.509 C 339.607 4270.636 339.477 4270.736 339.29 4270.813 C 339.103 4270.889 338.853 4270.929 338.54 4270.929 C 338.26 4270.929 337.927 4270.896 337.547 4270.833 L 337.547 4270.376 C 337.803 4270.426 338.077 4270.449 338.367 4270.449 C 338.58 4270.449 338.723 4270.423 338.8 4270.363 C 338.873 4270.306 338.913 4270.233 338.913 4270.143 C 338.913 4270.07 338.88 4270.01 338.82 4269.956 C 338.757 4269.903 338.66 4269.88 338.53 4269.88 C 338.353 4269.88 338.147 4269.9 337.91 4269.943 Z  M 345.599 4268.433 L 343.686 4268.433 L 343.423 4269.33 L 341.706 4269.33 L 343.749 4263.891 L 345.582 4263.891 L 347.625 4269.33 L 345.869 4269.33 L 345.599 4268.433 Z  M 345.249 4267.257 L 344.646 4265.3 L 344.049 4267.257 L 345.249 4267.257 Z  M 345.406 4262.544 L 345.989 4262.544 C 345.992 4262.611 345.995 4262.664 345.995 4262.711 C 345.995 4262.987 345.925 4263.201 345.785 4263.351 C 345.645 4263.501 345.469 4263.577 345.252 4263.577 C 345.092 4263.577 344.852 4263.511 344.532 4263.381 C 344.336 4263.301 344.202 4263.261 344.129 4263.261 C 344.056 4263.261 343.999 4263.284 343.959 4263.327 C 343.922 4263.371 343.899 4263.451 343.896 4263.564 L 343.319 4263.564 C 343.316 4263.507 343.316 4263.454 343.316 4263.411 C 343.316 4263.144 343.389 4262.934 343.533 4262.781 C 343.679 4262.624 343.852 4262.544 344.052 4262.544 C 344.139 4262.544 344.222 4262.554 344.299 4262.574 C 344.376 4262.594 344.516 4262.647 344.722 4262.734 C 344.929 4262.821 345.079 4262.864 345.172 4262.864 C 345.242 4262.864 345.292 4262.841 345.336 4262.794 C 345.376 4262.751 345.399 4262.667 345.406 4262.544 Z  M 347.952 4266.613 C 347.952 4265.727 348.202 4265.034 348.695 4264.54 C 349.188 4264.044 349.878 4263.797 350.761 4263.797 C 351.664 4263.797 352.364 4264.041 352.854 4264.527 C 353.344 4265.014 353.587 4265.694 353.587 4266.57 C 353.587 4267.203 353.481 4267.727 353.267 4268.133 C 353.051 4268.54 352.744 4268.856 352.341 4269.083 C 351.934 4269.31 351.431 4269.423 350.828 4269.423 C 350.215 4269.423 349.708 4269.323 349.305 4269.13 C 348.902 4268.933 348.578 4268.623 348.325 4268.203 C 348.078 4267.78 347.952 4267.25 347.952 4266.613 Z  M 349.635 4266.62 C 349.635 4267.17 349.735 4267.563 349.938 4267.807 C 350.141 4268.043 350.421 4268.163 350.771 4268.163 C 351.131 4268.163 351.411 4268.047 351.611 4267.813 C 351.808 4267.577 351.908 4267.157 351.908 4266.547 C 351.908 4266.034 351.804 4265.66 351.598 4265.424 C 351.391 4265.19 351.111 4265.07 350.758 4265.07 C 350.418 4265.07 350.145 4265.19 349.941 4265.43 C 349.735 4265.67 349.635 4266.067 349.635 4266.62 Z  M 357.05 4263.891 L 359.546 4263.891 C 360.036 4263.891 360.436 4263.957 360.74 4264.091 C 361.043 4264.224 361.293 4264.417 361.489 4264.667 C 361.686 4264.917 361.829 4265.207 361.919 4265.537 C 362.009 4265.87 362.053 4266.22 362.053 4266.593 C 362.053 4267.173 361.986 4267.623 361.853 4267.943 C 361.723 4268.267 361.539 4268.533 361.303 4268.75 C 361.069 4268.966 360.816 4269.11 360.55 4269.18 C 360.18 4269.28 359.846 4269.33 359.546 4269.33 L 357.05 4269.33 L 357.05 4263.891 Z  M 358.73 4265.124 L 358.73 4268.093 L 359.14 4268.093 C 359.493 4268.093 359.743 4268.057 359.89 4267.977 C 360.04 4267.9 360.156 4267.763 360.24 4267.57 C 360.323 4267.377 360.366 4267.06 360.366 4266.623 C 360.366 4266.05 360.273 4265.654 360.083 4265.44 C 359.896 4265.23 359.583 4265.124 359.15 4265.124 L 358.73 4265.124 Z  M 362.932 4263.891 L 367.435 4263.891 L 367.435 4265.05 L 364.619 4265.05 L 364.619 4265.917 L 367.232 4265.917 L 367.232 4267.027 L 364.619 4267.027 L 364.619 4268.097 L 367.518 4268.097 L 367.518 4269.33 L 362.932 4269.33 L 362.932 4263.891 Z  M 370.981 4263.891 L 373.477 4263.891 C 373.967 4263.891 374.367 4263.957 374.67 4264.091 C 374.974 4264.224 375.224 4264.417 375.42 4264.667 C 375.617 4264.917 375.76 4265.207 375.85 4265.537 C 375.94 4265.87 375.984 4266.22 375.984 4266.593 C 375.984 4267.173 375.917 4267.623 375.787 4267.943 C 375.654 4268.267 375.47 4268.533 375.234 4268.75 C 375 4268.966 374.747 4269.11 374.477 4269.18 C 374.111 4269.28 373.777 4269.33 373.477 4269.33 L 370.981 4269.33 L 370.981 4263.891 Z  M 372.661 4265.124 L 372.661 4268.093 L 373.071 4268.093 C 373.424 4268.093 373.674 4268.057 373.821 4267.977 C 373.971 4267.9 374.087 4267.763 374.171 4267.57 C 374.254 4267.377 374.297 4267.06 374.297 4266.623 C 374.297 4266.05 374.204 4265.654 374.014 4265.44 C 373.827 4265.23 373.514 4265.124 373.081 4265.124 L 372.661 4265.124 Z  M 376.863 4263.891 L 381.366 4263.891 L 381.366 4265.05 L 378.546 4265.05 L 378.546 4265.917 L 381.163 4265.917 L 381.163 4267.027 L 378.546 4267.027 L 378.546 4268.097 L 381.449 4268.097 L 381.449 4269.33 L 376.863 4269.33 L 376.863 4263.891 Z  M 382.062 4267.53 L 383.659 4267.43 C 383.696 4267.69 383.766 4267.887 383.872 4268.023 C 384.045 4268.243 384.292 4268.353 384.615 4268.353 C 384.852 4268.353 385.039 4268.296 385.169 4268.187 C 385.299 4268.073 385.362 4267.943 385.362 4267.793 C 385.362 4267.653 385.302 4267.527 385.179 4267.413 C 385.052 4267.303 384.769 4267.2 384.315 4267.1 C 383.579 4266.933 383.056 4266.713 382.739 4266.44 C 382.422 4266.167 382.266 4265.817 382.266 4265.39 C 382.266 4265.11 382.346 4264.847 382.509 4264.597 C 382.669 4264.351 382.912 4264.154 383.239 4264.011 C 383.566 4263.871 384.009 4263.797 384.575 4263.797 C 385.272 4263.797 385.802 4263.927 386.165 4264.187 C 386.532 4264.444 386.748 4264.857 386.818 4265.42 L 385.232 4265.51 C 385.192 4265.267 385.102 4265.09 384.969 4264.977 C 384.832 4264.867 384.649 4264.81 384.409 4264.81 C 384.215 4264.81 384.065 4264.854 383.969 4264.937 C 383.869 4265.017 383.819 4265.12 383.819 4265.237 C 383.819 4265.324 383.862 4265.4 383.942 4265.47 C 384.022 4265.544 384.209 4265.61 384.505 4265.67 C 385.242 4265.83 385.765 4265.99 386.085 4266.154 C 386.402 4266.314 386.635 4266.513 386.778 4266.753 C 386.922 4266.993 386.995 4267.263 386.995 4267.56 C 386.995 4267.91 386.898 4268.23 386.705 4268.523 C 386.515 4268.82 386.245 4269.043 385.895 4269.193 C 385.552 4269.346 385.115 4269.423 384.589 4269.423 C 383.662 4269.423 383.022 4269.246 382.666 4268.886 C 382.309 4268.533 382.109 4268.08 382.062 4267.53 Z  M 387.838 4263.891 L 392.341 4263.891 L 392.341 4265.05 L 389.521 4265.05 L 389.521 4265.917 L 392.137 4265.917 L 392.137 4267.027 L 389.521 4267.027 L 389.521 4268.097 L 392.424 4268.097 L 392.424 4269.33 L 387.838 4269.33 L 387.838 4263.891 Z  M 393.341 4263.891 L 394.91 4263.891 L 396.957 4266.9 L 396.957 4263.891 L 398.54 4263.891 L 398.54 4269.33 L 396.957 4269.33 L 394.92 4266.344 L 394.92 4269.33 L 393.341 4269.33 L 393.341 4263.891 Z  M 399.12 4263.891 L 400.876 4263.891 L 402.102 4267.807 L 403.305 4263.891 L 405.015 4263.891 L 402.996 4269.33 L 401.176 4269.33 L 399.12 4263.891 Z  M 405.095 4266.613 C 405.095 4265.727 405.345 4265.034 405.838 4264.54 C 406.332 4264.044 407.021 4263.797 407.905 4263.797 C 408.808 4263.797 409.508 4264.041 409.998 4264.527 C 410.484 4265.014 410.731 4265.694 410.731 4266.57 C 410.731 4267.203 410.624 4267.727 410.411 4268.133 C 410.194 4268.54 409.888 4268.856 409.484 4269.083 C 409.078 4269.31 408.575 4269.423 407.971 4269.423 C 407.358 4269.423 406.852 4269.323 406.448 4269.13 C 406.045 4268.933 405.722 4268.623 405.468 4268.203 C 405.222 4267.78 405.095 4267.25 405.095 4266.613 Z  M 406.778 4266.62 C 406.778 4267.17 406.878 4267.563 407.081 4267.807 C 407.285 4268.043 407.565 4268.163 407.915 4268.163 C 408.275 4268.163 408.555 4268.047 408.755 4267.813 C 408.951 4267.577 409.051 4267.157 409.051 4266.547 C 409.051 4266.034 408.948 4265.66 408.741 4265.424 C 408.535 4265.19 408.255 4265.07 407.898 4265.07 C 407.561 4265.07 407.288 4265.19 407.085 4265.43 C 406.878 4265.67 406.778 4266.067 406.778 4266.62 Z  M 411.637 4263.891 L 413.317 4263.891 L 413.317 4267.99 L 415.94 4267.99 L 415.94 4269.33 L 411.637 4269.33 L 411.637 4263.891 Z  M 415.78 4263.891 L 417.54 4263.891 L 418.763 4267.807 L 419.969 4263.891 L 421.676 4263.891 L 419.656 4269.33 L 417.836 4269.33 L 415.78 4263.891 Z  M 422.292 4263.891 L 423.979 4263.891 L 423.979 4269.33 L 422.292 4269.33 L 422.292 4263.891 Z  M 425.165 4263.891 L 427.378 4263.891 L 428.231 4267.2 L 429.081 4263.891 L 431.284 4263.891 L 431.284 4269.33 L 429.911 4269.33 L 429.911 4265.184 L 428.844 4269.33 L 427.605 4269.33 L 426.541 4265.184 L 426.541 4269.33 L 425.165 4269.33 L 425.165 4263.891 Z  M 432.35 4263.891 L 436.856 4263.891 L 436.856 4265.05 L 434.037 4265.05 L 434.037 4265.917 L 436.65 4265.917 L 436.65 4267.027 L 434.037 4267.027 L 434.037 4268.097 L 436.936 4268.097 L 436.936 4269.33 L 432.35 4269.33 L 432.35 4263.891 Z  M 437.853 4263.891 L 439.423 4263.891 L 441.472 4266.9 L 441.472 4263.891 L 443.055 4263.891 L 443.055 4269.33 L 441.472 4269.33 L 439.433 4266.344 L 439.433 4269.33 L 437.853 4269.33 L 437.853 4263.891 Z  M 443.788 4263.891 L 448.898 4263.891 L 448.898 4265.234 L 447.181 4265.234 L 447.181 4269.33 L 445.501 4269.33 L 445.501 4265.234 L 443.788 4265.234 L 443.788 4263.891 Z  M 449.187 4266.613 C 449.187 4265.727 449.434 4265.034 449.927 4264.54 C 450.424 4264.044 451.114 4263.797 451.994 4263.797 C 452.9 4263.797 453.597 4264.041 454.09 4264.527 C 454.577 4265.014 454.823 4265.694 454.823 4266.57 C 454.823 4267.203 454.713 4267.727 454.5 4268.133 C 454.287 4268.54 453.98 4268.856 453.573 4269.083 C 453.17 4269.31 452.667 4269.423 452.064 4269.423 C 451.447 4269.423 450.941 4269.323 450.541 4269.13 C 450.137 4268.933 449.811 4268.623 449.561 4268.203 C 449.311 4267.78 449.187 4267.25 449.187 4266.613 Z  M 450.867 4266.62 C 450.867 4267.17 450.971 4267.563 451.174 4267.807 C 451.377 4268.043 451.657 4268.163 452.007 4268.163 C 452.367 4268.163 452.647 4268.047 452.844 4267.813 C 453.043 4267.577 453.143 4267.157 453.143 4266.547 C 453.143 4266.034 453.037 4265.66 452.834 4265.424 C 452.627 4265.19 452.347 4265.07 451.99 4265.07 C 451.654 4265.07 451.38 4265.19 451.177 4265.43 C 450.971 4265.67 450.867 4266.067 450.867 4266.62 Z  M 458.283 4263.891 L 460.782 4263.891 C 461.272 4263.891 461.669 4263.957 461.975 4264.091 C 462.275 4264.224 462.525 4264.417 462.725 4264.667 C 462.922 4264.917 463.065 4265.207 463.155 4265.537 C 463.245 4265.87 463.288 4266.22 463.288 4266.593 C 463.288 4267.173 463.222 4267.623 463.088 4267.943 C 462.958 4268.267 462.775 4268.533 462.539 4268.75 C 462.305 4268.966 462.052 4269.11 461.782 4269.18 C 461.415 4269.28 461.079 4269.33 460.782 4269.33 L 458.283 4269.33 L 458.283 4263.891 Z  M 459.966 4265.124 L 459.966 4268.093 L 460.376 4268.093 C 460.725 4268.093 460.975 4268.057 461.125 4267.977 C 461.272 4267.9 461.389 4267.763 461.475 4267.57 C 461.559 4267.377 461.599 4267.06 461.599 4266.623 C 461.599 4266.05 461.505 4265.654 461.319 4265.44 C 461.129 4265.23 460.819 4265.124 460.382 4265.124 L 459.966 4265.124 Z  M 467.191 4268.433 L 465.275 4268.433 L 465.011 4269.33 L 463.295 4269.33 L 465.338 4263.891 L 467.171 4263.891 L 469.217 4269.33 L 467.458 4269.33 L 467.191 4268.433 Z  M 466.838 4267.257 L 466.238 4265.3 L 465.638 4267.257 L 466.838 4267.257 Z  M 475.826 4263.891 L 477.506 4263.891 L 477.506 4267.133 C 477.506 4267.457 477.453 4267.76 477.353 4268.043 C 477.253 4268.33 477.096 4268.58 476.883 4268.793 C 476.669 4269.01 476.446 4269.156 476.209 4269.246 C 475.883 4269.366 475.493 4269.426 475.033 4269.426 C 474.766 4269.426 474.48 4269.41 474.166 4269.37 C 473.853 4269.333 473.593 4269.26 473.383 4269.15 C 473.173 4269.04 472.98 4268.883 472.807 4268.68 C 472.63 4268.476 472.513 4268.27 472.447 4268.053 C 472.343 4267.707 472.29 4267.4 472.29 4267.133 L 472.29 4263.891 L 473.97 4263.891 L 473.97 4267.21 C 473.97 4267.51 474.05 4267.74 474.216 4267.907 C 474.38 4268.073 474.606 4268.157 474.9 4268.157 C 475.19 4268.157 475.416 4268.077 475.58 4267.91 C 475.746 4267.747 475.826 4267.513 475.826 4267.21 L 475.826 4263.891 Z  M 478.629 4263.891 L 480.199 4263.891 L 482.245 4266.9 L 482.245 4263.891 L 483.828 4263.891 L 483.828 4269.33 L 482.245 4269.33 L 480.209 4266.344 L 480.209 4269.33 L 478.629 4269.33 L 478.629 4263.891 Z  M 485.011 4263.891 L 486.698 4263.891 L 486.698 4269.33 L 485.011 4269.33 L 485.011 4263.891 Z  M 491.523 4267.107 L 492.997 4267.553 C 492.897 4267.967 492.743 4268.31 492.53 4268.586 C 492.317 4268.866 492.053 4269.073 491.737 4269.213 C 491.42 4269.356 491.02 4269.426 490.534 4269.426 C 489.94 4269.426 489.457 4269.34 489.084 4269.17 C 488.711 4268.996 488.384 4268.693 488.114 4268.26 C 487.844 4267.827 487.704 4267.273 487.704 4266.6 C 487.704 4265.7 487.944 4265.007 488.424 4264.524 C 488.901 4264.041 489.58 4263.797 490.454 4263.797 C 491.14 4263.797 491.677 4263.937 492.07 4264.214 C 492.463 4264.49 492.753 4264.917 492.943 4265.49 L 491.46 4265.82 C 491.41 4265.654 491.353 4265.534 491.297 4265.457 C 491.204 4265.327 491.09 4265.23 490.954 4265.16 C 490.817 4265.09 490.664 4265.057 490.497 4265.057 C 490.114 4265.057 489.824 4265.21 489.62 4265.517 C 489.467 4265.744 489.391 4266.1 489.391 4266.587 C 489.391 4267.193 489.484 4267.607 489.664 4267.83 C 489.847 4268.053 490.107 4268.163 490.437 4268.163 C 490.757 4268.163 491 4268.077 491.167 4267.893 C 491.33 4267.713 491.45 4267.45 491.523 4267.107 Z  M 497.159 4268.433 L 495.243 4268.433 L 494.98 4269.33 L 493.263 4269.33 L 495.306 4263.891 L 497.139 4263.891 L 499.185 4269.33 L 497.426 4269.33 L 497.159 4268.433 Z  M 496.806 4267.257 L 496.206 4265.3 L 495.609 4267.257 L 496.806 4267.257 Z  M 499.705 4263.891 L 501.915 4263.891 L 502.768 4267.2 L 503.618 4263.891 L 505.821 4263.891 L 505.821 4269.33 L 504.448 4269.33 L 504.448 4265.184 L 503.385 4269.33 L 502.142 4269.33 L 501.082 4265.184 L 501.082 4269.33 L 499.705 4269.33 L 499.705 4263.891 Z  M 506.887 4263.891 L 509.68 4263.891 C 510.287 4263.891 510.743 4264.034 511.047 4264.327 C 511.347 4264.614 511.5 4265.027 511.5 4265.56 C 511.5 4266.11 511.337 4266.54 511.007 4266.847 C 510.673 4267.157 510.17 4267.31 509.494 4267.31 L 508.574 4267.31 L 508.574 4269.33 L 506.887 4269.33 L 506.887 4263.891 Z  M 508.574 4266.21 L 508.987 4266.21 C 509.31 4266.21 509.537 4266.154 509.667 4266.04 C 509.8 4265.927 509.864 4265.784 509.864 4265.61 C 509.864 4265.437 509.807 4265.294 509.694 4265.174 C 509.58 4265.057 509.367 4264.997 509.054 4264.997 L 508.574 4264.997 L 508.574 4266.21 Z " fill="rgb(35,31,32)"/><path d=" M 315.227 4230.136 L 342.026 4230.136 L 339.607 4238.098 L 313.051 4238.098 L 315.227 4230.136 Z " fill-rule="evenodd" fill="rgb(35,31,32)"/><path d=" M 312.791 4239.155 L 321.16 4239.155 L 316.564 4255.815 L 308.195 4255.815 L 312.791 4239.155 Z " fill-rule="evenodd" fill="rgb(35,31,32)"/><path d=" M 322.236 4239.075 L 339.363 4239.075 L 337.247 4246.957 L 320.12 4246.957 L 322.236 4239.075 Z " fill-rule="evenodd" fill="rgb(35,31,32)"/><path d=" M 319.8 4247.893 L 336.924 4247.893 L 334.807 4255.775 L 317.684 4255.775 L 319.8 4247.893 Z " fill-rule="evenodd" fill="rgb(35,31,32)"/></g></svg>