<?xml version="1.0" encoding="UTF-8" standalone="no"?><!-- Generator: Gravit.io --><svg xmlns="http://www.w3.org/2000/svg" xmlns:xlink="http://www.w3.org/1999/xlink" style="isolation:isolate" viewBox="61.707 47.547 223.652 39.969" width="223.652pt" height="39.969pt"><g><g><rect x="61.707" y="50.413" width="57.358" height="37.103" transform="matrix(1,0,0,1,0,0)" fill="rgb(190,23,36)"/><g><path d=" M 69.818 78.458 L 69.818 59.287 L 69.818 59.287 Q 70.82 59.15 71.976 59.081 L 71.976 59.081 L 71.976 59.081 Q 73.133 59.012 74.42 59.012 L 74.42 59.012 L 74.42 59.012 Q 75.97 59.012 77.186 59.452 L 77.186 59.452 L 77.186 59.452 Q 78.402 59.891 79.237 60.66 L 79.237 60.66 L 79.237 60.66 Q 80.071 61.429 80.501 62.514 L 80.501 62.514 L 80.501 62.514 Q 80.93 63.599 80.93 64.863 L 80.93 64.863 L 80.93 64.863 Q 80.93 66.401 80.417 67.595 L 80.417 67.595 L 80.417 67.595 Q 79.904 68.79 78.986 69.614 L 78.986 69.614 L 78.986 69.614 Q 78.068 70.438 76.781 70.864 L 76.781 70.864 L 76.781 70.864 Q 75.493 71.289 73.943 71.289 L 73.943 71.289 L 73.943 71.289 Q 72.942 71.289 72.083 71.207 L 72.083 71.207 L 72.083 78.458 L 69.818 78.458 Z  M 74.229 69.12 L 74.229 69.12 L 74.229 69.12 Q 76.375 69.12 77.532 68.035 L 77.532 68.035 L 77.532 68.035 Q 78.688 66.95 78.688 65.082 L 78.688 65.082 L 78.688 65.082 Q 78.688 63.297 77.58 62.253 L 77.58 62.253 L 77.58 62.253 Q 76.471 61.21 74.372 61.21 L 74.372 61.21 L 74.372 61.21 Q 73.729 61.21 73.156 61.237 L 73.156 61.237 L 73.156 61.237 Q 72.584 61.265 72.083 61.319 L 72.083 61.319 L 72.083 68.982 L 72.083 68.982 Q 72.465 69.037 73.001 69.078 L 73.001 69.078 L 73.001 69.078 Q 73.538 69.12 74.229 69.12 Z " fill-rule="evenodd" fill="rgb(255,255,255)"/><path d=" M 98.603 78.403 L 98.603 59.287 L 98.603 59.287 Q 99.723 59.15 100.796 59.081 L 100.796 59.081 L 100.796 59.081 Q 101.869 59.012 103.252 59.012 L 103.252 59.012 L 103.252 59.012 Q 105.399 59.012 106.948 59.781 L 106.948 59.781 L 106.948 59.781 Q 108.498 60.55 109.524 61.896 L 109.524 61.896 L 109.524 61.896 Q 110.549 63.242 111.038 65.027 L 111.038 65.027 L 111.038 65.027 Q 111.527 66.813 111.527 68.818 L 111.527 68.818 L 111.527 68.818 Q 111.527 70.823 111.026 72.621 L 111.026 72.621 L 111.026 72.621 Q 110.525 74.42 109.488 75.766 L 109.488 75.766 L 109.488 75.766 Q 108.451 77.112 106.841 77.895 L 106.841 77.895 L 106.841 77.895 Q 105.232 78.678 102.99 78.678 L 102.99 78.678 L 102.99 78.678 Q 101.631 78.678 100.618 78.609 L 100.618 78.609 L 100.618 78.609 Q 99.604 78.54 98.603 78.403 L 98.603 78.403 Z  M 103.181 61.265 L 103.181 61.265 L 103.181 61.265 Q 102.489 61.265 101.917 61.306 L 101.917 61.306 L 101.917 61.306 Q 101.345 61.347 100.868 61.402 L 100.868 61.402 L 100.868 76.261 L 100.868 76.261 Q 101.369 76.343 101.917 76.371 L 101.917 76.371 L 101.917 76.371 Q 102.466 76.398 103.062 76.398 L 103.062 76.398 L 103.062 76.398 Q 104.659 76.398 105.828 75.835 L 105.828 75.835 L 105.828 75.835 Q 106.996 75.272 107.747 74.269 L 107.747 74.269 L 107.747 74.269 Q 108.498 73.267 108.856 71.88 L 108.856 71.88 L 108.856 71.88 Q 109.214 70.493 109.214 68.818 L 109.214 68.818 L 109.214 68.818 Q 109.214 67.334 108.856 65.975 L 108.856 65.975 L 108.856 65.975 Q 108.498 64.615 107.759 63.558 L 107.759 63.558 L 107.759 63.558 Q 107.02 62.5 105.875 61.883 L 105.875 61.883 L 105.875 61.883 Q 104.731 61.265 103.181 61.265 Z " fill-rule="evenodd" fill="rgb(255,255,255)"/><path d=" M 88.144 78.458 L 82.016 59.919 L 84.234 58.93 L 89.48 75.601 L 94.749 59.012 L 96.8 59.919 L 90.696 78.458 L 88.144 78.458 Z " fill="rgb(255,255,255)"/></g></g><g opacity="0.8"><path d=" M 153.069 87.515 L 153.069 56.929 L 144.06 78.631 L 139.531 78.631 L 130.473 56.929 L 130.473 87.515 L 126.136 87.515 L 126.136 50.691 L 132.544 50.691 L 141.891 73.528 L 151.094 50.691 L 157.646 50.691 L 157.646 87.515 L 153.069 87.515 Z  M 161.932 73.528 L 161.932 73.528 L 161.932 73.528 Q 161.932 70.538 162.799 67.935 L 162.799 67.935 L 162.799 67.935 Q 163.666 65.331 165.232 63.424 L 165.232 63.424 L 165.232 63.424 Q 166.798 61.517 168.99 60.434 L 168.99 60.434 L 168.99 60.434 Q 171.182 59.352 173.784 59.352 L 173.784 59.352 L 173.784 59.352 Q 175.952 59.352 177.711 60.151 L 177.711 60.151 L 177.711 60.151 Q 179.469 60.95 180.77 62.135 L 180.77 62.135 L 180.77 59.97 L 184.721 59.97 L 184.721 80.281 L 184.721 80.281 Q 184.721 82.239 185.612 82.832 L 185.612 82.832 L 185.612 82.832 Q 186.504 83.425 187.564 83.425 L 187.564 83.425 L 186.648 87.034 L 186.648 87.034 Q 182.023 87.034 181.059 83.013 L 181.059 83.013 L 181.059 83.013 Q 180.481 83.837 179.734 84.636 L 179.734 84.636 L 179.734 84.636 Q 178.988 85.435 178.024 86.054 L 178.024 86.054 L 178.024 86.054 Q 177.06 86.673 175.856 87.034 L 175.856 87.034 L 175.856 87.034 Q 174.651 87.394 173.206 87.394 L 173.206 87.394 L 173.206 87.394 Q 170.845 87.394 168.798 86.415 L 168.798 86.415 L 168.798 86.415 Q 166.75 85.435 165.232 83.631 L 165.232 83.631 L 165.232 83.631 Q 163.714 81.827 162.823 79.275 L 162.823 79.275 L 162.823 79.275 Q 161.932 76.724 161.932 73.528 Z  M 174.17 83.27 L 174.17 83.27 L 174.17 83.27 Q 176 83.27 177.639 82.343 L 177.639 82.343 L 177.639 82.343 Q 179.277 81.415 180.385 79.92 L 180.385 79.92 L 180.385 65.537 L 180.385 65.537 Q 179.084 64.558 177.518 63.965 L 177.518 63.965 L 177.518 63.965 Q 175.952 63.372 174.218 63.372 L 174.218 63.372 L 174.218 63.372 Q 172.483 63.372 171.038 64.094 L 171.038 64.094 L 171.038 64.094 Q 169.593 64.816 168.557 66.13 L 168.557 66.13 L 168.557 66.13 Q 167.521 67.445 166.943 69.301 L 166.943 69.301 L 166.943 69.301 Q 166.364 71.156 166.364 73.373 L 166.364 73.373 L 166.364 73.373 Q 166.364 75.538 166.943 77.368 L 166.943 77.368 L 166.943 77.368 Q 167.521 79.198 168.581 80.513 L 168.581 80.513 L 168.581 80.513 Q 169.641 81.827 171.062 82.549 L 171.062 82.549 L 171.062 82.549 Q 172.483 83.27 174.17 83.27 Z  M 195.222 48.629 L 195.222 77.909 L 195.222 77.909 Q 195.222 80.693 196.306 82.033 L 196.306 82.033 L 196.306 82.033 Q 197.39 83.374 199.317 83.374 L 199.317 83.374 L 199.317 83.374 Q 200.233 83.374 201.1 83.142 L 201.1 83.142 L 201.1 83.142 Q 201.967 82.91 202.642 82.6 L 202.642 82.6 L 203.702 86.363 L 203.702 86.363 Q 202.834 86.776 201.558 87.085 L 201.558 87.085 L 201.558 87.085 Q 200.281 87.394 198.739 87.394 L 198.739 87.394 L 198.739 87.394 Q 197.053 87.394 195.631 86.879 L 195.631 86.879 L 195.631 86.879 Q 194.21 86.363 193.15 85.281 L 193.15 85.281 L 193.15 85.281 Q 192.09 84.198 191.488 82.497 L 191.488 82.497 L 191.488 82.497 Q 190.886 80.796 190.886 78.373 L 190.886 78.373 L 190.886 48.629 L 195.222 48.629 Z  M 203.909 73.528 L 203.909 73.528 L 203.909 73.528 Q 203.909 70.538 204.776 67.935 L 204.776 67.935 L 204.776 67.935 Q 205.643 65.331 207.209 63.424 L 207.209 63.424 L 207.209 63.424 Q 208.775 61.517 210.967 60.434 L 210.967 60.434 L 210.967 60.434 Q 213.159 59.352 215.761 59.352 L 215.761 59.352 L 215.761 59.352 Q 217.929 59.352 219.688 60.151 L 219.688 60.151 L 219.688 60.151 Q 221.446 60.95 222.747 62.135 L 222.747 62.135 L 222.747 59.97 L 226.698 59.97 L 226.698 80.281 L 226.698 80.281 Q 226.698 82.239 227.589 82.832 L 227.589 82.832 L 227.589 82.832 Q 228.481 83.425 229.541 83.425 L 229.541 83.425 L 228.625 87.034 L 228.625 87.034 Q 224 87.034 223.036 83.013 L 223.036 83.013 L 223.036 83.013 Q 222.458 83.837 221.711 84.636 L 221.711 84.636 L 221.711 84.636 Q 220.964 85.435 220.001 86.054 L 220.001 86.054 L 220.001 86.054 Q 219.037 86.673 217.833 87.034 L 217.833 87.034 L 217.833 87.034 Q 216.628 87.394 215.183 87.394 L 215.183 87.394 L 215.183 87.394 Q 212.822 87.394 210.774 86.415 L 210.774 86.415 L 210.774 86.415 Q 208.727 85.435 207.209 83.631 L 207.209 83.631 L 207.209 83.631 Q 205.691 81.827 204.8 79.275 L 204.8 79.275 L 204.8 79.275 Q 203.909 76.724 203.909 73.528 Z  M 216.146 83.27 L 216.146 83.27 L 216.146 83.27 Q 217.977 83.27 219.615 82.343 L 219.615 82.343 L 219.615 82.343 Q 221.254 81.415 222.362 79.92 L 222.362 79.92 L 222.362 65.537 L 222.362 65.537 Q 221.061 64.558 219.495 63.965 L 219.495 63.965 L 219.495 63.965 Q 217.929 63.372 216.195 63.372 L 216.195 63.372 L 216.195 63.372 Q 214.46 63.372 213.015 64.094 L 213.015 64.094 L 213.015 64.094 Q 211.569 64.816 210.533 66.13 L 210.533 66.13 L 210.533 66.13 Q 209.498 67.445 208.919 69.301 L 208.919 69.301 L 208.919 69.301 Q 208.341 71.156 208.341 73.373 L 208.341 73.373 L 208.341 73.373 Q 208.341 75.538 208.919 77.368 L 208.919 77.368 L 208.919 77.368 Q 209.498 79.198 210.558 80.513 L 210.558 80.513 L 210.558 80.513 Q 211.618 81.827 213.039 82.549 L 213.039 82.549 L 213.039 82.549 Q 214.46 83.27 216.146 83.27 Z  M 212.822 57.135 L 211.328 53.99 L 220.434 47.547 L 222.458 51.877 L 212.822 57.135 Z  M 247.251 59.661 L 245.951 64.455 L 245.951 64.455 Q 245.035 64.043 243.782 64.043 L 243.782 64.043 L 243.782 64.043 Q 242.433 64.043 241.157 64.661 L 241.157 64.661 L 241.157 64.661 Q 239.88 65.28 238.892 66.517 L 238.892 66.517 L 238.892 66.517 Q 237.904 67.754 237.302 69.687 L 237.302 69.687 L 237.302 69.687 Q 236.7 71.62 236.7 74.249 L 236.7 74.249 L 236.7 86.776 L 232.364 86.776 L 232.364 59.97 L 236.555 59.97 L 236.555 65.795 L 236.555 65.795 Q 236.989 64.558 237.712 63.372 L 237.712 63.372 L 237.712 63.372 Q 238.434 62.187 239.422 61.31 L 239.422 61.31 L 239.422 61.31 Q 240.41 60.434 241.711 59.893 L 241.711 59.893 L 241.711 59.893 Q 243.012 59.352 244.602 59.352 L 244.602 59.352 L 244.602 59.352 Q 245.324 59.352 246.023 59.429 L 246.023 59.429 L 246.023 59.429 Q 246.721 59.506 247.251 59.661 L 247.251 59.661 Z  M 255.924 59.97 L 255.924 86.776 L 251.588 86.776 L 251.588 59.97 L 255.924 59.97 Z  M 253.756 55.382 L 253.756 55.382 L 253.756 55.382 Q 252.503 55.382 251.612 54.429 L 251.612 54.429 L 251.612 54.429 Q 250.72 53.475 250.72 52.135 L 250.72 52.135 L 250.72 52.135 Q 250.72 50.64 251.539 49.763 L 251.539 49.763 L 251.539 49.763 Q 252.359 48.887 253.756 48.887 L 253.756 48.887 L 253.756 48.887 Q 255.008 48.887 255.9 49.841 L 255.9 49.841 L 255.9 49.841 Q 256.791 50.794 256.791 52.135 L 256.791 52.135 L 256.791 52.135 Q 256.791 53.63 255.972 54.506 L 255.972 54.506 L 255.972 54.506 Q 255.153 55.382 253.756 55.382 Z  M 259.727 73.528 L 259.727 73.528 L 259.727 73.528 Q 259.727 70.538 260.595 67.935 L 260.595 67.935 L 260.595 67.935 Q 261.462 65.331 263.028 63.424 L 263.028 63.424 L 263.028 63.424 Q 264.594 61.517 266.786 60.434 L 266.786 60.434 L 266.786 60.434 Q 268.978 59.352 271.58 59.352 L 271.58 59.352 L 271.58 59.352 Q 273.748 59.352 275.507 60.151 L 275.507 60.151 L 275.507 60.151 Q 277.265 60.95 278.566 62.135 L 278.566 62.135 L 278.566 59.97 L 282.517 59.97 L 282.517 80.281 L 282.517 80.281 Q 282.517 82.239 283.408 82.832 L 283.408 82.832 L 283.408 82.832 Q 284.3 83.425 285.359 83.425 L 285.359 83.425 L 284.444 87.034 L 284.444 87.034 Q 279.819 87.034 278.855 83.013 L 278.855 83.013 L 278.855 83.013 Q 278.277 83.837 277.53 84.636 L 277.53 84.636 L 277.53 84.636 Q 276.783 85.435 275.82 86.054 L 275.82 86.054 L 275.82 86.054 Q 274.856 86.673 273.652 87.034 L 273.652 87.034 L 273.652 87.034 Q 272.447 87.394 271.002 87.394 L 271.002 87.394 L 271.002 87.394 Q 268.641 87.394 266.593 86.415 L 266.593 86.415 L 266.593 86.415 Q 264.546 85.435 263.028 83.631 L 263.028 83.631 L 263.028 83.631 Q 261.51 81.827 260.619 79.275 L 260.619 79.275 L 260.619 79.275 Q 259.727 76.724 259.727 73.528 Z  M 271.965 83.27 L 271.965 83.27 L 271.965 83.27 Q 273.796 83.27 275.434 82.343 L 275.434 82.343 L 275.434 82.343 Q 277.072 81.415 278.181 79.92 L 278.181 79.92 L 278.181 65.537 L 278.181 65.537 Q 276.88 64.558 275.314 63.965 L 275.314 63.965 L 275.314 63.965 Q 273.748 63.372 272.013 63.372 L 272.013 63.372 L 272.013 63.372 Q 270.279 63.372 268.834 64.094 L 268.834 64.094 L 268.834 64.094 Q 267.388 64.816 266.352 66.13 L 266.352 66.13 L 266.352 66.13 Q 265.316 67.445 264.738 69.301 L 264.738 69.301 L 264.738 69.301 Q 264.16 71.156 264.16 73.373 L 264.16 73.373 L 264.16 73.373 Q 264.16 75.538 264.738 77.368 L 264.738 77.368 L 264.738 77.368 Q 265.316 79.198 266.376 80.513 L 266.376 80.513 L 266.376 80.513 Q 267.436 81.827 268.858 82.549 L 268.858 82.549 L 268.858 82.549 Q 270.279 83.27 271.965 83.27 Z " fill="rgb(0,0,0)"/></g></g></svg>