<?xml version="1.0" encoding="UTF-8" standalone="no"?><!-- Generator: Gravit.io --><svg xmlns="http://www.w3.org/2000/svg" xmlns:xlink="http://www.w3.org/1999/xlink" style="isolation:isolate" viewBox="775.023 3925 136.477 51.622" width="136.477pt" height="51.622pt"><g><path d=" M 787.683 3959.216 L 787.683 3956.323 C 786.98 3957.346 786.045 3958.187 784.954 3958.778 C 783.808 3959.323 782.607 3959.651 781.353 3959.651 C 780.043 3959.651 778.952 3959.323 777.915 3958.778 C 776.878 3958.232 776.168 3957.414 775.678 3956.377 C 775.241 3955.394 775.023 3953.976 775.023 3952.175 L 775.023 3940.115 L 780.043 3940.115 L 780.043 3948.9 C 780.043 3951.574 780.153 3953.212 780.37 3953.812 C 780.525 3954.398 780.871 3954.917 781.353 3955.286 C 781.843 3955.613 782.499 3955.776 783.208 3955.776 C 784.136 3955.776 784.9 3955.558 785.555 3955.067 C 786.264 3954.575 786.701 3954.03 786.974 3953.32 C 787.192 3952.611 787.302 3950.865 787.302 3948.136 L 787.302 3940.114 L 792.376 3940.114 L 792.376 3959.214 L 787.683 3959.214 L 787.683 3959.216 L 787.683 3959.216 Z  M 814.585 3959.216 L 809.51 3959.216 L 809.51 3949.447 C 809.51 3947.373 809.401 3946.064 809.237 3945.464 C 809.035 3944.886 808.652 3944.389 808.146 3944.045 C 807.655 3943.717 807.055 3943.553 806.4 3943.553 C 805.527 3943.553 804.708 3943.772 803.999 3944.263 C 803.344 3944.753 802.907 3945.354 802.635 3946.173 C 802.362 3946.937 802.199 3948.41 802.199 3950.539 L 802.199 3959.216 L 797.178 3959.216 L 797.178 3940.115 L 801.871 3940.115 L 801.871 3942.953 C 803.562 3940.771 805.636 3939.678 808.146 3939.678 C 809.237 3939.678 810.275 3939.897 811.202 3940.279 C 812.13 3940.661 812.838 3941.206 813.276 3941.807 C 813.766 3942.462 814.094 3943.172 814.312 3943.935 C 814.476 3944.753 814.585 3945.9 814.585 3947.373 L 814.585 3959.216 L 814.585 3959.216 Z  M 830.356 3953.103 L 835.377 3953.976 C 834.722 3955.831 833.739 3957.195 832.321 3958.177 C 830.956 3959.16 829.156 3959.651 827.082 3959.651 C 823.753 3959.651 821.298 3958.56 819.715 3956.377 C 818.46 3954.63 817.805 3952.448 817.805 3949.828 C 817.805 3946.664 818.624 3944.153 820.315 3942.407 C 821.953 3940.551 824.026 3939.678 826.591 3939.678 C 829.429 3939.678 831.666 3940.606 833.303 3942.515 C 834.94 3944.371 835.704 3947.262 835.65 3951.083 L 822.989 3951.083 C 822.989 3952.611 823.426 3953.812 824.244 3954.575 C 825.008 3955.448 825.936 3955.831 827.136 3955.831 C 827.901 3955.831 828.555 3955.612 829.101 3955.23 C 829.701 3954.795 830.083 3954.085 830.356 3953.103 L 830.356 3953.103 Z  M 830.629 3948.028 C 830.575 3946.555 830.247 3945.408 829.482 3944.699 C 828.773 3943.935 827.9 3943.553 826.863 3943.553 C 825.771 3943.553 824.844 3943.99 824.134 3944.753 C 823.425 3945.572 823.098 3946.664 823.098 3948.027 L 830.629 3948.027 L 830.629 3948.028 Z  M 837.613 3953.758 L 842.633 3952.994 C 842.852 3953.977 843.288 3954.686 843.944 3955.231 C 844.599 3955.723 845.526 3955.996 846.726 3955.996 C 848.035 3955.996 849.018 3955.723 849.673 3955.286 C 850.109 3954.958 850.326 3954.468 850.326 3953.921 C 850.326 3953.54 850.219 3953.212 849.945 3952.939 C 849.726 3952.721 849.127 3952.503 848.308 3952.284 C 844.216 3951.412 841.651 3950.593 840.505 3949.829 C 839.031 3948.847 838.267 3947.374 838.267 3945.573 C 838.267 3943.881 838.922 3942.517 840.231 3941.371 C 841.542 3940.225 843.56 3939.679 846.289 3939.679 C 848.908 3939.679 850.872 3940.116 852.127 3940.934 C 853.438 3941.807 854.256 3943.063 854.747 3944.754 L 850 3945.627 C 849.781 3944.864 849.4 3944.318 848.799 3943.881 C 848.253 3943.499 847.435 3943.28 846.398 3943.28 C 845.033 3943.28 844.106 3943.499 843.56 3943.826 C 843.124 3944.154 842.96 3944.481 842.96 3944.863 C 842.96 3945.245 843.123 3945.572 843.451 3945.79 C 843.944 3946.118 845.526 3946.609 848.199 3947.264 C 850.872 3947.81 852.729 3948.573 853.819 3949.501 C 854.911 3950.374 855.401 3951.629 855.401 3953.212 C 855.401 3954.958 854.692 3956.487 853.219 3957.741 C 851.745 3958.996 849.563 3959.651 846.725 3959.651 C 844.105 3959.651 842.086 3959.105 840.505 3958.069 C 839.033 3956.977 838.05 3955.558 837.613 3953.758 L 837.613 3953.758 Z  M 859.278 3940.115 L 863.971 3940.115 L 863.971 3942.953 C 864.571 3941.916 865.389 3941.152 866.425 3940.552 C 867.518 3940.006 868.663 3939.678 869.919 3939.678 C 872.157 3939.678 874.011 3940.552 875.594 3942.243 C 877.122 3944.044 877.886 3946.445 877.886 3949.555 C 877.886 3952.721 877.122 3955.23 875.539 3956.977 C 874.012 3958.778 872.102 3959.651 869.919 3959.651 C 868.827 3959.651 867.9 3959.433 867.028 3958.996 C 866.154 3958.56 865.28 3957.85 864.299 3956.868 L 864.299 3966.472 L 859.278 3966.472 L 859.278 3940.115 L 859.278 3940.115 Z  M 864.298 3949.338 C 864.298 3951.466 864.679 3953.048 865.498 3954.085 C 866.372 3955.121 867.463 3955.613 868.663 3955.613 C 869.809 3955.613 870.792 3955.176 871.555 3954.194 C 872.373 3953.267 872.756 3951.739 872.756 3949.611 C 872.756 3947.592 872.32 3946.119 871.501 3945.136 C 870.736 3944.154 869.753 3943.663 868.554 3943.663 C 867.299 3943.663 866.316 3944.154 865.498 3945.081 C 864.679 3946.064 864.298 3947.482 864.298 3949.338 L 864.298 3949.338 Z  M 775.405 3971.547 L 776.442 3971.547 L 776.442 3974.221 C 776.442 3974.658 776.442 3974.931 776.496 3975.094 C 776.496 3975.313 776.605 3975.476 776.769 3975.586 C 776.933 3975.695 777.151 3975.748 777.424 3975.748 C 777.752 3975.748 777.969 3975.695 778.079 3975.586 C 778.242 3975.476 778.352 3975.313 778.352 3975.149 C 778.406 3974.986 778.406 3974.713 778.406 3974.276 L 778.406 3971.547 L 779.443 3971.547 L 779.443 3974.167 C 779.443 3974.768 779.388 3975.204 779.334 3975.422 C 779.287 3975.656 779.194 3975.878 779.061 3976.076 C 778.897 3976.24 778.679 3976.349 778.46 3976.459 C 778.187 3976.569 777.86 3976.622 777.478 3976.622 C 776.987 3976.622 776.66 3976.569 776.386 3976.459 C 776.113 3976.349 775.95 3976.186 775.786 3976.023 C 775.674 3975.852 775.582 3975.669 775.513 3975.477 C 775.437 3975.063 775.4 3974.643 775.404 3974.222 L 775.404 3971.547 L 775.405 3971.547 Z  M 780.589 3976.569 L 780.589 3971.547 L 781.571 3971.547 L 783.59 3974.876 L 783.59 3971.547 L 784.572 3971.547 L 784.572 3976.569 L 783.536 3976.569 L 781.515 3973.294 L 781.515 3976.569 L 780.589 3976.569 Z  M 785.664 3976.569 L 785.664 3971.547 L 786.701 3971.547 L 786.701 3976.569 L 785.664 3976.569 Z  M 788.992 3976.569 L 787.191 3971.547 L 788.338 3971.547 L 789.593 3975.258 L 790.848 3971.547 L 791.884 3971.547 L 790.084 3976.569 L 788.992 3976.569 Z  M 792.485 3976.569 L 792.485 3971.547 L 796.195 3971.547 L 796.195 3972.367 L 793.522 3972.367 L 793.522 3973.513 L 796.032 3973.513 L 796.032 3974.33 L 793.522 3974.33 L 793.522 3975.695 L 796.304 3975.695 L 796.304 3976.569 L 792.485 3976.569 L 792.485 3976.569 Z  M 797.232 3976.569 L 797.232 3971.547 L 799.36 3971.547 C 799.906 3971.547 800.288 3971.547 800.561 3971.657 C 800.779 3971.766 800.997 3971.929 801.161 3972.148 C 801.27 3972.367 801.379 3972.639 801.379 3972.912 C 801.379 3973.294 801.27 3973.621 800.997 3973.839 C 800.779 3974.112 800.451 3974.275 800.015 3974.33 C 800.233 3974.44 800.451 3974.603 800.561 3974.767 C 800.725 3974.876 800.888 3975.148 801.161 3975.585 L 801.761 3976.568 L 800.561 3976.568 L 799.797 3975.475 C 799.578 3975.039 799.36 3974.82 799.305 3974.711 C 799.196 3974.602 799.086 3974.548 798.978 3974.493 C 798.869 3974.493 798.705 3974.439 798.487 3974.439 L 798.269 3974.439 L 798.269 3976.568 L 797.232 3976.568 L 797.232 3976.569 L 797.232 3976.569 Z  M 798.269 3973.62 L 799.033 3973.62 C 799.525 3973.62 799.797 3973.62 799.907 3973.567 C 800.07 3973.567 800.125 3973.457 800.234 3973.348 C 800.289 3973.294 800.289 3973.129 800.289 3973.021 C 800.289 3972.802 800.289 3972.693 800.18 3972.584 C 800.07 3972.475 799.962 3972.421 799.797 3972.366 L 798.269 3972.366 L 798.269 3973.62 L 798.269 3973.62 Z  M 802.143 3974.931 L 803.126 3974.821 C 803.18 3975.149 803.289 3975.367 803.453 3975.531 C 803.671 3975.695 803.889 3975.803 804.216 3975.803 C 804.544 3975.803 804.762 3975.695 804.926 3975.586 C 805.144 3975.422 805.199 3975.258 805.199 3975.094 C 805.199 3974.986 805.145 3974.876 805.09 3974.767 C 804.987 3974.658 804.854 3974.582 804.708 3974.548 C 804.599 3974.548 804.326 3974.439 803.944 3974.33 C 803.399 3974.22 803.016 3974.057 802.798 3973.838 C 802.47 3973.566 802.306 3973.238 802.306 3972.856 C 802.306 3972.583 802.36 3972.365 802.525 3972.092 C 802.688 3971.873 802.906 3971.71 803.179 3971.601 C 803.452 3971.491 803.779 3971.438 804.161 3971.438 C 804.761 3971.438 805.252 3971.601 805.579 3971.873 C 805.907 3972.146 806.071 3972.474 806.071 3972.965 L 805.034 3973.02 C 805.034 3972.746 804.925 3972.583 804.761 3972.474 C 804.652 3972.311 804.433 3972.256 804.161 3972.256 C 803.834 3972.256 803.616 3972.31 803.452 3972.474 C 803.35 3972.526 803.286 3972.632 803.288 3972.746 C 803.288 3972.91 803.343 3972.965 803.452 3973.074 C 803.561 3973.184 803.889 3973.293 804.379 3973.402 C 804.871 3973.512 805.197 3973.62 805.471 3973.784 C 805.69 3973.893 805.907 3974.057 806.017 3974.275 C 806.126 3974.494 806.234 3974.767 806.234 3975.093 C 806.234 3975.366 806.126 3975.639 805.962 3975.912 C 805.798 3976.131 805.579 3976.348 805.307 3976.457 C 804.955 3976.573 804.586 3976.628 804.216 3976.62 C 803.561 3976.62 803.07 3976.511 802.743 3976.184 C 802.416 3975.914 802.199 3975.476 802.143 3974.931 L 802.143 3974.931 Z  M 807.109 3976.569 L 807.109 3971.547 L 808.146 3971.547 L 808.146 3976.569 L 807.109 3976.569 Z  M 809.183 3971.547 L 811.038 3971.547 C 811.42 3971.547 811.748 3971.547 811.966 3971.601 C 812.293 3971.711 812.512 3971.874 812.731 3972.093 C 812.949 3972.312 813.113 3972.584 813.221 3972.911 C 813.33 3973.239 813.385 3973.62 813.385 3974.057 C 813.385 3974.493 813.33 3974.875 813.221 3975.148 C 813.112 3975.53 812.893 3975.803 812.676 3976.022 C 812.477 3976.222 812.234 3976.371 811.966 3976.458 C 811.681 3976.532 811.388 3976.569 811.093 3976.568 L 809.183 3976.568 L 809.183 3971.547 L 809.183 3971.547 Z  M 810.165 3972.367 L 810.165 3975.695 L 810.929 3975.695 C 811.202 3975.695 811.42 3975.695 811.529 3975.641 C 811.748 3975.586 811.857 3975.531 811.965 3975.422 C 812.075 3975.368 812.183 3975.204 812.238 3974.986 C 812.293 3974.713 812.348 3974.441 812.348 3974.058 C 812.348 3973.622 812.293 3973.349 812.238 3973.131 C 812.183 3972.913 812.075 3972.749 811.911 3972.64 C 811.802 3972.53 811.638 3972.477 811.475 3972.422 C 811.311 3972.367 811.038 3972.367 810.656 3972.367 L 810.165 3972.367 L 810.165 3972.367 Z  M 818.841 3976.569 L 817.75 3976.569 L 817.313 3975.422 L 815.295 3975.422 L 814.858 3976.569 L 813.821 3976.569 L 815.785 3971.547 L 816.822 3971.547 L 818.841 3976.569 Z  M 816.986 3974.549 L 816.277 3972.694 L 815.622 3974.549 L 816.986 3974.549 L 816.986 3974.549 Z  M 819.441 3971.547 L 821.297 3971.547 C 821.733 3971.547 822.061 3971.547 822.279 3971.601 C 822.552 3971.711 822.825 3971.874 823.043 3972.093 C 823.207 3972.312 823.371 3972.584 823.48 3972.911 C 823.589 3973.238 823.644 3973.62 823.644 3974.057 C 823.644 3974.493 823.589 3974.875 823.48 3975.148 C 823.371 3975.53 823.207 3975.803 822.989 3976.022 C 822.771 3976.185 822.553 3976.349 822.28 3976.458 C 822.007 3976.512 821.734 3976.568 821.353 3976.568 L 819.442 3976.568 L 819.442 3971.547 L 819.441 3971.547 L 819.441 3971.547 Z  M 820.479 3972.367 L 820.479 3975.695 L 821.243 3975.695 C 821.516 3975.695 821.734 3975.695 821.843 3975.641 C 822.007 3975.586 822.116 3975.531 822.225 3975.422 C 822.335 3975.368 822.443 3975.204 822.498 3974.986 C 822.552 3974.713 822.607 3974.441 822.607 3974.058 C 822.607 3973.622 822.553 3973.349 822.498 3973.131 C 822.453 3972.945 822.359 3972.775 822.225 3972.64 C 822.116 3972.53 821.953 3972.477 821.734 3972.422 C 821.625 3972.367 821.352 3972.367 820.916 3972.367 L 820.479 3972.367 L 820.479 3972.367 L 820.479 3972.367 Z  M 824.626 3976.569 L 824.626 3971.547 L 828.337 3971.547 L 828.337 3972.367 L 825.608 3972.367 L 825.608 3973.513 L 828.118 3973.513 L 828.118 3974.33 L 825.608 3974.33 L 825.608 3975.695 L 828.391 3975.695 L 828.391 3976.569 L 824.626 3976.569 L 824.626 3976.569 Z  M 831.61 3976.569 L 831.61 3971.547 L 835.322 3971.547 L 835.322 3972.367 L 832.648 3972.367 L 832.648 3973.513 L 835.158 3973.513 L 835.158 3974.33 L 832.648 3974.33 L 832.648 3975.695 L 835.431 3975.695 L 835.431 3976.569 L 831.61 3976.569 L 831.61 3976.569 Z  M 836.14 3974.931 L 837.123 3974.821 C 837.178 3975.149 837.286 3975.367 837.451 3975.531 C 837.669 3975.695 837.887 3975.803 838.215 3975.803 C 838.542 3975.803 838.76 3975.695 838.925 3975.586 C 839.088 3975.422 839.197 3975.258 839.197 3975.094 C 839.197 3974.986 839.144 3974.876 839.088 3974.767 C 838.976 3974.67 838.846 3974.596 838.707 3974.548 C 838.597 3974.548 838.324 3974.439 837.888 3974.33 C 837.342 3974.22 836.96 3974.057 836.742 3973.838 C 836.469 3973.566 836.306 3973.238 836.306 3972.856 C 836.306 3972.583 836.361 3972.365 836.523 3972.092 C 836.688 3971.873 836.851 3971.71 837.123 3971.601 C 837.396 3971.491 837.724 3971.438 838.106 3971.438 C 838.76 3971.438 839.252 3971.601 839.524 3971.873 C 839.852 3972.146 840.015 3972.474 840.07 3972.965 L 839.034 3973.02 C 838.979 3972.746 838.924 3972.583 838.76 3972.474 C 838.596 3972.311 838.433 3972.256 838.106 3972.256 C 837.833 3972.256 837.615 3972.31 837.451 3972.474 C 837.348 3972.526 837.284 3972.632 837.287 3972.746 C 837.287 3972.91 837.287 3972.965 837.396 3973.074 C 837.56 3973.184 837.833 3973.293 838.379 3973.402 C 838.816 3973.512 839.197 3973.62 839.471 3973.784 C 839.688 3973.893 839.852 3974.057 840.015 3974.275 C 840.125 3974.494 840.18 3974.767 840.18 3975.093 C 840.18 3975.366 840.125 3975.639 839.961 3975.912 C 839.797 3976.131 839.578 3976.348 839.252 3976.457 C 838.978 3976.567 838.651 3976.62 838.214 3976.62 C 837.559 3976.62 837.068 3976.511 836.74 3976.184 C 836.413 3975.914 836.195 3975.476 836.14 3974.931 L 836.14 3974.931 Z  M 842.252 3976.569 L 842.252 3972.367 L 840.779 3972.367 L 840.779 3971.547 L 844.762 3971.547 L 844.762 3972.367 L 843.289 3972.367 L 843.289 3976.569 L 842.252 3976.569 Z  M 849.509 3976.569 L 848.418 3976.569 L 847.982 3975.422 L 845.962 3975.422 L 845.528 3976.569 L 844.435 3976.569 L 846.4 3971.547 L 847.492 3971.547 L 849.509 3976.569 Z  M 847.654 3974.549 L 846.945 3972.694 L 846.235 3974.549 L 847.654 3974.549 L 847.654 3974.549 Z  M 850.11 3971.547 L 851.965 3971.547 C 852.402 3971.547 852.675 3971.547 852.893 3971.601 C 853.221 3971.711 853.438 3971.874 853.657 3972.093 C 853.876 3972.312 854.038 3972.584 854.148 3972.911 C 854.257 3973.238 854.312 3973.62 854.312 3974.057 C 854.312 3974.493 854.257 3974.875 854.148 3975.148 C 854.038 3975.53 853.876 3975.803 853.602 3976.022 C 853.404 3976.222 853.161 3976.372 852.893 3976.458 C 852.607 3976.532 852.314 3976.569 852.019 3976.568 L 850.11 3976.568 L 850.11 3971.547 L 850.11 3971.547 Z  M 851.147 3972.367 L 851.147 3975.695 L 851.857 3975.695 C 852.185 3975.695 852.348 3975.695 852.512 3975.641 C 852.675 3975.586 852.784 3975.531 852.893 3975.422 C 853.003 3975.368 853.112 3975.204 853.165 3974.986 C 853.221 3974.713 853.275 3974.441 853.275 3974.058 C 853.275 3973.622 853.221 3973.349 853.165 3973.131 C 853.112 3972.912 853.003 3972.749 852.893 3972.64 C 852.784 3972.53 852.621 3972.477 852.403 3972.422 C 852.293 3972.367 851.966 3972.367 851.583 3972.367 L 851.147 3972.367 L 851.147 3972.367 L 851.147 3972.367 Z  M 855.24 3971.547 L 856.275 3971.547 L 856.275 3975.094 C 856.318 3975.294 856.435 3975.47 856.603 3975.586 C 856.767 3975.695 856.986 3975.748 857.258 3975.748 C 857.586 3975.748 857.804 3975.695 857.913 3975.586 C 858.076 3975.476 858.185 3975.313 858.185 3975.149 C 858.24 3974.986 858.24 3974.713 858.24 3974.276 L 858.24 3971.547 L 859.277 3971.547 L 859.277 3974.167 C 859.277 3974.768 859.222 3975.204 859.168 3975.422 C 859.114 3975.695 859.003 3975.914 858.84 3976.076 C 858.73 3976.24 858.512 3976.349 858.294 3976.459 C 858.022 3976.569 857.694 3976.622 857.312 3976.622 C 856.82 3976.622 856.495 3976.569 856.22 3976.459 C 855.948 3976.349 855.784 3976.186 855.62 3976.023 C 855.507 3975.853 855.416 3975.669 855.348 3975.477 C 855.271 3975.063 855.235 3974.643 855.239 3974.222 L 855.239 3971.547 L 855.24 3971.547 Z  M 864.898 3976.569 L 863.805 3976.569 L 863.371 3975.422 L 861.351 3975.422 L 860.97 3976.569 L 859.877 3976.569 L 861.842 3971.547 L 862.934 3971.547 L 864.898 3976.569 Z  M 863.043 3974.549 L 862.387 3972.694 L 861.678 3974.549 L 863.043 3974.549 L 863.043 3974.549 Z  M 865.553 3976.569 L 865.553 3971.547 L 866.589 3971.547 L 866.589 3975.695 L 869.1 3975.695 L 869.1 3976.569 L 865.553 3976.569 Z  M 872.048 3976.569 L 872.048 3971.547 L 873.684 3971.547 C 874.284 3971.547 874.666 3971.547 874.885 3971.601 C 875.157 3971.656 875.376 3971.82 875.594 3972.093 C 875.757 3972.366 875.867 3972.638 875.867 3973.075 C 875.867 3973.348 875.813 3973.62 875.704 3973.839 C 875.594 3974.057 875.43 3974.221 875.267 3974.33 C 875.103 3974.44 874.939 3974.549 874.777 3974.603 C 874.503 3974.603 874.175 3974.658 873.684 3974.658 L 873.029 3974.658 L 873.029 3976.568 L 872.048 3976.568 L 872.048 3976.569 L 872.048 3976.569 Z  M 873.028 3972.367 L 873.028 3973.785 L 873.574 3973.785 C 874.01 3973.785 874.283 3973.785 874.392 3973.73 C 874.556 3973.677 874.664 3973.568 874.72 3973.458 C 874.776 3973.349 874.829 3973.24 874.829 3973.076 C 874.829 3972.912 874.776 3972.748 874.665 3972.64 C 874.557 3972.53 874.448 3972.422 874.283 3972.422 C 874.121 3972.367 873.902 3972.367 873.521 3972.367 L 873.028 3972.367 L 873.028 3972.367 L 873.028 3972.367 Z  M 880.777 3976.569 L 879.686 3976.569 L 879.25 3975.422 L 877.23 3975.422 L 876.849 3976.569 L 875.756 3976.569 L 877.721 3971.547 L 878.813 3971.547 L 880.777 3976.569 L 880.777 3976.569 Z  M 878.923 3974.549 L 878.268 3972.694 L 877.558 3974.549 L 878.923 3974.549 Z  M 881.379 3971.547 L 882.415 3971.547 L 882.415 3974.221 C 882.415 3974.658 882.415 3974.931 882.469 3975.094 C 882.522 3975.313 882.578 3975.476 882.741 3975.586 C 882.905 3975.695 883.124 3975.748 883.452 3975.748 C 883.724 3975.748 883.943 3975.695 884.105 3975.586 C 884.215 3975.476 884.324 3975.313 884.324 3975.149 C 884.379 3974.986 884.379 3974.713 884.379 3974.276 L 884.379 3971.547 L 885.416 3971.547 L 885.416 3974.167 C 885.416 3974.768 885.361 3975.204 885.306 3975.422 C 885.259 3975.656 885.166 3975.878 885.033 3976.076 C 884.87 3976.24 884.651 3976.349 884.433 3976.459 C 884.16 3976.569 883.832 3976.622 883.451 3976.622 C 882.959 3976.622 882.632 3976.569 882.359 3976.459 C 882.14 3976.349 881.922 3976.186 881.813 3976.023 C 881.665 3975.867 881.553 3975.681 881.485 3975.477 C 881.41 3975.063 881.374 3974.643 881.377 3974.222 L 881.377 3971.547 L 881.379 3971.547 Z  M 886.562 3976.569 L 886.562 3971.547 L 887.599 3971.547 L 887.599 3975.695 L 890.109 3975.695 L 890.109 3976.569 L 886.562 3976.569 Z  M 890.872 3976.569 L 890.872 3971.547 L 891.91 3971.547 L 891.91 3976.569 L 890.872 3976.569 Z  M 892.673 3974.931 L 893.656 3974.821 C 893.71 3975.149 893.875 3975.367 894.038 3975.531 C 894.202 3975.695 894.474 3975.803 894.749 3975.803 C 895.075 3975.803 895.349 3975.695 895.511 3975.586 C 895.674 3975.422 895.785 3975.258 895.785 3975.094 C 895.785 3974.986 895.73 3974.876 895.674 3974.767 C 895.566 3974.712 895.457 3974.603 895.293 3974.548 C 895.183 3974.548 894.911 3974.439 894.475 3974.33 C 893.929 3974.22 893.548 3974.057 893.329 3973.838 C 893.001 3973.566 892.893 3973.238 892.893 3972.856 C 892.893 3972.583 892.948 3972.365 893.111 3972.092 C 893.22 3971.873 893.439 3971.71 893.711 3971.601 C 893.985 3971.491 894.313 3971.438 894.694 3971.438 C 895.349 3971.438 895.787 3971.601 896.112 3971.873 C 896.44 3972.146 896.605 3972.474 896.605 3972.965 L 895.622 3973.02 C 895.568 3972.746 895.459 3972.583 895.349 3972.474 C 895.185 3972.311 894.966 3972.256 894.694 3972.256 C 894.422 3972.256 894.149 3972.31 893.985 3972.474 C 893.882 3972.526 893.818 3972.632 893.821 3972.746 C 893.821 3972.91 893.876 3972.965 893.985 3973.074 C 894.094 3973.184 894.421 3973.293 894.912 3973.402 C 895.403 3973.512 895.786 3973.62 896.003 3973.784 C 896.277 3973.893 896.439 3974.057 896.549 3974.275 C 896.711 3974.494 896.767 3974.767 896.767 3975.093 C 896.767 3975.366 896.712 3975.639 896.549 3975.912 C 896.386 3976.131 896.167 3976.348 895.839 3976.457 C 895.567 3976.567 895.184 3976.62 894.749 3976.62 C 894.147 3976.62 893.656 3976.511 893.273 3976.184 C 892.947 3975.914 892.729 3975.476 892.673 3974.931 L 892.673 3974.931 Z  M 898.84 3976.569 L 898.84 3972.367 L 897.366 3972.367 L 897.366 3971.547 L 901.35 3971.547 L 901.35 3972.367 L 899.823 3972.367 L 899.823 3976.569 L 898.84 3976.569 Z  M 906.043 3976.569 L 904.952 3976.569 L 904.516 3975.422 L 902.496 3975.422 L 902.114 3976.569 L 901.022 3976.569 L 902.987 3971.547 L 904.079 3971.547 L 906.043 3976.569 L 906.043 3976.569 Z  M 904.188 3974.549 L 903.532 3972.694 L 902.823 3974.549 L 904.188 3974.549 Z " fill-rule="evenodd" fill="rgb(0,0,0)"/><path d=" M 888.745 3925.382 L 893.056 3932.094 L 884.38 3932.094 L 888.745 3925.382 L 888.745 3925.382 Z  M 884.161 3932.913 L 888.527 3939.624 L 879.796 3939.624 L 884.161 3932.913 L 884.161 3932.913 Z  M 897.912 3925.382 L 902.277 3932.094 L 893.601 3932.094 L 897.912 3925.382 Z " fill-rule="evenodd" fill="rgb(1,168,230)"/><path d=" M 897.912 3925.382 L 902.277 3932.094 L 893.601 3932.094 L 897.912 3925.382 Z  M 893.329 3932.913 L 897.694 3939.624 L 889.017 3939.624 L 893.329 3932.913 Z  M 897.803 3940.552 L 902.168 3947.264 L 893.437 3947.264 L 897.803 3940.552 L 897.803 3940.552 Z  M 902.551 3932.913 L 906.861 3939.624 L 898.184 3939.624 L 902.551 3932.913 L 902.551 3932.913 Z  M 893.273 3931.712 L 897.64 3925 L 888.963 3925 L 893.273 3931.712 Z  M 888.745 3939.242 L 893.056 3932.53 L 884.38 3932.53 L 888.745 3939.242 L 888.745 3939.242 Z  M 893.22 3946.882 L 897.531 3940.17 L 888.854 3940.17 L 893.22 3946.882 L 893.22 3946.882 Z  M 897.912 3939.242 L 902.277 3932.53 L 893.601 3932.53 L 897.912 3939.242 Z  M 902.387 3946.882 L 906.698 3940.17 L 898.022 3940.17 L 902.387 3946.882 L 902.387 3946.882 Z  M 907.134 3939.242 L 911.5 3932.53 L 902.823 3932.53 L 907.134 3939.242 Z " fill-rule="evenodd" fill="rgb(1,168,230)"/></g></svg>