<?xml version="1.0" encoding="UTF-8"?>
<svg xmlns="http://www.w3.org/2000/svg" xmlns:xlink="http://www.w3.org/1999/xlink" width="316.7795pt" height="61.8329pt" viewBox="0 0 316.7795 61.8329" version="1.1">
<g id="surface1">
<path style=" stroke:none;fill-rule:nonzero;fill:rgb(0%,0%,0%);fill-opacity:1;" d="M 200.226562 58.257812 C 199.941406 58.257812 199.6875 58.21875 199.460938 58.132812 C 199.234375 58.046875 199.046875 57.933594 198.894531 57.792969 C 198.746094 57.652344 198.621094 57.480469 198.519531 57.28125 C 198.421875 57.082031 198.351562 56.875 198.308594 56.65625 C 198.265625 56.4375 198.242188 56.203125 198.242188 55.957031 L 198.242188 53.621094 L 198.972656 53.621094 L 198.972656 55.957031 C 198.972656 56.132812 198.984375 56.296875 199.007812 56.453125 C 199.035156 56.609375 199.078125 56.757812 199.140625 56.902344 C 199.203125 57.042969 199.28125 57.167969 199.375 57.269531 C 199.464844 57.367188 199.585938 57.449219 199.730469 57.511719 C 199.878906 57.574219 200.042969 57.605469 200.226562 57.605469 C 200.417969 57.605469 200.582031 57.570312 200.730469 57.511719 C 200.878906 57.449219 200.996094 57.363281 201.089844 57.261719 C 201.183594 57.15625 201.257812 57.035156 201.320312 56.890625 C 201.382812 56.746094 201.425781 56.597656 201.449219 56.445312 C 201.472656 56.292969 201.484375 56.128906 201.484375 55.957031 L 201.484375 53.621094 L 202.21875 53.621094 L 202.21875 55.957031 C 202.21875 56.28125 202.183594 56.578125 202.105469 56.847656 C 202.03125 57.121094 201.914062 57.363281 201.757812 57.578125 C 201.605469 57.789062 201.394531 57.957031 201.136719 58.078125 C 200.875 58.199219 200.570312 58.257812 200.226562 58.257812 "/>
<path style=" stroke:none;fill-rule:nonzero;fill:rgb(0%,0%,0%);fill-opacity:1;" d="M 205.207031 54.972656 L 205.207031 58.226562 L 204.484375 58.226562 L 204.484375 53.625 L 205.078125 53.625 L 207.6875 56.949219 L 207.6875 53.628906 L 208.417969 53.628906 L 208.417969 58.226562 L 207.78125 58.226562 Z M 205.207031 54.972656 "/>
<path style=" stroke:none;fill-rule:nonzero;fill:rgb(0%,0%,0%);fill-opacity:1;" d="M 210.75 58.226562 L 211.476562 58.226562 L 211.476562 53.625 L 210.75 53.625 Z M 210.75 58.226562 "/>
<path style=" stroke:none;fill-rule:nonzero;fill:rgb(0%,0%,0%);fill-opacity:1;" d="M 215.140625 53.625 L 215.828125 53.625 L 217.617188 58.226562 L 216.851562 58.226562 L 216.367188 56.976562 L 214.589844 56.976562 L 214.109375 58.226562 L 213.335938 58.226562 Z M 215.054688 52.761719 C 214.988281 52.761719 214.933594 52.777344 214.882812 52.804688 C 214.839844 52.832031 214.804688 52.867188 214.785156 52.910156 C 214.769531 52.949219 214.753906 52.984375 214.75 53.011719 C 214.742188 53.039062 214.738281 53.058594 214.738281 53.070312 L 214.335938 53.070312 C 214.335938 53.039062 214.34375 52.996094 214.355469 52.941406 C 214.367188 52.886719 214.394531 52.824219 214.425781 52.75 C 214.460938 52.679688 214.503906 52.609375 214.554688 52.546875 C 214.605469 52.484375 214.671875 52.433594 214.753906 52.390625 C 214.835938 52.347656 214.929688 52.324219 215.03125 52.324219 C 215.140625 52.324219 215.242188 52.347656 215.335938 52.394531 C 215.433594 52.441406 215.527344 52.492188 215.617188 52.539062 C 215.707031 52.585938 215.792969 52.609375 215.878906 52.609375 C 215.9375 52.609375 215.992188 52.597656 216.035156 52.578125 C 216.082031 52.558594 216.117188 52.53125 216.140625 52.503906 C 216.164062 52.476562 216.183594 52.449219 216.199219 52.414062 C 216.214844 52.382812 216.222656 52.355469 216.226562 52.335938 C 216.230469 52.316406 216.230469 52.304688 216.230469 52.292969 L 216.640625 52.292969 C 216.640625 52.320312 216.632812 52.359375 216.617188 52.414062 C 216.605469 52.464844 216.578125 52.527344 216.542969 52.601562 C 216.503906 52.675781 216.460938 52.746094 216.410156 52.808594 C 216.355469 52.871094 216.285156 52.925781 216.195312 52.972656 C 216.105469 53.019531 216.003906 53.039062 215.898438 53.039062 C 215.785156 53.039062 215.679688 53.015625 215.578125 52.972656 C 215.476562 52.925781 215.382812 52.878906 215.296875 52.832031 C 215.210938 52.785156 215.132812 52.761719 215.054688 52.761719 M 216.226562 56.4375 L 215.484375 54.421875 L 214.71875 56.4375 Z M 216.226562 56.4375 "/>
<path style=" stroke:none;fill-rule:nonzero;fill:rgb(0%,0%,0%);fill-opacity:1;" d="M 219.019531 55.925781 C 219.019531 55.621094 219.074219 55.328125 219.1875 55.042969 C 219.300781 54.757812 219.453125 54.511719 219.648438 54.296875 C 219.84375 54.085938 220.078125 53.914062 220.355469 53.785156 C 220.632812 53.65625 220.925781 53.589844 221.234375 53.589844 C 221.554688 53.589844 221.851562 53.660156 222.132812 53.792969 C 222.410156 53.929688 222.640625 54.105469 222.828125 54.328125 C 223.015625 54.546875 223.164062 54.796875 223.269531 55.078125 C 223.378906 55.359375 223.433594 55.640625 223.433594 55.929688 C 223.433594 56.234375 223.375 56.527344 223.261719 56.8125 C 223.152344 57.09375 222.996094 57.34375 222.804688 57.554688 C 222.613281 57.769531 222.378906 57.9375 222.101562 58.066406 C 221.824219 58.195312 221.53125 58.257812 221.222656 58.257812 C 220.964844 58.257812 220.71875 58.214844 220.488281 58.128906 C 220.253906 58.046875 220.050781 57.925781 219.875 57.777344 C 219.699219 57.628906 219.546875 57.453125 219.414062 57.257812 C 219.285156 57.0625 219.1875 56.847656 219.121094 56.621094 C 219.050781 56.390625 219.019531 56.160156 219.019531 55.925781 M 221.226562 57.601562 C 221.453125 57.601562 221.660156 57.554688 221.847656 57.457031 C 222.035156 57.359375 222.1875 57.230469 222.308594 57.074219 C 222.429688 56.914062 222.523438 56.734375 222.589844 56.535156 C 222.65625 56.339844 222.6875 56.132812 222.6875 55.925781 C 222.6875 55.707031 222.652344 55.5 222.582031 55.296875 C 222.511719 55.09375 222.414062 54.917969 222.292969 54.761719 C 222.167969 54.605469 222.011719 54.484375 221.828125 54.390625 C 221.644531 54.300781 221.445312 54.253906 221.226562 54.253906 C 221.003906 54.253906 220.796875 54.300781 220.609375 54.398438 C 220.421875 54.492188 220.265625 54.621094 220.140625 54.777344 C 220.019531 54.9375 219.925781 55.113281 219.855469 55.3125 C 219.789062 55.511719 219.757812 55.714844 219.757812 55.925781 C 219.757812 56.214844 219.8125 56.488281 219.933594 56.742188 C 220.050781 56.996094 220.222656 57.203125 220.449219 57.363281 C 220.675781 57.523438 220.9375 57.601562 221.226562 57.601562 "/>
<path style=" stroke:none;fill-rule:nonzero;fill:rgb(0%,0%,0%);fill-opacity:1;" d="M 231.53125 57.585938 L 231.53125 58.226562 L 228.371094 58.226562 L 228.371094 53.625 L 231.472656 53.625 L 231.472656 54.265625 L 229.097656 54.265625 L 229.097656 55.574219 L 231.152344 55.574219 L 231.152344 56.179688 L 229.097656 56.179688 L 229.097656 57.585938 Z M 231.53125 57.585938 "/>
<path style=" stroke:none;fill-rule:nonzero;fill:rgb(0%,0%,0%);fill-opacity:1;" d="M 236.464844 58.226562 L 236.464844 53.625 L 238.46875 53.625 C 238.671875 53.625 238.863281 53.667969 239.042969 53.753906 C 239.222656 53.839844 239.375 53.953125 239.496094 54.09375 C 239.621094 54.234375 239.714844 54.398438 239.789062 54.578125 C 239.859375 54.757812 239.894531 54.9375 239.894531 55.121094 C 239.894531 55.433594 239.8125 55.714844 239.648438 55.96875 C 239.484375 56.21875 239.265625 56.390625 238.996094 56.476562 L 240.078125 58.226562 L 239.261719 58.226562 L 238.261719 56.625 L 237.191406 56.625 L 237.191406 58.226562 Z M 237.191406 55.980469 L 238.464844 55.980469 C 238.664062 55.980469 238.832031 55.898438 238.960938 55.730469 C 239.09375 55.5625 239.160156 55.359375 239.160156 55.121094 C 239.160156 54.886719 239.085938 54.683594 238.9375 54.519531 C 238.789062 54.351562 238.617188 54.265625 238.421875 54.265625 L 237.191406 54.265625 Z M 237.191406 55.980469 "/>
<path style=" stroke:none;fill-rule:nonzero;fill:rgb(0%,0%,0%);fill-opacity:1;" d="M 245.203125 57.585938 L 245.203125 58.226562 L 242.046875 58.226562 L 242.046875 53.625 L 245.148438 53.625 L 245.148438 54.265625 L 242.773438 54.265625 L 242.773438 55.574219 L 244.828125 55.574219 L 244.828125 56.179688 L 242.773438 56.179688 L 242.773438 57.585938 Z M 245.203125 57.585938 "/>
<path style=" stroke:none;fill-rule:nonzero;fill:rgb(0%,0%,0%);fill-opacity:1;" d="M 249.097656 53.597656 C 249.503906 53.597656 249.855469 53.6875 250.160156 53.871094 C 250.464844 54.054688 250.695312 54.296875 250.851562 54.601562 L 250.28125 54.984375 C 250.21875 54.851562 250.140625 54.734375 250.050781 54.636719 C 249.957031 54.539062 249.855469 54.464844 249.746094 54.410156 C 249.636719 54.355469 249.523438 54.316406 249.414062 54.289062 C 249.304688 54.265625 249.191406 54.253906 249.074219 54.253906 C 248.886719 54.253906 248.714844 54.285156 248.554688 54.351562 C 248.394531 54.414062 248.257812 54.5 248.144531 54.609375 C 248.027344 54.714844 247.929688 54.839844 247.847656 54.984375 C 247.765625 55.128906 247.707031 55.277344 247.667969 55.4375 C 247.628906 55.597656 247.605469 55.757812 247.605469 55.917969 C 247.605469 56.21875 247.671875 56.492188 247.796875 56.75 C 247.921875 57.007812 248.097656 57.21875 248.332031 57.375 C 248.558594 57.53125 248.8125 57.609375 249.09375 57.609375 C 249.25 57.609375 249.40625 57.585938 249.554688 57.535156 C 249.707031 57.484375 249.851562 57.402344 249.996094 57.285156 C 250.132812 57.167969 250.242188 57.023438 250.316406 56.851562 L 250.921875 57.195312 C 250.832031 57.414062 250.683594 57.609375 250.480469 57.773438 C 250.273438 57.941406 250.050781 58.066406 249.804688 58.144531 C 249.558594 58.226562 249.3125 58.265625 249.066406 58.265625 C 248.753906 58.265625 248.460938 58.195312 248.183594 58.058594 C 247.90625 57.921875 247.671875 57.742188 247.480469 57.519531 C 247.292969 57.292969 247.144531 57.039062 247.035156 56.757812 C 246.925781 56.472656 246.871094 56.183594 246.871094 55.894531 C 246.871094 55.667969 246.902344 55.449219 246.964844 55.226562 C 247.027344 55.007812 247.125 54.796875 247.25 54.601562 C 247.378906 54.40625 247.53125 54.234375 247.707031 54.085938 C 247.882812 53.9375 248.089844 53.816406 248.332031 53.730469 C 248.570312 53.640625 248.828125 53.597656 249.097656 53.597656 "/>
<path style=" stroke:none;fill-rule:nonzero;fill:rgb(0%,0%,0%);fill-opacity:1;" d="M 252.542969 55.925781 C 252.542969 55.621094 252.597656 55.328125 252.710938 55.042969 C 252.824219 54.757812 252.976562 54.511719 253.171875 54.296875 C 253.367188 54.085938 253.601562 53.914062 253.878906 53.785156 C 254.15625 53.65625 254.449219 53.589844 254.757812 53.589844 C 255.078125 53.589844 255.375 53.660156 255.65625 53.792969 C 255.933594 53.929688 256.164062 54.105469 256.351562 54.328125 C 256.539062 54.546875 256.6875 54.796875 256.792969 55.078125 C 256.902344 55.359375 256.957031 55.640625 256.957031 55.929688 C 256.957031 56.234375 256.898438 56.527344 256.785156 56.8125 C 256.671875 57.09375 256.519531 57.34375 256.328125 57.554688 C 256.136719 57.769531 255.902344 57.9375 255.625 58.066406 C 255.347656 58.195312 255.054688 58.257812 254.746094 58.257812 C 254.488281 58.257812 254.242188 58.214844 254.011719 58.128906 C 253.777344 58.046875 253.574219 57.925781 253.398438 57.777344 C 253.222656 57.628906 253.070312 57.453125 252.9375 57.257812 C 252.808594 57.0625 252.710938 56.847656 252.644531 56.621094 C 252.574219 56.390625 252.542969 56.160156 252.542969 55.925781 M 254.75 57.601562 C 254.976562 57.601562 255.183594 57.554688 255.371094 57.457031 C 255.558594 57.359375 255.710938 57.230469 255.832031 57.074219 C 255.953125 56.914062 256.046875 56.734375 256.113281 56.535156 C 256.179688 56.339844 256.210938 56.132812 256.210938 55.925781 C 256.210938 55.707031 256.175781 55.5 256.105469 55.296875 C 256.035156 55.09375 255.9375 54.917969 255.816406 54.761719 C 255.691406 54.605469 255.535156 54.484375 255.351562 54.390625 C 255.167969 54.300781 254.964844 54.253906 254.75 54.253906 C 254.527344 54.253906 254.320312 54.300781 254.132812 54.398438 C 253.945312 54.492188 253.789062 54.621094 253.664062 54.777344 C 253.542969 54.9375 253.449219 55.113281 253.378906 55.3125 C 253.3125 55.511719 253.28125 55.714844 253.28125 55.925781 C 253.28125 56.214844 253.335938 56.488281 253.457031 56.742188 C 253.574219 56.996094 253.746094 57.203125 253.972656 57.363281 C 254.199219 57.523438 254.460938 57.601562 254.75 57.601562 "/>
<path style=" stroke:none;fill-rule:nonzero;fill:rgb(0%,0%,0%);fill-opacity:1;" d="M 259.730469 54.972656 L 259.730469 58.226562 L 259.007812 58.226562 L 259.007812 53.625 L 259.601562 53.625 L 262.210938 56.949219 L 262.210938 53.628906 L 262.941406 53.628906 L 262.941406 58.226562 L 262.304688 58.226562 Z M 259.730469 54.972656 "/>
<path style=" stroke:none;fill-rule:nonzero;fill:rgb(0%,0%,0%);fill-opacity:1;" d="M 267.996094 54.707031 C 267.898438 54.597656 267.730469 54.492188 267.492188 54.390625 C 267.253906 54.289062 267.007812 54.238281 266.753906 54.238281 C 266.453125 54.238281 266.230469 54.292969 266.082031 54.402344 C 265.933594 54.515625 265.859375 54.671875 265.859375 54.875 C 265.859375 54.9375 265.867188 54.992188 265.882812 55.046875 C 265.898438 55.09375 265.921875 55.140625 265.949219 55.179688 C 265.972656 55.21875 266.015625 55.257812 266.066406 55.292969 C 266.117188 55.328125 266.171875 55.359375 266.222656 55.382812 C 266.273438 55.410156 266.34375 55.4375 266.433594 55.464844 C 266.523438 55.492188 266.609375 55.515625 266.6875 55.535156 C 266.765625 55.558594 266.867188 55.582031 266.992188 55.613281 C 267.195312 55.664062 267.371094 55.710938 267.515625 55.757812 C 267.65625 55.804688 267.792969 55.867188 267.925781 55.9375 C 268.0625 56.011719 268.167969 56.09375 268.246094 56.183594 C 268.328125 56.273438 268.390625 56.382812 268.441406 56.511719 C 268.488281 56.640625 268.511719 56.785156 268.511719 56.949219 C 268.511719 57.136719 268.480469 57.300781 268.421875 57.449219 C 268.367188 57.597656 268.285156 57.722656 268.183594 57.820312 C 268.082031 57.921875 267.960938 58.007812 267.816406 58.078125 C 267.671875 58.144531 267.519531 58.195312 267.355469 58.226562 C 267.191406 58.257812 267.011719 58.269531 266.824219 58.269531 C 266.472656 58.269531 266.132812 58.21875 265.808594 58.113281 C 265.480469 58.003906 265.183594 57.851562 264.921875 57.652344 L 265.253906 57.027344 C 265.390625 57.164062 265.605469 57.296875 265.90625 57.425781 C 266.207031 57.550781 266.515625 57.617188 266.835938 57.617188 C 267.121094 57.617188 267.34375 57.566406 267.5 57.464844 C 267.65625 57.363281 267.730469 57.21875 267.730469 57.027344 C 267.730469 56.949219 267.71875 56.882812 267.695312 56.820312 C 267.671875 56.761719 267.632812 56.707031 267.578125 56.65625 C 267.519531 56.605469 267.460938 56.5625 267.402344 56.527344 C 267.339844 56.492188 267.253906 56.453125 267.144531 56.417969 C 267.035156 56.378906 266.933594 56.347656 266.839844 56.320312 C 266.75 56.296875 266.625 56.261719 266.46875 56.222656 C 266.226562 56.160156 266.023438 56.09375 265.867188 56.03125 C 265.707031 55.964844 265.570312 55.882812 265.449219 55.789062 C 265.324219 55.695312 265.238281 55.582031 265.183594 55.453125 C 265.128906 55.320312 265.101562 55.167969 265.101562 54.992188 C 265.101562 54.769531 265.144531 54.570312 265.230469 54.390625 C 265.316406 54.214844 265.433594 54.066406 265.582031 53.949219 C 265.730469 53.832031 265.90625 53.742188 266.109375 53.683594 C 266.3125 53.621094 266.535156 53.589844 266.773438 53.589844 C 267.335938 53.589844 267.855469 53.765625 268.328125 54.109375 Z M 267.996094 54.707031 "/>
<path style=" stroke:none;fill-rule:nonzero;fill:rgb(0%,0%,0%);fill-opacity:1;" d="M 273.910156 54.265625 L 272.382812 54.265625 L 272.382812 58.226562 L 271.648438 58.226562 L 271.648438 54.265625 L 270.113281 54.265625 L 270.113281 53.621094 L 273.910156 53.621094 Z M 273.910156 54.265625 "/>
<path style=" stroke:none;fill-rule:nonzero;fill:rgb(0%,0%,0%);fill-opacity:1;" d="M 275.824219 58.226562 L 275.824219 53.625 L 277.828125 53.625 C 278.027344 53.625 278.21875 53.667969 278.398438 53.753906 C 278.578125 53.839844 278.730469 53.953125 278.851562 54.09375 C 278.976562 54.234375 279.074219 54.398438 279.144531 54.578125 C 279.214844 54.757812 279.25 54.9375 279.25 55.121094 C 279.25 55.433594 279.167969 55.714844 279.003906 55.96875 C 278.839844 56.21875 278.621094 56.390625 278.351562 56.476562 L 279.4375 58.226562 L 278.617188 58.226562 L 277.617188 56.625 L 276.546875 56.625 L 276.546875 58.226562 Z M 276.546875 55.980469 L 277.820312 55.980469 C 278.019531 55.980469 278.1875 55.898438 278.316406 55.730469 C 278.449219 55.5625 278.515625 55.359375 278.515625 55.121094 C 278.515625 54.886719 278.441406 54.683594 278.292969 54.519531 C 278.144531 54.351562 277.972656 54.265625 277.78125 54.265625 L 276.546875 54.265625 Z M 276.546875 55.980469 "/>
<path style=" stroke:none;fill-rule:nonzero;fill:rgb(0%,0%,0%);fill-opacity:1;" d="M 283.316406 58.257812 C 283.03125 58.257812 282.773438 58.21875 282.546875 58.132812 C 282.320312 58.046875 282.132812 57.933594 281.984375 57.792969 C 281.832031 57.652344 281.710938 57.480469 281.609375 57.28125 C 281.511719 57.082031 281.4375 56.875 281.394531 56.65625 C 281.351562 56.4375 281.332031 56.203125 281.332031 55.957031 L 281.332031 53.621094 L 282.058594 53.621094 L 282.058594 55.957031 C 282.058594 56.132812 282.070312 56.296875 282.097656 56.453125 C 282.121094 56.609375 282.167969 56.757812 282.226562 56.902344 C 282.292969 57.042969 282.367188 57.167969 282.460938 57.269531 C 282.554688 57.367188 282.671875 57.449219 282.820312 57.511719 C 282.964844 57.574219 283.128906 57.605469 283.316406 57.605469 C 283.503906 57.605469 283.671875 57.570312 283.816406 57.511719 C 283.964844 57.449219 284.085938 57.363281 284.175781 57.261719 C 284.269531 57.15625 284.347656 57.035156 284.40625 56.890625 C 284.46875 56.746094 284.511719 56.597656 284.539062 56.445312 C 284.5625 56.292969 284.574219 56.128906 284.574219 55.957031 L 284.574219 53.621094 L 285.308594 53.621094 L 285.308594 55.957031 C 285.308594 56.28125 285.269531 56.578125 285.195312 56.847656 C 285.117188 57.121094 285.003906 57.363281 284.847656 57.578125 C 284.691406 57.789062 284.484375 57.957031 284.222656 58.078125 C 283.964844 58.199219 283.660156 58.257812 283.316406 58.257812 "/>
<path style=" stroke:none;fill-rule:nonzero;fill:rgb(0%,0%,0%);fill-opacity:1;" d="M 291.332031 57.195312 C 291.214844 57.476562 291.011719 57.710938 290.722656 57.894531 C 290.429688 58.082031 290.117188 58.199219 289.773438 58.246094 C 289.996094 58.433594 290.109375 58.640625 290.109375 58.871094 C 290.109375 59.054688 290.042969 59.203125 289.921875 59.3125 C 289.796875 59.421875 289.621094 59.476562 289.398438 59.476562 C 289.132812 59.476562 288.878906 59.414062 288.632812 59.289062 L 288.816406 58.90625 C 288.980469 59 289.132812 59.042969 289.273438 59.042969 C 289.398438 59.042969 289.492188 59.019531 289.5625 58.96875 C 289.628906 58.914062 289.664062 58.839844 289.664062 58.738281 C 289.664062 58.570312 289.546875 58.410156 289.316406 58.257812 C 289.023438 58.234375 288.746094 58.152344 288.492188 58.007812 C 288.234375 57.859375 288.019531 57.675781 287.84375 57.457031 C 287.667969 57.238281 287.53125 56.992188 287.429688 56.71875 C 287.328125 56.449219 287.28125 56.171875 287.28125 55.894531 C 287.28125 55.671875 287.3125 55.449219 287.375 55.226562 C 287.4375 55.007812 287.535156 54.796875 287.660156 54.601562 C 287.789062 54.40625 287.941406 54.234375 288.117188 54.085938 C 288.289062 53.9375 288.5 53.816406 288.738281 53.730469 C 288.980469 53.640625 289.238281 53.597656 289.507812 53.597656 C 289.910156 53.597656 290.265625 53.6875 290.570312 53.871094 C 290.875 54.054688 291.105469 54.296875 291.257812 54.601562 L 290.691406 54.984375 C 290.628906 54.851562 290.550781 54.734375 290.457031 54.636719 C 290.367188 54.539062 290.265625 54.464844 290.15625 54.410156 C 290.042969 54.355469 289.933594 54.316406 289.824219 54.289062 C 289.710938 54.265625 289.597656 54.253906 289.484375 54.253906 C 289.296875 54.253906 289.125 54.285156 288.964844 54.351562 C 288.804688 54.414062 288.667969 54.5 288.550781 54.609375 C 288.4375 54.714844 288.339844 54.839844 288.257812 54.984375 C 288.175781 55.128906 288.113281 55.277344 288.074219 55.4375 C 288.035156 55.597656 288.019531 55.757812 288.019531 55.917969 C 288.019531 56.21875 288.078125 56.492188 288.207031 56.753906 C 288.332031 57.007812 288.507812 57.21875 288.738281 57.375 C 288.96875 57.53125 289.222656 57.609375 289.503906 57.609375 C 289.660156 57.609375 289.816406 57.585938 289.964844 57.535156 C 290.117188 57.484375 290.261719 57.402344 290.402344 57.285156 C 290.542969 57.167969 290.652344 57.023438 290.726562 56.851562 Z M 291.332031 57.195312 "/>
<path style=" stroke:none;fill-rule:nonzero;fill:rgb(0%,0%,0%);fill-opacity:1;" d="M 294.566406 53.625 L 295.253906 53.625 L 297.042969 58.226562 L 296.277344 58.226562 L 295.789062 56.976562 L 294.015625 56.976562 L 293.535156 58.226562 L 292.761719 58.226562 Z M 294.480469 52.761719 C 294.414062 52.761719 294.355469 52.777344 294.308594 52.804688 C 294.261719 52.832031 294.230469 52.867188 294.210938 52.910156 C 294.191406 52.949219 294.179688 52.984375 294.171875 53.011719 C 294.167969 53.039062 294.164062 53.058594 294.164062 53.070312 L 293.761719 53.070312 C 293.761719 53.039062 293.769531 52.996094 293.78125 52.941406 C 293.792969 52.886719 293.816406 52.824219 293.851562 52.75 C 293.886719 52.679688 293.929688 52.609375 293.980469 52.546875 C 294.027344 52.484375 294.09375 52.433594 294.179688 52.390625 C 294.261719 52.347656 294.355469 52.324219 294.453125 52.324219 C 294.5625 52.324219 294.664062 52.347656 294.761719 52.394531 C 294.859375 52.441406 294.953125 52.492188 295.039062 52.539062 C 295.128906 52.585938 295.21875 52.609375 295.304688 52.609375 C 295.363281 52.609375 295.414062 52.597656 295.460938 52.578125 C 295.507812 52.558594 295.539062 52.53125 295.566406 52.503906 C 295.589844 52.476562 295.609375 52.449219 295.625 52.414062 C 295.636719 52.382812 295.648438 52.355469 295.652344 52.335938 C 295.652344 52.316406 295.65625 52.304688 295.65625 52.292969 L 296.0625 52.292969 C 296.0625 52.320312 296.058594 52.359375 296.042969 52.414062 C 296.027344 52.464844 296.003906 52.527344 295.96875 52.601562 C 295.929688 52.675781 295.886719 52.746094 295.832031 52.808594 C 295.78125 52.871094 295.707031 52.925781 295.617188 52.972656 C 295.527344 53.019531 295.429688 53.039062 295.324219 53.039062 C 295.210938 53.039062 295.105469 53.015625 295.003906 52.972656 C 294.902344 52.925781 294.808594 52.878906 294.722656 52.832031 C 294.636719 52.785156 294.554688 52.761719 294.480469 52.761719 M 295.648438 56.4375 L 294.90625 54.421875 L 294.144531 56.4375 Z M 295.648438 56.4375 "/>
<path style=" stroke:none;fill-rule:nonzero;fill:rgb(0%,0%,0%);fill-opacity:1;" d="M 298.441406 55.925781 C 298.441406 55.621094 298.5 55.328125 298.613281 55.042969 C 298.722656 54.757812 298.878906 54.511719 299.074219 54.296875 C 299.265625 54.085938 299.503906 53.914062 299.777344 53.785156 C 300.054688 53.65625 300.347656 53.589844 300.660156 53.589844 C 300.976562 53.589844 301.277344 53.660156 301.554688 53.792969 C 301.832031 53.929688 302.066406 54.105469 302.253906 54.328125 C 302.441406 54.546875 302.585938 54.796875 302.695312 55.078125 C 302.800781 55.359375 302.855469 55.640625 302.855469 55.929688 C 302.855469 56.234375 302.800781 56.527344 302.6875 56.8125 C 302.574219 57.09375 302.421875 57.34375 302.230469 57.554688 C 302.039062 57.769531 301.804688 57.9375 301.527344 58.066406 C 301.25 58.195312 300.957031 58.257812 300.644531 58.257812 C 300.386719 58.257812 300.144531 58.214844 299.910156 58.128906 C 299.679688 58.046875 299.476562 57.925781 299.300781 57.777344 C 299.121094 57.628906 298.96875 57.453125 298.839844 57.257812 C 298.710938 57.0625 298.613281 56.847656 298.542969 56.621094 C 298.476562 56.390625 298.441406 56.160156 298.441406 55.925781 M 300.652344 57.601562 C 300.875 57.601562 301.082031 57.554688 301.269531 57.457031 C 301.457031 57.359375 301.613281 57.230469 301.730469 57.074219 C 301.851562 56.914062 301.945312 56.734375 302.011719 56.535156 C 302.078125 56.339844 302.113281 56.132812 302.113281 55.925781 C 302.113281 55.707031 302.078125 55.5 302.007812 55.296875 C 301.933594 55.09375 301.839844 54.917969 301.714844 54.761719 C 301.589844 54.605469 301.4375 54.484375 301.253906 54.390625 C 301.070312 54.300781 300.867188 54.253906 300.652344 54.253906 C 300.429688 54.253906 300.222656 54.300781 300.035156 54.398438 C 299.84375 54.492188 299.6875 54.621094 299.566406 54.777344 C 299.445312 54.9375 299.347656 55.113281 299.28125 55.3125 C 299.214844 55.511719 299.179688 55.714844 299.179688 55.925781 C 299.179688 56.214844 299.238281 56.488281 299.355469 56.742188 C 299.472656 56.996094 299.644531 57.203125 299.875 57.363281 C 300.101562 57.523438 300.363281 57.601562 300.652344 57.601562 "/>
<path style=" stroke:none;fill-rule:nonzero;fill:rgb(0%,81.176758%,0%);fill-opacity:1;" d="M 222.882812 34.265625 L 210.765625 34.265625 L 210.765625 46.496094 L 230.835938 46.496094 Z M 222.882812 34.265625 "/>
<path style=" stroke:none;fill-rule:nonzero;fill:rgb(100%,0%,0%);fill-opacity:1;" d="M 197.007812 46.496094 L 201.523438 46.496094 C 206.628906 46.496094 210.769531 42.355469 210.769531 37.25 C 210.769531 32.144531 206.628906 28.007812 201.523438 28.007812 L 187.335938 28.007812 L 187.335938 46.496094 Z M 197.007812 46.496094 "/>
<path style=" stroke:none;fill-rule:nonzero;fill:rgb(9.01947%,23.921204%,100%);fill-opacity:1;" d="M 187.335938 28.007812 L 200.484375 28.007812 C 203.90625 28.007812 206.679688 25.234375 206.679688 21.8125 C 206.679688 18.390625 203.90625 15.617188 200.484375 15.617188 L 187.335938 15.617188 Z M 187.335938 28.007812 "/>
<path style=" stroke:none;fill-rule:nonzero;fill:rgb(100%,81.176758%,0%);fill-opacity:1;" d="M 243.355469 15.617188 L 224.992188 46.496094 L 261.722656 46.496094 Z M 243.355469 15.617188 "/>
<path style=" stroke:none;fill-rule:nonzero;fill:rgb(100%,81.176758%,0%);fill-opacity:1;" d="M 292.300781 36.125 L 302.976562 36.125 L 302.976562 15.617188 L 292.300781 15.617188 Z M 292.300781 36.125 "/>
<path style=" stroke:none;fill-rule:nonzero;fill:rgb(9.01947%,23.921204%,100%);fill-opacity:1;" d="M 302.976562 46.496094 L 313.652344 46.496094 L 313.652344 36.125 L 302.976562 36.125 Z M 302.976562 46.496094 "/>
<path style=" stroke:none;fill-rule:nonzero;fill:rgb(23.921204%,23.921204%,23.921204%);fill-opacity:1;" d="M 292.300781 46.496094 L 302.976562 46.496094 L 302.976562 36.125 L 292.300781 36.125 Z M 292.300781 46.496094 "/>
<path style=" stroke:none;fill-rule:nonzero;fill:rgb(100%,0%,0%);fill-opacity:1;" d="M 256.378906 46.496094 L 266.46875 46.496094 L 266.46875 29.339844 L 256.378906 29.339844 Z M 256.378906 46.496094 "/>
<path style=" stroke:none;fill-rule:nonzero;fill:rgb(23.921204%,23.921204%,23.921204%);fill-opacity:1;" d="M 224.992188 46.496094 L 230.835938 46.496094 L 227.785156 41.796875 Z M 224.992188 46.496094 "/>
<path style=" stroke:none;fill-rule:nonzero;fill:rgb(23.921204%,23.921204%,23.921204%);fill-opacity:1;" d="M 256.375 37.507812 L 256.375 46.496094 L 261.71875 46.496094 Z M 256.375 37.507812 "/>
<path style=" stroke:none;fill-rule:nonzero;fill:rgb(0%,81.176758%,0%);fill-opacity:1;" d="M 279.820312 46.496094 L 290.5 46.496094 L 290.5 15.617188 L 279.820312 15.617188 Z M 279.820312 46.496094 "/>
<path style=" stroke:none;fill-rule:nonzero;fill:rgb(0%,81.176758%,0%);fill-opacity:1;" d="M 187.335938 28.003906 L 198.011719 28.003906 L 198.011719 15.617188 L 187.335938 15.617188 Z M 187.335938 28.003906 "/>
<path style=" stroke:none;fill-rule:nonzero;fill:rgb(9.01947%,23.921204%,100%);fill-opacity:1;" d="M 219.652344 34.265625 L 222.882812 34.265625 C 228.035156 34.265625 232.210938 30.089844 232.210938 24.941406 C 232.210938 19.792969 228.035156 15.617188 222.882812 15.617188 L 210.765625 15.617188 L 210.765625 34.265625 Z M 219.652344 34.265625 "/>
<path style=" stroke:none;fill-rule:nonzero;fill:rgb(9.01947%,23.921204%,100%);fill-opacity:1;" d="M 266.46875 26.84375 L 278.019531 26.84375 L 278.019531 15.617188 L 266.46875 15.617188 Z M 266.46875 26.84375 "/>
<path style=" stroke:none;fill-rule:nonzero;fill:rgb(100%,81.176758%,0%);fill-opacity:1;" d="M 269.996094 26.84375 L 266.46875 26.84375 L 266.46875 46.496094 L 269.996094 46.496094 C 275.421875 46.496094 279.824219 42.097656 279.824219 36.671875 C 279.824219 31.246094 275.421875 26.84375 269.996094 26.84375 "/>
<path style=" stroke:none;fill-rule:nonzero;fill:rgb(0%,81.176758%,0%);fill-opacity:1;" d="M 263.238281 15.617188 C 259.449219 15.617188 256.375 18.6875 256.375 22.480469 C 256.375 26.269531 259.449219 29.339844 263.238281 29.339844 L 266.46875 29.339844 L 266.46875 15.617188 Z M 263.238281 15.617188 "/>
<path style=" stroke:none;fill-rule:nonzero;fill:rgb(100%,81.176758%,0%);fill-opacity:1;" d="M 187.335938 46.496094 L 198.011719 46.496094 L 198.011719 28.007812 L 187.335938 28.007812 Z M 187.335938 46.496094 "/>
<path style=" stroke:none;fill-rule:nonzero;fill:rgb(100%,81.176758%,0%);fill-opacity:1;" d="M 222.882812 34.265625 L 210.765625 15.617188 L 210.765625 34.265625 Z M 222.882812 34.265625 "/>
<path style=" stroke:none;fill-rule:nonzero;fill:rgb(9.01947%,23.921204%,100%);fill-opacity:1;" d="M 254.621094 46.496094 C 254.621094 40.273438 249.578125 35.230469 243.355469 35.230469 C 237.136719 35.230469 232.09375 40.273438 232.09375 46.496094 Z M 254.621094 46.496094 "/>
<path style=" stroke:none;fill-rule:nonzero;fill:rgb(0%,0%,0%);fill-opacity:1;" d="M 204.074219 5.925781 L 204.074219 6.382812 C 204.074219 8.210938 202.851562 9.402344 201.230469 9.402344 C 199.503906 9.402344 198.152344 8.054688 198.152344 6.339844 C 198.152344 4.625 199.511719 3.261719 201.21875 3.261719 C 202.296875 3.261719 203.289062 3.816406 203.832031 4.71875 L 202.488281 5.523438 C 202.230469 5.054688 201.753906 4.789062 201.203125 4.789062 C 200.339844 4.789062 199.726562 5.453125 199.726562 6.347656 C 199.726562 7.226562 200.339844 7.867188 201.230469 7.867188 C 201.847656 7.867188 202.246094 7.554688 202.382812 7.175781 L 200.804688 7.175781 L 200.804688 5.925781 Z M 204.074219 5.925781 "/>
<path style=" stroke:none;fill-rule:nonzero;fill:rgb(0%,0%,0%);fill-opacity:1;" d="M 206.246094 6.332031 C 206.246094 4.625 207.609375 3.261719 209.324219 3.261719 C 211.023438 3.261719 212.382812 4.625 212.382812 6.332031 C 212.382812 8.039062 211.023438 9.402344 209.324219 9.402344 C 207.609375 9.402344 206.246094 8.039062 206.246094 6.332031 M 210.6875 6.332031 C 210.6875 5.503906 210.089844 4.882812 209.324219 4.882812 C 208.539062 4.882812 207.9375 5.503906 207.9375 6.332031 C 207.9375 7.160156 208.539062 7.78125 209.324219 7.78125 C 210.089844 7.78125 210.6875 7.160156 210.6875 6.332031 "/>
<path style=" stroke:none;fill-rule:nonzero;fill:rgb(0%,0%,0%);fill-opacity:1;" d="M 220.015625 3.398438 L 217.71875 9.261719 L 216.144531 9.261719 L 213.875 3.398438 L 215.574219 3.398438 L 216.9375 7.011719 L 218.316406 3.398438 Z M 220.015625 3.398438 "/>
<path style=" stroke:none;fill-rule:nonzero;fill:rgb(0%,0%,0%);fill-opacity:1;" d="M 223.660156 4.832031 L 223.660156 5.703125 L 225.386719 5.703125 L 225.386719 6.960938 L 223.660156 6.960938 L 223.660156 7.832031 L 226.273438 7.832031 L 226.273438 9.261719 L 222.074219 9.261719 L 222.074219 3.402344 L 226.273438 3.402344 L 226.273438 4.832031 Z M 223.660156 4.832031 "/>
<path style=" stroke:none;fill-rule:nonzero;fill:rgb(0%,0%,0%);fill-opacity:1;" d="M 230.9375 7.238281 L 230.273438 7.238281 L 230.273438 9.261719 L 228.714844 9.261719 L 228.714844 3.398438 L 231.550781 3.398438 C 232.695312 3.398438 233.574219 4.21875 233.574219 5.304688 C 233.574219 6.054688 233.171875 6.675781 232.550781 7.003906 L 233.851562 9.261719 L 232.101562 9.261719 Z M 230.273438 5.902344 L 231.378906 5.902344 C 231.746094 5.902344 231.980469 5.640625 231.980469 5.355469 C 231.980469 5.0625 231.757812 4.804688 231.378906 4.804688 L 230.273438 4.804688 Z M 230.273438 5.902344 "/>
<path style=" stroke:none;fill-rule:nonzero;fill:rgb(0%,0%,0%);fill-opacity:1;" d="M 241.28125 3.398438 L 241.28125 9.261719 L 239.945312 9.261719 L 237.585938 6.175781 L 237.585938 9.261719 L 236.023438 9.261719 L 236.023438 3.398438 L 237.351562 3.398438 L 239.722656 6.496094 L 239.722656 3.398438 Z M 241.28125 3.398438 "/>
<path style=" stroke:none;fill-rule:nonzero;fill:rgb(0%,0%,0%);fill-opacity:1;" d="M 243.558594 6.332031 C 243.558594 4.625 244.921875 3.261719 246.636719 3.261719 C 248.335938 3.261719 249.699219 4.625 249.699219 6.332031 C 249.699219 8.039062 248.335938 9.402344 246.636719 9.402344 C 244.921875 9.402344 243.558594 8.039062 243.558594 6.332031 M 248 6.332031 C 248 5.503906 247.40625 4.882812 246.636719 4.882812 C 245.851562 4.882812 245.25 5.503906 245.25 6.332031 C 245.25 7.160156 245.851562 7.78125 246.636719 7.78125 C 247.40625 7.78125 248 7.160156 248 6.332031 "/>
<path style=" stroke:none;fill-rule:nonzero;fill:rgb(0%,0%,0%);fill-opacity:1;" d="M 257.4375 4.804688 L 257.4375 5.796875 L 259.164062 5.796875 L 259.164062 7.125 L 257.4375 7.125 L 257.4375 9.265625 L 255.851562 9.265625 L 255.851562 3.402344 L 260.050781 3.402344 L 260.050781 4.804688 Z M 257.4375 4.804688 "/>
<path style=" stroke:none;fill-rule:nonzero;fill:rgb(0%,0%,0%);fill-opacity:1;" d="M 264.007812 4.832031 L 264.007812 5.703125 L 265.734375 5.703125 L 265.734375 6.960938 L 264.007812 6.960938 L 264.007812 7.832031 L 266.621094 7.832031 L 266.621094 9.261719 L 262.421875 9.261719 L 262.421875 3.402344 L 266.621094 3.402344 L 266.621094 4.832031 Z M 264.007812 4.832031 "/>
<path style=" stroke:none;fill-rule:nonzero;fill:rgb(0%,0%,0%);fill-opacity:1;" d="M 274.578125 6.332031 C 274.578125 8.011719 273.234375 9.265625 271.449219 9.265625 L 269.058594 9.265625 L 269.058594 3.398438 L 271.449219 3.398438 C 273.234375 3.398438 274.578125 4.652344 274.578125 6.332031 M 272.941406 6.332031 C 272.941406 5.476562 272.300781 4.925781 271.371094 4.925781 L 270.65625 4.925781 L 270.65625 7.738281 L 271.371094 7.738281 C 272.300781 7.738281 272.941406 7.1875 272.941406 6.332031 "/>
<path style=" stroke:none;fill-rule:nonzero;fill:rgb(0%,0%,0%);fill-opacity:1;" d="M 278.441406 4.832031 L 278.441406 5.703125 L 280.164062 5.703125 L 280.164062 6.960938 L 278.441406 6.960938 L 278.441406 7.832031 L 281.054688 7.832031 L 281.054688 9.261719 L 276.855469 9.261719 L 276.855469 3.402344 L 281.054688 3.402344 L 281.054688 4.832031 Z M 278.441406 4.832031 "/>
<path style=" stroke:none;fill-rule:nonzero;fill:rgb(0%,0%,0%);fill-opacity:1;" d="M 285.71875 7.238281 L 285.054688 7.238281 L 285.054688 9.261719 L 283.492188 9.261719 L 283.492188 3.398438 L 286.328125 3.398438 C 287.476562 3.398438 288.355469 4.21875 288.355469 5.304688 C 288.355469 6.054688 287.949219 6.675781 287.328125 7.003906 L 288.632812 9.261719 L 286.882812 9.261719 Z M 285.054688 5.902344 L 286.15625 5.902344 C 286.527344 5.902344 286.761719 5.640625 286.761719 5.355469 C 286.761719 5.0625 286.535156 4.804688 286.15625 4.804688 L 285.054688 4.804688 Z M 285.054688 5.902344 "/>
<path style=" stroke:none;fill-rule:nonzero;fill:rgb(0%,0%,0%);fill-opacity:1;" d="M 294.734375 8.253906 L 292.414062 8.253906 L 292.007812 9.261719 L 290.363281 9.261719 L 292.8125 3.402344 L 294.3125 3.402344 L 296.785156 9.261719 L 295.148438 9.261719 Z M 294.15625 6.859375 L 293.570312 5.417969 L 292.984375 6.859375 Z M 294.15625 6.859375 "/>
<path style=" stroke:none;fill-rule:nonzero;fill:rgb(0%,0%,0%);fill-opacity:1;" d="M 302.976562 7.753906 L 302.976562 9.261719 L 298.847656 9.261719 L 298.847656 3.402344 L 300.511719 3.402344 L 300.511719 7.753906 Z M 302.976562 7.753906 "/>
<path style=" stroke:none;fill-rule:nonzero;fill:rgb(0%,0%,0%);fill-opacity:1;" d="M 204.074219 5.925781 L 204.074219 6.382812 C 204.074219 8.210938 202.851562 9.402344 201.230469 9.402344 C 199.503906 9.402344 198.152344 8.054688 198.152344 6.339844 C 198.152344 4.625 199.511719 3.261719 201.21875 3.261719 C 202.296875 3.261719 203.289062 3.816406 203.832031 4.71875 L 202.488281 5.523438 C 202.230469 5.054688 201.753906 4.789062 201.203125 4.789062 C 200.339844 4.789062 199.726562 5.453125 199.726562 6.347656 C 199.726562 7.226562 200.339844 7.867188 201.230469 7.867188 C 201.847656 7.867188 202.246094 7.554688 202.382812 7.175781 L 200.804688 7.175781 L 200.804688 5.925781 Z M 204.074219 5.925781 "/>
<path style=" stroke:none;fill-rule:nonzero;fill:rgb(0%,0%,0%);fill-opacity:1;" d="M 206.246094 6.332031 C 206.246094 4.625 207.609375 3.261719 209.324219 3.261719 C 211.023438 3.261719 212.382812 4.625 212.382812 6.332031 C 212.382812 8.039062 211.023438 9.402344 209.324219 9.402344 C 207.609375 9.402344 206.246094 8.039062 206.246094 6.332031 M 210.6875 6.332031 C 210.6875 5.503906 210.089844 4.882812 209.324219 4.882812 C 208.539062 4.882812 207.9375 5.503906 207.9375 6.332031 C 207.9375 7.160156 208.539062 7.78125 209.324219 7.78125 C 210.089844 7.78125 210.6875 7.160156 210.6875 6.332031 "/>
<path style=" stroke:none;fill-rule:nonzero;fill:rgb(0%,0%,0%);fill-opacity:1;" d="M 220.015625 3.398438 L 217.71875 9.261719 L 216.144531 9.261719 L 213.875 3.398438 L 215.574219 3.398438 L 216.9375 7.011719 L 218.316406 3.398438 Z M 220.015625 3.398438 "/>
<path style=" stroke:none;fill-rule:nonzero;fill:rgb(0%,0%,0%);fill-opacity:1;" d="M 223.660156 4.832031 L 223.660156 5.703125 L 225.386719 5.703125 L 225.386719 6.960938 L 223.660156 6.960938 L 223.660156 7.832031 L 226.273438 7.832031 L 226.273438 9.261719 L 222.074219 9.261719 L 222.074219 3.402344 L 226.273438 3.402344 L 226.273438 4.832031 Z M 223.660156 4.832031 "/>
<path style=" stroke:none;fill-rule:nonzero;fill:rgb(0%,0%,0%);fill-opacity:1;" d="M 230.9375 7.238281 L 230.273438 7.238281 L 230.273438 9.261719 L 228.714844 9.261719 L 228.714844 3.398438 L 231.550781 3.398438 C 232.695312 3.398438 233.574219 4.21875 233.574219 5.304688 C 233.574219 6.054688 233.171875 6.675781 232.550781 7.003906 L 233.851562 9.261719 L 232.101562 9.261719 Z M 230.273438 5.902344 L 231.378906 5.902344 C 231.746094 5.902344 231.980469 5.640625 231.980469 5.355469 C 231.980469 5.0625 231.757812 4.804688 231.378906 4.804688 L 230.273438 4.804688 Z M 230.273438 5.902344 "/>
<path style=" stroke:none;fill-rule:nonzero;fill:rgb(0%,0%,0%);fill-opacity:1;" d="M 241.28125 3.398438 L 241.28125 9.261719 L 239.945312 9.261719 L 237.585938 6.175781 L 237.585938 9.261719 L 236.023438 9.261719 L 236.023438 3.398438 L 237.351562 3.398438 L 239.722656 6.496094 L 239.722656 3.398438 Z M 241.28125 3.398438 "/>
<path style=" stroke:none;fill-rule:nonzero;fill:rgb(0%,0%,0%);fill-opacity:1;" d="M 243.558594 6.332031 C 243.558594 4.625 244.921875 3.261719 246.636719 3.261719 C 248.335938 3.261719 249.699219 4.625 249.699219 6.332031 C 249.699219 8.039062 248.335938 9.402344 246.636719 9.402344 C 244.921875 9.402344 243.558594 8.039062 243.558594 6.332031 M 248 6.332031 C 248 5.503906 247.40625 4.882812 246.636719 4.882812 C 245.851562 4.882812 245.25 5.503906 245.25 6.332031 C 245.25 7.160156 245.851562 7.78125 246.636719 7.78125 C 247.40625 7.78125 248 7.160156 248 6.332031 "/>
<path style=" stroke:none;fill-rule:nonzero;fill:rgb(0%,0%,0%);fill-opacity:1;" d="M 257.4375 4.804688 L 257.4375 5.796875 L 259.164062 5.796875 L 259.164062 7.125 L 257.4375 7.125 L 257.4375 9.265625 L 255.851562 9.265625 L 255.851562 3.402344 L 260.050781 3.402344 L 260.050781 4.804688 Z M 257.4375 4.804688 "/>
<path style=" stroke:none;fill-rule:nonzero;fill:rgb(0%,0%,0%);fill-opacity:1;" d="M 264.007812 4.832031 L 264.007812 5.703125 L 265.734375 5.703125 L 265.734375 6.960938 L 264.007812 6.960938 L 264.007812 7.832031 L 266.621094 7.832031 L 266.621094 9.261719 L 262.421875 9.261719 L 262.421875 3.402344 L 266.621094 3.402344 L 266.621094 4.832031 Z M 264.007812 4.832031 "/>
<path style=" stroke:none;fill-rule:nonzero;fill:rgb(0%,0%,0%);fill-opacity:1;" d="M 274.578125 6.332031 C 274.578125 8.011719 273.234375 9.265625 271.449219 9.265625 L 269.058594 9.265625 L 269.058594 3.398438 L 271.449219 3.398438 C 273.234375 3.398438 274.578125 4.652344 274.578125 6.332031 M 272.941406 6.332031 C 272.941406 5.476562 272.300781 4.925781 271.371094 4.925781 L 270.65625 4.925781 L 270.65625 7.738281 L 271.371094 7.738281 C 272.300781 7.738281 272.941406 7.1875 272.941406 6.332031 "/>
<path style=" stroke:none;fill-rule:nonzero;fill:rgb(0%,0%,0%);fill-opacity:1;" d="M 278.441406 4.832031 L 278.441406 5.703125 L 280.164062 5.703125 L 280.164062 6.960938 L 278.441406 6.960938 L 278.441406 7.832031 L 281.054688 7.832031 L 281.054688 9.261719 L 276.855469 9.261719 L 276.855469 3.402344 L 281.054688 3.402344 L 281.054688 4.832031 Z M 278.441406 4.832031 "/>
<path style=" stroke:none;fill-rule:nonzero;fill:rgb(0%,0%,0%);fill-opacity:1;" d="M 285.71875 7.238281 L 285.054688 7.238281 L 285.054688 9.261719 L 283.492188 9.261719 L 283.492188 3.398438 L 286.328125 3.398438 C 287.476562 3.398438 288.355469 4.21875 288.355469 5.304688 C 288.355469 6.054688 287.949219 6.675781 287.328125 7.003906 L 288.632812 9.261719 L 286.882812 9.261719 Z M 285.054688 5.902344 L 286.15625 5.902344 C 286.527344 5.902344 286.761719 5.640625 286.761719 5.355469 C 286.761719 5.0625 286.535156 4.804688 286.15625 4.804688 L 285.054688 4.804688 Z M 285.054688 5.902344 "/>
<path style=" stroke:none;fill-rule:nonzero;fill:rgb(0%,0%,0%);fill-opacity:1;" d="M 294.734375 8.253906 L 292.414062 8.253906 L 292.007812 9.261719 L 290.363281 9.261719 L 292.8125 3.402344 L 294.3125 3.402344 L 296.785156 9.261719 L 295.148438 9.261719 Z M 294.15625 6.859375 L 293.570312 5.417969 L 292.984375 6.859375 Z M 294.15625 6.859375 "/>
<path style=" stroke:none;fill-rule:nonzero;fill:rgb(0%,0%,0%);fill-opacity:1;" d="M 302.976562 7.753906 L 302.976562 9.261719 L 298.847656 9.261719 L 298.847656 3.402344 L 300.511719 3.402344 L 300.511719 7.753906 Z M 302.976562 7.753906 "/>
<path style=" stroke:none;fill-rule:nonzero;fill:rgb(9.01947%,32.940674%,61.961365%);fill-opacity:1;" d="M 15.660156 36.949219 C 13.34375 36.949219 11.535156 35.304688 11.535156 33.269531 L 11.535156 26.328125 L 14.644531 26.328125 L 14.644531 33.554688 C 14.644531 34.460938 15.433594 35.191406 16.453125 35.191406 C 17.410156 35.191406 18.265625 34.460938 18.265625 33.554688 L 18.265625 26.328125 L 19.734375 26.328125 L 19.734375 33.269531 C 19.734375 35.304688 17.925781 36.949219 15.660156 36.949219 M 6.890625 32.761719 L 4.96875 32.195312 C 3.785156 31.800781 2.9375 30.613281 2.9375 29.3125 C 2.9375 27.613281 4.292969 26.269531 5.992188 26.269531 L 9.785156 26.269531 L 9.785156 27.613281 L 7.125 27.613281 C 6.613281 27.613281 6.164062 28.007812 6.164062 28.578125 C 6.164062 28.917969 6.386719 29.3125 6.78125 29.421875 L 8.648438 30.046875 C 9.894531 30.445312 10.570312 31.742188 10.570312 33.214844 C 10.570312 35.078125 9.105469 36.605469 7.234375 36.605469 L 3.222656 36.605469 L 3.222656 35.078125 L 6.671875 35.078125 C 7.175781 35.078125 7.746094 34.574219 7.746094 33.898438 C 7.746094 33.382812 7.402344 32.933594 6.890625 32.761719 M 24.546875 32.761719 L 22.621094 32.195312 C 21.375 31.800781 20.535156 30.613281 20.535156 29.3125 C 20.535156 27.613281 21.878906 26.269531 23.585938 26.269531 L 27.371094 26.269531 L 27.371094 27.613281 L 24.714844 27.613281 C 24.203125 27.613281 23.753906 28.007812 23.753906 28.578125 C 23.753906 28.917969 23.976562 29.3125 24.378906 29.421875 L 26.242188 30.046875 C 27.542969 30.445312 28.222656 31.742188 28.222656 33.214844 C 28.222656 35.078125 26.691406 36.605469 24.824219 36.605469 L 20.808594 36.605469 L 20.808594 35.078125 L 24.261719 35.078125 C 24.765625 35.078125 25.339844 34.574219 25.339844 33.898438 C 25.339844 33.382812 25.050781 32.933594 24.546875 32.761719 "/>
<path style=" stroke:none;fill-rule:nonzero;fill:rgb(9.01947%,32.940674%,61.961365%);fill-opacity:1;" d="M 50.785156 36.558594 L 52.007812 36.558594 L 52.007812 44.359375 C 51.855469 43.546875 51.402344 38.800781 51.457031 37.28125 C 51.304688 37.125 50.785156 36.558594 50.785156 36.558594 M 41.644531 28.234375 L 40.34375 26.902344 C 38.601562 26.925781 33.003906 26.332031 31.207031 26.019531 L 31.207031 36.046875 C 40.191406 36.933594 44.910156 37.160156 50.171875 36.992188 L 50.261719 36.992188 Z M 41.710938 25.433594 L 51.75 25.433594 L 51.75 15.710938 L 41.710938 15.710938 Z M 33.921875 26.019531 C 34.589844 26.074219 40.464844 26.589844 40.859375 26.589844 L 50.160156 36.046875 L 62.113281 36.046875 L 62.113281 26.019531 Z M 50.832031 37.539062 C 50.832031 37.539062 45.472656 37.902344 40.910156 37.488281 C 41 43.035156 41.667969 45.886719 41.777344 46.492188 L 51.75 46.492188 C 51.273438 43.578125 50.894531 38.867188 50.832031 37.539062 "/>
<path style=" stroke:none;fill-rule:nonzero;fill:rgb(12.940979%,12.940979%,12.940979%);fill-opacity:1;" d="M 87.867188 27.386719 L 87.867188 22.960938 L 86.039062 26.320312 L 85.460938 26.320312 L 83.625 22.960938 L 83.625 27.386719 L 82.644531 27.386719 L 82.644531 21.171875 L 83.699219 21.171875 L 85.753906 24.972656 L 87.808594 21.171875 L 88.859375 21.171875 L 88.859375 27.386719 Z M 87.867188 27.386719 "/>
<path style=" stroke:none;fill-rule:nonzero;fill:rgb(12.940979%,12.940979%,12.940979%);fill-opacity:1;" d="M 92.007812 27.386719 L 92.984375 27.386719 L 92.984375 21.171875 L 92.007812 21.171875 Z M 92.007812 27.386719 "/>
<path style=" stroke:none;fill-rule:nonzero;fill:rgb(12.940979%,12.940979%,12.940979%);fill-opacity:1;" d="M 97.117188 22.992188 L 97.117188 27.386719 L 96.136719 27.386719 L 96.136719 21.175781 L 96.941406 21.175781 L 100.460938 25.664062 L 100.460938 21.183594 L 101.449219 21.183594 L 101.449219 27.386719 L 100.589844 27.386719 Z M 97.117188 22.992188 "/>
<path style=" stroke:none;fill-rule:nonzero;fill:rgb(12.940979%,12.940979%,12.940979%);fill-opacity:1;" d="M 104.597656 27.386719 L 105.574219 27.386719 L 105.574219 21.171875 L 104.597656 21.171875 Z M 104.597656 27.386719 "/>
<path style=" stroke:none;fill-rule:nonzero;fill:rgb(12.940979%,12.940979%,12.940979%);fill-opacity:1;" d="M 112.402344 22.636719 C 112.269531 22.488281 112.042969 22.34375 111.71875 22.207031 C 111.398438 22.070312 111.066406 22.003906 110.722656 22.003906 C 110.320312 22.003906 110.015625 22.078125 109.816406 22.226562 C 109.617188 22.375 109.515625 22.589844 109.515625 22.863281 C 109.515625 22.945312 109.527344 23.023438 109.546875 23.09375 C 109.570312 23.160156 109.601562 23.222656 109.636719 23.273438 C 109.671875 23.328125 109.726562 23.378906 109.796875 23.425781 C 109.867188 23.472656 109.9375 23.515625 110.007812 23.550781 C 110.078125 23.585938 110.171875 23.621094 110.292969 23.65625 C 110.414062 23.695312 110.527344 23.730469 110.636719 23.757812 C 110.738281 23.785156 110.878906 23.820312 111.046875 23.859375 C 111.324219 23.925781 111.554688 23.992188 111.75 24.054688 C 111.945312 24.121094 112.128906 24.199219 112.308594 24.300781 C 112.488281 24.398438 112.632812 24.507812 112.742188 24.628906 C 112.851562 24.75 112.9375 24.898438 113 25.070312 C 113.0625 25.246094 113.097656 25.441406 113.097656 25.664062 C 113.097656 25.914062 113.058594 26.136719 112.980469 26.335938 C 112.898438 26.535156 112.792969 26.703125 112.65625 26.839844 C 112.519531 26.976562 112.355469 27.09375 112.160156 27.183594 C 111.96875 27.277344 111.757812 27.34375 111.535156 27.386719 C 111.3125 27.425781 111.074219 27.445312 110.820312 27.445312 C 110.347656 27.445312 109.886719 27.375 109.445312 27.230469 C 109.003906 27.085938 108.609375 26.878906 108.253906 26.609375 L 108.703125 25.765625 C 108.882812 25.953125 109.175781 26.132812 109.582031 26.304688 C 109.988281 26.476562 110.40625 26.5625 110.835938 26.5625 C 111.222656 26.5625 111.523438 26.492188 111.730469 26.355469 C 111.941406 26.21875 112.042969 26.023438 112.042969 25.765625 C 112.042969 25.664062 112.027344 25.570312 111.996094 25.488281 C 111.96875 25.40625 111.914062 25.332031 111.835938 25.265625 C 111.757812 25.199219 111.679688 25.140625 111.597656 25.09375 C 111.515625 25.042969 111.402344 24.992188 111.25 24.941406 C 111.101562 24.890625 110.964844 24.847656 110.84375 24.8125 C 110.71875 24.78125 110.550781 24.734375 110.339844 24.683594 C 110.011719 24.597656 109.742188 24.511719 109.527344 24.421875 C 109.3125 24.332031 109.125 24.226562 108.960938 24.097656 C 108.796875 23.96875 108.679688 23.816406 108.605469 23.640625 C 108.53125 23.464844 108.492188 23.257812 108.492188 23.019531 C 108.492188 22.71875 108.550781 22.449219 108.667969 22.210938 C 108.78125 21.96875 108.941406 21.769531 109.144531 21.613281 C 109.347656 21.457031 109.582031 21.335938 109.855469 21.253906 C 110.128906 21.171875 110.429688 21.132812 110.75 21.132812 C 111.515625 21.132812 112.210938 21.363281 112.847656 21.832031 Z M 112.402344 22.636719 "/>
<path style=" stroke:none;fill-rule:nonzero;fill:rgb(12.940979%,12.940979%,12.940979%);fill-opacity:1;" d="M 120.386719 22.039062 L 118.320312 22.039062 L 118.320312 27.386719 L 117.328125 27.386719 L 117.328125 22.039062 L 115.257812 22.039062 L 115.257812 21.175781 L 120.386719 21.175781 Z M 120.386719 22.039062 "/>
<path style=" stroke:none;fill-rule:nonzero;fill:rgb(12.940979%,12.940979%,12.940979%);fill-opacity:1;" d="M 127.226562 26.519531 L 127.226562 27.386719 L 122.964844 27.386719 L 122.964844 21.171875 L 127.148438 21.171875 L 127.148438 22.039062 L 123.941406 22.039062 L 123.941406 23.804688 L 126.71875 23.804688 L 126.71875 24.621094 L 123.941406 24.621094 L 123.941406 26.519531 Z M 125.484375 20.53125 L 124.851562 20.339844 L 125.351562 19.378906 L 126.273438 19.378906 Z M 125.484375 20.53125 "/>
<path style=" stroke:none;fill-rule:nonzero;fill:rgb(12.940979%,12.940979%,12.940979%);fill-opacity:1;" d="M 129.988281 27.386719 L 129.988281 21.171875 L 132.695312 21.171875 C 132.964844 21.171875 133.222656 21.230469 133.464844 21.347656 C 133.707031 21.464844 133.914062 21.621094 134.078125 21.808594 C 134.242188 22 134.375 22.21875 134.472656 22.460938 C 134.570312 22.703125 134.617188 22.945312 134.617188 23.195312 C 134.617188 23.617188 134.503906 24 134.285156 24.339844 C 134.0625 24.679688 133.765625 24.90625 133.402344 25.023438 L 134.863281 27.386719 L 133.761719 27.386719 L 132.410156 25.226562 L 130.96875 25.226562 L 130.96875 27.386719 Z M 130.96875 24.355469 L 132.683594 24.355469 C 132.957031 24.355469 133.179688 24.246094 133.355469 24.015625 C 133.53125 23.792969 133.621094 23.515625 133.621094 23.195312 C 133.621094 22.878906 133.519531 22.605469 133.320312 22.382812 C 133.121094 22.152344 132.890625 22.042969 132.628906 22.042969 L 130.96875 22.042969 Z M 130.96875 24.355469 "/>
<path style=" stroke:none;fill-rule:nonzero;fill:rgb(12.940979%,12.940979%,12.940979%);fill-opacity:1;" d="M 137.519531 27.386719 L 138.5 27.386719 L 138.5 21.171875 L 137.519531 21.171875 Z M 137.519531 27.386719 "/>
<path style=" stroke:none;fill-rule:nonzero;fill:rgb(12.940979%,12.940979%,12.940979%);fill-opacity:1;" d="M 141.257812 24.28125 C 141.257812 23.871094 141.335938 23.472656 141.488281 23.089844 C 141.640625 22.707031 141.847656 22.371094 142.109375 22.082031 C 142.371094 21.796875 142.6875 21.566406 143.0625 21.390625 C 143.433594 21.21875 143.832031 21.128906 144.25 21.128906 C 144.679688 21.128906 145.082031 21.222656 145.460938 21.40625 C 145.835938 21.585938 146.148438 21.828125 146.402344 22.125 C 146.652344 22.421875 146.851562 22.757812 146.996094 23.136719 C 147.144531 23.515625 147.214844 23.898438 147.214844 24.289062 C 147.214844 24.699219 147.140625 25.09375 146.988281 25.476562 C 146.835938 25.859375 146.628906 26.195312 146.367188 26.480469 C 146.109375 26.769531 145.792969 27 145.421875 27.171875 C 145.046875 27.34375 144.652344 27.429688 144.230469 27.429688 C 143.886719 27.429688 143.554688 27.371094 143.242188 27.257812 C 142.929688 27.140625 142.652344 26.980469 142.414062 26.78125 C 142.175781 26.578125 141.96875 26.34375 141.792969 26.078125 C 141.617188 25.8125 141.484375 25.527344 141.394531 25.21875 C 141.304688 24.910156 141.257812 24.597656 141.257812 24.28125 M 144.242188 26.546875 C 144.542969 26.546875 144.820312 26.480469 145.074219 26.347656 C 145.328125 26.21875 145.535156 26.042969 145.699219 25.828125 C 145.859375 25.613281 145.988281 25.375 146.074219 25.105469 C 146.167969 24.835938 146.210938 24.5625 146.210938 24.28125 C 146.210938 23.988281 146.164062 23.703125 146.066406 23.433594 C 145.972656 23.160156 145.839844 22.917969 145.675781 22.710938 C 145.507812 22.5 145.300781 22.332031 145.050781 22.210938 C 144.800781 22.085938 144.53125 22.023438 144.242188 22.023438 C 143.9375 22.023438 143.660156 22.089844 143.40625 22.21875 C 143.148438 22.347656 142.941406 22.519531 142.773438 22.734375 C 142.609375 22.949219 142.480469 23.1875 142.390625 23.457031 C 142.300781 23.722656 142.253906 24 142.253906 24.28125 C 142.253906 24.671875 142.332031 25.042969 142.492188 25.382812 C 142.648438 25.722656 142.882812 26.003906 143.191406 26.21875 C 143.496094 26.4375 143.847656 26.546875 144.242188 26.546875 "/>
<path style=" stroke:none;fill-rule:nonzero;fill:rgb(12.940979%,12.940979%,12.940979%);fill-opacity:1;" d="M 153.890625 27.386719 L 153.890625 21.171875 L 156.097656 21.171875 C 156.582031 21.171875 157.019531 21.253906 157.410156 21.414062 C 157.800781 21.578125 158.117188 21.796875 158.367188 22.082031 C 158.613281 22.363281 158.800781 22.691406 158.933594 23.0625 C 159.0625 23.4375 159.125 23.839844 159.125 24.273438 C 159.125 25.210938 158.851562 25.964844 158.300781 26.535156 C 157.75 27.101562 157.011719 27.386719 156.097656 27.386719 Z M 156.097656 22.042969 L 154.871094 22.042969 L 154.871094 26.519531 L 156.097656 26.519531 C 156.523438 26.519531 156.890625 26.421875 157.203125 26.222656 C 157.511719 26.023438 157.742188 25.757812 157.894531 25.421875 C 158.050781 25.085938 158.125 24.703125 158.125 24.273438 C 158.125 23.609375 157.945312 23.070312 157.585938 22.65625 C 157.226562 22.246094 156.730469 22.042969 156.097656 22.042969 "/>
<path style=" stroke:none;fill-rule:nonzero;fill:rgb(12.940979%,12.940979%,12.940979%);fill-opacity:1;" d="M 163.476562 21.171875 L 164.402344 21.171875 L 166.816406 27.386719 L 165.78125 27.386719 L 165.128906 25.699219 L 162.730469 25.699219 L 162.082031 27.386719 L 161.039062 27.386719 Z M 164.9375 24.972656 L 163.9375 22.25 L 162.90625 24.972656 Z M 164.9375 24.972656 "/>
<path style=" stroke:none;fill-rule:nonzero;fill:rgb(12.940979%,12.940979%,12.940979%);fill-opacity:1;" d="M 135.085938 35.488281 C 135.058594 35.472656 135.023438 35.453125 134.984375 35.429688 C 134.941406 35.402344 134.851562 35.355469 134.722656 35.289062 C 134.589844 35.226562 134.460938 35.167969 134.335938 35.117188 C 134.210938 35.070312 134.066406 35.023438 133.898438 34.980469 C 133.734375 34.941406 133.578125 34.917969 133.441406 34.917969 C 133.105469 34.917969 132.941406 35.023438 132.941406 35.226562 C 132.941406 35.273438 132.949219 35.3125 132.960938 35.351562 C 132.980469 35.386719 133.007812 35.421875 133.046875 35.453125 C 133.085938 35.484375 133.125 35.511719 133.164062 35.535156 C 133.203125 35.558594 133.261719 35.582031 133.339844 35.613281 C 133.421875 35.640625 133.488281 35.664062 133.546875 35.679688 C 133.605469 35.695312 133.691406 35.722656 133.808594 35.757812 C 133.921875 35.792969 134.019531 35.824219 134.09375 35.847656 C 134.34375 35.925781 134.558594 36 134.730469 36.074219 C 134.90625 36.148438 135.078125 36.238281 135.242188 36.34375 C 135.40625 36.453125 135.539062 36.570312 135.640625 36.695312 C 135.738281 36.824219 135.820312 36.980469 135.878906 37.160156 C 135.9375 37.34375 135.964844 37.546875 135.964844 37.773438 C 135.964844 38.0625 135.917969 38.320312 135.828125 38.550781 C 135.738281 38.78125 135.617188 38.972656 135.464844 39.117188 C 135.316406 39.265625 135.140625 39.386719 134.929688 39.484375 C 134.722656 39.582031 134.507812 39.648438 134.292969 39.6875 C 134.074219 39.730469 133.84375 39.75 133.601562 39.75 C 133.15625 39.75 132.6875 39.683594 132.195312 39.550781 C 131.707031 39.417969 131.273438 39.242188 130.902344 39.023438 L 131.636719 37.527344 C 131.664062 37.546875 131.703125 37.570312 131.753906 37.601562 C 131.804688 37.632812 131.90625 37.683594 132.0625 37.765625 C 132.214844 37.84375 132.371094 37.910156 132.519531 37.972656 C 132.671875 38.03125 132.851562 38.085938 133.058594 38.136719 C 133.265625 38.183594 133.453125 38.210938 133.632812 38.210938 C 133.960938 38.210938 134.128906 38.117188 134.128906 37.9375 C 134.128906 37.867188 134.105469 37.808594 134.0625 37.753906 C 134.019531 37.703125 133.949219 37.652344 133.851562 37.609375 C 133.75 37.566406 133.652344 37.527344 133.5625 37.5 C 133.46875 37.46875 133.335938 37.429688 133.167969 37.378906 C 133 37.328125 132.859375 37.285156 132.746094 37.25 C 132.1875 37.0625 131.785156 36.835938 131.539062 36.570312 C 131.292969 36.308594 131.171875 35.953125 131.171875 35.503906 C 131.171875 35.171875 131.234375 34.871094 131.359375 34.597656 C 131.488281 34.328125 131.65625 34.109375 131.875 33.9375 C 132.089844 33.765625 132.332031 33.636719 132.609375 33.542969 C 132.886719 33.453125 133.179688 33.40625 133.492188 33.40625 C 134.15625 33.40625 134.929688 33.632812 135.820312 34.078125 Z M 135.085938 35.488281 "/>
<path style=" stroke:none;fill-rule:nonzero;fill:rgb(12.940979%,12.940979%,12.940979%);fill-opacity:1;" d="M 139.746094 33.457031 L 141.652344 33.457031 L 143.628906 39.671875 L 141.898438 39.671875 L 141.523438 38.453125 L 139.867188 38.453125 L 139.496094 39.671875 L 137.757812 39.671875 Z M 141.25 37.316406 L 140.699219 35.128906 L 140.121094 37.316406 Z M 141.25 37.316406 "/>
<path style=" stroke:none;fill-rule:nonzero;fill:rgb(12.940979%,12.940979%,12.940979%);fill-opacity:1;" d="M 148.375 39.722656 C 147.988281 39.722656 147.636719 39.667969 147.324219 39.5625 C 147.007812 39.453125 146.742188 39.304688 146.527344 39.117188 C 146.3125 38.929688 146.132812 38.703125 145.988281 38.441406 C 145.84375 38.179688 145.734375 37.898438 145.671875 37.601562 C 145.605469 37.304688 145.574219 36.988281 145.574219 36.648438 L 145.574219 33.457031 L 147.28125 33.457031 L 147.28125 36.648438 C 147.28125 36.863281 147.304688 37.0625 147.34375 37.242188 C 147.386719 37.425781 147.449219 37.589844 147.53125 37.738281 C 147.617188 37.886719 147.730469 38 147.875 38.082031 C 148.019531 38.167969 148.183594 38.210938 148.375 38.210938 C 148.570312 38.210938 148.738281 38.167969 148.886719 38.082031 C 149.03125 37.996094 149.144531 37.878906 149.230469 37.730469 C 149.3125 37.578125 149.375 37.414062 149.417969 37.234375 C 149.457031 37.054688 149.476562 36.859375 149.476562 36.648438 L 149.476562 33.457031 L 151.183594 33.457031 L 151.183594 36.648438 C 151.183594 37.09375 151.128906 37.496094 151.011719 37.863281 C 150.898438 38.230469 150.730469 38.554688 150.507812 38.832031 C 150.28125 39.113281 149.988281 39.332031 149.625 39.488281 C 149.261719 39.644531 148.847656 39.722656 148.375 39.722656 M 148.902344 33.191406 L 147.851562 32.914062 L 148.285156 31.671875 L 149.765625 31.671875 Z M 148.902344 33.191406 "/>
<path style=" stroke:none;fill-rule:nonzero;fill:rgb(12.940979%,12.940979%,12.940979%);fill-opacity:1;" d="M 153.914062 39.671875 L 153.914062 33.457031 L 156.300781 33.457031 C 156.800781 33.457031 157.253906 33.539062 157.660156 33.699219 C 158.0625 33.859375 158.390625 34.082031 158.644531 34.367188 C 158.902344 34.648438 159.09375 34.976562 159.230469 35.347656 C 159.367188 35.71875 159.433594 36.125 159.433594 36.558594 C 159.433594 37.496094 159.148438 38.25 158.578125 38.820312 C 158.003906 39.386719 157.246094 39.671875 156.300781 39.671875 Z M 156.300781 34.945312 L 155.617188 34.945312 L 155.617188 38.183594 L 156.300781 38.183594 C 156.738281 38.183594 157.078125 38.035156 157.328125 37.730469 C 157.578125 37.429688 157.703125 37.039062 157.703125 36.558594 C 157.703125 36.070312 157.578125 35.679688 157.328125 35.386719 C 157.078125 35.089844 156.734375 34.945312 156.300781 34.945312 "/>
<path style=" stroke:none;fill-rule:nonzero;fill:rgb(12.940979%,12.940979%,12.940979%);fill-opacity:1;" d="M 166.355469 38.183594 L 166.355469 39.671875 L 161.929688 39.671875 L 161.929688 33.457031 L 166.277344 33.457031 L 166.277344 34.945312 L 163.632812 34.945312 L 163.632812 35.820312 L 165.894531 35.820312 L 165.894531 37.203125 L 163.632812 37.203125 L 163.632812 38.183594 Z M 166.355469 38.183594 "/>
</g>
</svg>
