<?xml version="1.0" encoding="UTF-8" standalone="no"?><!-- Generator: Gravit.io --><svg xmlns="http://www.w3.org/2000/svg" xmlns:xlink="http://www.w3.org/1999/xlink" style="isolation:isolate" viewBox="590.786 4226.072 131.32 39.706" width="131.32pt" height="39.706pt"><g><path d=" M 615.404 4234.085 L 590.786 4234.013 L 590.93 4265.778 L 600.604 4265.778 L 600.604 4253.072 L 613.238 4253.072 L 613.238 4246.936 L 600.387 4246.936 L 600.387 4240.15 L 615.331 4240.078 L 615.404 4234.085 L 615.404 4234.085 Z " fill="rgb(175,180,184)"/><rect x="616.847" y="4242.965" width="8.591" height="22.792" transform="matrix(1,0,0,1,0,0)" fill="rgb(175,180,184)"/><rect x="616.775" y="4234.085" width="8.808" height="5.985" transform="matrix(1,0,0,1,0,0)" fill="rgb(175,180,184)"/><path d=" M 639.877 4241.233 C 639.877 4241.233 633.235 4241.882 629.987 4247.225 C 626.738 4252.567 627.604 4265.778 641.971 4265.706 C 660.38 4265.706 658.214 4238.489 639.877 4241.233 Z  M 647.169 4253.361 C 647.089 4250.311 644.567 4247.895 641.516 4247.947 C 638.465 4248 636.027 4250.501 636.053 4253.552 C 636.079 4256.603 638.559 4259.063 641.61 4259.064 C 643.103 4259.045 644.528 4258.434 645.571 4257.364 C 646.613 4256.295 647.188 4254.855 647.169 4253.361 L 647.169 4253.361 Z " fill="rgb(175,180,184)"/><path d=" M 662.041 4250.979 L 662.041 4230.404 L 676.985 4230.404 L 676.985 4238.489 L 666.444 4238.489 L 666.444 4244.626 C 670.054 4238.778 681.461 4237.551 686.803 4243.037 C 687.164 4236.179 690.485 4229.465 697.271 4226.216 L 697.632 4226.072 L 659.875 4226.072 L 659.875 4228.671 L 646.086 4228.671 L 646.086 4238.201 L 657.853 4238.201 L 657.853 4250.979 L 662.041 4250.979 Z  M 715.319 4243.254 L 714.742 4243.254 L 714.742 4239.211 L 714.381 4239.211 L 714.381 4237.984 C 714.566 4237.819 714.671 4237.582 714.67 4237.334 C 714.67 4236.776 714.217 4236.323 713.659 4236.323 C 713.101 4236.323 712.648 4236.776 712.648 4237.334 C 712.663 4237.579 712.765 4237.809 712.937 4237.984 L 712.937 4239.139 L 712.576 4239.139 L 712.576 4243.182 L 710.338 4243.182 L 710.338 4239.644 L 710.482 4239.356 L 703.119 4239.356 L 703.263 4239.644 L 703.263 4243.182 L 701.025 4243.182 L 701.025 4239.139 L 700.664 4239.139 L 700.664 4237.912 C 700.849 4237.746 700.954 4237.51 700.953 4237.262 C 700.979 4236.8 700.687 4236.379 700.245 4236.241 C 699.803 4236.103 699.324 4236.283 699.082 4236.677 C 698.84 4237.072 698.897 4237.58 699.22 4237.912 L 699.22 4239.067 L 698.859 4239.067 L 698.859 4243.11 L 698.282 4243.11 L 698.282 4253.217 L 697.849 4253.939 L 697.849 4254.444 L 715.68 4254.444 L 715.68 4253.939 L 715.247 4253.217 L 715.247 4243.11 L 715.319 4243.254 Z " fill="rgb(0,138,189)"/><path d=" M 711.854 4226.072 C 711.999 4226.144 713.226 4227.371 713.226 4228.454 C 713.226 4229.537 711.06 4230.331 711.06 4230.331 C 709.688 4229.609 708.605 4228.671 707.378 4228.31 C 692.434 4223.329 686.153 4242.821 694.6 4254.733 C 704.49 4268.738 720.662 4257.621 720.662 4257.621 L 720.662 4260.508 C 704.129 4270.76 692.651 4263.829 688.463 4253.433 L 673.519 4253.433 L 673.519 4254.588 C 673.664 4257.404 675.974 4257.404 675.974 4257.404 C 678.717 4257.982 680.883 4255.744 680.883 4255.744 L 687.741 4255.744 L 687.741 4257.404 C 681.316 4266.356 670.126 4261.375 670.126 4261.375 C 668.473 4260.568 667.147 4259.217 666.372 4257.548 L 666.372 4263.829 L 661.246 4263.829 L 661.246 4265.778 L 722.106 4265.778 L 722.106 4226.072 L 711.854 4226.072 Z  M 716.258 4243.254 L 715.825 4243.615 L 715.825 4247.008 L 716.186 4247.008 L 716.186 4247.586 L 715.825 4247.947 L 715.825 4250.257 L 716.186 4250.257 L 716.186 4250.834 L 715.825 4251.195 L 715.825 4253.361 L 716.186 4253.722 L 716.186 4255.238 L 697.271 4255.238 L 697.271 4254.083 L 697.632 4253.361 L 697.632 4251.195 L 697.271 4250.834 L 697.271 4250.257 L 697.632 4250.257 L 697.632 4247.947 L 697.271 4247.586 L 697.271 4247.008 L 697.632 4247.008 L 697.632 4243.615 L 697.199 4243.254 L 697.199 4242.677 L 698.21 4242.677 L 698.21 4238.634 L 698.498 4238.634 L 698.498 4238.345 C 698.336 4238.056 698.237 4237.736 698.21 4237.406 C 698.225 4236.641 698.761 4235.984 699.509 4235.818 L 699.509 4235.674 C 699.452 4235.589 699.426 4235.487 699.437 4235.385 C 699.437 4235.271 699.49 4235.164 699.581 4235.096 L 699.581 4233.941 C 699.581 4233.861 699.646 4233.797 699.726 4233.797 C 699.805 4233.797 699.87 4233.861 699.87 4233.941 L 699.87 4235.096 C 699.961 4235.164 700.014 4235.271 700.014 4235.385 C 700.025 4235.487 700 4235.589 699.942 4235.674 L 699.942 4235.818 C 700.69 4235.984 701.227 4236.641 701.242 4237.406 C 701.214 4237.736 701.115 4238.056 700.953 4238.345 L 700.953 4238.634 L 701.314 4238.634 L 701.314 4242.677 L 702.397 4242.677 L 702.397 4239.789 L 702.108 4239.5 L 702.108 4239.067 L 702.397 4238.922 L 702.541 4238.634 L 702.974 4238.634 L 703.263 4238.995 L 704.996 4238.995 L 705.285 4238.634 L 705.718 4238.634 L 706.006 4238.995 L 706.728 4238.995 L 707.017 4238.634 L 707.45 4238.634 L 707.739 4238.995 L 709.544 4238.995 L 709.833 4238.634 L 710.266 4238.634 L 710.41 4238.922 L 710.699 4239.067 L 710.699 4239.5 L 710.41 4239.789 L 710.41 4242.604 L 711.421 4242.604 L 711.421 4238.561 L 711.782 4238.561 L 711.782 4238.273 C 711.62 4237.984 711.521 4237.664 711.493 4237.334 C 711.529 4236.879 711.75 4236.459 712.105 4236.172 C 712.46 4235.885 712.918 4235.757 713.37 4235.818 L 713.37 4235.674 C 713.306 4235.592 713.279 4235.487 713.298 4235.385 C 713.298 4235.271 713.352 4235.164 713.442 4235.096 L 713.587 4233.941 C 713.587 4233.869 713.587 4233.797 713.659 4233.797 C 713.739 4233.797 713.803 4233.861 713.803 4233.941 L 713.803 4235.096 C 713.894 4235.164 713.948 4235.271 713.948 4235.385 C 713.959 4235.487 713.933 4235.589 713.876 4235.674 L 713.876 4235.818 C 714.623 4235.984 715.16 4236.641 715.175 4237.406 C 715.147 4237.736 715.049 4238.056 714.886 4238.345 L 714.886 4238.634 L 715.247 4238.634 L 715.247 4242.677 L 716.258 4242.677 L 716.258 4243.254 L 716.258 4243.254 Z " fill="rgb(0,138,189)"/><path d=" M 673.953 4249.896 L 680.378 4249.896 C 681.533 4249.896 676.912 4242.099 673.447 4249.174 C 673.231 4249.535 673.447 4249.896 673.953 4249.896 L 673.953 4249.896 Z " fill="rgb(0,138,189)"/><ellipse vector-effect="non-scaling-stroke" cx="641.6098031550537" cy="4253.361152346791" rx="5.55890502404759" ry="5.703292167529071" fill="rgb(255,255,255)"/></g></svg>