<?xml version="1.0" encoding="UTF-8" standalone="no"?><!-- Generator: Gravit.io --><svg xmlns="http://www.w3.org/2000/svg" xmlns:xlink="http://www.w3.org/1999/xlink" style="isolation:isolate" viewBox="305 4415 210.551 42.622" width="210.551pt" height="42.622pt"><g><path d=" M 370.778 4450.652 C 370.778 4448.706 370.676 4448.5 369.753 4448.194 C 369.548 4448.194 369.138 4448.091 368.934 4448.091 C 368.831 4448.091 368.729 4448.091 368.729 4447.987 C 368.729 4447.886 368.831 4447.782 369.138 4447.782 C 370.163 4447.782 371.7 4447.886 371.802 4447.886 C 371.905 4447.886 373.442 4447.782 374.159 4447.782 C 374.466 4447.782 374.569 4447.886 374.569 4447.987 C 374.569 4448.091 374.466 4448.091 374.364 4448.091 C 374.159 4448.091 374.056 4448.194 373.749 4448.194 C 373.135 4448.295 372.929 4448.706 372.929 4449.627 C 372.826 4450.346 372.826 4451.062 372.826 4452.087 L 372.826 4454.852 C 372.826 4455.878 372.826 4455.98 372.519 4456.184 C 370.982 4457.005 368.83 4457.209 367.499 4457.209 C 365.654 4457.209 362.273 4457.004 359.61 4454.648 C 358.072 4453.316 356.741 4450.755 356.741 4447.683 C 356.741 4443.892 358.585 4441.124 360.736 4439.792 C 362.888 4438.359 365.244 4438.256 367.089 4438.256 C 368.626 4438.256 370.265 4438.563 370.777 4438.666 C 371.29 4438.768 372.109 4438.871 372.724 4438.871 C 372.929 4438.871 373.03 4438.972 373.03 4439.076 C 373.03 4439.383 372.825 4440.1 372.825 4442.56 C 372.825 4442.867 372.723 4443.072 372.62 4443.072 C 372.518 4443.072 372.416 4442.867 372.416 4442.664 C 372.416 4442.357 372.313 4441.637 371.904 4441.024 C 371.289 4440.101 369.342 4439.077 366.269 4439.077 C 364.835 4439.077 362.99 4439.282 361.146 4440.717 C 359.813 4441.844 358.789 4443.996 358.789 4446.865 C 358.789 4450.246 360.531 4452.806 361.351 4453.626 C 363.195 4455.471 365.449 4456.187 367.6 4456.187 C 368.522 4456.187 369.752 4456.085 370.366 4455.675 C 370.673 4455.47 370.776 4455.266 370.776 4454.854 L 370.776 4450.652 L 370.778 4450.652 L 370.778 4450.652 Z  M 384.302 4450.039 C 384.405 4450.039 384.405 4449.935 384.405 4449.832 L 382.458 4444.198 C 382.355 4443.89 382.253 4443.89 382.15 4444.198 L 380.306 4449.832 C 380.306 4449.935 380.306 4450.039 380.409 4450.039 L 384.302 4450.039 Z  M 382.15 4441.635 C 382.356 4441.022 382.458 4440.918 382.56 4440.918 C 382.765 4440.817 382.765 4440.918 383.073 4441.635 C 383.38 4442.354 386.556 4450.959 387.889 4454.135 C 388.606 4455.98 389.119 4456.287 389.631 4456.492 C 389.938 4456.595 390.245 4456.595 390.45 4456.595 C 390.553 4456.595 390.655 4456.595 390.655 4456.697 C 390.655 4456.8 390.45 4456.904 390.245 4456.904 C 389.938 4456.904 388.401 4456.904 386.967 4456.8 C 386.558 4456.8 386.353 4456.8 386.353 4456.697 C 386.353 4456.595 386.455 4456.595 386.558 4456.595 C 386.66 4456.492 386.762 4456.288 386.66 4455.98 L 384.713 4450.858 C 384.713 4450.754 384.611 4450.754 384.508 4450.754 L 380.102 4450.754 C 380 4450.754 380 4450.858 379.897 4450.959 L 378.668 4454.647 C 378.566 4455.159 378.462 4455.57 378.462 4455.98 C 378.462 4456.39 378.872 4456.595 379.18 4456.595 L 379.385 4456.595 C 379.59 4456.595 379.59 4456.595 379.59 4456.697 C 379.59 4456.8 379.488 4456.904 379.283 4456.904 C 378.771 4456.904 377.95 4456.8 377.747 4456.8 C 377.439 4456.8 376.312 4456.904 375.39 4456.904 C 375.083 4456.904 374.98 4456.8 374.98 4456.697 C 374.98 4456.595 375.083 4456.595 375.185 4456.595 L 375.8 4456.595 C 376.721 4456.39 377.132 4455.672 377.542 4454.648 L 382.15 4441.635 L 382.15 4441.635 Z  M 396.085 4450.859 C 396.085 4452.805 396.085 4454.445 396.188 4455.365 C 396.29 4455.981 396.394 4456.392 397.008 4456.493 C 397.315 4456.596 397.725 4456.596 397.93 4456.596 C 398.032 4456.596 398.135 4456.698 398.135 4456.698 C 398.135 4456.801 398.032 4456.905 397.725 4456.905 C 396.7 4456.905 395.368 4456.801 395.266 4456.801 C 395.164 4456.801 393.832 4456.905 393.218 4456.905 C 393.012 4456.905 392.91 4456.801 392.91 4456.698 C 392.91 4456.698 392.91 4456.596 393.115 4456.596 C 393.218 4456.596 393.525 4456.596 393.73 4456.493 C 394.139 4456.392 394.242 4455.981 394.242 4455.365 C 394.344 4454.445 394.344 4452.805 394.344 4450.859 L 394.344 4442.047 L 391.373 4442.047 C 390.041 4442.151 389.631 4442.252 389.221 4442.764 C 389.017 4443.071 389.017 4443.276 388.914 4443.38 C 388.812 4443.584 388.812 4443.584 388.709 4443.584 C 388.607 4443.584 388.607 4443.584 388.607 4443.38 C 388.607 4443.175 389.017 4441.433 389.017 4441.228 C 389.119 4441.124 389.221 4440.92 389.221 4440.92 C 389.426 4440.819 389.631 4441.125 390.143 4441.125 C 390.758 4441.229 391.577 4441.229 391.783 4441.229 L 399.467 4441.229 C 400.184 4441.229 400.594 4441.125 400.901 4441.125 C 401.208 4441.024 401.414 4441.024 401.515 4441.024 C 401.617 4441.024 401.618 4441.125 401.618 4441.229 C 401.618 4441.844 401.515 4443.277 401.515 4443.585 C 401.515 4443.79 401.515 4443.79 401.413 4443.79 C 401.311 4443.79 401.311 4443.79 401.207 4443.485 L 401.207 4443.278 C 401.105 4442.665 400.695 4442.153 398.748 4442.049 L 396.084 4442.049 L 396.084 4450.859 L 396.085 4450.859 L 396.085 4450.859 Z  M 405.512 4447.17 L 405.512 4442.662 C 405.409 4441.942 405.306 4441.635 404.589 4441.534 C 404.486 4441.43 404.077 4441.43 403.872 4441.43 C 403.872 4441.43 403.77 4441.43 403.77 4441.329 C 403.77 4441.225 403.872 4441.122 404.077 4441.122 C 404.999 4441.122 406.331 4441.225 406.433 4441.225 L 411.147 4441.225 C 411.454 4441.225 411.864 4441.122 411.967 4441.122 C 412.068 4441.122 412.172 4441.021 412.274 4441.021 C 412.376 4441.021 412.376 4441.122 412.376 4441.225 C 412.376 4441.329 412.274 4441.533 412.171 4442.148 C 412.171 4442.353 412.171 4443.274 412.067 4443.481 C 412.067 4443.582 412.067 4443.786 411.966 4443.786 C 411.862 4443.786 411.759 4443.685 411.759 4443.481 C 411.759 4443.377 411.759 4442.966 411.658 4442.762 C 411.554 4442.353 411.35 4442.148 410.223 4442.045 C 409.813 4441.941 407.661 4441.941 407.354 4441.941 C 407.354 4441.941 407.252 4442.045 407.252 4442.148 L 407.252 4447.886 C 407.252 4448.091 407.252 4448.091 407.354 4448.091 L 410.632 4448.091 C 411.146 4447.987 411.453 4447.987 411.658 4447.783 C 411.759 4447.578 411.862 4447.476 411.965 4447.476 C 411.965 4447.476 412.066 4447.58 412.066 4447.683 C 412.066 4447.784 411.965 4448.195 411.861 4448.809 C 411.861 4449.219 411.758 4450.04 411.758 4450.141 C 411.758 4450.348 411.758 4450.552 411.656 4450.552 C 411.553 4450.552 411.452 4450.552 411.452 4450.347 L 411.452 4449.731 C 411.348 4449.424 411.144 4449.014 410.324 4449.014 C 409.811 4448.911 407.763 4448.911 407.455 4448.911 C 407.353 4448.911 407.25 4448.911 407.25 4449.014 L 407.25 4454.445 C 407.353 4455.879 407.66 4456.084 409.607 4456.084 C 410.222 4456.084 411.041 4456.084 411.656 4455.879 C 412.169 4455.672 412.373 4455.264 412.577 4454.341 C 412.577 4454.136 412.577 4454.036 412.681 4454.036 C 412.885 4454.036 412.885 4454.241 412.885 4454.341 C 412.885 4454.548 412.681 4455.981 412.578 4456.392 C 412.477 4456.904 412.273 4456.904 411.453 4456.904 C 408.378 4456.904 406.944 4456.8 406.431 4456.8 L 405.612 4456.8 C 405.202 4456.904 404.69 4456.904 404.382 4456.904 C 404.177 4456.904 404.075 4456.8 404.075 4456.697 C 404.075 4456.697 404.075 4456.595 404.279 4456.595 C 404.382 4456.595 404.689 4456.595 404.894 4456.492 C 405.304 4456.39 405.406 4455.98 405.406 4455.364 C 405.508 4454.443 405.508 4452.804 405.508 4450.858 L 405.508 4447.17 L 405.512 4447.17 L 405.512 4447.17 Z  M 416.577 4456.595 C 416.372 4456.492 416.27 4456.39 416.27 4455.775 C 416.27 4454.751 416.373 4453.93 416.373 4453.623 C 416.477 4453.418 416.477 4453.316 416.578 4453.316 C 416.681 4453.316 416.681 4453.316 416.681 4453.521 C 416.681 4453.728 416.681 4454.035 416.783 4454.24 C 417.09 4455.776 418.422 4456.392 419.857 4456.392 C 421.803 4456.392 422.726 4454.957 422.726 4453.624 C 422.726 4452.192 422.11 4451.371 420.369 4449.936 L 419.447 4449.116 C 417.297 4447.271 416.783 4446.043 416.783 4444.607 C 416.783 4442.354 418.422 4440.919 421.086 4440.919 C 421.803 4440.818 422.419 4440.919 422.931 4441.124 C 423.342 4441.124 423.546 4441.228 423.648 4441.228 C 423.855 4441.228 423.855 4441.228 423.855 4441.331 L 423.855 4443.483 C 423.855 4443.892 423.751 4443.995 423.648 4443.995 C 423.546 4443.995 423.546 4443.892 423.443 4443.788 C 423.443 4443.483 423.342 4442.968 423.238 4442.663 C 423.135 4442.456 422.521 4441.636 420.678 4441.636 C 419.243 4441.636 418.115 4442.457 418.115 4443.995 C 418.115 4445.224 418.731 4445.941 420.678 4447.477 L 421.19 4447.989 C 423.648 4449.936 424.162 4451.165 424.162 4452.805 C 424.162 4453.728 423.855 4455.265 422.419 4456.289 C 421.598 4456.905 420.472 4457.21 419.346 4457.21 C 418.39 4457.202 417.446 4456.993 416.577 4456.595 Z  M 435.838 4446.964 C 435.737 4447.271 435.633 4447.784 435.43 4448.296 C 434.918 4450.243 434.406 4452.088 433.893 4454.036 C 433.381 4455.572 432.869 4456.494 432.561 4456.801 C 432.356 4457.006 431.638 4457.622 430.614 4457.622 C 429.897 4457.622 429.59 4457.11 429.59 4456.801 C 429.59 4456.393 429.795 4456.289 429.897 4456.186 C 430.102 4455.981 430.204 4456.084 430.409 4456.289 C 430.614 4456.698 431.025 4457.006 431.33 4457.006 C 431.637 4457.006 432.049 4456.699 432.457 4455.573 C 433.278 4452.705 433.79 4449.734 434.609 4446.966 L 433.277 4446.966 C 433.072 4446.865 433.173 4446.558 433.38 4446.353 L 434.813 4446.353 C 435.224 4444.814 435.633 4443.484 436.658 4442.357 C 437.478 4441.332 438.502 4440.922 439.526 4440.922 C 440.245 4440.922 440.859 4441.332 440.859 4442.049 C 440.859 4442.561 440.45 4443.073 440.142 4443.073 C 440.038 4443.073 439.937 4442.869 439.937 4442.766 C 439.833 4441.742 439.321 4441.434 438.913 4441.434 C 438.401 4441.434 437.99 4441.844 437.58 4442.357 C 436.76 4443.484 436.453 4444.917 436.044 4446.353 L 438.092 4446.353 C 438.194 4446.558 438.194 4446.761 437.888 4446.966 L 435.838 4446.966 L 435.838 4446.964 L 435.838 4446.964 Z  M 442.602 4447.476 C 441.578 4448.809 440.962 4450.859 440.859 4451.676 C 440.859 4452.292 441.066 4452.804 441.578 4452.804 C 441.986 4452.804 442.398 4452.599 442.91 4451.883 C 443.627 4450.96 444.446 4448.707 444.446 4447.783 C 444.548 4447.271 444.446 4446.656 443.831 4446.656 C 443.523 4446.656 443.114 4446.759 442.602 4447.476 L 442.602 4447.476 Z  M 445.674 4448.295 C 445.571 4449.218 445.061 4450.858 443.83 4452.087 C 442.806 4453.215 441.883 4453.316 441.473 4453.316 C 440.345 4453.316 439.732 4452.495 439.732 4451.063 C 439.833 4450.039 440.449 4448.295 441.577 4447.271 C 442.497 4446.351 443.214 4446.144 443.933 4446.144 C 445.162 4446.144 445.674 4447.068 445.674 4448.295 L 445.674 4448.295 Z  M 449.774 4451.575 C 449.567 4451.983 449.671 4452.19 449.875 4452.19 C 450.083 4452.19 450.798 4451.676 451.619 4450.755 C 453.155 4449.219 454.077 4447.271 454.589 4446.247 C 454.999 4446.144 455.409 4446.351 455.409 4446.554 C 455.308 4446.963 454.18 4449.832 453.463 4451.78 C 453.36 4452.087 453.36 4452.19 453.565 4452.19 C 453.872 4452.19 454.796 4451.471 455.204 4450.959 C 455.308 4450.858 455.512 4450.959 455.512 4451.164 C 455.101 4451.984 453.463 4453.316 452.539 4453.316 C 452.335 4453.316 452.027 4453.009 452.131 4452.702 L 453.256 4449.628 L 453.256 4449.527 C 452.027 4451.164 449.979 4453.316 449.056 4453.316 C 448.339 4453.316 448.236 4452.599 448.544 4451.883 L 450.083 4447.683 C 450.184 4447.376 450.184 4447.272 450.083 4447.272 C 449.775 4447.272 448.955 4447.989 448.544 4448.4 C 448.339 4448.4 448.237 4448.296 448.237 4448.195 C 448.648 4447.476 450.389 4446.145 451.108 4446.145 C 451.313 4446.145 451.721 4446.352 451.62 4446.657 L 449.774 4451.575 L 449.774 4451.575 Z  M 460.224 4449.833 C 461.453 4447.988 463.092 4446.145 464.424 4446.145 C 465.039 4446.145 465.347 4446.452 465.347 4447.068 C 465.347 4447.272 465.243 4447.888 465.039 4448.195 C 464.732 4449.116 463.604 4451.883 463.503 4451.984 C 463.4 4452.192 463.4 4452.292 463.503 4452.292 C 463.81 4452.292 464.629 4451.78 465.141 4451.164 C 465.348 4451.164 465.348 4451.268 465.348 4451.371 C 464.732 4452.496 463.401 4453.317 462.479 4453.317 C 462.375 4453.317 462.068 4453.112 462.068 4452.908 C 462.068 4452.705 462.172 4452.601 462.479 4451.781 C 462.887 4450.96 463.503 4449.22 463.811 4448.4 C 464.016 4448.093 464.22 4447.477 464.22 4447.171 C 464.22 4446.964 464.22 4446.76 463.913 4446.76 C 463.504 4446.76 462.58 4447.581 461.66 4448.809 C 460.737 4449.936 460.02 4451.269 459.097 4453.112 C 458.996 4453.216 458.892 4453.317 458.792 4453.317 C 458.585 4453.317 458.073 4453.216 458.278 4452.908 L 460.225 4447.477 C 460.328 4447.272 460.328 4447.069 460.121 4447.069 C 459.816 4447.069 459.201 4447.477 458.689 4447.989 C 458.484 4447.989 458.381 4447.888 458.381 4447.684 C 459.098 4446.864 460.122 4446.146 460.942 4446.146 C 461.352 4446.146 461.557 4446.453 461.352 4446.865 L 460.224 4449.833 L 460.224 4449.833 Z  M 471.801 4447.375 C 471.084 4447.988 469.855 4449.628 469.343 4450.652 C 468.829 4451.78 468.829 4452.087 468.829 4452.292 C 468.829 4452.496 469.036 4452.702 469.136 4452.702 C 469.443 4452.702 470.263 4452.395 471.391 4451.164 C 472.724 4449.832 473.236 4448.807 473.439 4447.887 C 473.644 4447.17 473.439 4446.656 473.031 4446.656 C 472.62 4446.656 472.212 4446.964 471.801 4447.375 L 471.801 4447.375 Z  M 475.08 4443.175 C 475.489 4442.151 475.489 4441.842 475.285 4441.74 L 474.877 4441.433 C 474.877 4441.433 474.877 4441.331 474.978 4441.228 C 475.285 4441.124 476.209 4440.92 476.925 4440.92 L 477.028 4441.024 C 476.721 4441.945 476.413 4442.56 475.901 4443.996 C 474.261 4448.709 473.44 4451.373 473.34 4451.885 C 473.237 4452.09 473.237 4452.294 473.442 4452.294 C 473.749 4452.294 474.774 4451.473 475.286 4450.758 C 475.39 4450.758 475.491 4450.861 475.491 4450.963 C 475.082 4451.885 473.545 4453.319 472.726 4453.319 C 472.315 4453.319 472.11 4453.012 472.11 4452.807 C 472.11 4452.602 472.214 4452.295 472.315 4451.783 L 472.931 4450.143 L 472.931 4450.042 C 471.702 4451.679 470.471 4453.319 468.831 4453.319 C 468.217 4453.319 467.807 4452.807 467.807 4452.09 C 467.807 4450.861 468.73 4448.811 470.062 4447.685 C 471.19 4446.558 472.214 4446.147 473.034 4446.147 C 473.341 4446.147 473.751 4446.25 473.955 4446.659 L 475.08 4443.175 L 475.08 4443.175 Z  M 480.818 4447.682 C 479.793 4448.603 478.666 4450.858 478.666 4452.087 C 478.666 4452.292 478.873 4452.394 478.973 4452.394 C 479.178 4452.394 479.69 4452.189 480.613 4451.266 C 481.842 4450.037 482.56 4448.603 482.866 4447.578 C 482.765 4447.271 482.457 4446.963 482.048 4446.963 C 481.637 4446.964 481.33 4447.17 480.818 4447.682 Z  M 483.789 4445.735 C 483.993 4445.631 484.506 4445.735 484.609 4445.94 C 484.302 4446.657 482.866 4450.347 482.354 4451.984 C 482.252 4452.192 482.252 4452.292 482.457 4452.292 C 482.765 4452.292 483.174 4452.087 484.198 4451.164 C 484.302 4451.164 484.405 4451.268 484.405 4451.371 C 483.686 4452.395 482.458 4453.317 481.534 4453.317 C 481.229 4453.317 481.126 4453.01 481.126 4452.805 C 481.126 4452.704 481.126 4452.6 481.229 4452.192 L 481.843 4450.653 L 481.742 4450.653 C 480.614 4452.088 478.873 4453.317 478.054 4453.317 C 477.643 4453.317 477.334 4452.805 477.334 4452.396 C 477.334 4451.986 477.642 4450.552 478.769 4449.016 C 479.59 4447.888 480.306 4447.272 481.022 4446.864 C 481.638 4446.453 482.15 4446.352 482.561 4446.352 C 482.766 4446.352 482.866 4446.453 482.969 4446.453 C 482.969 4446.453 483.174 4446.658 483.277 4446.864 L 483.789 4445.735 L 483.789 4445.735 Z  M 489.937 4447.17 L 488.401 4451.676 C 488.401 4451.983 488.401 4452.087 488.605 4452.087 C 488.81 4452.087 489.938 4451.164 490.45 4450.551 C 490.655 4450.551 490.757 4450.652 490.757 4450.858 C 489.731 4452.291 488.195 4453.316 487.478 4453.316 C 487.273 4453.316 487.067 4453.111 487.067 4452.804 C 487.067 4452.599 487.067 4452.395 487.274 4451.883 L 488.81 4447.17 L 487.581 4447.17 C 487.478 4446.963 487.581 4446.759 487.683 4446.656 L 489.117 4446.451 L 490.038 4444.811 C 490.142 4444.71 490.55 4444.71 490.654 4444.915 L 490.142 4446.554 L 491.986 4446.554 C 492.09 4446.759 491.986 4447.066 491.781 4447.17 L 489.937 4447.17 Z  M 497.722 4442.662 C 497.722 4443.174 497.415 4443.787 496.802 4443.787 C 496.391 4443.787 496.29 4443.378 496.29 4443.07 C 496.29 4442.762 496.495 4442.046 497.11 4442.046 C 497.518 4442.047 497.722 4442.354 497.722 4442.662 Z  M 495.571 4447.58 C 495.674 4447.375 495.674 4447.171 495.571 4447.171 C 495.469 4447.171 494.957 4447.376 494.138 4448.092 C 494.034 4448.092 493.933 4447.988 493.933 4447.784 C 494.854 4446.76 496.186 4446.145 496.698 4446.145 C 496.802 4446.145 496.903 4446.248 497.005 4446.248 C 497.109 4446.453 497.109 4446.555 496.902 4447.069 L 494.854 4451.884 C 494.854 4452.089 494.75 4452.293 494.957 4452.293 C 495.264 4452.293 496.083 4451.677 496.698 4450.96 C 496.802 4451.064 496.903 4451.165 496.903 4451.268 C 496.698 4451.78 494.957 4453.316 493.831 4453.316 C 493.727 4453.316 493.626 4453.215 493.523 4453.111 C 493.422 4453.007 493.422 4452.906 493.422 4452.702 L 495.571 4447.58 Z  M 502.743 4447.476 C 501.822 4448.809 501.103 4450.859 501.103 4451.676 C 501.103 4452.292 501.31 4452.804 501.822 4452.804 C 502.13 4452.804 502.539 4452.599 503.155 4451.883 C 503.872 4450.96 504.587 4448.707 504.691 4447.783 C 504.691 4447.271 504.587 4446.656 503.974 4446.656 C 503.666 4446.656 503.255 4446.759 502.743 4447.476 L 502.743 4447.476 Z  M 505.817 4448.295 C 505.817 4449.218 505.303 4450.858 504.074 4452.087 C 503.05 4453.215 502.128 4453.316 501.614 4453.316 C 500.59 4453.316 499.873 4452.495 499.977 4451.063 C 500.078 4450.039 500.693 4448.295 501.821 4447.271 C 502.642 4446.351 503.459 4446.144 504.074 4446.144 C 505.303 4446.144 505.919 4447.068 505.817 4448.295 L 505.817 4448.295 Z  M 510.427 4449.833 C 511.658 4447.988 513.296 4446.145 514.527 4446.145 C 515.244 4446.145 515.551 4446.452 515.551 4447.068 C 515.551 4447.272 515.346 4447.888 515.244 4448.195 C 514.937 4449.116 513.708 4451.883 513.708 4451.984 C 513.604 4452.192 513.604 4452.292 513.708 4452.292 C 514.015 4452.292 514.835 4451.78 515.244 4451.164 C 515.551 4451.164 515.551 4451.268 515.551 4451.371 C 514.936 4452.496 513.604 4453.317 512.682 4453.317 C 512.475 4453.317 512.272 4453.112 512.272 4452.908 C 512.272 4452.705 512.272 4452.601 512.682 4451.781 C 512.987 4450.96 513.603 4449.22 514.015 4448.4 C 514.116 4448.093 514.424 4447.477 514.424 4447.171 C 514.424 4446.964 514.32 4446.76 514.116 4446.76 C 513.708 4446.76 512.684 4447.581 511.76 4448.809 C 510.939 4449.936 510.223 4451.269 509.199 4453.112 C 509.096 4453.216 509.096 4453.317 508.892 4453.317 C 508.688 4453.317 508.276 4453.216 508.38 4452.908 L 510.428 4447.477 C 510.428 4447.272 510.428 4447.069 510.325 4447.069 C 509.916 4447.069 509.404 4447.477 508.789 4447.989 C 508.687 4447.989 508.584 4447.888 508.584 4447.684 C 509.199 4446.864 510.223 4446.146 511.144 4446.146 C 511.451 4446.146 511.658 4446.453 511.555 4446.865 L 510.427 4449.833 L 510.427 4449.833 Z  M 308.996 4425.551 L 308.996 4430.878 C 309.099 4432.005 309.099 4432.415 309.817 4432.723 C 310.431 4433.03 311.456 4433.133 311.865 4433.133 C 313.198 4433.133 315.247 4432.415 315.247 4429.648 C 315.247 4428.215 314.734 4426.062 312.993 4424.833 C 312.172 4424.218 311.559 4424.116 310.943 4424.116 C 310.636 4424.013 309.406 4424.013 309.099 4424.013 C 308.996 4424.013 308.996 4424.116 308.996 4424.218 L 308.996 4425.551 Z  M 308.996 4422.989 C 308.996 4423.194 308.996 4423.297 309.099 4423.297 C 309.304 4423.297 309.713 4423.399 310.534 4423.399 C 311.865 4423.399 312.275 4423.297 312.788 4422.784 C 313.3 4422.17 313.607 4421.351 313.607 4420.325 C 313.607 4418.276 312.685 4416.124 310.431 4416.124 C 310.124 4416.124 309.612 4416.124 309.202 4416.227 C 308.997 4416.329 308.997 4416.329 308.997 4416.534 L 308.997 4422.989 L 308.996 4422.989 L 308.996 4422.989 Z  M 307.049 4422.476 C 307.049 4418.686 307.049 4418.07 306.947 4417.251 C 306.947 4416.43 306.742 4416.021 305.923 4415.816 L 305.102 4415.816 C 305 4415.816 305 4415.714 305 4415.611 C 305 4415.509 305.102 4415.406 305.307 4415.406 C 306.434 4415.406 307.971 4415.509 308.074 4415.509 C 308.586 4415.509 309.507 4415.406 310.635 4415.406 C 314.528 4415.406 315.451 4417.865 315.451 4419.094 C 315.451 4421.04 314.324 4422.27 313.196 4423.5 C 314.939 4424.013 317.295 4425.754 317.295 4428.623 C 317.295 4431.185 315.349 4433.848 311.251 4433.848 C 310.636 4433.848 308.177 4433.746 308.075 4433.746 L 305.718 4433.746 C 305.411 4433.746 305.308 4433.746 305.308 4433.644 C 305.308 4433.541 305.411 4433.438 305.513 4433.438 C 305.718 4433.438 306.025 4433.438 306.23 4433.335 C 306.742 4433.233 306.845 4432.721 306.947 4432.003 C 307.049 4430.979 307.049 4429.134 307.049 4426.777 L 307.049 4422.476 L 307.049 4422.476 Z  M 324.366 4427.805 C 324.366 4429.751 324.366 4431.392 324.469 4432.313 C 324.469 4432.825 324.571 4433.337 325.185 4433.44 C 325.493 4433.44 326.005 4433.542 326.107 4433.542 C 326.21 4433.542 326.312 4433.542 326.312 4433.645 C 326.312 4433.747 326.21 4433.747 326.005 4433.747 L 321.394 4433.747 C 321.189 4433.747 321.087 4433.747 321.087 4433.645 C 321.087 4433.542 321.189 4433.542 321.291 4433.542 C 321.496 4433.542 321.701 4433.44 321.906 4433.44 C 322.316 4433.337 322.418 4432.825 322.52 4432.313 C 322.623 4431.392 322.623 4429.752 322.623 4427.805 L 322.623 4424.117 C 322.623 4420.839 322.623 4420.327 322.52 4419.609 C 322.52 4418.892 322.314 4418.584 321.906 4418.482 C 321.599 4418.38 321.393 4418.38 321.189 4418.38 C 321.087 4418.38 321.087 4418.277 321.087 4418.277 C 321.087 4418.072 321.189 4418.072 321.394 4418.072 C 322.008 4418.072 323.341 4418.175 323.443 4418.175 C 323.546 4418.175 324.878 4418.072 325.493 4418.072 C 325.697 4418.072 325.8 4418.072 325.8 4418.277 C 325.8 4418.277 325.697 4418.38 325.595 4418.38 L 325.082 4418.38 C 324.57 4418.482 324.365 4418.892 324.365 4419.609 L 324.365 4427.805 L 324.366 4427.805 Z  M 333.177 4427.805 C 333.177 4430.878 333.279 4432.211 333.689 4432.518 C 333.996 4432.928 334.509 4433.03 336.148 4433.03 C 337.173 4433.03 338.095 4433.03 338.607 4432.416 C 338.914 4432.109 339.119 4431.595 339.119 4431.187 C 339.119 4430.982 339.222 4430.88 339.324 4430.88 C 339.426 4430.88 339.426 4430.982 339.426 4431.187 C 339.426 4431.392 339.324 4432.724 339.119 4433.339 C 339.017 4433.748 338.914 4433.851 337.89 4433.851 C 334.919 4433.851 333.587 4433.748 332.357 4433.748 L 330.307 4433.748 C 330.102 4433.748 330 4433.748 330 4433.646 C 330 4433.543 330.102 4433.543 330.205 4433.543 C 330.307 4433.543 330.614 4433.441 330.819 4433.441 C 331.229 4433.339 331.331 4432.827 331.331 4432.314 C 331.536 4431.393 331.536 4429.753 331.536 4427.806 L 331.536 4424.118 C 331.536 4420.84 331.536 4420.328 331.434 4419.61 C 331.434 4418.893 331.229 4418.586 330.614 4418.381 L 329.898 4418.381 C 329.795 4418.381 329.692 4418.278 329.692 4418.278 C 329.692 4418.074 329.795 4418.074 329.999 4418.074 C 330.92 4418.074 332.253 4418.176 332.355 4418.176 C 332.458 4418.176 333.995 4418.074 334.61 4418.074 C 334.816 4418.074 334.917 4418.074 334.917 4418.278 C 334.917 4418.278 334.814 4418.381 334.712 4418.381 L 334.098 4418.381 C 333.483 4418.483 333.277 4418.893 333.277 4419.61 C 333.175 4420.328 333.175 4420.84 333.175 4424.118 L 333.175 4427.805 L 333.177 4427.805 L 333.177 4427.805 Z  M 344.754 4427.805 C 344.754 4430.878 344.856 4432.211 345.164 4432.518 C 345.471 4432.928 345.983 4433.03 347.623 4433.03 C 348.749 4433.03 349.671 4433.03 350.082 4432.416 C 350.389 4432.109 350.594 4431.595 350.696 4431.187 C 350.696 4430.982 350.696 4430.88 350.799 4430.88 C 350.901 4430.88 351.003 4430.982 351.003 4431.187 C 351.003 4431.392 350.799 4432.724 350.696 4433.339 C 350.491 4433.748 350.491 4433.851 349.364 4433.851 C 346.393 4433.851 345.06 4433.748 343.831 4433.748 L 341.884 4433.748 C 341.577 4433.748 341.475 4433.748 341.475 4433.646 C 341.475 4433.543 341.577 4433.543 341.679 4433.543 C 341.884 4433.543 342.089 4433.441 342.294 4433.441 C 342.704 4433.339 342.806 4432.827 342.908 4432.314 C 343.011 4431.393 343.011 4429.753 343.011 4427.806 L 343.011 4424.118 C 343.011 4420.84 343.011 4420.328 342.908 4419.61 C 342.908 4418.893 342.806 4418.586 342.088 4418.381 L 341.371 4418.381 C 341.269 4418.381 341.269 4418.278 341.269 4418.278 C 341.269 4418.074 341.371 4418.074 341.576 4418.074 C 342.498 4418.074 343.728 4418.176 343.83 4418.176 C 343.933 4418.176 345.47 4418.074 346.083 4418.074 C 346.289 4418.074 346.39 4418.074 346.39 4418.278 L 346.288 4418.381 L 345.57 4418.381 C 344.956 4418.483 344.853 4418.893 344.751 4419.61 L 344.751 4427.805 L 344.754 4427.805 L 344.754 4427.805 Z  M 358.689 4424.935 L 358.689 4424.525 C 358.689 4424.116 358.484 4423.911 358.177 4423.911 C 357.87 4423.911 357.356 4424.218 356.844 4424.935 C 356.23 4425.652 356.024 4426.268 355.819 4427.087 C 356.807 4426.413 357.765 4425.695 358.689 4424.935 L 358.689 4424.935 Z  M 354.693 4428.317 C 354.693 4427.498 355 4425.96 356.332 4424.527 C 357.459 4423.4 358.587 4423.194 358.894 4423.194 C 359.713 4423.194 359.815 4423.706 360.02 4423.911 C 360.737 4423.297 361.966 4422.066 362.479 4421.35 C 362.685 4421.042 363.094 4420.325 363.094 4419.915 C 363.094 4419.607 362.991 4419.505 362.889 4419.403 C 362.684 4419.198 362.684 4419.198 362.684 4418.993 C 362.684 4418.48 362.991 4418.275 363.401 4418.275 C 363.811 4418.275 364.118 4418.48 364.118 4419.197 C 364.118 4420.118 363.606 4421.246 361.966 4422.783 C 360.532 4424.217 357.663 4426.471 355.819 4427.701 L 355.819 4427.906 C 355.819 4430.058 357.561 4430.878 358.893 4430.878 C 360.326 4430.878 362.069 4429.853 363.093 4428.01 C 363.81 4426.78 364.016 4425.858 364.016 4424.423 C 363.81 4424.321 363.502 4424.116 363.093 4424.116 C 362.581 4424.116 361.864 4424.628 361.864 4425.242 C 361.864 4425.447 361.966 4425.652 361.966 4425.857 C 362.069 4426.062 362.172 4426.267 362.172 4426.369 C 362.172 4426.471 362.07 4426.881 361.558 4426.881 C 361.25 4426.881 360.841 4426.574 360.841 4426.164 C 360.841 4425.651 361.148 4424.934 361.967 4424.115 C 362.685 4423.603 363.505 4423.398 363.709 4423.398 C 364.631 4423.398 365.143 4424.012 366.066 4424.832 C 366.476 4425.139 366.476 4425.241 366.783 4425.241 C 366.988 4425.241 367.09 4425.036 367.09 4424.728 L 367.09 4424.318 C 366.988 4424.114 366.988 4424.114 366.988 4424.012 C 366.988 4423.806 367.193 4423.603 367.5 4423.603 C 368.013 4423.603 368.218 4424.115 368.218 4424.524 C 368.218 4424.934 368.013 4425.241 367.911 4425.446 C 367.706 4425.548 367.603 4425.548 367.398 4425.548 C 367.091 4425.651 366.477 4425.856 366.066 4425.958 C 365.964 4426.163 365.759 4426.061 365.656 4425.958 C 365.554 4425.753 365.042 4425.138 364.53 4424.626 C 364.53 4424.933 364.427 4425.856 364.427 4426.163 C 364.427 4426.675 364.018 4428.417 362.686 4429.954 C 361.456 4431.287 359.714 4431.9 358.485 4431.9 C 355.717 4431.903 354.693 4430.162 354.693 4428.317 L 354.693 4428.317 Z  M 392.294 4430.571 C 392.396 4431.392 392.499 4432.723 393.523 4433.133 C 394.023 4433.272 394.541 4433.341 395.06 4433.337 C 395.265 4433.337 395.265 4433.337 395.265 4433.44 C 395.265 4433.542 395.06 4433.646 394.753 4433.646 C 394.241 4433.646 391.679 4433.543 390.758 4433.543 C 390.244 4433.441 390.143 4433.339 390.143 4433.236 C 390.143 4433.134 390.143 4433.134 390.245 4433.134 C 390.45 4433.031 390.45 4432.621 390.348 4432.211 L 389.221 4419.711 L 389.119 4419.711 L 383.279 4432.313 C 382.766 4433.337 382.766 4433.646 382.561 4433.646 C 382.356 4433.646 382.255 4433.339 381.742 4432.519 C 381.127 4431.29 379.078 4427.089 378.976 4426.884 C 377.901 4424.569 376.843 4422.246 375.8 4419.917 L 375.697 4419.917 L 374.776 4431.188 L 374.776 4432.417 C 374.776 4432.827 374.982 4433.135 375.39 4433.237 C 375.8 4433.237 376.107 4433.34 376.312 4433.34 C 376.312 4433.34 376.414 4433.34 376.414 4433.442 C 376.414 4433.648 376.312 4433.648 376.005 4433.648 C 375.184 4433.648 373.955 4433.546 373.75 4433.546 C 373.545 4433.546 372.418 4433.648 371.803 4433.648 C 371.599 4433.648 371.394 4433.648 371.394 4433.442 C 371.394 4433.34 371.496 4433.34 371.599 4433.34 C 371.803 4433.34 372.008 4433.34 372.317 4433.237 C 373.137 4433.135 373.238 4432.111 373.341 4431.188 L 374.98 4415.41 C 375.083 4415.102 375.185 4415 375.287 4415 C 375.389 4415 375.492 4415.102 375.696 4415.307 L 382.971 4430.572 L 390.041 4415.307 C 390.143 4415.101 390.143 4415 390.348 4415 C 390.553 4415 390.553 4415.205 390.655 4415.614 L 392.294 4430.571 Z  M 398.647 4423.911 L 398.647 4419.505 C 398.647 4418.787 398.442 4418.378 397.725 4418.275 C 397.623 4418.275 397.213 4418.173 397.111 4418.173 C 397.008 4418.173 396.906 4418.173 396.906 4418.07 C 396.906 4417.968 397.008 4417.865 397.213 4417.865 C 398.135 4417.865 399.467 4417.968 399.57 4417.968 L 404.283 4417.968 C 404.59 4417.968 405 4417.865 405.103 4417.865 C 405.206 4417.865 405.308 4417.763 405.41 4417.763 C 405.513 4417.763 405.513 4417.865 405.513 4417.968 C 405.513 4418.07 405.41 4418.377 405.307 4418.889 C 405.307 4419.094 405.307 4420.016 405.204 4420.324 C 405.204 4420.427 405.204 4420.529 405.102 4420.529 C 405 4420.529 404.897 4420.427 404.897 4420.222 C 404.897 4420.119 404.897 4419.709 404.795 4419.505 C 404.692 4419.198 404.488 4418.891 403.361 4418.787 C 402.951 4418.787 400.8 4418.685 400.492 4418.685 C 400.492 4418.685 400.39 4418.787 400.39 4418.889 L 400.39 4424.629 C 400.39 4424.834 400.39 4424.936 400.492 4424.936 C 400.8 4424.936 403.361 4424.936 403.772 4424.834 C 404.284 4424.834 404.591 4424.731 404.796 4424.527 C 404.898 4424.424 405.001 4424.321 405.103 4424.321 C 405.103 4424.321 405.206 4424.321 405.206 4424.423 C 405.206 4424.525 405.103 4424.935 405.001 4425.652 C 405.001 4426.062 404.898 4426.779 404.898 4426.985 C 404.898 4427.087 404.898 4427.292 404.796 4427.292 C 404.694 4427.292 404.591 4427.292 404.591 4427.189 L 404.591 4426.471 C 404.489 4426.164 404.284 4425.857 403.465 4425.754 C 402.953 4425.652 400.903 4425.652 400.596 4425.652 C 400.493 4425.652 400.39 4425.652 400.39 4425.754 L 400.39 4431.186 C 400.492 4432.619 400.801 4432.825 402.85 4432.825 C 403.362 4432.825 404.284 4432.825 404.796 4432.621 C 405.308 4432.416 405.514 4432.006 405.718 4431.187 C 405.718 4430.88 405.82 4430.88 405.922 4430.88 C 406.025 4430.88 406.025 4430.982 406.025 4431.187 C 406.025 4431.289 405.819 4432.724 405.718 4433.134 C 405.615 4433.748 405.41 4433.748 404.591 4433.748 C 401.518 4433.748 400.185 4433.543 399.571 4433.543 C 399.468 4433.543 399.161 4433.646 398.751 4433.646 L 397.521 4433.646 C 397.316 4433.646 397.214 4433.646 397.214 4433.44 C 397.214 4433.44 397.214 4433.337 397.419 4433.337 C 397.521 4433.337 397.829 4433.337 398.033 4433.235 C 398.443 4433.133 398.545 4432.723 398.545 4432.109 C 398.648 4431.289 398.648 4429.649 398.648 4427.6 L 398.648 4423.911 L 398.647 4423.911 L 398.647 4423.911 Z  M 412.58 4427.6 C 412.58 4430.674 412.58 4432.006 412.991 4432.416 C 413.298 4432.723 413.812 4432.928 415.451 4432.928 C 416.577 4432.928 417.5 4432.825 417.909 4432.313 C 418.216 4431.904 418.421 4431.392 418.525 4430.981 C 418.525 4430.878 418.525 4430.776 418.626 4430.776 C 418.73 4430.776 418.73 4430.878 418.73 4431.083 C 418.73 4431.289 418.626 4432.518 418.525 4433.133 C 418.32 4433.645 418.218 4433.747 417.192 4433.747 C 414.22 4433.747 412.889 4433.542 411.66 4433.542 C 411.556 4433.542 411.249 4433.645 410.839 4433.645 L 409.713 4433.645 C 409.508 4433.645 409.303 4433.645 409.303 4433.439 C 409.303 4433.439 409.406 4433.336 409.508 4433.336 C 409.713 4433.336 409.918 4433.336 410.123 4433.234 C 410.532 4433.132 410.635 4432.722 410.737 4432.107 C 410.839 4431.288 410.839 4429.648 410.839 4427.599 L 410.839 4423.911 C 410.839 4420.735 410.839 4420.119 410.737 4419.505 C 410.737 4418.787 410.532 4418.378 409.917 4418.275 C 409.712 4418.275 409.405 4418.173 409.2 4418.173 C 409.097 4418.173 408.994 4418.173 408.994 4418.07 C 408.994 4417.968 409.096 4417.865 409.403 4417.865 C 410.326 4417.865 411.555 4417.968 411.658 4417.968 C 411.759 4417.968 413.297 4417.865 413.911 4417.865 C 414.118 4417.865 414.218 4417.968 414.218 4418.07 C 414.218 4418.173 414.117 4418.173 414.117 4418.173 C 413.91 4418.173 413.602 4418.275 413.397 4418.275 C 412.784 4418.377 412.577 4418.685 412.577 4419.505 L 412.577 4427.6 L 412.58 4427.6 L 412.58 4427.6 Z  M 424.568 4427.6 C 424.568 4429.649 424.568 4431.289 424.672 4432.109 C 424.773 4432.723 424.877 4433.134 425.49 4433.235 C 425.797 4433.337 426.209 4433.337 426.413 4433.337 C 426.516 4433.337 426.516 4433.44 426.516 4433.44 C 426.516 4433.542 426.413 4433.646 426.209 4433.646 C 425.082 4433.646 423.853 4433.543 423.749 4433.543 C 423.645 4433.543 422.316 4433.646 421.701 4433.646 C 421.496 4433.646 421.394 4433.646 421.394 4433.44 C 421.394 4433.44 421.394 4433.337 421.497 4433.337 C 421.702 4433.337 421.906 4433.337 422.11 4433.235 C 422.521 4433.133 422.622 4432.723 422.726 4432.109 C 422.83 4431.289 422.83 4429.649 422.83 4427.6 L 422.83 4423.912 L 422.83 4419.506 C 422.726 4418.788 422.522 4418.38 422.11 4418.276 C 421.906 4418.276 421.598 4418.174 421.497 4418.174 C 421.394 4418.174 421.29 4418.174 421.29 4418.071 C 421.29 4417.969 421.394 4417.866 421.597 4417.866 C 422.316 4417.866 423.645 4417.969 423.749 4417.969 C 423.853 4417.969 425.082 4417.866 425.696 4417.866 C 425.901 4417.866 426.003 4417.969 426.003 4418.071 C 426.003 4418.174 425.9 4418.174 425.9 4418.174 C 425.695 4418.174 425.592 4418.276 425.388 4418.276 C 424.772 4418.378 424.671 4418.686 424.567 4419.506 L 424.567 4427.6 L 424.568 4427.6 L 424.568 4427.6 Z  M 432.253 4430.776 C 432.356 4432.518 432.56 4433.03 433.073 4433.235 C 433.482 4433.337 433.893 4433.337 434.097 4433.337 C 434.201 4433.337 434.302 4433.44 434.302 4433.44 C 434.302 4433.646 434.201 4433.646 433.893 4433.646 C 432.766 4433.646 431.947 4433.543 431.742 4433.543 C 431.537 4433.543 430.718 4433.646 429.795 4433.646 C 429.59 4433.646 429.487 4433.646 429.487 4433.44 C 429.487 4433.44 429.487 4433.337 429.591 4433.337 C 429.796 4433.337 430.103 4433.337 430.411 4433.235 C 430.924 4433.133 431.027 4432.518 431.027 4430.571 L 431.027 4418.686 C 431.027 4417.865 431.128 4417.66 431.332 4417.66 C 431.436 4417.66 431.846 4418.07 432.051 4418.275 C 432.358 4418.685 435.432 4421.963 438.504 4425.447 C 440.183 4427.222 441.823 4429.032 443.423 4430.877 L 443.216 4420.324 C 443.216 4418.889 443.115 4418.48 442.398 4418.275 C 442.091 4418.275 441.578 4418.173 441.475 4418.173 C 441.271 4418.173 441.271 4418.173 441.271 4418.07 C 441.271 4417.968 441.475 4417.865 441.679 4417.865 C 442.602 4417.865 443.626 4417.968 443.831 4417.968 L 445.778 4417.968 C 445.983 4417.968 446.186 4417.968 446.186 4418.07 C 446.186 4418.173 446.085 4418.275 445.982 4418.275 L 445.469 4418.275 C 444.753 4418.48 444.649 4418.889 444.649 4420.119 L 444.444 4432.107 C 444.444 4433.439 444.341 4433.747 444.239 4433.747 C 444.032 4433.747 443.829 4433.542 442.701 4432.415 C 442.496 4432.21 439.525 4429.239 437.376 4426.78 C 435.017 4424.218 434.2 4423.092 432.56 4421.042 L 432.253 4430.776 L 432.253 4430.776 Z  M 452.027 4426.165 L 452.027 4430.674 C 452.027 4431.186 452.131 4432.107 452.232 4432.313 C 452.539 4432.723 453.36 4433.134 455.716 4433.134 C 457.663 4433.134 459.404 4432.416 460.636 4431.187 C 461.761 4430.162 462.273 4428.113 462.273 4426.269 C 462.273 4423.605 461.148 4421.863 460.327 4420.941 C 458.38 4418.892 456.024 4418.584 453.563 4418.584 C 453.155 4418.584 452.438 4418.687 452.231 4418.789 C 452.13 4418.892 452.026 4418.995 452.026 4419.199 L 452.026 4426.165 L 452.027 4426.165 L 452.027 4426.165 Z  M 450.286 4423.911 L 450.286 4419.505 C 450.183 4418.787 450.081 4418.378 449.363 4418.275 C 449.159 4418.275 448.851 4418.173 448.647 4418.173 C 448.543 4418.173 448.543 4418.173 448.543 4418.07 C 448.543 4417.968 448.647 4417.865 448.85 4417.865 C 449.773 4417.865 451.002 4417.968 451.106 4417.968 C 451.411 4417.968 452.642 4417.865 453.871 4417.865 C 455.919 4417.865 459.71 4417.763 462.171 4420.325 C 463.195 4421.35 464.116 4423.092 464.116 4425.551 C 464.116 4428.215 463.092 4430.162 461.965 4431.391 C 461.044 4432.415 459.2 4433.85 455.715 4433.85 C 453.974 4433.85 451.31 4433.542 451.106 4433.542 C 451.002 4433.542 449.773 4433.645 449.159 4433.645 C 448.954 4433.645 448.851 4433.645 448.851 4433.439 C 448.851 4433.439 448.851 4433.336 448.955 4433.336 C 449.16 4433.336 449.363 4433.336 449.568 4433.234 C 449.979 4433.132 450.083 4432.722 450.184 4432.107 C 450.287 4431.288 450.287 4429.648 450.287 4427.599 L 450.287 4423.911 L 450.286 4423.911 L 450.286 4423.911 Z  M 473.339 4426.78 C 473.44 4426.78 473.44 4426.677 473.44 4426.575 L 471.494 4421.042 C 471.392 4420.735 471.289 4420.735 471.189 4421.042 L 469.344 4426.575 C 469.344 4426.677 469.344 4426.78 469.445 4426.78 L 473.339 4426.78 L 473.339 4426.78 Z  M 471.187 4418.481 C 471.492 4417.764 471.596 4417.66 471.699 4417.66 C 471.801 4417.66 471.904 4417.763 472.108 4418.378 C 472.415 4419.198 475.696 4427.804 476.924 4430.878 C 477.641 4432.723 478.256 4433.133 478.665 4433.235 C 478.972 4433.337 479.28 4433.337 479.485 4433.337 C 479.589 4433.337 479.69 4433.337 479.69 4433.44 C 479.69 4433.646 479.485 4433.646 479.281 4433.646 L 476.105 4433.646 C 475.697 4433.543 475.49 4433.543 475.49 4433.44 C 475.49 4433.337 475.49 4433.337 475.593 4433.337 C 475.697 4433.235 475.798 4433.133 475.697 4432.723 L 473.852 4427.6 C 473.749 4427.498 473.749 4427.498 473.645 4427.498 L 469.24 4427.498 C 469.13 4427.505 469.043 4427.592 469.036 4427.703 L 467.804 4431.391 C 467.6 4431.903 467.499 4432.415 467.499 4432.723 C 467.499 4433.133 467.908 4433.337 468.32 4433.337 L 468.421 4433.337 C 468.626 4433.337 468.728 4433.44 468.728 4433.44 C 468.728 4433.646 468.524 4433.646 468.421 4433.646 C 467.909 4433.646 466.986 4433.543 466.781 4433.543 C 466.577 4433.543 465.449 4433.646 464.425 4433.646 C 464.22 4433.646 464.016 4433.646 464.016 4433.44 C 464.016 4433.44 464.118 4433.337 464.221 4433.337 L 464.837 4433.337 C 465.757 4433.133 466.169 4432.416 466.578 4431.392 L 471.187 4418.481 L 471.187 4418.481 Z " fill-rule="evenodd" fill="rgb(135,61,72)"/></g></svg>