<?xml version="1.0" encoding="UTF-8" standalone="no"?><!-- Generator: Gravit.io --><svg xmlns="http://www.w3.org/2000/svg" xmlns:xlink="http://www.w3.org/1999/xlink" style="isolation:isolate" viewBox="591.486 4415 107.514 45.929" width="107.514pt" height="45.929pt"><g><path d=" M 618.016 4425.76 C 618.563 4427.911 618.492 4429.074 618.14 4430.802 C 617.646 4432.706 616.588 4434.151 615.583 4435.033 L 619.162 4447.231 L 615.619 4447.231 C 614.438 4442.772 612.975 4437.836 611.741 4433.376 C 612.464 4433.006 614.491 4431.859 614.808 4429.162 C 615.126 4426.641 613.557 4424.685 612.481 4423.962 C 611.547 4423.381 610.154 4422.94 608.849 4423.204 C 606.346 4423.486 604.636 4425.425 604.248 4427.576 C 604.196 4427.875 604.196 4428.016 604.16 4428.422 L 602.856 4432.053 L 603.578 4432.053 L 603.578 4439.193 L 612.075 4439.193 L 613.062 4442.683 L 600.053 4442.683 L 600.053 4434.681 L 598.255 4434.663 C 598.907 4432.723 600.564 4428.422 600.564 4428.422 C 600.776 4426.854 600.864 4423.892 604.037 4421.459 C 605.518 4420.225 607.827 4419.379 610.295 4419.573 C 614.402 4420.084 617.1 4422.886 618.016 4425.76 Z " fill-rule="evenodd" fill="rgb(6,75,136)"/><path d=" M 621.63 4422.57 C 624.221 4428.281 622.547 4433.658 620.625 4436.196 L 623.569 4447.144 L 620.096 4447.144 L 616.694 4435.35 C 618.791 4433.34 620.113 4429.233 619.074 4425.848 C 618.157 4422.428 615.319 4419.537 611.264 4418.744 C 606.963 4417.863 602.874 4420.083 601.128 4423.133 C 600.018 4424.825 599.824 4426.447 599.63 4428.422 C 599.63 4428.422 597.462 4433.658 596.721 4435.561 L 599.048 4435.561 L 599.048 4443.617 L 613.327 4443.617 L 614.315 4447.196 L 595.523 4447.196 L 595.523 4438.717 L 591.486 4438.7 C 591.486 4438.7 595.857 4428.721 595.84 4428.422 C 596.087 4424.932 597.656 4420.578 601.005 4418.004 C 602.697 4416.664 604.972 4415.377 608.004 4415.095 C 611.3 4414.761 612.711 4415.359 614.896 4416.1 C 618.598 4417.669 621.084 4421.23 621.63 4422.57 L 621.63 4422.57 Z " fill-rule="evenodd" fill="rgb(6,75,136)"/><path d=" M 606.012 4428.528 C 606.011 4427.598 606.381 4426.705 607.039 4426.047 C 607.697 4425.389 608.589 4425.02 609.52 4425.02 C 611.441 4425.02 613.01 4426.589 613.01 4428.528 C 613.011 4429.454 612.644 4430.342 611.989 4430.997 C 611.334 4431.652 610.446 4432.019 609.52 4432.018 C 607.58 4432.018 606.012 4430.467 606.012 4428.528 Z  M 600.035 4450.652 L 599.224 4450.652 C 599.224 4450.616 599.207 4450.581 599.207 4450.528 C 599.205 4450.479 599.193 4450.431 599.171 4450.387 C 599.153 4450.282 599.082 4450.193 598.977 4450.105 C 598.889 4450.017 598.731 4449.982 598.501 4449.982 C 598.43 4449.982 598.343 4449.982 598.255 4450.017 C 598.161 4450.037 598.072 4450.073 597.99 4450.124 C 597.831 4450.212 597.691 4450.352 597.549 4450.529 C 597.409 4450.723 597.303 4451.005 597.232 4451.339 C 597.214 4451.428 597.214 4451.498 597.196 4451.586 C 597.196 4451.674 597.179 4451.745 597.179 4451.815 C 597.179 4452.062 597.249 4452.256 597.355 4452.432 C 597.461 4452.591 597.655 4452.679 597.919 4452.679 C 598.148 4452.679 598.342 4452.609 598.536 4452.486 C 598.712 4452.362 598.836 4452.186 598.942 4451.938 L 599.753 4451.938 C 599.601 4452.348 599.338 4452.708 598.995 4452.979 C 598.66 4453.243 598.237 4453.384 597.761 4453.384 C 597.321 4453.384 596.985 4453.261 596.721 4453.014 C 596.457 4452.785 596.333 4452.432 596.333 4451.956 C 596.333 4451.868 596.333 4451.763 596.351 4451.657 L 596.404 4451.339 C 596.544 4450.652 596.827 4450.14 597.25 4449.788 C 597.672 4449.435 598.131 4449.276 598.642 4449.276 C 599.1 4449.276 599.435 4449.365 599.647 4449.576 C 599.841 4449.769 599.982 4449.999 600.017 4450.228 C 600.035 4450.281 600.035 4450.316 600.035 4450.351 C 600.053 4450.404 600.053 4450.44 600.053 4450.475 L 600.053 4450.563 C 600.035 4450.598 600.035 4450.617 600.035 4450.652 L 600.035 4450.652 Z  M 603.138 4451.833 C 603.032 4452.327 602.82 4452.714 602.486 4452.943 C 602.168 4453.19 601.816 4453.331 601.428 4453.348 L 601.375 4453.348 L 601.339 4453.348 C 601.005 4453.348 600.705 4453.26 600.475 4453.084 C 600.246 4452.908 600.122 4452.626 600.122 4452.237 C 600.122 4452.185 600.14 4452.114 600.14 4452.044 C 600.158 4451.974 600.158 4451.903 600.176 4451.832 C 600.282 4451.338 600.493 4450.951 600.828 4450.704 C 601.125 4450.469 601.489 4450.333 601.868 4450.316 C 601.886 4450.316 601.903 4450.298 601.921 4450.298 L 601.974 4450.298 C 602.284 4450.297 602.587 4450.396 602.837 4450.581 C 603.067 4450.757 603.19 4451.039 603.19 4451.427 C 603.19 4451.479 603.173 4451.55 603.173 4451.621 C 603.173 4451.691 603.156 4451.763 603.138 4451.833 L 603.138 4451.833 Z  M 602.363 4451.833 C 602.363 4451.797 602.363 4451.763 602.38 4451.727 L 602.38 4451.621 L 602.38 4451.568 L 602.38 4451.515 C 602.38 4451.374 602.344 4451.233 602.274 4451.127 C 602.204 4451.004 602.062 4450.951 601.851 4450.951 C 601.622 4450.951 601.429 4451.021 601.304 4451.145 C 601.188 4451.266 601.098 4451.41 601.04 4451.567 C 601.022 4451.621 601.005 4451.656 600.987 4451.708 C 600.969 4451.744 600.969 4451.796 600.969 4451.832 C 600.951 4451.884 600.934 4451.937 600.934 4451.99 C 600.934 4452.043 600.916 4452.096 600.916 4452.149 C 600.916 4452.29 600.969 4452.431 601.039 4452.537 C 601.11 4452.66 601.251 4452.713 601.462 4452.713 C 601.692 4452.713 601.868 4452.643 601.991 4452.519 C 602.132 4452.379 602.221 4452.237 602.273 4452.079 C 602.291 4452.043 602.309 4452.009 602.326 4451.955 C 602.344 4451.92 602.344 4451.868 602.363 4451.833 Z  M 606.399 4451.268 L 605.976 4453.278 L 605.218 4453.278 L 605.588 4451.515 C 605.606 4451.498 605.606 4451.462 605.606 4451.427 C 605.623 4451.41 605.623 4451.373 605.623 4451.338 L 605.623 4451.285 C 605.623 4451.197 605.588 4451.126 605.535 4451.056 C 605.483 4450.986 605.377 4450.95 605.218 4450.95 C 605.059 4450.95 604.9 4451.003 604.759 4451.126 C 604.618 4451.232 604.53 4451.391 604.477 4451.621 L 604.124 4453.277 L 603.366 4453.277 L 603.983 4450.368 L 604.706 4450.368 L 604.618 4450.809 L 604.636 4450.809 C 604.654 4450.774 604.671 4450.739 604.706 4450.721 L 604.812 4450.616 C 604.903 4450.525 605.011 4450.453 605.13 4450.404 C 605.253 4450.334 605.412 4450.297 605.606 4450.297 C 605.852 4450.297 606.047 4450.368 606.205 4450.491 C 606.364 4450.615 606.434 4450.791 606.434 4451.038 C 606.434 4451.074 606.434 4451.109 606.416 4451.144 C 606.417 4451.198 606.417 4451.233 606.399 4451.268 Z  M 609.502 4451.268 L 608.762 4451.268 L 608.762 4451.251 L 608.762 4451.233 C 608.757 4451.147 608.733 4451.063 608.691 4450.987 C 608.638 4450.917 608.515 4450.881 608.321 4450.881 C 608.163 4450.881 608.039 4450.917 607.951 4450.951 C 607.891 4450.991 607.842 4451.046 607.81 4451.11 L 607.81 4451.128 C 607.81 4451.145 607.793 4451.163 607.793 4451.163 L 607.793 4451.198 C 607.793 4451.268 607.845 4451.321 607.933 4451.357 C 608.021 4451.392 608.145 4451.427 608.269 4451.463 C 608.321 4451.463 608.374 4451.48 608.427 4451.48 L 608.585 4451.533 C 608.779 4451.569 608.973 4451.639 609.132 4451.745 C 609.291 4451.834 609.379 4451.974 609.379 4452.186 L 609.379 4452.274 C 609.361 4452.309 609.361 4452.327 609.361 4452.363 C 609.291 4452.628 609.185 4452.821 609.027 4452.962 C 608.85 4453.102 608.674 4453.208 608.497 4453.261 C 608.374 4453.297 608.269 4453.314 608.163 4453.332 C 608.057 4453.349 607.951 4453.349 607.881 4453.349 L 607.863 4453.349 C 607.563 4453.349 607.281 4453.296 607.035 4453.173 C 606.788 4453.067 606.665 4452.855 606.665 4452.555 C 606.665 4452.52 606.682 4452.486 606.682 4452.45 C 606.682 4452.432 606.682 4452.397 606.7 4452.361 L 607.476 4452.344 L 607.476 4452.45 C 607.476 4452.555 607.511 4452.626 607.582 4452.697 C 607.67 4452.749 607.81 4452.785 608.022 4452.785 C 608.163 4452.785 608.269 4452.768 608.34 4452.714 C 608.428 4452.679 608.48 4452.644 608.516 4452.591 C 608.533 4452.574 608.533 4452.555 608.552 4452.538 C 608.552 4452.503 608.57 4452.503 608.57 4452.486 L 608.57 4452.468 L 608.57 4452.45 C 608.57 4452.362 608.534 4452.309 608.428 4452.274 C 608.313 4452.231 608.195 4452.196 608.076 4452.168 C 608.023 4452.168 607.988 4452.151 607.935 4452.151 C 607.883 4452.133 607.847 4452.133 607.794 4452.116 C 607.605 4452.066 607.421 4451.995 607.248 4451.904 C 607.089 4451.815 607.001 4451.657 607.001 4451.445 C 607.001 4451.428 607.001 4451.392 607.019 4451.357 C 607.019 4451.339 607.019 4451.304 607.037 4451.268 C 607.037 4451.233 607.054 4451.198 607.054 4451.162 C 607.072 4451.11 607.09 4451.074 607.107 4451.039 C 607.196 4450.863 607.336 4450.687 607.548 4450.528 C 607.742 4450.387 608.042 4450.299 608.412 4450.299 L 608.482 4450.299 C 608.518 4450.299 608.535 4450.316 608.571 4450.316 C 608.8 4450.316 609.029 4450.387 609.223 4450.493 C 609.417 4450.581 609.523 4450.792 609.523 4451.091 L 609.523 4451.162 C 609.519 4451.198 609.502 4451.233 609.502 4451.268 L 609.502 4451.268 Z  M 611.6 4452.432 L 612.375 4452.432 C 612.274 4452.646 612.13 4452.838 611.953 4452.996 C 611.776 4453.119 611.6 4453.225 611.406 4453.278 C 611.335 4453.296 611.247 4453.313 611.159 4453.331 C 611.071 4453.348 610.983 4453.348 610.913 4453.348 C 610.577 4453.348 610.295 4453.278 610.066 4453.119 C 609.855 4452.96 609.749 4452.697 609.749 4452.308 C 609.749 4452.22 609.749 4452.15 609.766 4452.062 C 609.766 4451.974 609.784 4451.868 609.802 4451.78 C 609.819 4451.692 609.854 4451.604 609.89 4451.48 C 609.925 4451.357 609.996 4451.233 610.084 4451.092 C 610.207 4450.899 610.366 4450.723 610.595 4450.546 C 610.824 4450.387 611.124 4450.299 611.512 4450.299 C 611.547 4450.299 611.582 4450.316 611.617 4450.316 L 611.741 4450.316 C 611.953 4450.352 612.147 4450.44 612.323 4450.598 C 612.5 4450.757 612.588 4451.004 612.588 4451.374 C 612.588 4451.444 612.588 4451.533 612.57 4451.621 C 612.57 4451.709 612.552 4451.797 612.534 4451.903 L 612.499 4452.026 L 610.507 4452.026 L 610.507 4452.132 C 610.507 4452.15 610.489 4452.185 610.489 4452.221 C 610.489 4452.238 610.507 4452.273 610.507 4452.291 L 610.507 4452.327 C 610.525 4452.432 610.56 4452.538 610.631 4452.626 C 610.701 4452.697 610.842 4452.749 611.036 4452.749 L 611.107 4452.749 C 611.107 4452.749 611.142 4452.732 611.16 4452.732 C 611.248 4452.714 611.336 4452.679 611.406 4452.644 C 611.488 4452.591 611.554 4452.518 611.6 4452.432 L 611.6 4452.432 Z  M 611.828 4451.533 L 611.828 4451.48 L 611.828 4451.427 C 611.828 4451.251 611.776 4451.128 611.688 4451.057 C 611.613 4450.982 611.512 4450.938 611.406 4450.934 L 611.37 4450.934 C 611.194 4450.934 611.036 4450.987 610.912 4451.093 C 610.788 4451.199 610.7 4451.339 610.647 4451.534 L 611.828 4451.534 L 611.828 4451.533 Z  M 613.521 4453.278 L 612.763 4453.278 L 613.591 4449.365 L 614.349 4449.365 L 613.521 4453.278 Z  M 617.293 4451.268 L 616.871 4453.278 L 616.112 4453.278 L 616.482 4451.515 C 616.5 4451.498 616.5 4451.462 616.5 4451.427 C 616.518 4451.41 616.518 4451.373 616.518 4451.338 L 616.518 4451.285 C 616.518 4451.197 616.482 4451.126 616.429 4451.056 C 616.377 4450.986 616.271 4450.95 616.112 4450.95 C 615.942 4450.947 615.778 4451.01 615.654 4451.126 C 615.513 4451.232 615.425 4451.391 615.372 4451.621 L 615.019 4453.277 L 614.261 4453.277 L 615.09 4449.364 L 615.848 4449.364 L 615.548 4450.757 L 615.566 4450.757 C 615.637 4450.633 615.76 4450.527 615.936 4450.439 C 616.094 4450.351 616.288 4450.298 616.5 4450.298 C 616.747 4450.298 616.94 4450.368 617.099 4450.492 C 617.24 4450.616 617.329 4450.792 617.329 4451.039 C 617.329 4451.074 617.329 4451.109 617.311 4451.145 C 617.311 4451.198 617.311 4451.233 617.293 4451.268 L 617.293 4451.268 Z  M 620.678 4451.833 C 620.572 4452.327 620.361 4452.714 620.026 4452.943 C 619.708 4453.19 619.356 4453.331 618.986 4453.348 L 618.881 4453.348 C 618.546 4453.348 618.263 4453.26 618.017 4453.084 C 617.788 4452.908 617.665 4452.626 617.665 4452.237 C 617.665 4452.185 617.682 4452.114 617.682 4452.044 C 617.7 4451.974 617.7 4451.903 617.718 4451.832 C 617.824 4451.338 618.035 4450.951 618.37 4450.704 C 618.705 4450.457 619.04 4450.334 619.428 4450.316 C 619.445 4450.316 619.463 4450.298 619.48 4450.298 L 619.516 4450.298 C 619.85 4450.298 620.151 4450.404 620.38 4450.581 C 620.609 4450.757 620.732 4451.039 620.732 4451.427 C 620.732 4451.479 620.732 4451.55 620.715 4451.621 C 620.711 4451.693 620.698 4451.764 620.678 4451.833 Z  M 619.902 4451.833 C 619.902 4451.797 619.92 4451.763 619.92 4451.727 L 619.92 4451.621 C 619.938 4451.604 619.938 4451.585 619.938 4451.568 L 619.938 4451.515 C 619.938 4451.374 619.902 4451.233 619.814 4451.127 C 619.744 4451.004 619.603 4450.951 619.392 4450.951 C 619.162 4450.951 618.986 4451.021 618.845 4451.145 C 618.728 4451.266 618.638 4451.41 618.58 4451.567 C 618.563 4451.621 618.545 4451.656 618.528 4451.708 C 618.528 4451.744 618.51 4451.796 618.51 4451.832 C 618.492 4451.884 618.492 4451.937 618.475 4451.99 L 618.475 4452.149 C 618.475 4452.29 618.51 4452.431 618.58 4452.537 C 618.651 4452.66 618.81 4452.713 619.003 4452.713 C 619.233 4452.713 619.409 4452.643 619.549 4452.519 C 619.673 4452.379 619.761 4452.237 619.814 4452.079 C 619.832 4452.043 619.85 4452.009 619.867 4451.955 C 619.885 4451.92 619.885 4451.868 619.902 4451.833 Z  M 625.702 4449.365 L 626.46 4449.365 L 625.632 4453.278 L 624.804 4453.278 L 623.799 4450.493 L 623.2 4453.278 L 622.442 4453.278 L 623.27 4449.365 L 624.134 4449.365 L 625.103 4452.08 L 625.121 4452.08 L 625.702 4449.365 L 625.702 4449.365 Z  M 629.14 4451.145 L 628.822 4452.714 C 628.805 4452.767 628.787 4452.82 628.787 4452.855 L 628.787 4452.96 C 628.787 4453.031 628.787 4453.084 628.822 4453.101 C 628.836 4453.133 628.862 4453.158 628.893 4453.171 L 628.858 4453.277 L 628.047 4453.277 C 628.029 4453.242 628.029 4453.225 628.029 4453.207 L 628.029 4453.137 L 628.029 4453.119 L 628.029 4453.031 C 628.029 4453.013 628.029 4452.978 628.047 4452.943 C 628.011 4452.96 627.994 4452.978 627.976 4452.995 C 627.941 4453.012 627.924 4453.031 627.906 4453.048 C 627.8 4453.119 627.677 4453.189 627.536 4453.26 C 627.372 4453.319 627.199 4453.349 627.025 4453.348 C 626.831 4453.348 626.655 4453.296 626.514 4453.208 C 626.362 4453.099 626.281 4452.917 626.302 4452.732 L 626.302 4452.626 C 626.302 4452.59 626.302 4452.555 626.319 4452.52 C 626.372 4452.221 626.496 4452.009 626.689 4451.868 C 626.882 4451.714 627.114 4451.616 627.359 4451.586 L 628.064 4451.48 L 628.1 4451.48 C 628.118 4451.48 628.135 4451.463 628.153 4451.463 C 628.188 4451.463 628.241 4451.427 628.293 4451.41 C 628.336 4451.366 628.367 4451.311 628.381 4451.251 L 628.381 4451.216 L 628.381 4451.162 C 628.381 4451.074 628.364 4451.022 628.293 4450.986 C 628.241 4450.951 628.17 4450.934 628.099 4450.916 L 627.941 4450.916 C 627.8 4450.916 627.694 4450.951 627.606 4451.005 C 627.535 4451.075 627.483 4451.128 627.447 4451.198 C 627.43 4451.216 627.43 4451.251 627.412 4451.268 C 627.412 4451.286 627.412 4451.304 627.395 4451.321 L 626.671 4451.321 C 626.777 4450.934 626.971 4450.669 627.201 4450.528 C 627.437 4450.407 627.694 4450.335 627.959 4450.316 L 628.064 4450.316 C 628.1 4450.316 628.135 4450.299 628.17 4450.299 C 628.223 4450.299 628.276 4450.316 628.347 4450.316 C 628.417 4450.316 628.47 4450.334 628.54 4450.334 C 628.699 4450.369 628.84 4450.44 628.981 4450.527 C 629.105 4450.616 629.175 4450.774 629.175 4450.969 C 629.175 4450.986 629.158 4451.021 629.158 4451.057 C 629.157 4451.075 629.157 4451.11 629.14 4451.145 L 629.14 4451.145 Z  M 628.17 4452.238 L 628.241 4451.868 C 628.205 4451.904 628.135 4451.921 628.064 4451.957 C 627.976 4451.974 627.853 4452.01 627.694 4452.027 C 627.554 4452.045 627.43 4452.097 627.306 4452.15 C 627.201 4452.203 627.13 4452.309 627.095 4452.468 L 627.095 4452.503 C 627.077 4452.503 627.077 4452.521 627.077 4452.521 L 627.077 4452.555 C 627.077 4452.644 627.095 4452.697 627.147 4452.732 C 627.183 4452.768 627.235 4452.803 627.288 4452.803 L 627.324 4452.803 C 627.341 4452.803 627.359 4452.82 627.359 4452.82 C 627.395 4452.82 627.412 4452.803 627.447 4452.803 L 627.518 4452.803 C 627.659 4452.767 627.8 4452.714 627.924 4452.609 C 628.064 4452.52 628.135 4452.397 628.17 4452.238 L 628.17 4452.238 Z  M 631.326 4452.221 L 632.084 4452.221 C 632.066 4452.273 632.048 4452.361 631.996 4452.45 C 631.95 4452.551 631.89 4452.646 631.819 4452.732 C 631.695 4452.891 631.537 4453.031 631.325 4453.155 C 631.113 4453.278 630.849 4453.348 630.532 4453.348 C 630.108 4453.348 629.809 4453.242 629.668 4453.031 C 629.512 4452.831 629.436 4452.579 629.456 4452.326 L 629.456 4452.114 C 629.474 4452.044 629.474 4451.974 629.492 4451.92 C 629.597 4451.444 629.791 4451.057 630.073 4450.757 C 630.355 4450.458 630.743 4450.299 631.219 4450.299 C 631.272 4450.299 631.343 4450.316 631.395 4450.316 C 631.448 4450.316 631.501 4450.334 631.572 4450.352 C 631.748 4450.387 631.906 4450.475 632.065 4450.617 C 632.206 4450.74 632.277 4450.951 632.277 4451.233 L 632.277 4451.411 L 631.501 4451.411 L 631.501 4451.393 L 631.501 4451.323 C 631.501 4451.305 631.484 4451.287 631.484 4451.27 C 631.466 4451.181 631.431 4451.111 631.378 4451.041 C 631.324 4450.97 631.237 4450.952 631.113 4450.952 L 631.096 4450.952 C 630.902 4450.952 630.743 4451.022 630.62 4451.146 C 630.511 4451.269 630.427 4451.413 630.373 4451.569 C 630.355 4451.604 630.338 4451.639 630.338 4451.674 C 630.32 4451.71 630.32 4451.745 630.302 4451.78 L 630.302 4451.851 C 630.284 4451.887 630.267 4451.939 630.267 4451.992 C 630.267 4452.045 630.249 4452.098 630.249 4452.151 L 630.249 4452.239 C 630.249 4452.363 630.267 4452.469 630.337 4452.574 C 630.39 4452.68 630.513 4452.733 630.689 4452.733 C 630.796 4452.736 630.901 4452.705 630.989 4452.645 C 631.071 4452.594 631.143 4452.528 631.201 4452.451 C 631.236 4452.415 631.254 4452.363 631.289 4452.328 C 631.308 4452.291 631.308 4452.256 631.326 4452.221 L 631.326 4452.221 Z  M 633.794 4450.369 L 633.195 4453.278 L 632.419 4453.278 L 633.036 4450.369 L 633.794 4450.369 Z  M 633.864 4450.034 L 633.106 4450.034 L 633.264 4449.33 L 634.022 4449.33 L 633.864 4450.034 Z  M 637.019 4451.833 C 636.914 4452.327 636.702 4452.714 636.367 4452.943 C 636.033 4453.19 635.68 4453.331 635.309 4453.348 L 635.204 4453.348 C 634.869 4453.348 634.587 4453.26 634.358 4453.084 C 634.129 4452.908 634.006 4452.626 634.006 4452.237 C 634.006 4452.185 634.006 4452.114 634.024 4452.044 C 634.024 4451.974 634.041 4451.903 634.059 4451.832 C 634.165 4451.338 634.377 4450.951 634.711 4450.704 C 635.009 4450.469 635.372 4450.333 635.751 4450.316 C 635.768 4450.316 635.787 4450.298 635.804 4450.298 L 635.857 4450.298 C 636.192 4450.298 636.474 4450.404 636.703 4450.581 C 636.95 4450.757 637.056 4451.039 637.056 4451.427 L 637.056 4451.621 C 637.056 4451.691 637.037 4451.763 637.019 4451.833 L 637.019 4451.833 Z  M 636.226 4451.833 C 636.244 4451.797 636.244 4451.763 636.244 4451.727 C 636.262 4451.692 636.262 4451.657 636.262 4451.621 L 636.262 4451.568 L 636.262 4451.515 C 636.262 4451.374 636.226 4451.233 636.156 4451.127 C 636.086 4451.004 635.927 4450.951 635.716 4450.951 C 635.486 4450.951 635.31 4451.021 635.186 4451.145 C 635.063 4451.268 634.975 4451.427 634.904 4451.567 C 634.904 4451.621 634.887 4451.656 634.869 4451.708 C 634.852 4451.744 634.852 4451.796 634.834 4451.832 C 634.834 4451.884 634.816 4451.937 634.816 4451.99 C 634.799 4452.043 634.799 4452.096 634.799 4452.149 C 634.799 4452.29 634.834 4452.431 634.922 4452.537 C 634.993 4452.66 635.134 4452.713 635.345 4452.713 C 635.574 4452.713 635.751 4452.643 635.874 4452.519 C 636.015 4452.379 636.104 4452.237 636.156 4452.079 C 636.174 4452.043 636.192 4452.009 636.209 4451.955 C 636.209 4451.92 636.226 4451.868 636.226 4451.833 L 636.226 4451.833 Z  M 640.281 4451.268 L 639.858 4453.278 L 639.1 4453.278 L 639.47 4451.515 C 639.47 4451.498 639.487 4451.462 639.487 4451.427 C 639.487 4451.41 639.505 4451.373 639.505 4451.338 L 639.505 4451.285 C 639.505 4451.197 639.469 4451.126 639.417 4451.056 C 639.364 4450.986 639.258 4450.95 639.099 4450.95 C 638.923 4450.95 638.782 4451.003 638.641 4451.126 C 638.5 4451.232 638.412 4451.391 638.359 4451.621 L 638.006 4453.277 L 637.249 4453.277 L 637.848 4450.368 L 638.588 4450.368 L 638.5 4450.809 C 638.535 4450.774 638.552 4450.739 638.588 4450.721 C 638.614 4450.678 638.65 4450.641 638.694 4450.616 C 638.764 4450.527 638.87 4450.456 639.011 4450.404 C 639.134 4450.334 639.293 4450.297 639.487 4450.297 C 639.734 4450.297 639.928 4450.368 640.086 4450.491 C 640.227 4450.615 640.315 4450.791 640.315 4451.038 C 640.315 4451.074 640.315 4451.109 640.297 4451.144 C 640.298 4451.198 640.298 4451.233 640.281 4451.268 Z  M 643.366 4451.145 L 643.03 4452.714 C 643.013 4452.767 643.013 4452.82 643.013 4452.855 C 642.996 4452.89 642.996 4452.943 642.996 4452.96 C 642.996 4453.031 643.013 4453.084 643.03 4453.101 C 643.048 4453.137 643.084 4453.154 643.101 4453.171 L 643.084 4453.277 L 642.255 4453.277 L 642.255 4453.207 L 642.255 4453.137 L 642.255 4453.119 L 642.255 4453.031 L 642.255 4452.943 C 642.238 4452.96 642.22 4452.978 642.185 4452.995 C 642.167 4453.012 642.149 4453.031 642.115 4453.048 C 642.004 4453.13 641.886 4453.201 641.762 4453.26 C 641.622 4453.313 641.445 4453.348 641.233 4453.348 C 641.053 4453.348 640.877 4453.299 640.722 4453.208 C 640.582 4453.102 640.511 4452.943 640.511 4452.732 L 640.511 4452.626 C 640.528 4452.59 640.528 4452.555 640.528 4452.52 C 640.599 4452.221 640.722 4452.009 640.916 4451.868 C 641.11 4451.709 641.322 4451.622 641.568 4451.586 L 642.274 4451.48 L 642.326 4451.48 C 642.326 4451.48 642.344 4451.463 642.362 4451.463 C 642.414 4451.463 642.468 4451.427 642.502 4451.41 C 642.557 4451.376 642.591 4451.316 642.591 4451.251 C 642.608 4451.233 642.608 4451.216 642.608 4451.216 L 642.608 4451.162 C 642.608 4451.074 642.573 4451.022 642.52 4450.986 C 642.45 4450.951 642.38 4450.934 642.309 4450.916 L 642.168 4450.916 C 642.027 4450.916 641.904 4450.951 641.833 4451.005 C 641.745 4451.075 641.692 4451.128 641.675 4451.198 C 641.656 4451.217 641.644 4451.242 641.639 4451.268 C 641.639 4451.286 641.622 4451.304 641.622 4451.321 L 640.882 4451.321 C 641.006 4450.934 641.182 4450.669 641.428 4450.528 C 641.664 4450.407 641.922 4450.335 642.186 4450.316 L 642.292 4450.316 C 642.328 4450.316 642.362 4450.299 642.398 4450.299 C 642.451 4450.299 642.504 4450.316 642.556 4450.316 C 642.627 4450.316 642.698 4450.334 642.75 4450.334 C 642.909 4450.369 643.068 4450.44 643.191 4450.527 C 643.315 4450.616 643.385 4450.774 643.385 4450.969 L 643.385 4451.057 C 643.383 4451.075 643.366 4451.11 643.366 4451.145 L 643.366 4451.145 Z  M 642.396 4452.238 L 642.466 4451.868 C 642.414 4451.904 642.361 4451.921 642.272 4451.957 C 642.202 4451.974 642.079 4452.01 641.92 4452.027 C 641.779 4452.045 641.638 4452.097 641.532 4452.15 C 641.409 4452.203 641.338 4452.309 641.303 4452.468 L 641.303 4452.555 C 641.303 4452.644 641.321 4452.697 641.355 4452.732 C 641.409 4452.768 641.461 4452.803 641.514 4452.803 L 641.55 4452.803 C 641.567 4452.803 641.567 4452.82 641.585 4452.82 C 641.603 4452.82 641.637 4452.803 641.656 4452.803 L 641.744 4452.803 C 641.885 4452.767 642.026 4452.714 642.149 4452.609 C 642.275 4452.521 642.364 4452.388 642.396 4452.238 L 642.396 4452.238 Z  M 644.371 4453.278 L 643.613 4453.278 L 644.441 4449.365 L 645.217 4449.365 L 644.371 4453.278 Z  M 649.272 4453.278 L 648.513 4453.278 L 648.602 4452.908 L 648.584 4452.908 C 648.503 4453.02 648.401 4453.116 648.285 4453.19 C 648.18 4453.247 648.067 4453.288 647.95 4453.313 C 647.897 4453.331 647.844 4453.331 647.791 4453.349 L 647.65 4453.349 C 647.315 4453.349 647.068 4453.243 646.928 4453.05 C 646.787 4452.838 646.715 4452.591 646.715 4452.292 C 646.715 4452.203 646.715 4452.133 646.733 4452.045 C 646.733 4451.957 646.751 4451.886 646.769 4451.798 C 646.858 4451.34 647.051 4450.97 647.315 4450.723 C 647.579 4450.494 647.861 4450.353 648.161 4450.318 L 648.215 4450.318 C 648.25 4450.318 648.268 4450.3 648.285 4450.3 C 648.479 4450.3 648.62 4450.336 648.725 4450.406 C 648.832 4450.477 648.902 4450.547 648.955 4450.618 C 648.972 4450.653 648.991 4450.671 648.991 4450.688 C 649.009 4450.724 649.026 4450.741 649.026 4450.759 L 649.043 4450.759 L 649.343 4449.366 L 650.1 4449.366 L 649.272 4453.278 L 649.272 4453.278 Z  M 647.544 4451.85 C 647.526 4451.903 647.526 4451.938 647.508 4451.991 L 647.508 4452.15 C 647.508 4452.291 647.544 4452.432 647.614 4452.555 C 647.667 4452.661 647.79 4452.731 647.967 4452.731 C 648.214 4452.731 648.408 4452.643 648.548 4452.467 C 648.689 4452.308 648.778 4452.114 648.83 4451.903 L 648.83 4451.849 C 648.848 4451.832 648.848 4451.814 648.848 4451.796 C 648.848 4451.761 648.865 4451.708 648.865 4451.656 L 648.865 4451.533 C 648.865 4451.373 648.83 4451.233 648.76 4451.127 C 648.689 4451.021 648.566 4450.969 648.371 4450.969 C 648.125 4450.969 647.948 4451.057 647.807 4451.233 C 647.685 4451.427 647.597 4451.621 647.544 4451.85 L 647.544 4451.85 Z  M 651.827 4452.432 L 652.603 4452.432 C 652.502 4452.646 652.358 4452.838 652.18 4452.996 C 652.005 4453.119 651.828 4453.225 651.653 4453.278 L 651.387 4453.331 C 651.298 4453.348 651.228 4453.348 651.141 4453.348 C 650.805 4453.348 650.523 4453.278 650.294 4453.119 C 650.083 4452.96 649.977 4452.697 649.977 4452.308 C 649.977 4452.22 649.977 4452.15 649.995 4452.062 C 649.995 4451.974 650.011 4451.868 650.03 4451.78 C 650.047 4451.692 650.083 4451.604 650.118 4451.48 C 650.171 4451.357 650.223 4451.233 650.312 4451.092 C 650.436 4450.899 650.594 4450.723 650.823 4450.546 C 651.052 4450.387 651.352 4450.299 651.739 4450.299 C 651.775 4450.299 651.81 4450.316 651.864 4450.316 L 651.969 4450.316 C 652.18 4450.352 652.374 4450.44 652.551 4450.598 C 652.726 4450.757 652.815 4451.004 652.815 4451.374 C 652.815 4451.444 652.815 4451.533 652.798 4451.621 C 652.798 4451.709 652.781 4451.797 652.762 4451.903 L 652.726 4452.026 L 650.734 4452.026 L 650.734 4452.327 C 650.752 4452.432 650.788 4452.538 650.858 4452.626 C 650.929 4452.697 651.07 4452.749 651.263 4452.749 L 651.334 4452.749 C 651.352 4452.749 651.369 4452.732 651.386 4452.732 C 651.475 4452.714 651.563 4452.679 651.634 4452.644 C 651.72 4452.596 651.788 4452.522 651.827 4452.432 L 651.827 4452.432 Z  M 652.057 4451.533 L 652.057 4451.48 L 652.057 4451.427 C 652.057 4451.251 652.021 4451.128 651.934 4451.057 C 651.845 4450.987 651.739 4450.934 651.634 4450.934 L 651.599 4450.934 C 651.423 4450.934 651.264 4450.987 651.141 4451.093 C 651.017 4451.199 650.929 4451.339 650.876 4451.534 L 652.057 4451.534 L 652.057 4451.533 Z  M 655.371 4449.365 L 657.098 4449.365 C 657.593 4449.365 657.927 4449.506 658.103 4449.77 C 658.262 4450.035 658.35 4450.317 658.368 4450.634 L 658.368 4450.652 C 658.368 4450.757 658.351 4450.845 658.332 4450.951 C 658.332 4451.039 658.315 4451.145 658.297 4451.233 C 658.28 4451.339 658.244 4451.427 658.209 4451.533 C 658.173 4451.638 658.138 4451.762 658.102 4451.868 C 657.942 4452.23 657.715 4452.559 657.433 4452.837 C 657.133 4453.119 656.728 4453.278 656.235 4453.278 L 654.541 4453.278 L 655.371 4449.365 Z  M 655.494 4452.59 L 656.288 4452.59 C 656.605 4452.608 656.852 4452.467 657.045 4452.221 C 657.222 4451.956 657.363 4451.674 657.434 4451.374 C 657.434 4451.357 657.434 4451.339 657.451 4451.321 L 657.451 4451.286 C 657.468 4451.18 657.486 4451.092 657.504 4451.004 L 657.504 4450.775 C 657.504 4450.51 657.451 4450.334 657.363 4450.228 C 657.257 4450.14 657.152 4450.069 657.027 4450.051 C 656.993 4450.051 656.957 4450.051 656.922 4450.034 L 656.022 4450.034 L 655.494 4452.59 L 655.494 4452.59 Z  M 660.289 4452.432 L 661.083 4452.432 C 660.959 4452.661 660.817 4452.855 660.642 4452.996 C 660.483 4453.119 660.289 4453.225 660.112 4453.278 C 660.025 4453.296 659.937 4453.313 659.867 4453.331 C 659.778 4453.348 659.69 4453.348 659.619 4453.348 C 659.267 4453.348 658.985 4453.278 658.773 4453.119 C 658.544 4452.96 658.439 4452.697 658.439 4452.308 C 658.439 4452.22 658.455 4452.15 658.455 4452.062 C 658.473 4451.974 658.491 4451.868 658.509 4451.78 C 658.526 4451.692 658.544 4451.604 658.597 4451.48 C 658.633 4451.357 658.703 4451.233 658.773 4451.092 C 658.896 4450.899 659.073 4450.723 659.303 4450.546 C 659.531 4450.387 659.83 4450.299 660.201 4450.299 C 660.237 4450.299 660.29 4450.316 660.324 4450.316 L 660.448 4450.316 C 660.66 4450.352 660.853 4450.44 661.03 4450.598 C 661.206 4450.757 661.294 4451.004 661.294 4451.374 C 661.294 4451.444 661.277 4451.533 661.277 4451.621 C 661.259 4451.709 661.242 4451.797 661.224 4451.903 L 661.188 4452.026 L 659.214 4452.026 C 659.196 4452.062 659.196 4452.097 659.196 4452.132 L 659.196 4452.327 C 659.217 4452.437 659.266 4452.54 659.337 4452.626 C 659.407 4452.697 659.548 4452.749 659.742 4452.749 L 659.796 4452.749 C 659.813 4452.749 659.83 4452.732 659.848 4452.732 C 659.939 4452.711 660.027 4452.681 660.112 4452.644 C 660.189 4452.59 660.25 4452.517 660.289 4452.432 L 660.289 4452.432 Z  M 660.519 4451.533 L 660.519 4451.48 L 660.519 4451.427 C 660.519 4451.251 660.483 4451.128 660.395 4451.057 C 660.307 4450.987 660.219 4450.934 660.112 4450.934 L 660.078 4450.934 L 660.06 4450.934 C 659.883 4450.934 659.742 4450.987 659.619 4451.093 C 659.496 4451.199 659.407 4451.339 659.337 4451.534 L 660.519 4451.534 L 660.519 4451.533 Z  M 664.255 4451.268 L 663.515 4451.268 L 663.515 4451.251 L 663.515 4451.233 C 663.51 4451.147 663.486 4451.063 663.445 4450.987 C 663.392 4450.917 663.268 4450.881 663.075 4450.881 C 662.916 4450.881 662.793 4450.917 662.705 4450.951 C 662.634 4451.005 662.582 4451.04 662.564 4451.11 L 662.564 4451.128 C 662.546 4451.145 662.546 4451.163 662.546 4451.163 L 662.546 4451.198 C 662.546 4451.268 662.6 4451.321 662.687 4451.357 C 662.775 4451.392 662.898 4451.427 663.023 4451.463 C 663.075 4451.463 663.128 4451.48 663.18 4451.48 L 663.34 4451.533 C 663.534 4451.569 663.71 4451.639 663.887 4451.745 C 664.045 4451.834 664.133 4451.974 664.133 4452.186 L 664.133 4452.274 C 664.115 4452.309 664.115 4452.327 664.115 4452.363 C 664.045 4452.628 663.94 4452.821 663.781 4452.962 C 663.605 4453.102 663.428 4453.208 663.253 4453.261 C 663.128 4453.297 663.023 4453.314 662.917 4453.332 C 662.812 4453.349 662.705 4453.349 662.635 4453.349 L 662.617 4453.349 C 662.318 4453.349 662.035 4453.296 661.789 4453.173 C 661.542 4453.067 661.419 4452.855 661.419 4452.555 C 661.419 4452.52 661.436 4452.486 661.436 4452.45 C 661.436 4452.432 661.436 4452.397 661.454 4452.361 L 662.23 4452.344 L 662.23 4452.397 C 662.212 4452.414 662.212 4452.432 662.212 4452.45 C 662.212 4452.555 662.265 4452.626 662.335 4452.697 C 662.424 4452.749 662.564 4452.785 662.776 4452.785 C 662.917 4452.785 663.023 4452.768 663.094 4452.714 C 663.182 4452.679 663.235 4452.644 663.27 4452.591 C 663.288 4452.574 663.288 4452.555 663.306 4452.538 C 663.306 4452.503 663.322 4452.503 663.322 4452.486 L 663.322 4452.468 L 663.322 4452.45 C 663.322 4452.362 663.27 4452.309 663.182 4452.274 C 663.067 4452.231 662.949 4452.196 662.829 4452.168 C 662.777 4452.168 662.742 4452.151 662.689 4452.151 C 662.636 4452.133 662.601 4452.133 662.548 4452.116 C 662.358 4452.066 662.175 4451.995 662.002 4451.904 C 661.843 4451.815 661.754 4451.657 661.754 4451.445 C 661.754 4451.428 661.754 4451.392 661.772 4451.357 L 661.772 4451.268 C 661.79 4451.233 661.79 4451.198 661.808 4451.162 C 661.825 4451.11 661.843 4451.074 661.861 4451.039 C 661.95 4450.863 662.09 4450.687 662.302 4450.528 C 662.495 4450.387 662.796 4450.299 663.166 4450.299 L 663.236 4450.299 C 663.271 4450.299 663.289 4450.316 663.324 4450.316 C 663.553 4450.316 663.765 4450.387 663.976 4450.493 C 664.17 4450.581 664.275 4450.792 664.275 4451.091 L 664.275 4451.162 C 664.272 4451.198 664.255 4451.233 664.255 4451.268 L 664.255 4451.268 Z  M 666.353 4452.432 L 667.129 4452.432 C 667.006 4452.661 666.864 4452.855 666.706 4452.996 C 666.53 4453.119 666.354 4453.225 666.16 4453.278 C 666.089 4453.296 666.001 4453.313 665.913 4453.331 C 665.824 4453.348 665.737 4453.348 665.667 4453.348 C 665.331 4453.348 665.049 4453.278 664.821 4453.119 C 664.608 4452.96 664.485 4452.697 664.485 4452.308 C 664.485 4452.22 664.502 4452.15 664.502 4452.062 C 664.52 4451.974 664.539 4451.868 664.555 4451.78 C 664.573 4451.692 664.608 4451.604 664.644 4451.48 C 664.68 4451.357 664.749 4451.233 664.837 4451.092 C 664.944 4450.899 665.119 4450.723 665.349 4450.546 C 665.578 4450.387 665.878 4450.299 666.265 4450.299 C 666.301 4450.299 666.335 4450.316 666.371 4450.316 L 666.494 4450.316 C 666.706 4450.352 666.899 4450.44 667.076 4450.598 C 667.253 4450.757 667.34 4451.004 667.34 4451.374 C 667.34 4451.444 667.34 4451.533 667.324 4451.621 C 667.324 4451.709 667.306 4451.797 667.288 4451.903 L 667.253 4452.026 L 665.26 4452.026 L 665.26 4452.132 C 665.26 4452.15 665.243 4452.185 665.243 4452.221 C 665.243 4452.238 665.26 4452.273 665.26 4452.291 L 665.26 4452.327 C 665.278 4452.432 665.314 4452.538 665.384 4452.626 C 665.454 4452.697 665.596 4452.749 665.789 4452.749 L 665.842 4452.749 C 665.859 4452.749 665.878 4452.732 665.895 4452.732 C 666.001 4452.714 666.089 4452.679 666.16 4452.644 C 666.241 4452.591 666.308 4452.518 666.353 4452.432 L 666.353 4452.432 Z  M 666.582 4451.533 L 666.582 4451.48 L 666.582 4451.427 C 666.582 4451.251 666.53 4451.128 666.442 4451.057 C 666.354 4450.987 666.265 4450.934 666.16 4450.934 L 666.124 4450.934 C 665.931 4450.934 665.79 4450.987 665.667 4451.093 C 665.542 4451.199 665.455 4451.339 665.385 4451.534 L 666.582 4451.534 L 666.582 4451.533 Z  M 670.531 4451.268 L 670.109 4453.278 L 669.35 4453.278 L 669.72 4451.515 C 669.738 4451.498 669.738 4451.462 669.738 4451.427 C 669.756 4451.41 669.756 4451.373 669.756 4451.338 L 669.756 4451.285 C 669.756 4451.197 669.72 4451.126 669.667 4451.056 C 669.614 4450.986 669.508 4450.95 669.349 4450.95 C 669.191 4450.95 669.032 4451.003 668.891 4451.126 C 668.75 4451.232 668.662 4451.391 668.609 4451.621 L 668.257 4453.277 L 667.498 4453.277 L 668.116 4450.368 L 668.838 4450.368 L 668.75 4450.809 L 668.767 4450.809 C 668.785 4450.774 668.803 4450.739 668.837 4450.721 L 668.944 4450.616 C 669.033 4450.527 669.137 4450.456 669.261 4450.404 C 669.385 4450.334 669.544 4450.297 669.737 4450.297 C 669.983 4450.297 670.178 4450.368 670.336 4450.491 C 670.478 4450.615 670.566 4450.791 670.566 4451.038 C 670.566 4451.074 670.566 4451.109 670.548 4451.144 C 670.548 4451.198 670.548 4451.233 670.531 4451.268 L 670.531 4451.268 Z  M 672.152 4453.278 L 671.359 4453.278 L 670.936 4450.369 L 671.782 4450.369 L 671.923 4452.52 L 671.941 4452.52 L 672.999 4450.369 L 673.81 4450.369 L 672.152 4453.278 Z  M 676.56 4451.833 C 676.454 4452.327 676.242 4452.714 675.908 4452.943 C 675.59 4453.19 675.238 4453.331 674.867 4453.348 L 674.762 4453.348 C 674.426 4453.348 674.144 4453.26 673.916 4453.084 C 673.669 4452.908 673.563 4452.626 673.563 4452.237 L 673.563 4452.044 C 673.58 4451.974 673.599 4451.903 673.599 4451.832 C 673.704 4451.338 673.933 4450.951 674.251 4450.704 C 674.556 4450.471 674.925 4450.336 675.309 4450.316 C 675.326 4450.316 675.345 4450.298 675.361 4450.298 L 675.415 4450.298 C 675.75 4450.298 676.032 4450.404 676.261 4450.581 C 676.489 4450.757 676.613 4451.039 676.613 4451.427 C 676.613 4451.479 676.613 4451.55 676.596 4451.621 C 676.595 4451.692 676.577 4451.763 676.56 4451.833 L 676.56 4451.833 Z  M 675.784 4451.833 C 675.784 4451.797 675.802 4451.763 675.802 4451.727 L 675.802 4451.621 C 675.819 4451.604 675.819 4451.585 675.819 4451.568 L 675.819 4451.515 C 675.819 4451.374 675.783 4451.233 675.696 4451.127 C 675.626 4451.004 675.485 4450.951 675.274 4450.951 C 675.044 4450.951 674.867 4451.021 674.744 4451.145 C 674.604 4451.268 674.515 4451.427 674.462 4451.567 C 674.445 4451.621 674.426 4451.656 674.426 4451.708 C 674.407 4451.747 674.395 4451.789 674.391 4451.832 C 674.374 4451.884 674.374 4451.937 674.355 4451.99 L 674.355 4452.149 C 674.355 4452.29 674.391 4452.431 674.462 4452.537 C 674.551 4452.66 674.691 4452.713 674.903 4452.713 C 675.132 4452.713 675.308 4452.643 675.431 4452.519 C 675.547 4452.388 675.643 4452.24 675.713 4452.079 C 675.731 4452.043 675.731 4452.009 675.749 4451.955 C 675.769 4451.917 675.781 4451.876 675.784 4451.833 L 675.784 4451.833 Z  M 677.582 4453.278 L 676.806 4453.278 L 677.635 4449.365 L 678.411 4449.365 L 677.582 4453.278 Z  M 679.857 4453.278 L 679.063 4453.278 L 678.64 4450.369 L 679.487 4450.369 L 679.628 4452.52 L 679.644 4452.52 L 680.702 4450.369 L 681.512 4450.369 L 679.857 4453.278 L 679.857 4453.278 Z  M 682.729 4450.369 L 682.112 4453.278 L 681.355 4453.278 L 681.972 4450.369 L 682.729 4450.369 Z  M 682.8 4450.034 L 682.043 4450.034 L 682.183 4449.33 L 682.959 4449.33 L 682.8 4450.034 Z  M 687.401 4451.268 L 686.978 4453.278 L 686.221 4453.278 L 686.591 4451.515 C 686.608 4451.479 686.608 4451.444 686.627 4451.41 L 686.627 4451.303 C 686.627 4451.18 686.591 4451.074 686.538 4451.021 C 686.472 4450.972 686.391 4450.947 686.309 4450.951 C 686.115 4450.951 685.974 4451.004 685.867 4451.127 C 685.756 4451.244 685.683 4451.391 685.656 4451.55 L 685.286 4453.277 L 684.528 4453.277 L 684.898 4451.532 C 684.898 4451.515 684.916 4451.479 684.916 4451.443 C 684.916 4451.408 684.933 4451.391 684.933 4451.355 L 684.933 4451.302 L 684.933 4451.266 C 684.937 4451.184 684.912 4451.103 684.863 4451.038 C 684.809 4450.984 684.722 4450.949 684.563 4450.949 C 684.386 4450.949 684.263 4451.002 684.157 4451.108 C 684.061 4451.223 684 4451.364 683.981 4451.514 L 683.593 4453.276 L 682.836 4453.276 L 683.452 4450.367 L 684.175 4450.367 L 684.087 4450.808 L 684.104 4450.808 C 684.122 4450.773 684.14 4450.756 684.175 4450.72 C 684.192 4450.685 684.227 4450.667 684.245 4450.631 C 684.334 4450.543 684.438 4450.473 684.563 4450.403 C 684.686 4450.332 684.845 4450.296 685.021 4450.296 C 685.232 4450.296 685.391 4450.349 685.497 4450.42 C 685.585 4450.49 685.673 4450.614 685.743 4450.772 C 685.761 4450.737 685.779 4450.72 685.814 4450.684 C 685.85 4450.649 685.902 4450.614 685.938 4450.578 C 686.008 4450.507 686.113 4450.438 686.22 4450.384 C 686.325 4450.332 686.466 4450.296 686.607 4450.296 C 686.854 4450.296 687.048 4450.366 687.207 4450.49 C 687.365 4450.613 687.436 4450.789 687.436 4451.036 L 687.436 4451.142 C 687.419 4451.198 687.419 4451.233 687.401 4451.268 L 687.401 4451.268 Z  M 689.57 4452.432 L 690.345 4452.432 C 690.223 4452.661 690.081 4452.855 689.923 4452.996 C 689.746 4453.119 689.57 4453.225 689.376 4453.278 C 689.305 4453.296 689.217 4453.313 689.129 4453.331 C 689.041 4453.348 688.953 4453.348 688.882 4453.348 C 688.53 4453.348 688.266 4453.278 688.036 4453.119 C 687.824 4452.96 687.701 4452.697 687.701 4452.308 C 687.701 4452.22 687.719 4452.15 687.719 4452.062 C 687.736 4451.974 687.754 4451.868 687.772 4451.78 C 687.79 4451.692 687.824 4451.604 687.861 4451.48 C 687.895 4451.357 687.966 4451.233 688.054 4451.092 C 688.16 4450.899 688.336 4450.723 688.565 4450.546 C 688.795 4450.387 689.093 4450.299 689.482 4450.299 C 689.518 4450.299 689.552 4450.316 689.588 4450.316 L 689.711 4450.316 C 689.923 4450.352 690.116 4450.44 690.293 4450.598 C 690.468 4450.757 690.557 4451.004 690.557 4451.374 C 690.557 4451.444 690.557 4451.533 690.539 4451.621 C 690.539 4451.709 690.522 4451.797 690.505 4451.903 L 690.468 4452.026 L 688.477 4452.026 L 688.477 4452.132 C 688.459 4452.15 688.459 4452.185 688.459 4452.221 C 688.459 4452.238 688.459 4452.273 688.477 4452.291 L 688.477 4452.327 C 688.477 4452.432 688.529 4452.538 688.6 4452.626 C 688.67 4452.697 688.811 4452.749 689.006 4452.749 L 689.058 4452.749 C 689.076 4452.749 689.093 4452.732 689.111 4452.732 C 689.217 4452.714 689.288 4452.679 689.376 4452.644 C 689.458 4452.591 689.524 4452.518 689.57 4452.432 L 689.57 4452.432 Z  M 689.781 4451.533 C 689.799 4451.516 689.799 4451.498 689.799 4451.48 L 689.799 4451.427 C 689.799 4451.251 689.745 4451.128 689.658 4451.057 C 689.57 4450.987 689.482 4450.934 689.376 4450.934 L 689.323 4450.934 C 689.147 4450.934 689.006 4450.987 688.882 4451.093 C 688.759 4451.199 688.67 4451.339 688.6 4451.534 L 689.781 4451.534 L 689.781 4451.533 L 689.781 4451.533 Z  M 693.747 4451.268 L 693.324 4453.278 L 692.567 4453.278 L 692.937 4451.515 C 692.955 4451.498 692.955 4451.462 692.955 4451.427 C 692.971 4451.41 692.971 4451.373 692.971 4451.338 L 692.971 4451.285 C 692.969 4451.201 692.938 4451.12 692.882 4451.056 C 692.83 4450.986 692.725 4450.95 692.566 4450.95 C 692.389 4450.95 692.247 4451.003 692.107 4451.126 C 691.966 4451.232 691.879 4451.391 691.825 4451.621 L 691.472 4453.277 L 690.715 4453.277 L 691.314 4450.368 L 692.055 4450.368 L 691.966 4450.809 L 691.984 4450.809 C 692.002 4450.774 692.02 4450.739 692.054 4450.721 C 692.09 4450.686 692.107 4450.651 692.161 4450.616 C 692.231 4450.527 692.336 4450.456 692.477 4450.404 C 692.6 4450.334 692.759 4450.297 692.954 4450.297 C 693.2 4450.297 693.394 4450.368 693.553 4450.491 C 693.694 4450.615 693.782 4450.791 693.782 4451.038 C 693.782 4451.074 693.782 4451.109 693.765 4451.144 C 693.765 4451.198 693.765 4451.233 693.747 4451.268 L 693.747 4451.268 Z  M 695.511 4450.369 L 695.968 4450.369 L 695.863 4450.916 L 695.388 4450.916 L 695.052 4452.503 C 695.052 4452.52 695.052 4452.538 695.034 4452.555 L 695.034 4452.609 C 695.034 4452.661 695.052 4452.697 695.088 4452.714 C 695.123 4452.732 695.211 4452.732 695.317 4452.732 L 695.475 4452.732 L 695.352 4453.296 L 695.177 4453.296 C 695.123 4453.313 695.052 4453.313 695 4453.313 L 694.893 4453.313 C 694.629 4453.313 694.453 4453.278 694.365 4453.19 C 694.271 4453.12 694.219 4453.008 694.225 4452.891 L 694.225 4452.803 C 694.242 4452.767 694.242 4452.714 694.26 4452.679 L 694.63 4450.916 L 694.242 4450.916 L 694.348 4450.369 L 694.736 4450.369 L 694.912 4449.593 L 695.67 4449.593 L 695.511 4450.369 L 695.511 4450.369 Z  M 698.948 4451.833 C 698.842 4452.327 698.63 4452.714 698.296 4452.943 C 697.978 4453.19 697.625 4453.331 697.238 4453.348 L 697.184 4453.348 L 697.149 4453.348 C 696.815 4453.348 696.515 4453.26 696.286 4453.084 C 696.056 4452.908 695.933 4452.626 695.933 4452.237 C 695.933 4452.185 695.951 4452.114 695.951 4452.044 C 695.968 4451.974 695.968 4451.903 695.986 4451.832 C 696.092 4451.338 696.304 4450.951 696.638 4450.704 C 696.936 4450.469 697.3 4450.333 697.679 4450.316 C 697.695 4450.316 697.713 4450.298 697.731 4450.298 L 697.784 4450.298 C 698.095 4450.297 698.397 4450.396 698.648 4450.581 C 698.877 4450.757 699 4451.039 699 4451.427 C 699 4451.479 698.982 4451.55 698.982 4451.621 C 698.982 4451.691 698.966 4451.763 698.948 4451.833 L 698.948 4451.833 Z  M 698.172 4451.833 C 698.172 4451.797 698.172 4451.763 698.189 4451.727 L 698.189 4451.621 L 698.189 4451.568 L 698.189 4451.515 C 698.189 4451.374 698.154 4451.233 698.084 4451.127 C 698.013 4451.004 697.872 4450.951 697.661 4450.951 C 697.431 4450.951 697.238 4451.021 697.113 4451.145 C 696.997 4451.266 696.907 4451.41 696.849 4451.567 C 696.831 4451.621 696.814 4451.656 696.796 4451.708 C 696.779 4451.744 696.779 4451.796 696.779 4451.832 C 696.761 4451.884 696.744 4451.937 696.744 4451.99 C 696.744 4452.043 696.726 4452.096 696.726 4452.149 C 696.726 4452.29 696.779 4452.431 696.849 4452.537 C 696.919 4452.66 697.061 4452.713 697.272 4452.713 C 697.501 4452.713 697.678 4452.643 697.819 4452.519 C 697.936 4452.392 698.026 4452.242 698.084 4452.079 C 698.101 4452.043 698.118 4452.009 698.136 4451.955 C 698.155 4451.92 698.155 4451.868 698.172 4451.833 Z  M 600.035 4457.121 L 599.224 4457.121 C 599.224 4457.085 599.207 4457.051 599.207 4456.998 C 599.207 4456.962 599.189 4456.909 599.171 4456.857 C 599.153 4456.751 599.082 4456.663 598.977 4456.575 C 598.889 4456.487 598.731 4456.451 598.501 4456.451 C 598.43 4456.451 598.343 4456.469 598.255 4456.487 C 598.161 4456.506 598.072 4456.542 597.99 4456.593 C 597.831 4456.681 597.691 4456.822 597.549 4457.016 C 597.408 4457.21 597.303 4457.474 597.232 4457.826 C 597.214 4457.897 597.214 4457.985 597.196 4458.056 C 597.196 4458.144 597.179 4458.214 597.179 4458.285 C 597.179 4458.531 597.249 4458.743 597.355 4458.902 C 597.461 4459.078 597.655 4459.148 597.919 4459.148 C 598.148 4459.148 598.342 4459.096 598.536 4458.972 C 598.712 4458.831 598.836 4458.655 598.942 4458.426 L 599.753 4458.408 C 599.605 4458.82 599.342 4459.181 598.995 4459.448 C 598.66 4459.73 598.237 4459.854 597.761 4459.854 C 597.321 4459.854 596.985 4459.73 596.721 4459.501 C 596.457 4459.254 596.333 4458.902 596.333 4458.426 C 596.333 4458.337 596.333 4458.232 596.351 4458.143 C 596.369 4458.037 596.386 4457.914 596.404 4457.809 C 596.544 4457.121 596.827 4456.61 597.25 4456.257 C 597.672 4455.923 598.131 4455.746 598.642 4455.746 C 599.1 4455.746 599.435 4455.852 599.647 4456.045 C 599.841 4456.257 599.982 4456.468 600.017 4456.715 C 600.035 4456.751 600.035 4456.786 600.035 4456.839 C 600.049 4456.878 600.056 4456.92 600.053 4456.962 L 600.053 4457.051 C 600.035 4457.068 600.035 4457.103 600.035 4457.121 L 600.035 4457.121 Z  M 601.428 4456.857 L 600.828 4459.748 L 600.053 4459.748 L 600.67 4456.857 L 601.428 4456.857 Z  M 601.499 4456.504 L 600.741 4456.504 L 600.899 4455.8 L 601.657 4455.8 L 601.499 4456.504 Z  M 603.438 4458.902 L 604.213 4458.902 C 604.11 4459.115 603.967 4459.307 603.791 4459.466 C 603.63 4459.597 603.444 4459.693 603.244 4459.748 C 603.166 4459.783 603.082 4459.801 602.997 4459.801 C 602.916 4459.82 602.834 4459.832 602.751 4459.837 C 602.398 4459.837 602.133 4459.748 601.905 4459.59 C 601.693 4459.449 601.57 4459.167 601.57 4458.779 C 601.57 4458.709 601.587 4458.62 601.587 4458.532 C 601.605 4458.444 601.622 4458.356 601.64 4458.25 C 601.658 4458.18 601.693 4458.074 601.728 4457.951 C 601.764 4457.828 601.834 4457.705 601.922 4457.563 C 602.028 4457.369 602.204 4457.193 602.433 4457.034 C 602.662 4456.876 602.962 4456.788 603.332 4456.788 L 603.456 4456.788 C 603.509 4456.788 603.545 4456.788 603.579 4456.805 C 603.791 4456.841 603.985 4456.928 604.161 4457.07 C 604.337 4457.229 604.426 4457.493 604.426 4457.846 C 604.426 4457.934 604.426 4458.004 604.408 4458.092 C 604.408 4458.181 604.39 4458.286 604.355 4458.374 L 604.337 4458.515 L 602.346 4458.515 L 602.346 4458.603 C 602.328 4458.639 602.328 4458.674 602.328 4458.71 C 602.328 4458.727 602.328 4458.745 602.346 4458.762 L 602.346 4458.815 C 602.346 4458.921 602.398 4459.009 602.469 4459.098 C 602.54 4459.186 602.681 4459.22 602.875 4459.22 L 602.98 4459.22 C 603.086 4459.203 603.156 4459.168 603.244 4459.115 C 603.326 4459.061 603.392 4458.988 603.438 4458.902 Z  M 603.649 4458.02 C 603.666 4458.002 603.666 4457.985 603.666 4457.95 L 603.666 4457.897 C 603.666 4457.72 603.614 4457.598 603.526 4457.527 C 603.444 4457.461 603.347 4457.418 603.244 4457.404 L 603.19 4457.404 C 603.014 4457.404 602.873 4457.457 602.75 4457.563 C 602.627 4457.668 602.538 4457.827 602.468 4458.021 L 603.649 4458.021 L 603.649 4458.02 L 603.649 4458.02 Z  M 607.616 4457.755 L 607.193 4459.747 L 606.435 4459.747 L 606.805 4457.985 C 606.822 4457.967 606.822 4457.949 606.822 4457.914 C 606.84 4457.879 606.84 4457.844 606.84 4457.809 L 606.84 4457.791 L 606.84 4457.755 C 606.834 4457.672 606.804 4457.592 606.752 4457.526 C 606.699 4457.456 606.594 4457.42 606.435 4457.42 C 606.258 4457.42 606.117 4457.491 605.976 4457.597 C 605.834 4457.703 605.746 4457.879 605.694 4458.091 L 605.341 4459.747 L 604.583 4459.747 L 605.183 4456.856 L 605.923 4456.856 L 605.835 4457.279 C 605.871 4457.262 605.888 4457.226 605.923 4457.191 C 605.949 4457.147 605.985 4457.111 606.029 4457.085 C 606.099 4457.015 606.205 4456.944 606.346 4456.873 C 606.47 4456.82 606.628 4456.784 606.822 4456.784 C 607.069 4456.784 607.263 4456.838 607.421 4456.961 C 607.562 4457.084 607.651 4457.26 607.651 4457.508 C 607.651 4457.543 607.651 4457.578 607.633 4457.631 C 607.633 4457.668 607.633 4457.703 607.616 4457.755 L 607.616 4457.755 Z  M 609.378 4456.857 L 609.837 4456.857 L 609.731 4457.404 L 609.255 4457.404 L 608.92 4458.972 C 608.92 4458.99 608.92 4459.025 608.902 4459.042 L 608.902 4459.096 C 608.902 4459.131 608.92 4459.166 608.955 4459.184 C 609.028 4459.21 609.106 4459.222 609.184 4459.219 C 609.22 4459.219 609.237 4459.219 609.272 4459.202 L 609.343 4459.202 L 609.22 4459.766 C 609.167 4459.784 609.114 4459.784 609.044 4459.784 L 608.762 4459.784 C 608.497 4459.784 608.321 4459.748 608.233 4459.677 C 608.144 4459.607 608.092 4459.502 608.092 4459.378 L 608.092 4459.272 C 608.11 4459.237 608.11 4459.202 608.127 4459.167 L 608.497 4457.404 L 608.11 4457.404 L 608.215 4456.857 L 608.603 4456.857 L 608.78 4456.064 L 609.538 4456.064 L 609.378 4456.857 L 609.378 4456.857 Z  M 611.106 4456.857 L 610.489 4459.748 L 609.731 4459.748 L 610.348 4456.857 L 611.106 4456.857 Z  M 611.053 4456.469 L 610.489 4456.469 L 611.177 4455.675 L 612.023 4455.675 L 611.053 4456.469 Z  M 612.111 4459.747 L 611.352 4459.747 L 611.847 4457.403 L 611.423 4457.403 L 611.547 4456.856 L 611.97 4456.856 L 612.005 4456.627 C 612.076 4456.327 612.199 4456.116 612.375 4455.992 C 612.552 4455.869 612.781 4455.799 613.045 4455.799 L 613.292 4455.799 C 613.344 4455.799 613.398 4455.799 613.433 4455.816 L 613.292 4456.416 L 613.08 4456.416 C 612.974 4456.416 612.886 4456.45 612.851 4456.486 C 612.804 4456.541 612.774 4456.608 612.763 4456.679 L 612.763 4456.715 C 612.763 4456.715 612.763 4456.732 612.745 4456.75 L 612.727 4456.856 L 613.221 4456.856 L 613.097 4457.403 L 612.604 4457.403 L 612.111 4459.747 L 612.111 4459.747 Z  M 614.438 4456.857 L 613.821 4459.748 L 613.063 4459.748 L 613.68 4456.857 L 614.438 4456.857 Z  M 614.509 4456.504 L 613.751 4456.504 L 613.891 4455.8 L 614.667 4455.8 L 614.509 4456.504 Z  M 616.5 4458.69 L 617.276 4458.69 C 617.258 4458.76 617.223 4458.831 617.17 4458.92 C 617.132 4459.03 617.072 4459.131 616.994 4459.219 C 616.854 4459.386 616.687 4459.529 616.5 4459.641 C 616.289 4459.765 616.024 4459.835 615.707 4459.835 C 615.284 4459.835 614.984 4459.729 614.843 4459.501 C 614.705 4459.298 614.631 4459.058 614.631 4458.812 L 614.631 4458.601 C 614.649 4458.53 614.667 4458.46 614.667 4458.389 C 614.773 4457.914 614.967 4457.543 615.249 4457.243 C 615.531 4456.926 615.919 4456.785 616.412 4456.785 L 616.571 4456.785 C 616.624 4456.803 616.694 4456.803 616.748 4456.821 C 616.924 4456.874 617.082 4456.961 617.241 4457.085 C 617.382 4457.226 617.471 4457.42 617.453 4457.703 L 617.453 4457.897 L 616.677 4457.897 L 616.677 4457.88 L 616.677 4457.862 L 616.677 4457.809 C 616.677 4457.774 616.677 4457.756 616.659 4457.738 C 616.66 4457.659 616.628 4457.582 616.571 4457.527 C 616.518 4457.457 616.43 4457.421 616.306 4457.421 L 616.271 4457.421 C 616.077 4457.421 615.919 4457.492 615.813 4457.615 C 615.693 4457.733 615.602 4457.878 615.548 4458.037 C 615.531 4458.073 615.531 4458.108 615.512 4458.161 C 615.495 4458.196 615.495 4458.231 615.477 4458.267 L 615.477 4458.319 C 615.459 4458.355 615.459 4458.408 615.441 4458.46 C 615.441 4458.513 615.424 4458.567 615.424 4458.619 L 615.424 4458.708 C 615.424 4458.831 615.459 4458.954 615.512 4459.06 C 615.565 4459.148 615.689 4459.201 615.865 4459.201 C 615.988 4459.201 616.094 4459.183 616.182 4459.112 C 616.27 4459.06 616.323 4458.989 616.376 4458.936 C 616.412 4458.883 616.447 4458.848 616.465 4458.795 C 616.482 4458.76 616.5 4458.725 616.5 4458.707 L 616.5 4458.69 L 616.5 4458.69 L 616.5 4458.69 Z  M 620.678 4458.302 C 620.572 4458.813 620.361 4459.183 620.026 4459.43 C 619.728 4459.665 619.365 4459.801 618.986 4459.819 C 618.969 4459.819 618.95 4459.836 618.933 4459.836 L 618.881 4459.836 C 618.57 4459.837 618.267 4459.738 618.017 4459.554 C 617.788 4459.378 617.665 4459.096 617.665 4458.726 C 617.665 4458.655 617.682 4458.602 617.682 4458.532 C 617.7 4458.461 617.7 4458.373 617.718 4458.303 C 617.824 4457.809 618.035 4457.439 618.37 4457.193 C 618.705 4456.946 619.04 4456.805 619.428 4456.787 L 619.516 4456.787 C 619.85 4456.787 620.151 4456.876 620.38 4457.052 C 620.609 4457.245 620.732 4457.527 620.732 4457.898 C 620.732 4457.968 620.732 4458.021 620.715 4458.092 C 620.711 4458.163 620.698 4458.234 620.678 4458.302 L 620.678 4458.302 Z  M 619.902 4458.302 C 619.902 4458.267 619.92 4458.249 619.92 4458.214 L 619.92 4458.108 C 619.938 4458.091 619.938 4458.072 619.938 4458.055 L 619.938 4458.002 C 619.938 4457.843 619.902 4457.72 619.814 4457.597 C 619.744 4457.491 619.603 4457.42 619.392 4457.42 C 619.162 4457.42 618.986 4457.491 618.845 4457.614 C 618.721 4457.755 618.633 4457.896 618.58 4458.055 C 618.563 4458.091 618.545 4458.143 618.528 4458.178 C 618.528 4458.231 618.51 4458.267 618.51 4458.302 C 618.492 4458.354 618.492 4458.407 618.475 4458.46 L 618.475 4458.637 C 618.475 4458.778 618.51 4458.901 618.58 4459.025 C 618.651 4459.131 618.81 4459.183 619.003 4459.183 C 619.233 4459.183 619.409 4459.131 619.549 4458.99 C 619.673 4458.866 619.761 4458.725 619.814 4458.567 C 619.832 4458.514 619.85 4458.478 619.867 4458.426 C 619.885 4458.39 619.885 4458.355 619.902 4458.302 L 619.902 4458.302 Z  M 624.309 4458.902 L 625.085 4458.902 C 624.982 4459.12 624.832 4459.313 624.645 4459.466 C 624.486 4459.607 624.309 4459.695 624.116 4459.748 C 624.039 4459.783 623.955 4459.801 623.87 4459.801 C 623.781 4459.819 623.693 4459.837 623.622 4459.837 C 623.27 4459.837 622.987 4459.748 622.776 4459.59 C 622.548 4459.449 622.442 4459.167 622.442 4458.779 C 622.442 4458.709 622.46 4458.62 622.46 4458.532 C 622.477 4458.444 622.495 4458.356 622.513 4458.25 C 622.53 4458.18 622.548 4458.074 622.601 4457.951 C 622.636 4457.828 622.707 4457.705 622.777 4457.563 C 622.916 4457.353 623.096 4457.173 623.306 4457.034 C 623.536 4456.876 623.835 4456.788 624.205 4456.788 L 624.329 4456.788 C 624.365 4456.788 624.417 4456.788 624.453 4456.805 C 624.664 4456.841 624.858 4456.928 625.034 4457.07 C 625.211 4457.229 625.299 4457.493 625.299 4457.846 C 625.299 4457.934 625.282 4458.004 625.282 4458.092 C 625.264 4458.181 625.264 4458.286 625.229 4458.374 L 625.211 4458.515 L 623.219 4458.515 C 623.219 4458.532 623.202 4458.568 623.202 4458.603 L 623.202 4458.815 C 623.219 4458.921 623.272 4459.009 623.342 4459.098 C 623.413 4459.186 623.554 4459.22 623.748 4459.22 L 623.853 4459.22 C 623.942 4459.203 624.029 4459.168 624.118 4459.115 C 624.198 4459.061 624.264 4458.987 624.309 4458.902 L 624.309 4458.902 Z  M 624.521 4458.02 L 624.521 4457.95 L 624.521 4457.897 C 624.521 4457.72 624.486 4457.598 624.398 4457.527 C 624.316 4457.461 624.219 4457.419 624.116 4457.404 L 624.08 4457.404 L 624.062 4457.404 C 623.886 4457.404 623.745 4457.457 623.622 4457.563 C 623.499 4457.668 623.41 4457.827 623.34 4458.021 L 624.521 4458.021 L 624.521 4458.02 Z  M 628.681 4459.747 L 627.853 4459.747 L 628.54 4456.539 L 627.359 4456.539 L 627.518 4455.834 L 630.691 4455.834 L 630.551 4456.539 L 629.369 4456.539 L 628.681 4459.747 L 628.681 4459.747 Z  M 631.837 4458.902 L 632.63 4458.902 C 632.527 4459.12 632.376 4459.313 632.189 4459.466 C 632.013 4459.607 631.837 4459.695 631.66 4459.748 C 631.577 4459.783 631.487 4459.801 631.396 4459.801 C 631.308 4459.819 631.238 4459.837 631.149 4459.837 C 630.814 4459.837 630.532 4459.748 630.321 4459.59 C 630.091 4459.449 629.986 4459.167 629.986 4458.779 C 629.986 4458.709 629.986 4458.62 630.003 4458.532 C 630.003 4458.444 630.021 4458.356 630.056 4458.25 C 630.056 4458.18 630.092 4458.074 630.127 4457.951 C 630.179 4457.828 630.232 4457.705 630.321 4457.563 C 630.46 4457.353 630.64 4457.173 630.85 4457.034 C 631.061 4456.876 631.378 4456.788 631.748 4456.788 L 631.872 4456.788 C 631.907 4456.788 631.942 4456.788 631.996 4456.805 C 632.189 4456.841 632.383 4456.928 632.56 4457.07 C 632.736 4457.229 632.824 4457.493 632.824 4457.846 L 632.824 4458.092 C 632.806 4458.181 632.788 4458.286 632.771 4458.374 L 632.736 4458.515 L 630.744 4458.515 L 630.744 4458.815 C 630.758 4458.922 630.807 4459.022 630.885 4459.098 C 630.956 4459.186 631.079 4459.22 631.29 4459.22 L 631.396 4459.22 C 631.484 4459.203 631.572 4459.168 631.66 4459.115 C 631.737 4459.061 631.798 4458.987 631.837 4458.902 L 631.837 4458.902 Z  M 632.066 4458.02 L 632.066 4457.95 L 632.066 4457.897 C 632.066 4457.72 632.031 4457.598 631.942 4457.527 C 631.855 4457.461 631.751 4457.418 631.643 4457.404 L 631.607 4457.404 C 631.431 4457.404 631.272 4457.457 631.148 4457.563 C 631.022 4457.69 630.931 4457.848 630.884 4458.021 L 632.066 4458.021 L 632.066 4458.02 Z  M 634.922 4458.69 L 635.697 4458.69 C 635.68 4458.76 635.645 4458.831 635.609 4458.92 C 635.557 4459.023 635.498 4459.123 635.432 4459.219 C 635.292 4459.386 635.125 4459.529 634.939 4459.641 C 634.727 4459.765 634.463 4459.835 634.128 4459.835 C 633.705 4459.835 633.423 4459.729 633.281 4459.501 C 633.131 4459.303 633.05 4459.061 633.052 4458.812 C 633.052 4458.743 633.07 4458.672 633.07 4458.601 C 633.07 4458.53 633.087 4458.46 633.105 4458.389 C 633.211 4457.914 633.387 4457.543 633.669 4457.243 C 633.951 4456.926 634.339 4456.785 634.832 4456.785 L 635.008 4456.785 C 635.061 4456.803 635.114 4456.803 635.167 4456.821 C 635.361 4456.874 635.519 4456.961 635.661 4457.085 C 635.82 4457.226 635.89 4457.42 635.89 4457.703 L 635.89 4457.791 C 635.89 4457.826 635.89 4457.861 635.873 4457.897 L 635.097 4457.897 L 635.097 4457.88 L 635.097 4457.862 L 635.097 4457.809 L 635.097 4457.738 C 635.084 4457.659 635.047 4457.585 634.991 4457.527 C 634.939 4457.457 634.851 4457.421 634.726 4457.421 L 634.709 4457.421 L 634.692 4457.421 C 634.498 4457.421 634.356 4457.492 634.233 4457.615 C 634.124 4457.738 634.04 4457.882 633.986 4458.037 C 633.968 4458.073 633.951 4458.108 633.934 4458.161 C 633.934 4458.196 633.916 4458.231 633.916 4458.267 C 633.916 4458.267 633.916 4458.285 633.898 4458.285 L 633.898 4458.319 C 633.898 4458.355 633.88 4458.408 633.88 4458.46 C 633.863 4458.513 633.863 4458.567 633.863 4458.619 C 633.863 4458.637 633.845 4458.655 633.845 4458.672 L 633.845 4458.708 C 633.845 4458.831 633.88 4458.954 633.951 4459.06 C 634.003 4459.148 634.127 4459.201 634.303 4459.201 C 634.427 4459.201 634.515 4459.183 634.603 4459.112 C 634.691 4459.06 634.761 4458.989 634.815 4458.936 C 634.845 4458.893 634.869 4458.846 634.885 4458.795 C 634.903 4458.76 634.92 4458.725 634.92 4458.707 L 634.92 4458.69 L 634.922 4458.69 L 634.922 4458.69 Z  M 639.047 4457.755 L 638.624 4459.747 L 637.866 4459.747 L 638.236 4457.985 C 638.254 4457.967 638.254 4457.949 638.254 4457.914 C 638.271 4457.879 638.271 4457.844 638.271 4457.809 L 638.271 4457.791 L 638.271 4457.755 C 638.265 4457.672 638.235 4457.592 638.183 4457.526 C 638.13 4457.456 638.024 4457.42 637.865 4457.42 C 637.707 4457.42 637.548 4457.491 637.407 4457.597 C 637.266 4457.703 637.178 4457.879 637.125 4458.091 L 636.773 4459.747 L 636.015 4459.747 L 636.631 4456.856 L 637.355 4456.856 L 637.266 4457.279 L 637.284 4457.279 C 637.302 4457.262 637.32 4457.226 637.355 4457.191 L 637.46 4457.085 C 637.561 4457.006 637.667 4456.936 637.778 4456.873 C 637.901 4456.82 638.06 4456.784 638.254 4456.784 C 638.5 4456.784 638.694 4456.838 638.853 4456.961 C 639.012 4457.084 639.082 4457.26 639.082 4457.508 C 639.082 4457.543 639.082 4457.578 639.064 4457.631 C 639.064 4457.668 639.064 4457.703 639.047 4457.755 L 639.047 4457.755 Z  M 642.432 4458.302 C 642.326 4458.813 642.114 4459.183 641.797 4459.43 C 641.462 4459.677 641.11 4459.8 640.739 4459.819 C 640.722 4459.819 640.704 4459.836 640.687 4459.836 L 640.634 4459.836 C 640.328 4459.84 640.03 4459.741 639.788 4459.554 C 639.542 4459.378 639.436 4459.096 639.436 4458.726 L 639.436 4458.532 C 639.456 4458.457 639.468 4458.38 639.471 4458.303 C 639.577 4457.809 639.806 4457.439 640.123 4457.193 C 640.458 4456.946 640.811 4456.805 641.181 4456.787 L 641.286 4456.787 C 641.622 4456.787 641.904 4456.876 642.132 4457.052 C 642.362 4457.245 642.485 4457.527 642.485 4457.898 C 642.485 4457.968 642.485 4458.021 642.467 4458.092 C 642.463 4458.163 642.452 4458.234 642.432 4458.302 L 642.432 4458.302 Z  M 641.656 4458.302 C 641.656 4458.267 641.674 4458.249 641.674 4458.214 L 641.674 4458.108 C 641.691 4458.091 641.691 4458.072 641.691 4458.055 L 641.691 4458.002 C 641.691 4457.843 641.656 4457.72 641.567 4457.597 C 641.497 4457.491 641.355 4457.42 641.144 4457.42 C 640.915 4457.42 640.739 4457.491 640.616 4457.614 C 640.475 4457.755 640.386 4457.896 640.334 4458.055 C 640.314 4458.093 640.302 4458.135 640.298 4458.178 C 640.281 4458.231 640.263 4458.267 640.263 4458.302 C 640.245 4458.354 640.245 4458.407 640.228 4458.46 L 640.228 4458.637 C 640.228 4458.778 640.263 4458.901 640.334 4459.025 C 640.422 4459.131 640.563 4459.183 640.774 4459.183 C 641.004 4459.183 641.18 4459.131 641.303 4458.99 C 641.427 4458.866 641.515 4458.725 641.585 4458.567 C 641.603 4458.514 641.603 4458.478 641.621 4458.426 C 641.638 4458.39 641.638 4458.355 641.656 4458.302 L 641.656 4458.302 Z  M 643.436 4459.747 L 642.678 4459.747 L 643.524 4455.834 L 644.282 4455.834 L 643.436 4459.747 Z  M 647.28 4458.302 C 647.173 4458.813 646.962 4459.183 646.628 4459.43 C 646.292 4459.677 645.939 4459.8 645.57 4459.819 C 645.552 4459.819 645.534 4459.836 645.517 4459.836 L 645.463 4459.836 C 645.129 4459.836 644.847 4459.73 644.617 4459.554 C 644.388 4459.378 644.265 4459.096 644.265 4458.726 C 644.265 4458.655 644.265 4458.602 644.283 4458.532 C 644.283 4458.461 644.3 4458.373 644.318 4458.303 C 644.424 4457.809 644.636 4457.439 644.97 4457.193 C 645.288 4456.946 645.64 4456.805 646.01 4456.787 L 646.117 4456.787 C 646.451 4456.787 646.733 4456.876 646.963 4457.052 C 647.21 4457.245 647.315 4457.527 647.315 4457.898 L 647.315 4458.092 C 647.315 4458.162 647.296 4458.232 647.28 4458.302 L 647.28 4458.302 Z  M 646.486 4458.302 C 646.503 4458.267 646.503 4458.249 646.503 4458.214 C 646.52 4458.178 646.52 4458.143 646.52 4458.108 L 646.52 4458.055 L 646.52 4458.002 C 646.52 4457.843 646.486 4457.72 646.415 4457.597 C 646.345 4457.491 646.204 4457.42 645.974 4457.42 C 645.745 4457.42 645.569 4457.491 645.445 4457.614 C 645.321 4457.755 645.233 4457.896 645.163 4458.055 C 645.16 4458.098 645.148 4458.14 645.128 4458.178 C 645.11 4458.231 645.11 4458.267 645.093 4458.302 C 645.093 4458.354 645.075 4458.407 645.075 4458.46 C 645.058 4458.513 645.058 4458.567 645.058 4458.637 C 645.058 4458.778 645.093 4458.901 645.181 4459.025 C 645.251 4459.131 645.392 4459.183 645.603 4459.183 C 645.833 4459.183 646.009 4459.131 646.133 4458.99 C 646.274 4458.866 646.361 4458.725 646.415 4458.567 C 646.432 4458.514 646.45 4458.478 646.468 4458.426 C 646.468 4458.39 646.486 4458.355 646.486 4458.302 L 646.486 4458.302 Z  M 646.416 4456.469 L 645.868 4456.469 L 646.539 4455.675 L 647.385 4455.675 L 646.416 4456.469 Z  M 650.77 4456.857 L 650.188 4459.607 C 650.17 4459.677 650.152 4459.747 650.135 4459.836 C 650.118 4459.906 650.083 4459.995 650.047 4460.082 C 649.958 4460.294 649.782 4460.488 649.553 4460.664 C 649.324 4460.84 648.953 4460.929 648.442 4460.929 C 648.16 4460.929 647.914 4460.876 647.685 4460.752 C 647.473 4460.647 647.35 4460.453 647.35 4460.188 L 647.35 4460.118 C 647.35 4460.101 647.367 4460.082 647.367 4460.065 L 648.195 4460.065 C 648.195 4460.136 648.213 4460.206 648.266 4460.259 C 648.301 4460.329 648.441 4460.347 648.653 4460.347 C 648.865 4460.347 649.023 4460.312 649.148 4460.207 C 649.271 4460.101 649.36 4459.925 649.412 4459.695 L 649.483 4459.343 L 649.465 4459.325 C 649.395 4459.449 649.272 4459.555 649.148 4459.643 C 649.007 4459.731 648.83 4459.766 648.6 4459.766 C 648.318 4459.766 648.089 4459.677 647.896 4459.52 C 647.719 4459.343 647.631 4459.097 647.631 4458.744 L 647.631 4458.532 C 647.648 4458.444 647.666 4458.355 647.684 4458.286 C 647.773 4457.81 647.966 4457.457 648.23 4457.21 C 648.496 4456.963 648.778 4456.822 649.076 4456.787 L 649.201 4456.787 C 649.394 4456.787 649.535 4456.822 649.642 4456.893 C 649.747 4456.946 649.817 4457.033 649.87 4457.104 C 649.888 4457.14 649.906 4457.175 649.906 4457.211 C 649.924 4457.246 649.924 4457.263 649.941 4457.299 L 649.959 4457.281 L 650.047 4456.859 L 650.77 4456.859 L 650.77 4456.857 L 650.77 4456.857 Z  M 648.46 4458.319 C 648.443 4458.337 648.443 4458.373 648.443 4458.39 C 648.426 4458.407 648.426 4458.443 648.426 4458.46 L 648.426 4458.601 C 648.426 4458.742 648.461 4458.866 648.531 4458.971 C 648.602 4459.076 648.708 4459.13 648.884 4459.13 C 649.113 4459.13 649.306 4459.06 649.431 4458.901 C 649.554 4458.742 649.643 4458.583 649.677 4458.407 C 649.695 4458.389 649.695 4458.371 649.695 4458.354 C 649.713 4458.318 649.713 4458.301 649.713 4458.284 C 649.729 4458.248 649.729 4458.195 649.729 4458.16 L 649.729 4458.02 C 649.729 4457.861 649.694 4457.72 649.624 4457.614 C 649.535 4457.491 649.412 4457.438 649.235 4457.438 C 649.201 4457.438 649.165 4457.438 649.13 4457.456 C 649.087 4457.456 649.044 4457.468 649.007 4457.491 C 648.901 4457.526 648.794 4457.614 648.689 4457.755 C 648.583 4457.88 648.496 4458.073 648.46 4458.319 L 648.46 4458.319 Z  M 652.232 4456.857 L 651.616 4459.748 L 650.84 4459.748 L 651.457 4456.857 L 652.232 4456.857 L 652.232 4456.857 Z  M 652.303 4456.504 L 651.527 4456.504 L 651.686 4455.8 L 652.444 4455.8 L 652.303 4456.504 Z  M 654.278 4458.69 L 655.053 4458.69 C 655.036 4458.76 655.001 4458.831 654.965 4458.92 C 654.913 4459.023 654.854 4459.123 654.789 4459.219 C 654.665 4459.36 654.507 4459.518 654.295 4459.641 C 654.082 4459.765 653.819 4459.835 653.484 4459.835 C 653.061 4459.835 652.779 4459.729 652.638 4459.501 C 652.487 4459.303 652.406 4459.061 652.409 4458.812 C 652.409 4458.743 652.426 4458.672 652.426 4458.601 C 652.426 4458.53 652.443 4458.46 652.461 4458.389 C 652.568 4457.914 652.743 4457.543 653.025 4457.243 C 653.307 4456.926 653.696 4456.785 654.189 4456.785 L 654.366 4456.785 C 654.418 4456.803 654.471 4456.803 654.523 4456.821 C 654.718 4456.874 654.876 4456.961 655.017 4457.085 C 655.176 4457.226 655.247 4457.42 655.247 4457.703 L 655.247 4457.791 C 655.247 4457.826 655.247 4457.861 655.23 4457.897 L 654.453 4457.897 L 654.453 4457.88 L 654.453 4457.862 L 654.453 4457.809 L 654.453 4457.738 C 654.44 4457.659 654.404 4457.585 654.348 4457.527 C 654.295 4457.457 654.207 4457.421 654.082 4457.421 L 654.066 4457.421 L 654.048 4457.421 C 653.855 4457.421 653.714 4457.492 653.589 4457.615 C 653.475 4457.734 653.39 4457.879 653.343 4458.037 C 653.326 4458.073 653.307 4458.108 653.291 4458.161 C 653.291 4458.196 653.273 4458.231 653.273 4458.267 L 653.255 4458.285 L 653.255 4458.319 C 653.255 4458.355 653.238 4458.408 653.238 4458.46 C 653.221 4458.513 653.221 4458.567 653.221 4458.619 C 653.221 4458.637 653.203 4458.655 653.203 4458.672 L 653.203 4458.708 C 653.203 4458.831 653.238 4458.954 653.309 4459.06 C 653.362 4459.148 653.485 4459.201 653.661 4459.201 C 653.785 4459.201 653.874 4459.183 653.961 4459.112 C 654.049 4459.06 654.12 4458.989 654.172 4458.936 C 654.203 4458.893 654.227 4458.846 654.243 4458.795 C 654.26 4458.76 654.279 4458.725 654.279 4458.707 L 654.279 4458.69 L 654.278 4458.69 L 654.278 4458.69 Z  M 658.473 4458.302 C 658.368 4458.813 658.138 4459.183 657.821 4459.43 C 657.515 4459.663 657.147 4459.799 656.763 4459.819 C 656.745 4459.819 656.728 4459.836 656.711 4459.836 L 656.658 4459.836 C 656.322 4459.836 656.04 4459.73 655.811 4459.554 C 655.582 4459.378 655.458 4459.096 655.458 4458.726 C 655.458 4458.655 655.458 4458.602 655.476 4458.532 C 655.476 4458.461 655.494 4458.373 655.512 4458.303 C 655.617 4457.809 655.829 4457.439 656.146 4457.193 C 656.481 4456.946 656.833 4456.805 657.204 4456.787 L 657.311 4456.787 C 657.645 4456.787 657.927 4456.876 658.157 4457.052 C 658.403 4457.245 658.509 4457.527 658.509 4457.898 L 658.509 4458.092 C 658.491 4458.162 658.491 4458.232 658.473 4458.302 L 658.473 4458.302 Z  M 657.68 4458.302 C 657.697 4458.267 657.697 4458.249 657.697 4458.214 C 657.715 4458.178 657.715 4458.143 657.715 4458.108 L 657.715 4458.055 L 657.715 4458.002 C 657.715 4457.843 657.679 4457.72 657.609 4457.597 C 657.538 4457.491 657.379 4457.42 657.168 4457.42 C 656.939 4457.42 656.763 4457.491 656.64 4457.614 C 656.517 4457.755 656.41 4457.896 656.358 4458.055 C 656.34 4458.091 656.34 4458.143 656.321 4458.178 C 656.304 4458.231 656.304 4458.267 656.287 4458.302 C 656.287 4458.354 656.269 4458.407 656.269 4458.46 C 656.251 4458.513 656.251 4458.567 656.251 4458.637 C 656.251 4458.778 656.287 4458.901 656.375 4459.025 C 656.444 4459.131 656.587 4459.183 656.798 4459.183 C 657.026 4459.183 657.203 4459.131 657.326 4458.99 C 657.45 4458.866 657.555 4458.725 657.608 4458.567 C 657.626 4458.514 657.644 4458.478 657.662 4458.426 C 657.663 4458.39 657.68 4458.355 657.68 4458.302 L 657.68 4458.302 Z  M 626.037 4433.852 C 626.037 4433.217 626.073 4432.494 626.178 4431.701 C 626.284 4430.908 626.443 4430.097 626.689 4429.303 C 627.271 4427.47 628.346 4425.795 629.915 4424.244 C 631.484 4422.71 633.881 4421.917 637.107 4421.846 C 637.478 4421.846 637.883 4421.864 638.306 4421.882 C 638.747 4421.917 639.17 4421.952 639.611 4422.023 C 640.862 4422.199 642.026 4422.604 643.065 4423.221 C 644.123 4423.855 644.652 4424.878 644.652 4426.288 C 644.652 4426.5 644.634 4426.729 644.617 4426.958 C 644.581 4427.188 644.546 4427.417 644.476 4427.664 L 639.047 4427.646 C 639.064 4427.558 639.082 4427.47 639.082 4427.382 C 639.1 4427.293 639.1 4427.223 639.1 4427.152 C 639.1 4426.553 638.924 4426.13 638.589 4425.848 C 638.254 4425.566 637.884 4425.372 637.496 4425.284 C 637.288 4425.232 637.075 4425.197 636.861 4425.179 C 636.668 4425.161 636.491 4425.161 636.332 4425.161 C 636.192 4425.161 636.05 4425.161 635.891 4425.196 C 635.751 4425.214 635.591 4425.249 635.451 4425.285 C 634.711 4425.514 633.987 4426.078 633.3 4426.96 C 632.612 4427.859 632.066 4429.199 631.678 4430.979 C 631.643 4431.12 631.608 4431.279 631.59 4431.42 C 631.572 4431.561 631.537 4431.72 631.52 4431.86 C 631.485 4432.166 631.45 4432.472 631.414 4432.777 C 631.396 4433.077 631.378 4433.359 631.378 4433.641 C 631.378 4434.575 631.572 4435.369 631.942 4436.039 C 632.312 4436.691 633 4437.025 634.022 4437.025 L 634.287 4437.025 C 634.393 4437.025 634.481 4437.008 634.586 4436.99 C 634.758 4436.989 634.929 4436.971 635.098 4436.937 C 635.256 4436.884 635.45 4436.831 635.644 4436.743 C 636.12 4436.532 636.561 4436.215 636.984 4435.774 C 637.389 4435.333 637.636 4434.84 637.689 4434.276 L 642.925 4434.258 C 642.942 4434.31 642.96 4434.346 642.96 4434.399 C 642.96 4434.435 642.978 4434.469 642.978 4434.522 C 642.978 4434.822 642.872 4435.227 642.643 4435.757 C 642.431 4436.285 642.096 4436.832 641.62 4437.413 C 640.933 4438.242 639.928 4438.982 638.641 4439.652 C 637.355 4440.322 635.697 4440.674 633.652 4440.674 L 633.229 4440.674 C 630.462 4440.674 628.611 4440.093 627.677 4438.965 C 626.742 4437.837 626.213 4436.567 626.072 4435.192 C 626.054 4434.98 626.054 4434.751 626.036 4434.54 L 626.036 4433.852 L 626.037 4433.852 L 626.037 4433.852 Z  M 647.808 4422.411 L 654.983 4422.411 L 658.086 4435.209 L 660.994 4422.411 L 665.666 4422.411 L 661.787 4440.268 L 654.79 4440.268 L 651.475 4426.677 L 648.76 4440.268 L 644.106 4440.268 L 647.808 4422.411 L 647.808 4422.411 Z  M 668.592 4422.411 L 676.93 4422.411 C 677.141 4422.428 677.352 4422.447 677.582 4422.447 C 677.793 4422.464 678.005 4422.481 678.216 4422.481 C 679.448 4422.559 680.65 4422.895 681.742 4423.469 C 682.818 4424.051 683.347 4425.126 683.347 4426.712 C 683.347 4429.322 682.518 4431.208 680.861 4432.353 C 679.187 4433.499 677.229 4434.081 674.992 4434.081 L 671.307 4434.063 L 669.95 4440.269 L 664.89 4440.269 L 668.592 4422.411 L 668.592 4422.411 Z  M 674.815 4430.555 C 675.556 4430.573 676.19 4430.344 676.754 4429.868 C 677.3 4429.41 677.653 4428.899 677.793 4428.334 C 677.83 4428.228 677.847 4428.14 677.864 4428.034 C 677.886 4427.936 677.898 4427.835 677.9 4427.735 C 677.9 4427.294 677.723 4426.924 677.371 4426.589 C 677.018 4426.271 676.419 4426.113 675.573 4426.113 L 673.052 4426.096 L 672.083 4430.555 L 674.815 4430.555 Z  M 683.347 4435.615 C 683.364 4435.262 683.4 4434.909 683.436 4434.521 C 683.488 4434.151 683.559 4433.763 683.647 4433.359 C 683.982 4431.895 684.669 4430.52 685.71 4429.268 C 686.749 4428.017 688.354 4427.365 690.521 4427.276 C 691.173 4427.276 691.756 4427.453 692.267 4427.805 C 692.761 4428.157 693.183 4428.545 693.502 4428.951 C 693.572 4429.039 693.625 4429.109 693.677 4429.18 C 693.731 4429.268 693.784 4429.339 693.818 4429.427 L 694.224 4427.84 L 698.878 4427.84 L 695.176 4445.134 L 690.521 4445.134 L 691.88 4438.524 C 691.544 4438.911 691.244 4439.246 690.962 4439.493 C 690.664 4439.757 690.38 4439.951 690.098 4440.128 C 689.732 4440.32 689.341 4440.462 688.936 4440.55 C 688.548 4440.621 688.107 4440.673 687.613 4440.673 C 686.115 4440.673 685.092 4440.321 684.512 4439.651 C 683.947 4438.963 683.594 4438.205 683.471 4437.377 C 683.416 4437.08 683.381 4436.78 683.365 4436.478 C 683.348 4436.178 683.348 4435.896 683.348 4435.632 L 683.348 4435.615 L 683.347 4435.615 L 683.347 4435.615 Z  M 688.37 4434.257 C 688.335 4434.381 688.318 4434.521 688.283 4434.645 C 688.265 4434.786 688.247 4434.909 688.229 4435.015 C 688.212 4435.156 688.194 4435.279 688.194 4435.403 C 688.176 4435.527 688.176 4435.65 688.176 4435.791 C 688.176 4436.319 688.283 4436.796 688.512 4437.183 C 688.74 4437.589 689.146 4437.782 689.728 4437.782 C 690.39 4437.789 691.03 4437.55 691.526 4437.112 C 692.02 4436.671 692.46 4435.72 692.848 4434.274 C 692.919 4434.045 692.989 4433.78 693.025 4433.481 C 693.06 4433.163 693.095 4432.864 693.095 4432.547 C 693.094 4431.991 692.968 4431.442 692.725 4430.942 C 692.478 4430.448 691.984 4430.202 691.28 4430.202 C 690.645 4430.202 690.116 4430.466 689.729 4430.96 C 689.323 4431.453 689.007 4432.014 688.795 4432.616 C 688.688 4432.916 688.583 4433.216 688.529 4433.498 C 688.465 4433.754 688.412 4434.013 688.37 4434.274 L 688.37 4434.257 L 688.37 4434.257 Z " fill-rule="evenodd" fill="rgb(6,75,136)"/></g></svg>