<?xml version="1.0" encoding="UTF-8" standalone="no"?><!-- Generator: Gravit.io --><svg xmlns="http://www.w3.org/2000/svg" xmlns:xlink="http://www.w3.org/1999/xlink" style="isolation:isolate" viewBox="-31 247 1082 474.46" width="1082pt" height="474.46pt"><g><g><g><g opacity="0.1"><mask id="_mask_dgszpLYAKgdtDpbF62e3itO4Bg894wZW" x="-200%" y="-200%" width="400%" height="400%"><rect x="-200%" y="-200%" width="400%" height="400%" style="fill:white;"/><path d=" M -27 601.777 C 336.222 736.884 480.139 593.945 621.317 681.378 C 720.648 769.002 761.312 646.592 844.829 583.444 C 928.537 544.295 934.411 659.821 1047 568.771" fill="black" stroke="none"/></mask><path d=" M -27 601.777 C 336.222 736.884 480.139 593.945 621.317 681.378 C 720.648 769.002 761.312 646.592 844.829 583.444 C 928.537 544.295 934.411 659.821 1047 568.771" fill="none"/><path d=" M -27 601.777 C 336.222 736.884 480.139 593.945 621.317 681.378 C 720.648 769.002 761.312 646.592 844.829 583.444 C 928.537 544.295 934.411 659.821 1047 568.771" fill="none" mask="url(#_mask_dgszpLYAKgdtDpbF62e3itO4Bg894wZW)" vector-effect="non-scaling-stroke" stroke-width="2" stroke-dasharray="5,5" stroke="rgb(255,255,255)" stroke-linejoin="miter" stroke-linecap="butt" stroke-miterlimit="4"/></g><path d=" M 880.197 583.006 C 880.197 577.753 876.58 571.778 872.194 569.611 C 867.731 567.444 864.191 569.874 864.191 575.127 C 864.191 580.38 867.808 586.355 872.194 588.522 C 876.58 590.755 880.197 588.26 880.197 583.006 Z " fill-rule="evenodd" fill="rgb(255,255,255)"/><path d=" M 693.896 715.825 C 693.896 711.151 690.678 705.836 686.776 703.908 C 682.805 701.98 679.656 704.142 679.656 708.815 C 679.656 713.488 682.874 718.804 686.776 720.732 C 690.678 722.718 693.896 720.498 693.896 715.825 Z " fill-rule="evenodd" fill="rgb(255,255,255)"/><g opacity="0.17"><path d=" M 828.947 247 L 930.159 296.827 L 971 316.933 L 971 555.165 L 828.947 485.232 L 828.947 247 Z " fill="rgb(51,51,51)"/></g><g opacity="0.3"><linearGradient id="_lgradient_4" x1="0" y1="0.5" x2="6.123233995736766e-17" y2="1.5" gradientTransform="matrix(142.13,0,0,308.165,801.168,267.487)" gradientUnits="userSpaceOnUse"><stop offset="2.083333333333333%" stop-opacity="0.26" style="stop-color:rgb(227,212,213)"/><stop offset="97.5%" stop-opacity="1" style="stop-color:rgb(227,212,213)"/></linearGradient><path d=" M 943.297 337.42 L 801.245 267.487 L 801.168 505.719 L 862.575 535.925 L 872.271 552.21 L 881.89 545.512 L 921.075 564.745 L 943.297 575.652 L 943.297 337.42 Z " fill="url(#_lgradient_4)"/></g><g opacity="0.15"><path d=" M 819.79 448.131 L 906.361 490.747 L 906.361 499.678 L 819.79 457.061 L 819.79 448.131 Z " fill="rgb(255,255,255)"/></g><g opacity="0.15"><path d=" M 819.79 465.598 L 924.752 517.276 L 924.752 526.206 L 819.79 474.528 L 819.79 465.598 Z " fill="rgb(255,255,255)"/></g><g opacity="0.15"><path d=" M 819.79 483.065 L 887.815 516.554 L 887.815 525.484 L 819.79 491.995 L 819.79 483.065 Z " fill="rgb(255,255,255)"/></g><g><g opacity="0.17"><path d=" M 648.966 413.442 L 775.338 475.655 L 775.338 687.589 L 648.966 625.376 L 648.966 413.442 Z " fill="rgb(51,51,51)"/></g><g opacity="0.3"><linearGradient id="_lgradient_5" x1="0" y1="0.5" x2="6.123233995736766e-17" y2="1.5" gradientTransform="matrix(126.44,0,0,274.147,624.595,431.785)" gradientUnits="userSpaceOnUse"><stop offset="2.083333333333333%" stop-opacity="0.26" style="stop-color:rgb(227,212,213)"/><stop offset="97.5%" stop-opacity="1" style="stop-color:rgb(227,212,213)"/></linearGradient><path d=" M 751.035 493.998 L 624.663 431.785 L 624.595 643.777 L 679.292 670.648 L 687.849 685.077 L 696.406 679.119 L 751.035 705.932 L 751.035 493.998 Z " fill="url(#_lgradient_5)"/></g><g opacity="0.1"><path d=" M 734.469 560.125 C 734.469 569.18 732.415 577.124 728.581 583.083 C 724.748 589.041 719.203 592.838 712.562 594.123 L 690.725 538.57 L 734.469 560.125 Z " fill="rgb(255,255,255)"/></g><g opacity="0.4"><path d=" M 712.631 594.123 C 704.279 595.7 694.627 593.189 685.043 587.055 C 675.527 580.863 666.628 571.341 659.85 559.95 L 690.793 538.628 L 712.631 594.123 Z " fill="rgb(190,23,36)"/></g><path d=" M 734.469 560.125 C 734.469 551.596 732.689 542.367 729.334 533.195 C 725.911 524.024 721.051 515.203 715.095 507.551 C 709.139 499.898 702.225 493.589 695.106 489.208 C 687.918 484.827 680.73 482.549 674.089 482.549 C 667.449 482.549 661.562 484.768 657.044 489.091 C 652.457 493.414 649.376 499.664 647.939 507.317 C 646.57 514.969 646.912 523.732 648.966 532.903 C 651.019 542.075 654.785 551.304 659.919 559.833 L 690.861 538.511 L 734.469 560.125 Z " fill-rule="evenodd" fill="rgb(255,255,255)"/><g opacity="0.15"><path d=" M 641.162 592.546 L 728.581 635.599 L 728.581 643.543 L 641.162 600.491 L 641.162 592.546 Z " fill="rgb(255,255,255)"/></g><g opacity="0.15"><path d=" M 641.162 608.026 L 731.936 652.773 L 731.936 660.718 L 641.162 615.971 L 641.162 608.026 Z " fill="rgb(255,255,255)"/></g><g opacity="0.15"><path d=" M 641.162 623.565 L 701.678 653.357 L 701.678 661.302 L 641.162 631.51 L 641.162 623.565 Z " fill="rgb(255,255,255)"/></g></g></g></g><g><g opacity="0.4"><path d=" M 925.226 368.373 C 923.182 360.253 920.131 352.261 915.829 350.506 C 906.477 346.692 900.512 387.861 894.006 385.375 C 887.501 382.889 889.597 339 881.261 335.477 C 870.79 331.051 870.653 417.882 857.543 413.779 C 844.432 409.676 841.331 359.516 835.437 357.498 C 829.542 355.481 827.123 391.815 826.125 399.487 C 825.126 407.159 819.953 406.313 819.953 406.313 L 925.497 455.558 L 925.226 368.373 Z " fill="rgb(190,23,36)"/></g><path d=" M 925.224 367.892 L 925.224 367.892 C 910.788 362.256 907.956 430.892 893.106 422.315 C 880.787 415.2 882.714 378.459 871.933 372.33 C 861.151 366.2 856.21 409.495 843.199 404.889 C 836.873 402.649 831.791 393.157 825.998 391.369 C 820.205 389.582 814.249 400.721 812.834 402.992 L 925.497 455.558 L 925.224 367.892 Z " fill="rgb(255,255,255)"/></g></g></svg>