<?xml version="1.0" encoding="UTF-8" standalone="no"?><!-- Generator: Gravit.io --><svg xmlns="http://www.w3.org/2000/svg" xmlns:xlink="http://www.w3.org/1999/xlink" style="isolation:isolate" viewBox="704.581 915.53 253.814 253.814" width="253.814pt" height="253.814pt"><path d="M 709.58 915.53 L 953.39 915.53 C 956.15 915.53 958.39 917.77 958.39 920.53 L 958.39 1164.34 C 958.39 1167.1 956.15 1169.34 953.39 1169.34 L 709.58 1169.34 C 706.82 1169.34 704.58 1167.1 704.58 1164.34 L 704.58 920.53 C 704.58 917.77 706.82 915.53 709.58 915.53 Z" style="stroke:none;fill:#EBEBEB;stroke-miterlimit:10;"/><clipPath id="_clipPath_b11uyMtUjj1DPsEMN3kn6MUc3Sam5CZ9"><path d="M 709.58 915.53 L 953.39 915.53 C 956.15 915.53 958.39 917.77 958.39 920.53 L 958.39 1164.34 C 958.39 1167.1 956.15 1169.34 953.39 1169.34 L 709.58 1169.34 C 706.82 1169.34 704.58 1167.1 704.58 1164.34 L 704.58 920.53 C 704.58 917.77 706.82 915.53 709.58 915.53 Z" style="stroke:none;fill:#EBEBEB;stroke-miterlimit:10;"/></clipPath><g clip-path="url(#_clipPath_b11uyMtUjj1DPsEMN3kn6MUc3Sam5CZ9)"><g><rect x="782.608" y="959.185" width="25.665" height="65.829" transform="matrix(0,1,-1,0,1787.54,196.659)" fill="rgb(145,17,27)"/><rect x="794.483" y="937.793" width="25.665" height="42.079" transform="matrix(0,1,-1,0,1766.148,151.517)" fill="rgb(145,17,27)"/><rect x="776.88" y="986.724" width="25.665" height="77.285" transform="matrix(0,1,-1,0,1815.079,235.654)" fill="rgb(145,17,27)"/><rect x="773.444" y="1016.554" width="25.665" height="84.158" transform="matrix(0,1,-1,0,1844.91,272.357)" fill="rgb(145,17,27)"/><rect x="780.317" y="1056.695" width="25.665" height="70.411" transform="matrix(0,1,-1,0,1885.05,298.751)" fill="rgb(145,17,27)"/><rect x="787.572" y="1097.217" width="25.665" height="55.901" transform="matrix(0,1,-1,0,1925.572,324.763)" fill="rgb(145,17,27)"/></g><g><rect x="855.924" y="959.185" width="25.665" height="65.829" transform="matrix(0,-1,1,0,-123.343,1860.856)" fill="rgb(97,44,71)"/><rect x="844.049" y="937.793" width="25.665" height="42.079" transform="matrix(0,-1,1,0,-101.951,1815.714)" fill="rgb(97,44,71)"/><rect x="861.652" y="986.724" width="25.665" height="77.285" transform="matrix(0,-1,1,0,-150.882,1899.851)" fill="rgb(97,44,71)"/><rect x="865.088" y="1016.554" width="25.665" height="84.158" transform="matrix(0,-1,1,0,-180.713,1936.554)" fill="rgb(97,44,71)"/><rect x="858.215" y="1056.695" width="25.665" height="70.411" transform="matrix(0,-1,1,0,-220.853,1962.948)" fill="rgb(97,44,71)"/><rect x="850.96" y="1097.217" width="25.665" height="55.901" transform="matrix(0,-1,1,0,-261.375,1988.96)" fill="rgb(97,44,71)"/></g></g></svg>