<?xml version="1.0" encoding="UTF-8" standalone="no"?><!-- Generator: Gravit.io --><svg xmlns="http://www.w3.org/2000/svg" xmlns:xlink="http://www.w3.org/1999/xlink" style="isolation:isolate" viewBox="386.488 915.53 253.814 253.814" width="253.814pt" height="253.814pt"><path d="M 391.49 915.53 L 635.3 915.53 C 638.06 915.53 640.3 917.77 640.3 920.53 L 640.3 1164.34 C 640.3 1167.1 638.06 1169.34 635.3 1169.34 L 391.49 1169.34 C 388.73 1169.34 386.49 1167.1 386.49 1164.34 L 386.49 920.53 C 386.49 917.77 388.73 915.53 391.49 915.53 Z" style="stroke:none;fill:#EBEBEB;stroke-miterlimit:10;"/><clipPath id="_clipPath_FBidztCu3eeqGy0UnLCOhwm6uGs0bS1r"><path d="M 391.49 915.53 L 635.3 915.53 C 638.06 915.53 640.3 917.77 640.3 920.53 L 640.3 1164.34 C 640.3 1167.1 638.06 1169.34 635.3 1169.34 L 391.49 1169.34 C 388.73 1169.34 386.49 1167.1 386.49 1164.34 L 386.49 920.53 C 386.49 917.77 388.73 915.53 391.49 915.53 Z" style="stroke:none;fill:#EBEBEB;stroke-miterlimit:10;"/></clipPath><g clip-path="url(#_clipPath_FBidztCu3eeqGy0UnLCOhwm6uGs0bS1r)"><g><g><rect x="411.79" y="1096.818" width="37.952" height="42.056" transform="matrix(1,0,0,1,0,0)" fill="rgb(22,116,185)"/><rect x="411.79" y="1051.017" width="37.952" height="45.801" transform="matrix(1,0,0,1,0,0)" fill="rgb(84,96,139)"/><rect x="411.79" y="1042.437" width="37.952" height="8.58" transform="matrix(1,0,0,1,0,0)" fill="rgb(97,44,71)"/><rect x="411.79" y="946" width="37.952" height="96.437" transform="matrix(1,0,0,1,0,0)" fill="rgb(145,17,27)"/></g><g><rect x="466.455" y="1122.082" width="37.952" height="16.792" transform="matrix(1,0,0,1,0,0)" fill="rgb(22,116,185)"/><rect x="466.455" y="1014.723" width="37.952" height="107.358" transform="matrix(1,0,0,1,0,0)" fill="rgb(84,96,139)"/><rect x="466.455" y="984.863" width="37.952" height="30.079" transform="matrix(1,0,0,1,0,0)" fill="rgb(97,44,71)"/><rect x="466.455" y="946.357" width="37.952" height="38.506" transform="matrix(1,0,0,1,0,0)" fill="rgb(145,17,27)"/></g><g><rect x="522.383" y="1096.818" width="37.952" height="42.056" transform="matrix(1,0,0,1,0,0)" fill="rgb(22,116,185)"/><rect x="522.383" y="1051.017" width="37.952" height="45.801" transform="matrix(1,0,0,1,0,0)" fill="rgb(84,96,139)"/><rect x="522.383" y="1042.437" width="37.952" height="8.58" transform="matrix(1,0,0,1,0,0)" fill="rgb(97,44,71)"/><rect x="522.383" y="946" width="37.952" height="96.437" transform="matrix(1,0,0,1,0,0)" fill="rgb(145,17,27)"/></g><g><rect x="577.048" y="1122.082" width="37.952" height="16.792" transform="matrix(1,0,0,1,0,0)" fill="rgb(22,116,185)"/><rect x="577.048" y="1014.723" width="37.952" height="107.358" transform="matrix(1,0,0,1,0,0)" fill="rgb(84,96,139)"/><rect x="577.048" y="984.863" width="37.952" height="30.079" transform="matrix(1,0,0,1,0,0)" fill="rgb(97,44,71)"/><rect x="577.048" y="946.357" width="37.952" height="38.506" transform="matrix(1,0,0,1,0,0)" fill="rgb(145,17,27)"/></g></g></g></svg>