<?xml version="1.0" encoding="UTF-8" standalone="no"?><!-- Generator: Gravit.io --><svg xmlns="http://www.w3.org/2000/svg" xmlns:xlink="http://www.w3.org/1999/xlink" style="isolation:isolate" viewBox="61.707 1345.061 253.814 253.814" width="253.814pt" height="253.814pt"><g><path d="M 66.71 1345.06 L 310.52 1345.06 C 313.28 1345.06 315.52 1347.3 315.52 1350.06 L 315.52 1593.87 C 315.52 1596.63 313.28 1598.87 310.52 1598.87 L 66.71 1598.87 C 63.95 1598.87 61.71 1596.63 61.71 1593.87 L 61.71 1350.06 C 61.71 1347.3 63.95 1345.06 66.71 1345.06 Z" style="stroke:none;fill:#EBEBEB;stroke-miterlimit:10;"/><path d=" M 124.23 1541.627 L 140.908 1521.826 C 152.32 1531.263 166.956 1536.936 182.906 1536.936 C 219.315 1536.936 248.874 1507.377 248.874 1470.968 L 248.874 1470.968 C 248.874 1434.559 219.315 1405 182.906 1405 C 166.493 1405 151.472 1411.007 139.923 1420.941 L 124.23 1402.31 C 140.085 1388.937 160.561 1380.874 182.906 1380.874 C 233.182 1380.874 274 1421.692 274 1471.968 L 274 1471.968 C 274 1522.244 233.182 1563.062 182.906 1563.062 C 160.561 1563.062 140.085 1554.999 124.23 1541.627 Z " fill-rule="evenodd" fill="rgb(22,116,185)"/><path d=" M 124.23 1402.31 L 139.923 1420.941 C 131.314 1428.346 124.635 1437.933 120.747 1448.84 L 97.515 1440.196 C 103.046 1425.355 112.338 1412.339 124.23 1402.31 Z " fill-rule="evenodd" fill="rgb(250,198,105)"/><path d=" M 97.515 1440.196 L 120.747 1448.84 C 118.281 1455.758 116.938 1463.208 116.938 1470.968 C 116.938 1491.427 126.271 1509.722 140.908 1521.826 L 124.23 1541.627 C 104.411 1524.911 91.813 1499.899 91.813 1471.968 C 91.813 1460.796 93.828 1450.09 97.515 1440.196 Z " fill-rule="evenodd" fill="rgb(145,17,27)"/></g></svg>