<?xml version="1.0" encoding="UTF-8" standalone="no"?><!-- Generator: Gravit.io --><svg xmlns="http://www.w3.org/2000/svg" xmlns:xlink="http://www.w3.org/1999/xlink" style="isolation:isolate" viewBox="58.501 488.313 254.812 253.814" width="254.812pt" height="253.814pt"><g><g><path d="M 64 488.31 L 307.81 488.31 C 310.57 488.31 312.81 490.55 312.81 493.31 L 312.81 737.13 C 312.81 739.89 310.57 742.13 307.81 742.13 L 64 742.13 C 61.24 742.13 59 739.89 59 737.13 L 59 493.31 C 59 490.55 61.24 488.31 64 488.31 Z" style="stroke:none;fill:#EBEBEB;stroke-miterlimit:10;"/><g><line x1="59" y1="572.918" x2="312.814" y2="572.918" vector-effect="non-scaling-stroke" stroke-width="1" stroke="rgb(0,0,0)" stroke-opacity="0.1" stroke-linejoin="miter" stroke-linecap="square" stroke-miterlimit="3"/><line x1="59" y1="657.522" x2="312.814" y2="657.522" vector-effect="non-scaling-stroke" stroke-width="1" stroke="rgb(0,0,0)" stroke-opacity="0.1" stroke-linejoin="miter" stroke-linecap="square" stroke-miterlimit="3"/></g><g><circle vector-effect="non-scaling-stroke" cx="140.92409770701838" cy="567.1601903919071" r="25.36443416370735" fill="rgb(145,17,27)"/><circle vector-effect="non-scaling-stroke" cx="155.39082587079184" cy="706.1579647626438" r="7.9327978060885584" fill="rgb(250,198,105)"/><circle vector-effect="non-scaling-stroke" cx="193.32362367688037" cy="514.9327978060886" r="12.932797806088587" fill="rgb(145,17,27)"/><circle vector-effect="non-scaling-stroke" cx="187.52661405393422" cy="600.5255636572347" r="8.152743687583296" fill="rgb(97,44,71)"/><circle vector-effect="non-scaling-stroke" cx="180.39082587079182" cy="646.6481032151041" r="15.288531870725706" fill="rgb(22,116,185)"/><circle vector-effect="non-scaling-stroke" cx="207.72281872695692" cy="693.5136988272809" r="7.243150586359121" fill="rgb(250,198,105)"/><circle vector-effect="non-scaling-stroke" cx="259.1100339496727" cy="562.4828539193242" r="25.178497921052966" fill="rgb(145,17,27)"/><circle vector-effect="non-scaling-stroke" cx="237.61023524867883" cy="624.2852946358214" r="22.644265935362768" fill="rgb(97,44,71)"/><circle vector-effect="non-scaling-stroke" cx="242.89876711940457" cy="698.8022306980066" r="5.288531870725734" fill="rgb(22,116,185)"/><circle vector-effect="non-scaling-stroke" cx="86.50821384061842" cy="597.078803112262" r="9.780318030107225" fill="rgb(145,17,27)"/><circle vector-effect="non-scaling-stroke" cx="122.59349142268834" cy="642.5136988272809" r="15.288531870725713" fill="rgb(97,44,71)"/><circle vector-effect="non-scaling-stroke" cx="92.0164276812369" cy="711.7114681292741" r="15.28853187072572" fill="rgb(22,116,185)"/><circle vector-effect="non-scaling-stroke" cx="272.1528657054339" cy="659.2852946358212" r="7.644265935362739" fill="rgb(97,44,71)"/></g></g></g></svg>