<?xml version="1.0" encoding="UTF-8" standalone="no"?><!-- Generator: Gravit.io --><svg xmlns="http://www.w3.org/2000/svg" xmlns:xlink="http://www.w3.org/1999/xlink" style="isolation:isolate" viewBox="61.707 915.53 253.814 253.814" width="253.814pt" height="253.814pt"><g><path d="M 66.71 915.53 L 310.52 915.53 C 313.28 915.53 315.52 917.77 315.52 920.53 L 315.52 1164.34 C 315.52 1167.1 313.28 1169.34 310.52 1169.34 L 66.71 1169.34 C 63.95 1169.34 61.71 1167.1 61.71 1164.34 L 61.71 920.53 C 61.71 917.77 63.95 915.53 66.71 915.53 Z" style="stroke:none;fill:#F4C8CC;stroke-miterlimit:10;"/><clipPath id="_clipPath_f7bmgTC4MHASr8IdmmwFXg01bpNZUzyB"><path d="M 66.71 915.53 L 310.52 915.53 C 313.28 915.53 315.52 917.77 315.52 920.53 L 315.52 1164.34 C 315.52 1167.1 313.28 1169.34 310.52 1169.34 L 66.71 1169.34 C 63.95 1169.34 61.71 1167.1 61.71 1164.34 L 61.71 920.53 C 61.71 917.77 63.95 915.53 66.71 915.53 Z" style="stroke:none;fill:#FFFFFF;stroke-miterlimit:10;"/></clipPath><g clip-path="url(#_clipPath_f7bmgTC4MHASr8IdmmwFXg01bpNZUzyB)"><g><g><line x1="119.823" y1="1169.344" x2="119.823" y2="915.53" vector-effect="non-scaling-stroke" stroke-width="1" stroke="rgb(0,0,0)" stroke-opacity="0.1" stroke-linejoin="miter" stroke-linecap="square" stroke-miterlimit="3"/><line x1="188.405" y1="1169.344" x2="188.405" y2="915.53" vector-effect="non-scaling-stroke" stroke-width="1" stroke="rgb(0,0,0)" stroke-opacity="0.1" stroke-linejoin="miter" stroke-linecap="square" stroke-miterlimit="3"/><line x1="257.405" y1="1169.344" x2="257.405" y2="915.53" vector-effect="non-scaling-stroke" stroke-width="1" stroke="rgb(0,0,0)" stroke-opacity="0.1" stroke-linejoin="miter" stroke-linecap="square" stroke-miterlimit="3"/></g><g><g opacity="0.5"><line x1="61.707" y1="1000.135" x2="315.521" y2="1000.135" vector-effect="non-scaling-stroke" stroke-width="1" stroke="rgb(0,0,0)" stroke-opacity="0.1" stroke-linejoin="miter" stroke-linecap="square" stroke-miterlimit="3"/></g><g opacity="0.5"><line x1="61.707" y1="1084.739" x2="315.521" y2="1084.739" vector-effect="non-scaling-stroke" stroke-width="1" stroke="rgb(0,0,0)" stroke-opacity="0.1" stroke-linejoin="miter" stroke-linecap="square" stroke-miterlimit="3"/></g></g><path d=" M 51.707 1004.861 L 120.114 963.174 L 189.114 963.665 L 258.114 929.217 L 325.521 930.536 L 325.521 1173.217 L 51.707 1173.217 L 51.707 1004.861 Z " fill="rgb(145,17,27)" fill-opacity="0.5" vector-effect="non-scaling-stroke" stroke-width="5" stroke="rgb(145,17,27)" stroke-linejoin="miter" stroke-linecap="square" stroke-miterlimit="3"/><path d=" M 51.707 1062.898 L 120.114 1023.788 L 189.114 1035.125 L 258.114 1014.37 L 325.521 1015.689 L 325.521 1173.217 L 51.707 1173.217 L 51.707 1062.898 Z " fill="rgb(97,44,71)" fill-opacity="0.5" vector-effect="non-scaling-stroke" stroke-width="5" stroke="rgb(97,44,71)" stroke-linejoin="miter" stroke-linecap="square" stroke-miterlimit="3"/><path d=" M 51.707 1125.413 L 120.114 1084.033 L 189.114 1106.217 L 258.114 1090.076 L 325.521 1096.241 L 325.521 1173.217 L 51.707 1173.217 L 51.707 1125.413 Z " fill="rgb(22,116,185)" fill-opacity="0.5" vector-effect="non-scaling-stroke" stroke-width="5" stroke="rgb(22,116,185)" stroke-linejoin="miter" stroke-linecap="square" stroke-miterlimit="3"/></g></g></g></svg>