<?xml version="1.0" encoding="UTF-8" standalone="no"?><!-- Generator: Gravit.io --><svg xmlns="http://www.w3.org/2000/svg" xmlns:xlink="http://www.w3.org/1999/xlink" style="isolation:isolate" viewBox="386.488 1345.061 253.814 253.814" width="253.814pt" height="253.814pt"><g><path d="M 391.49 1345.06 L 635.3 1345.06 C 638.06 1345.06 640.3 1347.3 640.3 1350.06 L 640.3 1593.87 C 640.3 1596.63 638.06 1598.87 635.3 1598.87 L 391.49 1598.87 C 388.73 1598.87 386.49 1596.63 386.49 1593.87 L 386.49 1350.06 C 386.49 1347.3 388.73 1345.06 391.49 1345.06 Z" style="stroke:none;fill:#EBEBEB;stroke-miterlimit:10;"/><clipPath id="_clipPath_sDbSDYFyfwGvtkJ7jTwozaeoK4tBZGRe"><path d="M 391.49 1345.06 L 635.3 1345.06 C 638.06 1345.06 640.3 1347.3 640.3 1350.06 L 640.3 1593.87 C 640.3 1596.63 638.06 1598.87 635.3 1598.87 L 391.49 1598.87 C 388.73 1598.87 386.49 1596.63 386.49 1593.87 L 386.49 1350.06 C 386.49 1347.3 388.73 1345.06 391.49 1345.06 Z" style="stroke:none;fill:#FFFFFF;stroke-miterlimit:10;"/></clipPath><g clip-path="url(#_clipPath_sDbSDYFyfwGvtkJ7jTwozaeoK4tBZGRe)"><g><g opacity="0.28"><linearGradient id="_lgradient_1" x1="0.12017226691466433" y1="0.6250000000000022" x2="1.148778455010776" y2="0.6250000000000022" gradientTransform="matrix(132.61,0,0,74.498,495.267,1376.551)" gradientUnits="userSpaceOnUse"><stop offset="0%" stop-opacity="1" style="stop-color:rgb(85,81,129)"/><stop offset="83.33333333333334%" stop-opacity="1" style="stop-color:rgb(215,48,62)"/></linearGradient><mask id="_mask_j3hFHpXjtBI5xWIb2k4w88wwaWRcsJW9"><path d=" M 627.877 1451.049 L 561.572 1451.049 L 495.267 1451.049 C 539.77 1432.795 530.681 1376.551 561.572 1376.551 C 593.104 1376.551 582.714 1431.847 627.877 1451.049 Z " fill="white" stroke="none"/></mask><path d=" M 627.877 1451.049 L 561.572 1451.049 L 495.267 1451.049 C 539.77 1432.795 530.681 1376.551 561.572 1376.551 C 593.104 1376.551 582.714 1431.847 627.877 1451.049 Z " fill="url(#_lgradient_1)"/><path d=" M 627.877 1451.049 L 561.572 1451.049 L 495.267 1451.049 C 539.77 1432.795 530.681 1376.551 561.572 1376.551 C 593.104 1376.551 582.714 1431.847 627.877 1451.049 Z " fill="url(#_lgradient_1)" mask="url(#_mask_j3hFHpXjtBI5xWIb2k4w88wwaWRcsJW9)" vector-effect="non-scaling-stroke" stroke-width="2" stroke="rgb(235,235,235)" stroke-linejoin="miter" stroke-linecap="square" stroke-miterlimit="3"/></g><g style="opacity:0.55;"><linearGradient id="_lgradient_2" x1="0.12017226691466433" y1="0.6250000000000022" x2="1.148778455010776" y2="0.6250000000000022" gradientTransform="matrix(110,0,0,42.735,420,1371.064)" gradientUnits="userSpaceOnUse"><stop offset="0%" stop-opacity="1" style="stop-color:rgb(85,81,129)"/><stop offset="83.33333333333334%" stop-opacity="1" style="stop-color:rgb(215,48,62)"/></linearGradient><mask id="_mask_tj5muqRamTt1eWX1ESENnrKiGRmHOQ6E"><path d=" M 530 1413.8 L 486.877 1413.8 L 420 1413.8 C 464.887 1398.147 459.699 1371.064 478.838 1371.064 C 500.219 1371.064 493.885 1400.407 530 1413.8 Z " fill-rule="evenodd" fill="white" stroke="none"/></mask><path d=" M 530 1413.8 L 486.877 1413.8 L 420 1413.8 C 464.887 1398.147 459.699 1371.064 478.838 1371.064 C 500.219 1371.064 493.885 1400.407 530 1413.8 Z " fill-rule="evenodd" fill="url(#_lgradient_2)"/><path d=" M 530 1413.8 L 486.877 1413.8 L 420 1413.8 C 464.887 1398.147 459.699 1371.064 478.838 1371.064 C 500.219 1371.064 493.885 1400.407 530 1413.8 Z " fill-rule="evenodd" fill="url(#_lgradient_2)" mask="url(#_mask_tj5muqRamTt1eWX1ESENnrKiGRmHOQ6E)" vector-effect="non-scaling-stroke" stroke-width="2" stroke="rgb(235,235,235)" stroke-linejoin="miter" stroke-linecap="square" stroke-miterlimit="3"/><linearGradient id="_lgradient_3" x1="0.12017226691466433" y1="0.6250000000000022" x2="1.148778455010776" y2="0.6250000000000022" gradientTransform="matrix(192.013,0,0,65.649,300.673,1385.4)" gradientUnits="userSpaceOnUse"><stop offset="2.083333333333333%" stop-opacity="1" style="stop-color:rgb(190,23,36)"/><stop offset="100%" stop-opacity="1" style="stop-color:rgb(85,81,129)"/></linearGradient><mask id="_mask_zaiHkGcwtNBZT3Ek5h5rcSPRN8DkniSO"><path d=" M 492.685 1451.049 L 396.679 1451.049 L 300.673 1451.049 C 365.111 1434.963 351.95 1385.4 396.679 1385.4 C 442.336 1385.4 427.292 1434.128 492.685 1451.049 Z " fill="white" stroke="none"/></mask><path d=" M 492.685 1451.049 L 396.679 1451.049 L 300.673 1451.049 C 365.111 1434.963 351.95 1385.4 396.679 1385.4 C 442.336 1385.4 427.292 1434.128 492.685 1451.049 Z " fill="url(#_lgradient_3)"/><path d=" M 492.685 1451.049 L 396.679 1451.049 L 300.673 1451.049 C 365.111 1434.963 351.95 1385.4 396.679 1385.4 C 442.336 1385.4 427.292 1434.128 492.685 1451.049 Z " fill="url(#_lgradient_3)" mask="url(#_mask_zaiHkGcwtNBZT3Ek5h5rcSPRN8DkniSO)" vector-effect="non-scaling-stroke" stroke-width="2" stroke="rgb(235,235,235)" stroke-linejoin="miter" stroke-linecap="square" stroke-miterlimit="3"/></g><linearGradient id="_lgradient_4" x1="0.12017226691466433" y1="0.6250000000000022" x2="1.148778455010776" y2="0.6250000000000022" gradientTransform="matrix(234.145,0,0,68.219,429.97,1422.3)" gradientUnits="userSpaceOnUse"><stop offset="0%" stop-opacity="1" style="stop-color:rgb(85,81,129)"/><stop offset="83.33333333333334%" stop-opacity="1" style="stop-color:rgb(215,48,62)"/></linearGradient><mask id="_mask_aC4aGpTMABMj2UXRX0gViKygzW36M4T4"><path d=" M 539.179 1463.256 C 522.937 1443.081 517.808 1422.3 502.401 1422.3 C 481.673 1422.3 478.584 1470.297 429.97 1490.519 L 502.401 1490.519 L 555.469 1490.519 L 574.831 1490.519 L 574.831 1490.519 L 591.685 1490.519 L 664.115 1490.519 C 614.78 1479.883 614.842 1456.409 591.685 1456.409 C 572.655 1456.409 566.42 1484.273 539.179 1463.256 Z " fill-rule="evenodd" fill="white" stroke="none"/></mask><path d=" M 539.179 1463.256 C 522.937 1443.081 517.808 1422.3 502.401 1422.3 C 481.673 1422.3 478.584 1470.297 429.97 1490.519 L 502.401 1490.519 L 555.469 1490.519 L 574.831 1490.519 L 574.831 1490.519 L 591.685 1490.519 L 664.115 1490.519 C 614.78 1479.883 614.842 1456.409 591.685 1456.409 C 572.655 1456.409 566.42 1484.273 539.179 1463.256 Z " fill-rule="evenodd" fill="url(#_lgradient_4)"/><path d=" M 539.179 1463.256 C 522.937 1443.081 517.808 1422.3 502.401 1422.3 C 481.673 1422.3 478.584 1470.297 429.97 1490.519 L 502.401 1490.519 L 555.469 1490.519 L 574.831 1490.519 L 574.831 1490.519 L 591.685 1490.519 L 664.115 1490.519 C 614.78 1479.883 614.842 1456.409 591.685 1456.409 C 572.655 1456.409 566.42 1484.273 539.179 1463.256 Z " fill-rule="evenodd" fill="url(#_lgradient_4)" mask="url(#_mask_aC4aGpTMABMj2UXRX0gViKygzW36M4T4)" vector-effect="non-scaling-stroke" stroke-width="2" stroke="rgb(235,235,235)" stroke-linejoin="miter" stroke-linecap="square" stroke-miterlimit="3"/><linearGradient id="_lgradient_5" x1="0.12017226691466433" y1="0.6250000000000022" x2="1.148778455010776" y2="0.6250000000000022" gradientTransform="matrix(177.773,0,0,47.385,369.27,1522)" gradientUnits="userSpaceOnUse"><stop offset="0%" stop-opacity="1" style="stop-color:rgb(85,81,129)"/><stop offset="83.33333333333334%" stop-opacity="1" style="stop-color:rgb(215,48,62)"/></linearGradient><mask id="_mask_6TTZPlyOUQIFCfHBZSdMetjJ9yNG1n74"><path d=" M 547.043 1569.385 L 458.156 1569.385 L 369.27 1569.385 C 428.929 1547.665 432.719 1522 458.156 1522 C 486.575 1522 486.499 1546.538 547.043 1569.385 Z " fill-rule="evenodd" fill="white" stroke="none"/></mask><path d=" M 547.043 1569.385 L 458.156 1569.385 L 369.27 1569.385 C 428.929 1547.665 432.719 1522 458.156 1522 C 486.575 1522 486.499 1546.538 547.043 1569.385 Z " fill-rule="evenodd" fill="url(#_lgradient_5)"/><path d=" M 547.043 1569.385 L 458.156 1569.385 L 369.27 1569.385 C 428.929 1547.665 432.719 1522 458.156 1522 C 486.575 1522 486.499 1546.538 547.043 1569.385 Z " fill-rule="evenodd" fill="url(#_lgradient_5)" mask="url(#_mask_6TTZPlyOUQIFCfHBZSdMetjJ9yNG1n74)" vector-effect="non-scaling-stroke" stroke-width="2" stroke="rgb(235,235,235)" stroke-linejoin="miter" stroke-linecap="square" stroke-miterlimit="3"/><linearGradient id="_lgradient_6" x1="0.12017226691466433" y1="0.6250000000000022" x2="1.148778455010776" y2="0.6250000000000022" gradientTransform="matrix(168.611,0,0,51.142,320,1456.409)" gradientUnits="userSpaceOnUse"><stop offset="0%" stop-opacity="1" style="stop-color:rgb(85,81,129)"/><stop offset="83.33333333333334%" stop-opacity="1" style="stop-color:rgb(215,48,62)"/></linearGradient><mask id="_mask_iyDAXHofxNYgBZE9C9seJcqaWvcWsLMC"><path d=" M 488.611 1507.551 L 404.306 1507.551 L 320 1507.551 C 376.585 1484.777 365.028 1456.409 404.306 1456.409 C 444.398 1456.409 431.188 1483.595 488.611 1507.551 Z " fill="white" stroke="none"/></mask><path d=" M 488.611 1507.551 L 404.306 1507.551 L 320 1507.551 C 376.585 1484.777 365.028 1456.409 404.306 1456.409 C 444.398 1456.409 431.188 1483.595 488.611 1507.551 Z " fill="url(#_lgradient_6)"/><path d=" M 488.611 1507.551 L 404.306 1507.551 L 320 1507.551 C 376.585 1484.777 365.028 1456.409 404.306 1456.409 C 444.398 1456.409 431.188 1483.595 488.611 1507.551 Z " fill="url(#_lgradient_6)" mask="url(#_mask_iyDAXHofxNYgBZE9C9seJcqaWvcWsLMC)" vector-effect="non-scaling-stroke" stroke-width="2" stroke="rgb(235,235,235)" stroke-linejoin="miter" stroke-linecap="square" stroke-miterlimit="3"/><g opacity="0.64"><linearGradient id="_lgradient_7" x1="0.12017226691466433" y1="0.6250000000000022" x2="1.148778455010776" y2="0.6250000000000022" gradientTransform="matrix(157.758,0,0,47.545,495.267,1491.84)" gradientUnits="userSpaceOnUse"><stop offset="0%" stop-opacity="1" style="stop-color:rgb(85,81,129)"/><stop offset="83.33333333333334%" stop-opacity="1" style="stop-color:rgb(215,48,62)"/></linearGradient><mask id="_mask_fR23WBQ5ruO0IlceNx9bMvSHNE2D8UDB"><path d=" M 653.025 1539.385 L 574.146 1539.385 L 495.267 1539.385 C 539.187 1525.766 533.45 1489.933 559.616 1491.919 C 586.855 1493.987 575.505 1520.469 653.025 1539.385 Z " fill="white" stroke="none"/></mask><path d=" M 653.025 1539.385 L 574.146 1539.385 L 495.267 1539.385 C 539.187 1525.766 533.45 1489.933 559.616 1491.919 C 586.855 1493.987 575.505 1520.469 653.025 1539.385 Z " fill="url(#_lgradient_7)"/><path d=" M 653.025 1539.385 L 574.146 1539.385 L 495.267 1539.385 C 539.187 1525.766 533.45 1489.933 559.616 1491.919 C 586.855 1493.987 575.505 1520.469 653.025 1539.385 Z " fill="url(#_lgradient_7)" mask="url(#_mask_fR23WBQ5ruO0IlceNx9bMvSHNE2D8UDB)" vector-effect="non-scaling-stroke" stroke-width="2" stroke="rgb(235,235,235)" stroke-linejoin="miter" stroke-linecap="square" stroke-miterlimit="3"/></g></g></g></g></svg>